<svg width="600" height="800" viewBox="0 0 600 800" xmlns="http://www.w3.org/2000/svg" role="img" aria-labelledby="title desc">
  <title id="title">Modern Intro Sidebar Resume Preview</title>
  <desc id="desc">Illustration of a resume with a strong left intro column and boxed sidebar on the right.</desc>
  <rect x="0" y="0" width="600" height="800" fill="#e5e7eb"/>
  <rect x="70" y="60" width="460" height="680" rx="20" fill="#ffffff"/>
  <line x1="320" y1="120" x2="320" y2="700" stroke="#111827" stroke-width="2"/>
  <rect x="100" y="110" width="80" height="18" rx="3" fill="#ffffff" stroke="#111827" stroke-width="2"/>
  <rect x="100" y="160" width="160" height="18" rx="3" fill="#111827"/>
  <rect x="100" y="190" width="220" height="8" rx="4" fill="#9ca3af"/>
  <rect x="100" y="210" width="210" height="8" rx="4" fill="#d1d5db"/>
  <rect x="100" y="260" width="200" height="8" rx="4" fill="#111827"/>
  <rect x="100" y="280" width="250" height="6" rx="3" fill="#d1d5db"/>
  <rect x="100" y="292" width="240" height="6" rx="3" fill="#e5e7eb"/>
  <rect x="100" y="304" width="230" height="6" rx="3" fill="#e5e7eb"/>

  <rect x="340" y="150" width="120" height="26" rx="2" fill="#ffffff" stroke="#111827" stroke-width="2"/>
  <rect x="340" y="210" width="120" height="26" rx="2" fill="#ffffff" stroke="#111827" stroke-width="2"/>
  <rect x="340" y="270" width="120" height="26" rx="2" fill="#ffffff" stroke="#111827" stroke-width="2"/>
  <rect x="340" y="330" width="120" height="26" rx="2" fill="#ffffff" stroke="#111827" stroke-width="2"/>
  <rect x="340" y="390" width="120" height="26" rx="2" fill="#ffffff" stroke="#111827" stroke-width="2"/>
</svg>
