<svg width="160" height="200" viewBox="0 0 160 200" xmlns="http://www.w3.org/2000/svg" role="img" aria-labelledby="title desc">
  <title id="title">Modern Intro Sidebar Thumbnail</title>
  <desc id="desc">Small preview of a resume with left intro and right sidebar.</desc>
  <rect x="4" y="4" width="152" height="192" rx="14" fill="#ffffff" stroke="#d1d5db"/>
  <line x1="85" y1="30" x2="85" y2="178" stroke="#111827" stroke-width="1.5"/>
  <rect x="18" y="30" width="36" height="8" rx="3" fill="#ffffff" stroke="#111827" stroke-width="1"/>
  <rect x="18" y="48" width="54" height="6" rx="3" fill="#111827"/>
  <rect x="18" y="62" width="72" height="4" rx="2" fill="#d1d5db"/>
  <rect x="18" y="72" width="68" height="4" rx="2" fill="#e5e7eb"/>
  <rect x="18" y="96" width="48" height="5" rx="2.5" fill="#111827"/>
  <rect x="18" y="108" width="72" height="4" rx="2" fill="#d1d5db"/>
  <rect x="18" y="118" width="68" height="4" rx="2" fill="#e5e7eb"/>

  <rect x="96" y="46" width="46" height="14" rx="2" fill="#ffffff" stroke="#111827" stroke-width="1"/>
  <rect x="96" y="72" width="46" height="14" rx="2" fill="#ffffff" stroke="#111827" stroke-width="1"/>
  <rect x="96" y="98" width="46" height="14" rx="2" fill="#ffffff" stroke="#111827" stroke-width="1"/>
  <rect x="96" y="124" width="46" height="14" rx="2" fill="#ffffff" stroke="#111827" stroke-width="1"/>
</svg>
