<svg xmlns="http://www.w3.org/2000/svg" width="600" height="780" viewBox="0 0 600 780">
  <rect width="600" height="780" fill="#F7F8FA"/>
  <rect x="28" y="28" width="72" height="72" rx="10" fill="#E6ECF2" stroke="#D8DEE5" stroke-width="0.8"/>
  <text x="116" y="52" font-family="Georgia,serif" font-size="18" font-weight="700" fill="#252525">ALEXANDER CHEN</text>
  <text x="116" y="72" font-family="Arial,sans-serif" font-size="8" fill="#6B7280" letter-spacing="1.2">PRINCIPAL PRODUCT DESIGNER | CREATIVE DIRECTOR</text>
  <line x1="28" y1="112" x2="572" y2="112" stroke="#D8DEE5" stroke-width="0.8"/>
  <circle cx="44" cy="128" r="3" fill="#7C93A8"/>
  <circle cx="160" cy="128" r="3" fill="#7C93A8"/>
  <circle cx="290" cy="128" r="3" fill="#7C93A8"/>
  <circle cx="420" cy="128" r="3" fill="#7C93A8"/>
  <rect x="28" y="148" width="376" height="6" rx="2" fill="#7C93A8"/>
  <rect x="28" y="154" width="376" height="56" rx="10" fill="#FFFFFF" stroke="#D8DEE5" stroke-width="0.6"/>
  <line x1="44" y1="230" x2="44" y2="340" stroke="#7C93A8" stroke-width="2" opacity="0.55"/>
  <text x="60" y="242" font-family="Arial,sans-serif" font-size="8" font-weight="700" fill="#252525" letter-spacing="1.4">PROFESSIONAL EXPERIENCE</text>
  <text x="60" y="262" font-family="Arial,sans-serif" font-size="9" font-weight="700" fill="#252525">Senior Product Designer | Acme Corp</text>
  <text x="60" y="276" font-family="Arial,sans-serif" font-size="7.5" fill="#6B7280">San Francisco, CA | 2020  Present</text>
  <rect x="60" y="286" width="320" height="2" fill="#555555" opacity="0.25"/>
  <rect x="60" y="292" width="300" height="2" fill="#555555" opacity="0.25"/>
  <rect x="28" y="352" width="376" height="44" rx="8" fill="#F4EFE8" stroke="#D8DEE5" stroke-width="0.5"/>
  <rect x="420" y="148" width="152" height="248" fill="none"/>
  <text x="428" y="168" font-family="Arial,sans-serif" font-size="8" font-weight="700" fill="#252525" letter-spacing="1.4">CORE COMPETENCIES</text>
  <line x1="428" y1="176" x2="572" y2="176" stroke="#7C93A8" stroke-width="1.2" opacity="0.45"/>
  <rect x="428" y="188" width="58" height="18" rx="9" fill="#E6ECF2"/>
  <rect x="492" y="188" width="54" height="18" rx="9" fill="#F4EFE8"/>
  <rect x="428" y="212" width="62" height="18" rx="9" fill="#DDEEDB"/>
  <rect x="496" y="212" width="50" height="18" rx="9" fill="#E8E2F3"/>
  <text x="428" y="252" font-family="Arial,sans-serif" font-size="8" font-weight="700" fill="#252525" letter-spacing="1.4">EDUCATION</text>
  <line x1="428" y1="260" x2="572" y2="260" stroke="#7C93A8" stroke-width="1.2" opacity="0.45"/>
  <text x="428" y="278" font-family="Arial,sans-serif" font-size="8" font-weight="700" fill="#252525">MFA Design</text>
  <text x="428" y="292" font-family="Arial,sans-serif" font-size="7.5" fill="#555555">Rhode Island School of Design</text>
  <rect x="428" y="308" width="144" height="36" rx="6" fill="#FFFFFF" stroke="#D8DEE5" stroke-width="0.6"/>
  <rect x="428" y="352" width="144" height="44" rx="8" fill="#E6ECF2" stroke="#D8DEE5" stroke-width="0.5"/>
  <text x="300" y="760" text-anchor="middle" font-family="Georgia,serif" font-size="14" font-weight="600" fill="#7C93A8" letter-spacing="2.4">EXECUTIVE SLATE</text>
</svg>
