<svg xmlns="http://www.w3.org/2000/svg" width="300" height="400" viewBox="0 0 300 400">
  <rect width="300" height="400" fill="#F0F4F8"/>
  <rect x="14" y="14" width="272" height="52" rx="8" fill="url(#slateGrad)"/>
  <defs>
    <linearGradient id="slateGrad" x1="0" y1="0" x2="1" y2="1">
      <stop offset="0%" stop-color="#2F4558"/>
      <stop offset="50%" stop-color="#3D5670"/>
      <stop offset="100%" stop-color="#4A6882"/>
    </linearGradient>
  </defs>
  <rect x="22" y="22" width="36" height="36" rx="6" fill="#EDF4FA" stroke="rgba(255,255,255,0.35)" stroke-width="0.6"/>
  <text x="64" y="32" font-family="Georgia,serif" font-size="8" font-weight="700" fill="#FFFFFF">ALEXANDER</text>
  <text x="64" y="41" font-family="Georgia,serif" font-size="8" font-weight="700" fill="#FFFFFF">CHEN</text>
  <text x="64" y="48" font-family="Arial,sans-serif" font-size="2" fill="rgba(220,230,240,0.92)" letter-spacing="0.3">PRINCIPAL PRODUCT DESIGNER</text>
  <line x1="22" y1="54" x2="278" y2="54" stroke="rgba(255,255,255,0.28)" stroke-width="0.4"/>
  <circle cx="30" cy="60" r="1.2" fill="#D0DCE8"/>
  <circle cx="88" cy="60" r="1.2" fill="#D0DCE8"/>
  <rect x="14" y="74" width="188" height="28" rx="6" fill="#FFFFFF" stroke="#B0BEC8" stroke-width="0.3"/>
  <rect x="14" y="74" width="4" height="28" rx="2" fill="#5B7594"/>
  <line x1="22" y1="110" x2="22" y2="166" stroke="#5B7594" stroke-width="1.2" opacity="0.85"/>
  <text x="30" y="116" font-family="Arial,sans-serif" font-size="2.4" font-weight="700" fill="#4A6882" letter-spacing="0.4">EXPERIENCE</text>
  <rect x="30" y="122" width="80" height="2" fill="#1E2A38" opacity="0.8"/>
  <rect x="30" y="128" width="50" height="1.5" fill="#5A6878"/>
  <rect x="14" y="174" width="188" height="22" rx="5" fill="#FFFFFF" stroke="#B0BEC8" stroke-width="0.3"/>
  <rect x="14" y="174" width="3" height="22" rx="1" fill="#5B7594"/>
  <rect x="208" y="74" width="78" height="122" rx="6" fill="rgba(237,244,250,0.65)" stroke="#B0BEC8" stroke-width="0.3"/>
  <text x="214" y="86" font-family="Arial,sans-serif" font-size="2.4" font-weight="700" fill="#4A6882" letter-spacing="0.4">COMPETENCIES</text>
  <line x1="214" y1="90" x2="286" y2="90" stroke="#5B7594" stroke-width="0.8" opacity="0.55"/>
  <rect x="214" y="96" width="30" height="9" rx="4.5" fill="#EDF4FA" stroke="rgba(74,104,130,0.18)" stroke-width="0.3"/>
  <rect x="248" y="96" width="28" height="9" rx="4.5" fill="#E4EEF8" stroke="rgba(74,104,130,0.18)" stroke-width="0.3"/>
  <rect x="214" y="108" width="32" height="9" rx="4.5" fill="#D8E6F2" stroke="rgba(74,104,130,0.18)" stroke-width="0.3"/>
  <rect x="214" y="126" width="72" height="18" rx="4" fill="#FFFFFF" stroke="#B0BEC8" stroke-width="0.3"/>
  <rect x="214" y="150" width="72" height="24" rx="5" fill="#FFFFFF" stroke="#B0BEC8" stroke-width="0.3"/>
  <rect x="214" y="150" width="3" height="24" rx="1" fill="#5B7594"/>
  <text x="150" y="388" text-anchor="middle" font-family="Georgia,serif" font-size="7" font-weight="600" fill="#4A6882" letter-spacing="1.2">EXECUTIVE SLATE</text>
</svg>
