<svg width="800" height="1000" xmlns="http://www.w3.org/2000/svg">
  <defs>
    <linearGradient id="hdr" x1="0%" y1="0%" x2="100%" y2="0%">
      <stop offset="0%" stop-color="#3a4249"/>
      <stop offset="100%" stop-color="#2c3238"/>
    </linearGradient>
  </defs>
  <rect width="800" height="1000" fill="#f7f4ee"/>
  <rect x="48" y="40" width="704" height="160" fill="url(#hdr)"/>
  <polygon points="520,40 752,40 752,200 420,200" fill="#b8874a" opacity="0.12"/>
  <polygon points="580,120 720,40 752,80 640,200" fill="#ffffff" opacity="0.06"/>
  <rect x="72" y="68" width="100" height="120" rx="4" fill="#4a5259" stroke="#b8874a" stroke-width="3"/>
  <text x="200" y="108" font-family="Georgia,serif" font-size="34" font-weight="600" fill="#fff" letter-spacing="1">ADRIENNE MOREAU</text>
  <text x="200" y="142" font-family="Arial,sans-serif" font-size="11" fill="#b8874a" letter-spacing="3">CHIEF STRATEGY OFFICER</text>
  <circle cx="680" cy="72" r="7" fill="none" stroke="#b8874a" stroke-width="1.5"/>
  <circle cx="680" cy="100" r="7" fill="none" stroke="#b8874a" stroke-width="1.5"/>
  <line x1="48" y1="204" x2="752" y2="204" stroke="#ddd6cb"/>
  <rect x="48" y="208" width="248" height="752" fill="#fdfbf7"/>
  <rect x="296" y="208" width="456" height="752" fill="#fdfbf7"/>
  <line x1="296" y1="208" x2="296" y2="960" stroke="#ddd6cb"/>
  <text x="72" y="248" font-family="Georgia,serif" font-size="14" fill="#2c3238" letter-spacing="1">EXECUTIVE SUMMARY</text>
  <line x1="72" y1="256" x2="200" y2="256" stroke="#b8874a" stroke-width="2"/>
  <text x="72" y="340" font-family="Georgia,serif" font-size="14" fill="#2c3238">SKILLS &amp; EXPERTISE</text>
  <rect x="72" y="360" width="180" height="8" rx="2" fill="#e4ddd2"/>
  <rect x="72" y="360" width="160" height="8" rx="2" fill="#2c3238"/>
  <rect x="72" y="380" width="180" height="8" rx="2" fill="#e4ddd2"/>
  <rect x="72" y="380" width="140" height="8" rx="2" fill="#b8874a"/>
  <text x="320" y="248" font-family="Georgia,serif" font-size="14" fill="#2c3238">EXPERIENCE</text>
  <line x1="336" y1="280" x2="336" y2="480" stroke="#b8874a" stroke-width="2"/>
  <circle cx="336" cy="292" r="8" fill="#b8874a" stroke="#fdfbf7" stroke-width="2"/>
  <circle cx="336" cy="380" r="8" fill="#b8874a" stroke="#fdfbf7" stroke-width="2"/>
  <polygon points="600,800 752,920 752,960 520,960" fill="#b8874a" opacity="0.08"/>
  <polygon points="680,860 752,800 752,960 620,960" fill="#2c3238" opacity="0.04"/>
  <text x="400" y="960" text-anchor="middle" font-family="Georgia,serif" font-size="22" font-weight="600" fill="#2c3238">Executive Graphite</text>
</svg>
