<svg width="800" height="1000" xmlns="http://www.w3.org/2000/svg">
  <defs>
    <linearGradient id="ecTile" x1="0%" y1="0%" x2="100%" y2="100%">
      <stop offset="0%" stop-color="#A67C63"/>
      <stop offset="100%" stop-color="#6B4B3E"/>
    </linearGradient>
    <linearGradient id="ecCard" x1="0%" y1="0%" x2="100%" y2="100%">
      <stop offset="0%" stop-color="#6B4B3E"/>
      <stop offset="100%" stop-color="#A67C63"/>
    </linearGradient>
  </defs>
  <rect width="800" height="1000" fill="#F7F3EE"/>
  <rect x="56" y="48" width="140" height="140" rx="12" fill="none" stroke="#C8A58C" stroke-width="2" opacity="0.65"/>
  <rect x="68" y="60" width="116" height="116" rx="10" fill="#E8DFD4" stroke="#6B4B3E" stroke-width="2"/>
  <text x="220" y="96" font-family="Georgia,serif" font-size="36" font-weight="700" fill="#1F1F1F">SEBASTIAN COLE</text>
  <text x="220" y="128" font-family="Arial,sans-serif" font-size="11" fill="#A67C63" letter-spacing="3">CHIEF INNOVATION OFFICER</text>
  <line x1="220" y1="142" x2="744" y2="142" stroke="#A67C63" stroke-width="1" opacity="0.45"/>
  <text x="220" y="164" font-family="Arial,sans-serif" font-size="10" fill="#5C534C">Phone " Email " LinkedIn " Website</text>
  <text x="56" y="228" font-family="Georgia,serif" font-size="14" fill="#1F1F1F" letter-spacing="2">SUMMARY</text>
  <line x1="148" y1="224" x2="744" y2="224" stroke="#A67C63" stroke-width="1" opacity="0.5"/>
  <rect x="56" y="240" width="688" height="48" rx="4" fill="#EDE6DC"/>
  <text x="56" y="316" font-family="Georgia,serif" font-size="14" fill="#1F1F1F" letter-spacing="2">EXPERIENCE</text>
  <line x1="168" y1="312" x2="744" y2="312" stroke="#A67C63" stroke-width="1" opacity="0.5"/>
  <rect x="56" y="328" width="210" height="120" rx="0 16 0 16" fill="url(#ecCard)"/>
  <rect x="280" y="328" width="210" height="120" rx="0 16 0 16" fill="url(#ecCard)"/>
  <rect x="504" y="328" width="240" height="120" rx="0 16 0 16" fill="url(#ecCard)"/>
  <text x="56" y="476" font-family="Georgia,serif" font-size="14" fill="#1F1F1F" letter-spacing="2">SKILLS</text>
  <line x1="120" y1="472" x2="744" y2="472" stroke="#A67C63" stroke-width="1" opacity="0.5"/>
  <rect x="56" y="488" width="156" height="64" rx="8" fill="url(#ecTile)"/>
  <rect x="224" y="488" width="156" height="64" rx="8" fill="url(#ecTile)"/>
  <rect x="392" y="488" width="156" height="64" rx="8" fill="url(#ecTile)"/>
  <rect x="560" y="488" width="184" height="64" rx="8" fill="url(#ecTile)"/>
  <line x1="400" y1="576" x2="400" y2="880" stroke="#A67C63" stroke-width="0.8" opacity="0.3"/>
  <text x="56" y="596" font-family="Georgia,serif" font-size="12" fill="#1F1F1F" letter-spacing="1.5">PROJECTS</text>
  <text x="420" y="596" font-family="Georgia,serif" font-size="12" fill="#1F1F1F" letter-spacing="1.5">EDUCATION</text>
  <path d="M720,860 L740,880 L720,900 L700,880 Z" fill="none" stroke="#A67C63" stroke-width="1.2" opacity="0.55"/>
  <text x="400" y="960" text-anchor="middle" font-family="Georgia,serif" font-size="22" font-weight="600" fill="#6B4B3E">Executive Copper</text>
</svg>
