<svg width="300" height="400" xmlns="http://www.w3.org/2000/svg">
  <defs>
    <linearGradient id="ecTile" x1="0%" y1="0%" x2="100%" y2="100%">
      <stop offset="0%" stop-color="#A67C63"/>
      <stop offset="100%" stop-color="#6B4B3E"/>
    </linearGradient>
    <linearGradient id="ecCard" x1="0%" y1="0%" x2="100%" y2="100%">
      <stop offset="0%" stop-color="#6B4B3E"/>
      <stop offset="100%" stop-color="#A67C63"/>
    </linearGradient>
  </defs>
  <rect width="300" height="400" fill="#F7F3EE"/>
  <rect x="24" y="20" width="72" height="72" rx="8" fill="none" stroke="#C8A58C" stroke-width="1.5" opacity="0.7"/>
  <rect x="28" y="24" width="64" height="64" rx="6" fill="#E8DFD4" stroke="#6B4B3E" stroke-width="1.5"/>
  <text x="108" y="44" font-family="Georgia,serif" font-size="13" font-weight="700" fill="#1F1F1F">SEBASTIAN</text>
  <text x="108" y="58" font-family="Georgia,serif" font-size="13" font-weight="700" fill="#1F1F1F">COLE</text>
  <text x="108" y="72" font-family="Arial,sans-serif" font-size="5" fill="#A67C63" letter-spacing="1">CHIEF INNOVATION OFFICER</text>
  <line x1="108" y1="78" x2="276" y2="78" stroke="#A67C63" stroke-width="0.6" opacity="0.5"/>
  <text x="108" y="88" font-family="Arial,sans-serif" font-size="4.5" fill="#5C534C">contact details</text>
  <text x="24" y="112" font-family="Georgia,serif" font-size="6" fill="#1F1F1F" letter-spacing="1">SUMMARY</text>
  <line x1="56" y1="110" x2="276" y2="110" stroke="#A67C63" stroke-width="0.5" opacity="0.6"/>
  <rect x="24" y="118" width="252" height="18" rx="2" fill="#EDE6DC"/>
  <text x="24" y="148" font-family="Georgia,serif" font-size="6" fill="#1F1F1F" letter-spacing="1">EXPERIENCE</text>
  <line x1="72" y1="146" x2="276" y2="146" stroke="#A67C63" stroke-width="0.5" opacity="0.6"/>
  <rect x="24" y="154" width="78" height="52" rx="0 8 0 8" fill="url(#ecCard)"/>
  <rect x="110" y="154" width="78" height="52" rx="0 8 0 8" fill="url(#ecCard)"/>
  <rect x="196" y="154" width="80" height="52" rx="0 8 0 8" fill="url(#ecCard)"/>
  <text x="24" y="220" font-family="Georgia,serif" font-size="6" fill="#1F1F1F" letter-spacing="1">SKILLS</text>
  <line x1="48" y1="218" x2="276" y2="218" stroke="#A67C63" stroke-width="0.5" opacity="0.6"/>
  <rect x="24" y="226" width="58" height="28" rx="4" fill="url(#ecTile)"/>
  <rect x="88" y="226" width="58" height="28" rx="4" fill="url(#ecTile)"/>
  <rect x="152" y="226" width="58" height="28" rx="4" fill="url(#ecTile)"/>
  <rect x="216" y="226" width="60" height="28" rx="4" fill="url(#ecTile)"/>
  <line x1="162" y1="268" x2="162" y2="360" stroke="#A67C63" stroke-width="0.4" opacity="0.35"/>
  <text x="24" y="272" font-family="Georgia,serif" font-size="5" fill="#1F1F1F">PROJECTS</text>
  <text x="170" y="272" font-family="Georgia,serif" font-size="5" fill="#1F1F1F">EDUCATION</text>
  <text x="150" y="388" text-anchor="middle" font-family="Georgia,serif" font-size="9" font-weight="600" fill="#6B4B3E">Executive Copper</text>
</svg>
