<svg xmlns="http://www.w3.org/2000/svg" width="595" height="842" viewBox="0 0 595 842">
  <rect width="208" height="842" fill="#1F5A4D"/>
  <rect x="208" width="387" height="842" fill="#FCFBF8"/>
  <!-- Portrait -->
  <rect x="36" y="36" width="136" height="180" rx="10" fill="#FFFFFF" stroke="#FFFFFF" stroke-width="4"/>
  <rect x="44" y="44" width="120" height="164" rx="8" fill="#2A6B5C"/>
  <!-- About card -->
  <rect x="28" y="232" width="152" height="28" rx="4" fill="#C5D4CF"/>
  <rect x="28" y="260" width="152" height="72" fill="#FFFFFF"/>
  <rect x="36" y="272" width="128" height="4" rx="1" fill="#CCCCCC"/>
  <rect x="36" y="284" width="120" height="4" rx="1" fill="#CCCCCC"/>
  <rect x="36" y="296" width="124" height="4" rx="1" fill="#CCCCCC"/>
  <!-- Contact card -->
  <rect x="28" y="344" width="152" height="28" rx="4" fill="#C5D4CF"/>
  <rect x="28" y="372" width="152" height="88" fill="#FFFFFF"/>
  <circle cx="44" cy="396" r="5" fill="#C79A4A"/>
  <rect x="56" y="392" width="100" height="6" rx="2" fill="#888888"/>
  <circle cx="44" cy="420" r="5" fill="#C79A4A"/>
  <rect x="56" y="416" width="88" height="6" rx="2" fill="#888888"/>
  <circle cx="44" cy="444" r="5" fill="#C79A4A"/>
  <rect x="56" y="440" width="96" height="6" rx="2" fill="#888888"/>
  <!-- Skills card -->
  <rect x="28" y="476" width="152" height="28" rx="4" fill="#C5D4CF"/>
  <rect x="28" y="504" width="152" height="80" fill="#FFFFFF"/>
  <circle cx="44" cy="524" r="4" fill="#C79A4A"/>
  <rect x="56" y="520" width="72" height="5" rx="1" fill="#666666"/>
  <circle cx="44" cy="544" r="4" fill="#C79A4A"/>
  <rect x="56" y="540" width="80" height="5" rx="1" fill="#666666"/>
  <circle cx="44" cy="564" r="4" fill="#C79A4A"/>
  <rect x="56" y="560" width="64" height="5" rx="1" fill="#666666"/>
  <!-- Languages card -->
  <rect x="28" y="600" width="152" height="28" rx="4" fill="#C5D4CF"/>
  <rect x="28" y="628" width="152" height="56" fill="#FFFFFF"/>
  <circle cx="44" cy="648" r="4" fill="#C79A4A"/>
  <rect x="56" y="644" width="56" height="5" rx="1" fill="#666666"/>
  <circle cx="44" cy="668" r="4" fill="#C79A4A"/>
  <rect x="56" y="664" width="48" height="5" rx="1" fill="#666666"/>
  <!-- Main header -->
  <text x="232" y="72" font-family="Georgia, serif" font-size="36" font-style="italic" fill="#222222">Sarah</text>
  <text x="232" y="108" font-family="Georgia, serif" font-size="28" font-weight="700" fill="#222222" letter-spacing="3">MITCHELL</text>
  <text x="232" y="140" font-family="Arial, sans-serif" font-size="11" font-weight="600" fill="#666666" letter-spacing="2.5">SENIOR PRODUCT MANAGER</text>
  <line x1="232" y1="156" x2="560" y2="156" stroke="#DDDDDD" stroke-width="1"/>
  <!-- Experience -->
  <rect x="232" y="176" width="328" height="28" fill="#C79A4A"/>
  <text x="244" y="196" font-family="Arial, sans-serif" font-size="11" font-weight="700" fill="#FFFFFF" letter-spacing="2">EXPERIENCE</text>
  <text x="232" y="232" font-family="Arial, sans-serif" font-size="12" font-weight="700" fill="#222222" letter-spacing="1">APEX GLOBAL SOLUTIONS</text>
  <text x="232" y="252" font-family="Arial, sans-serif" font-size="11" fill="#444444">Senior Product Manager</text>
  <text x="560" y="252" text-anchor="end" font-family="Arial, sans-serif" font-size="10" fill="#666666">2019  Present</text>
  <circle cx="240" cy="276" r="3.5" fill="#222222"/>
  <rect x="252" y="272" width="240" height="5" rx="1" fill="#CCCCCC"/>
  <circle cx="240" cy="296" r="3.5" fill="#222222"/>
  <rect x="252" y="292" width="220" height="5" rx="1" fill="#CCCCCC"/>
  <circle cx="240" cy="316" r="3.5" fill="#222222"/>
  <rect x="252" y="312" width="200" height="5" rx="1" fill="#CCCCCC"/>
  <text x="232" y="352" font-family="Arial, sans-serif" font-size="12" font-weight="700" fill="#222222" letter-spacing="1">INNOVATE TECH</text>
  <text x="232" y="372" font-family="Arial, sans-serif" font-size="11" fill="#444444">Product Manager</text>
  <text x="560" y="372" text-anchor="end" font-family="Arial, sans-serif" font-size="10" fill="#666666">2015  2019</text>
  <!-- Education -->
  <rect x="232" y="404" width="328" height="28" fill="#C79A4A"/>
  <text x="244" y="424" font-family="Arial, sans-serif" font-size="11" font-weight="700" fill="#FFFFFF" letter-spacing="2">EDUCATION</text>
  <text x="232" y="460" font-family="Arial, sans-serif" font-size="12" font-weight="700" fill="#222222">MBA, BUSINESS ADMINISTRATION</text>
  <text x="232" y="480" font-family="Arial, sans-serif" font-size="11" fill="#444444">Stanford Graduate School of Business</text>
  <text x="232" y="500" font-family="Arial, sans-serif" font-size="10" fill="#666666">2013  2015</text>
  <text x="232" y="536" font-family="Arial, sans-serif" font-size="12" font-weight="700" fill="#222222">B.S. COMPUTER SCIENCE</text>
  <text x="232" y="556" font-family="Arial, sans-serif" font-size="11" fill="#444444">University of California, Berkeley</text>
  <text x="232" y="576" font-family="Arial, sans-serif" font-size="10" fill="#666666">2009  2013</text>
  <!-- Projects -->
  <rect x="232" y="608" width="328" height="28" fill="#C79A4A"/>
  <text x="244" y="628" font-family="Arial, sans-serif" font-size="11" font-weight="700" fill="#FFFFFF" letter-spacing="2">PROJECTS</text>
  <text x="232" y="660" font-family="Arial, sans-serif" font-size="12" font-weight="700" fill="#222222">MOBILE CHECKOUT REDESIGN</text>
  <rect x="232" y="672" width="260" height="5" rx="1" fill="#CCCCCC"/>
  <rect x="232" y="684" width="220" height="5" rx="1" fill="#CCCCCC"/>
</svg>
