<svg xmlns="http://www.w3.org/2000/svg" width="300" height="400" viewBox="0 0 300 400">
  <rect width="105" height="400" fill="#1F5A4D"/>
  <rect x="105" width="195" height="400" fill="#FCFBF8"/>
  <!-- Portrait -->
  <rect x="18" y="18" width="70" height="92" rx="6" fill="#FFFFFF" stroke="#FFFFFF" stroke-width="3"/>
  <rect x="22" y="22" width="62" height="84" rx="4" fill="#2A6B5C"/>
  <!-- Sidebar cards -->
  <rect x="14" y="122" width="78" height="14" rx="3" fill="#C5D4CF"/>
  <rect x="14" y="136" width="78" height="36" rx="0" fill="#FFFFFF"/>
  <rect x="14" y="178" width="78" height="14" rx="3" fill="#C5D4CF"/>
  <rect x="14" y="192" width="78" height="44" rx="0" fill="#FFFFFF"/>
  <circle cx="22" cy="204" r="2.5" fill="#C79A4A"/>
  <rect x="30" y="202" width="52" height="3" rx="1" fill="#888888"/>
  <circle cx="22" cy="216" r="2.5" fill="#C79A4A"/>
  <rect x="30" y="214" width="46" height="3" rx="1" fill="#888888"/>
  <rect x="14" y="244" width="78" height="14" rx="3" fill="#C5D4CF"/>
  <rect x="14" y="258" width="78" height="40" rx="0" fill="#FFFFFF"/>
  <circle cx="22" cy="270" r="2" fill="#C79A4A"/>
  <rect x="30" y="268" width="40" height="2.5" rx="1" fill="#666666"/>
  <circle cx="22" cy="282" r="2" fill="#C79A4A"/>
  <rect x="30" y="280" width="48" height="2.5" rx="1" fill="#666666"/>
  <!-- Main header -->
  <text x="118" y="38" font-family="Georgia, serif" font-size="18" font-style="italic" fill="#222222">Sarah</text>
  <text x="118" y="58" font-family="Georgia, serif" font-size="14" font-weight="700" fill="#222222" letter-spacing="1.5">MITCHELL</text>
  <text x="118" y="78" font-family="Arial, sans-serif" font-size="6.5" font-weight="600" fill="#666666" letter-spacing="1.5">SENIOR PRODUCT MANAGER</text>
  <line x1="118" y1="88" x2="284" y2="88" stroke="#DDDDDD" stroke-width="1"/>
  <!-- Gold bars -->
  <rect x="118" y="102" width="166" height="14" rx="1" fill="#C79A4A"/>
  <text x="126" y="112" font-family="Arial, sans-serif" font-size="6.5" font-weight="700" fill="#FFFFFF" letter-spacing="1">EXPERIENCE</text>
  <text x="118" y="134" font-family="Arial, sans-serif" font-size="6.5" font-weight="700" fill="#222222" letter-spacing="0.5">APEX GLOBAL</text>
  <text x="118" y="146" font-family="Arial, sans-serif" font-size="5.5" fill="#444444">Product Manager</text>
  <text x="284" y="146" text-anchor="end" font-family="Arial, sans-serif" font-size="5" fill="#666666">201925</text>
  <circle cx="124" cy="160" r="1.8" fill="#222222"/>
  <rect x="132" y="158" width="120" height="2.5" rx="1" fill="#CCCCCC"/>
  <circle cx="124" cy="172" r="1.8" fill="#222222"/>
  <rect x="132" y="170" width="108" height="2.5" rx="1" fill="#CCCCCC"/>
  <rect x="118" y="192" width="166" height="14" rx="1" fill="#C79A4A"/>
  <text x="126" y="202" font-family="Arial, sans-serif" font-size="6.5" font-weight="700" fill="#FFFFFF" letter-spacing="1">EDUCATION</text>
  <text x="118" y="224" font-family="Arial, sans-serif" font-size="6.5" font-weight="700" fill="#222222">MBA</text>
  <text x="118" y="236" font-family="Arial, sans-serif" font-size="5.5" fill="#444444">Stanford University</text>
  <text x="118" y="248" font-family="Arial, sans-serif" font-size="5" fill="#666666">2015  2017</text>
</svg>
