<svg width="800" height="1050" viewBox="0 0 800 1050" xmlns="http://www.w3.org/2000/svg">
  <rect width="800" height="1050" fill="#ffffff"/>
  
  <!-- Header -->
  <rect x="0" y="0" width="800" height="140" fill="#f9fafb"/>
  <rect x="40" y="50" width="320" height="28" fill="#d1d5db"/>
  <rect x="40" y="90" width="260" height="16" fill="#d1d5db"/>
  <rect x="540" y="30" width="220" height="280" fill="#e5e7eb" rx="8"/>
  
  <!-- Left Content -->
  <rect x="0" y="140" width="400" height="910" fill="#f5f5f5"/>
  <rect x="40" y="180" width="320" height="14" fill="#e5e7eb"/>
  <rect x="40" y="220" width="300" height="10" fill="#d1d5db"/>
  <rect x="40" y="245" width="280" height="10" fill="#d1d5db"/>
  <rect x="40" y="280" width="320" height="14" fill="#e5e7eb"/>
  <rect x="40" y="320" width="300" height="10" fill="#d1d5db"/>
  <rect x="40" y="345" width="320" height="10" fill="#d1d5db"/>
  <rect x="40" y="380" width="320" height="14" fill="#e5e7eb"/>
  <rect x="40" y="420" width="300" height="10" fill="#d1d5db"/>
  
  <!-- Right Content -->
  <rect x="400" y="140" width="400" height="910" fill="#ffffff"/>
  <rect x="440" y="180" width="320" height="14" fill="#e5e7eb"/>
  <rect x="440" y="220" width="340" height="10" fill="#d1d5db"/>
  <rect x="440" y="280" width="320" height="14" fill="#e5e7eb"/>
  <rect x="440" y="320" width="300" height="10" fill="#d1d5db"/>
  <rect x="440" y="345" width="320" height="10" fill="#d1d5db"/>
  <rect x="440" y="380" width="320" height="14" fill="#e5e7eb"/>
  <rect x="440" y="420" width="280" height="10" fill="#d1d5db"/>
</svg>

