<svg width="300" height="400" viewBox="0 0 300 400" xmlns="http://www.w3.org/2000/svg">
  <rect width="300" height="400" fill="#ffffff"/>
  
  <!-- Header -->
  <rect x="0" y="0" width="300" height="100" fill="#f9fafb"/>
  <rect x="20" y="30" width="120" height="20" fill="#d1d5db"/>
  <rect x="20" y="60" width="100" height="12" fill="#d1d5db"/>
  <rect x="200" y="20" width="80" height="100" fill="#e5e7eb" rx="4"/>
  
  <!-- Left Content -->
  <rect x="0" y="100" width="150" height="300" fill="#f5f5f5"/>
  <rect x="20" y="130" width="110" height="10" fill="#e5e7eb"/>
  <rect x="20" y="160" width="100" height="8" fill="#d1d5db"/>
  <rect x="20" y="180" width="90" height="8" fill="#d1d5db"/>
  <rect x="20" y="210" width="110" height="10" fill="#e5e7eb"/>
  <rect x="20" y="240" width="100" height="8" fill="#d1d5db"/>
  <rect x="20" y="260" width="110" height="8" fill="#d1d5db"/>
  <rect x="20" y="290" width="110" height="10" fill="#e5e7eb"/>
  <rect x="20" y="320" width="100" height="8" fill="#d1d5db"/>
  
  <!-- Right Content -->
  <rect x="150" y="100" width="150" height="300" fill="#ffffff"/>
  <rect x="170" y="130" width="110" height="10" fill="#e5e7eb"/>
  <rect x="170" y="160" width="120" height="8" fill="#d1d5db"/>
  <rect x="170" y="210" width="110" height="10" fill="#e5e7eb"/>
  <rect x="170" y="240" width="100" height="8" fill="#d1d5db"/>
  <rect x="170" y="260" width="110" height="8" fill="#d1d5db"/>
  <rect x="170" y="290" width="110" height="10" fill="#e5e7eb"/>
  <rect x="170" y="320" width="90" height="8" fill="#d1d5db"/>
</svg>

