<svg width="800" height="1000" xmlns="http://www.w3.org/2000/svg">
  <defs>
    <linearGradient id="purpleGradLarge" x1="0%" y1="0%" x2="100%" y2="100%">
      <stop offset="0%" style="stop-color:#7C3AED;stop-opacity:0.15" />
      <stop offset="100%" style="stop-color:#7C3AED;stop-opacity:0.08" />
    </linearGradient>
  </defs>
  <rect width="800" height="1000" fill="url(#purpleGradLarge)" stroke="#7C3AED" stroke-width="3"/>
  <rect x="20" y="20" width="760" height="960" fill="white" opacity="0.3" rx="8"/>
  <!-- Left sidebar -->
  <rect x="30" y="30" width="220" height="940" fill="#FFFFFF" opacity="0.5" rx="4"/>
  <!-- Purple header banner -->
  <rect x="270" y="30" width="500" height="120" fill="#7C3AED" opacity="0.8" rx="4"/>
  <!-- Profile circle -->
  <circle cx="140" cy="120" r="60" fill="#7C3AED" opacity="0.6"/>
  <text x="520" y="80" font-family="Arial, sans-serif" font-size="32" font-weight="bold" fill="#FFFFFF">
    PURPLE MODERN
  </text>
  <text x="520" y="110" font-family="Arial, sans-serif" font-size="18" fill="#FFFFFF" opacity="0.9">
    Two Column Professional Resume
  </text>
  <!-- Main content sections -->
  <rect x="270" y="170" width="500" height="40" fill="#E5E7EB" rx="2"/>
  <rect x="270" y="230" width="500" height="40" fill="#E5E7EB" rx="2"/>
  <rect x="270" y="290" width="500" height="40" fill="#E5E7EB" rx="2"/>
  <rect x="270" y="350" width="500" height="40" fill="#E5E7EB" rx="2"/>
  <!-- Sidebar sections -->
  <rect x="40" y="200" width="200" height="25" fill="#7C3AED" opacity="0.7" rx="2"/>
  <rect x="40" y="250" width="200" height="25" fill="#7C3AED" opacity="0.7" rx="2"/>
  <rect x="40" y="300" width="200" height="25" fill="#7C3AED" opacity="0.7" rx="2"/>
  <!-- Progress bars -->
  <rect x="40" y="360" width="200" height="8" fill="#E5E7EB" rx="4"/>
  <rect x="40" y="360" width="160" height="8" fill="#7C3AED" rx="4"/>
  <text x="50%" y="900" text-anchor="middle" font-family="Arial, sans-serif" font-size="28" font-weight="bold" fill="#7C3AED">
    Purple Modern Resume Template
  </text>
  <text x="50%" y="940" text-anchor="middle" font-family="Arial, sans-serif" font-size="16" fill="#666">
    Professional Two-Column Design with Purple Accents
  </text>
</svg>

