<svg width="300" height="400" xmlns="http://www.w3.org/2000/svg">
  <rect width="300" height="400" fill="#FFFFFF"/>
  <rect width="300" height="4" fill="#B59A7A"/>
  <rect x="0" y="4" width="300" height="52" fill="url(#empThumbHeader)"/>
  <defs>
    <linearGradient id="empThumbHeader" x1="0%" y1="0%" x2="0%" y2="100%">
      <stop offset="0%" stop-color="#EFEFEF"/>
      <stop offset="100%" stop-color="#FFFFFF"/>
    </linearGradient>
  </defs>
  <circle cx="44" cy="34" r="18" fill="#E8E8E8" stroke="#B59A7A" stroke-width="1.2"/>
  <circle cx="44" cy="34" r="14" fill="#D4D4D4"/>
  <text x="72" y="28" font-family="Arial,sans-serif" font-size="9" font-weight="700" fill="#222222" letter-spacing="0.8">JONATHAN REED</text>
  <text x="72" y="40" font-family="Arial,sans-serif" font-size="4" fill="#6B6B6B" letter-spacing="0.6">SENIOR PRODUCT MANAGER</text>
  <line x1="72" y1="44" x2="276" y2="44" stroke="#D6D6D6" stroke-width="0.5"/>
  <text x="72" y="52" font-family="Arial,sans-serif" font-size="3.5" fill="#6B6B6B">phone • email • location</text>
  <line x1="188" y1="60" x2="188" y2="360" stroke="#D6D6D6" stroke-width="0.6"/>
  <rect x="188" y="60" width="112" height="300" fill="rgba(181,154,122,0.06)"/>
  <text x="24" y="72" font-family="Arial,sans-serif" font-size="5" font-weight="700" fill="#222222" letter-spacing="0.6">SUMMARY</text>
  <line x1="68" y1="70" x2="180" y2="70" stroke="#D6D6D6" stroke-width="0.5"/>
  <rect x="24" y="78" width="156" height="12" rx="1" fill="#F3F3F3"/>
  <text x="24" y="102" font-family="Arial,sans-serif" font-size="5" font-weight="700" fill="#222222" letter-spacing="0.6">EXPERIENCE</text>
  <line x1="78" y1="100" x2="180" y2="100" stroke="#D6D6D6" stroke-width="0.5"/>
  <text x="24" y="112" font-family="Arial,sans-serif" font-size="4.5" font-weight="700" fill="#222222">GLOBAL INNOVATIONS</text>
  <text x="24" y="120" font-family="Arial,sans-serif" font-size="4" fill="#6B6B6B" font-style="italic">Director | 2018 – Present</text>
  <circle cx="28" cy="128" r="1" fill="#222222"/>
  <rect x="32" y="126" width="120" height="2.5" fill="#ECECEC"/>
  <text x="24" y="142" font-family="Arial,sans-serif" font-size="5" font-weight="700" fill="#222222" letter-spacing="0.6">PROJECTS</text>
  <line x1="68" y1="140" x2="180" y2="140" stroke="#D6D6D6" stroke-width="0.5"/>
  <text x="24" y="150" font-family="Arial,sans-serif" font-size="4" fill="#1F1F1F"><tspan font-weight="700">AI Launch:</tspan> enterprise integration</text>
  <text x="196" y="72" font-family="Arial,sans-serif" font-size="4.5" font-weight="700" fill="#222222">SKILLS</text>
  <line x1="228" y1="70" x2="292" y2="70" stroke="#D6D6D6" stroke-width="0.5"/>
  <rect x="196" y="78" width="96" height="22" fill="rgba(181,154,122,0.12)" stroke="rgba(181,154,122,0.3)" stroke-width="0.4"/>
  <line x1="228" y1="78" x2="228" y2="100" stroke="rgba(181,154,122,0.3)" stroke-width="0.4"/>
  <line x1="260" y1="78" x2="260" y2="100" stroke="rgba(181,154,122,0.3)" stroke-width="0.4"/>
  <text x="212" y="91" text-anchor="middle" font-family="Arial,sans-serif" font-size="3" font-weight="700" fill="#222222">PRODUCT</text>
  <text x="244" y="91" text-anchor="middle" font-family="Arial,sans-serif" font-size="3" font-weight="700" fill="#222222">LEAD</text>
  <text x="276" y="91" text-anchor="middle" font-family="Arial,sans-serif" font-size="3" font-weight="700" fill="#222222">TECH</text>
  <rect x="196" y="106" width="28" height="10" rx="1" fill="#FFF" stroke="rgba(181,154,122,0.35)" stroke-width="0.4"/>
  <rect x="228" y="106" width="28" height="10" rx="1" fill="#FFF" stroke="rgba(181,154,122,0.35)" stroke-width="0.4"/>
  <rect x="260" y="106" width="28" height="10" rx="1" fill="#FFF" stroke="rgba(181,154,122,0.35)" stroke-width="0.4"/>
  <text x="196" y="128" font-family="Arial,sans-serif" font-size="4.5" font-weight="700" fill="#222222">EDUCATION</text>
  <text x="196" y="138" font-family="Arial,sans-serif" font-size="4" fill="#1F1F1F">MBA, Stanford</text>
  <text x="196" y="154" font-family="Arial,sans-serif" font-size="4.5" font-weight="700" fill="#222222">LANGUAGES</text>
  <text x="196" y="164" font-family="Arial,sans-serif" font-size="4" fill="#1F1F1F">English • Fluent</text>
  <text x="150" y="388" text-anchor="middle" font-family="Arial,sans-serif" font-size="9" font-weight="600" fill="#B59A7A">Executive Minimal Pro</text>
</svg>
