<svg xmlns="http://www.w3.org/2000/svg" width="600" height="800" viewBox="0 0 600 800">
  <rect width="600" height="800" fill="#F8F4EA"/>
  <!-- Olive sidebar -->
  <rect x="0" y="0" width="192" height="800" fill="#5E6433"/>
  <!-- Photo double ring -->
  <circle cx="96" cy="88" r="58" fill="none" stroke="#FFFFFF" stroke-width="5"/>
  <circle cx="96" cy="88" r="50" fill="#FFFFFF" stroke="#B9975B" stroke-width="3"/>
  <circle cx="96" cy="88" r="42" fill="#4A5030"/>
  <!-- Sidebar sections -->
  <text x="24" y="178" font-family="Arial, sans-serif" font-size="11" font-weight="700" fill="#F8F4EA" letter-spacing="1.6">CONTACT</text>
  <line x1="24" y1="186" x2="168" y2="186" stroke="rgba(248,244,234,0.35)" stroke-width="1"/>
  <circle cx="32" cy="206" r="4" fill="#B9975B"/>
  <rect x="44" y="202" width="120" height="5" rx="2" fill="rgba(248,244,234,0.75)"/>
  <circle cx="32" cy="228" r="4" fill="#B9975B"/>
  <rect x="44" y="224" width="100" height="5" rx="2" fill="rgba(248,244,234,0.75)"/>
  <text x="24" y="268" font-family="Arial, sans-serif" font-size="11" font-weight="700" fill="#F8F4EA" letter-spacing="1.6">EDUCATION</text>
  <line x1="24" y1="276" x2="168" y2="276" stroke="rgba(248,244,234,0.35)" stroke-width="1"/>
  <text x="24" y="298" font-family="Arial, sans-serif" font-size="10" font-weight="700" fill="#F8F4EA" letter-spacing="0.8">FLORIDA STATE UNIVERSITY</text>
  <text x="24" y="316" font-family="Arial, sans-serif" font-size="9" font-weight="600" fill="#B9975B">2027-2031</text>
  <text x="24" y="334" font-family="Arial, sans-serif" font-size="9" fill="rgba(248,244,234,0.82)">Bachelor of Science in Business</text>
  <text x="24" y="372" font-family="Arial, sans-serif" font-size="11" font-weight="700" fill="#F8F4EA" letter-spacing="1.6">SKILLS</text>
  <line x1="24" y1="380" x2="168" y2="380" stroke="rgba(248,244,234,0.35)" stroke-width="1"/>
  <circle cx="28" cy="398" r="2.5" fill="#B9975B"/>
  <text x="36" y="402" font-family="Arial, sans-serif" font-size="9" fill="#F8F4EA">Leadership</text>
  <circle cx="28" cy="418" r="2.5" fill="#B9975B"/>
  <text x="36" y="422" font-family="Arial, sans-serif" font-size="9" fill="#F8F4EA">Strategy</text>
  <text x="24" y="460" font-family="Arial, sans-serif" font-size="11" font-weight="700" fill="#F8F4EA" letter-spacing="1.6">LANGUAGES</text>
  <line x1="24" y1="468" x2="168" y2="468" stroke="rgba(248,244,234,0.35)" stroke-width="1"/>
  <text x="24" y="490" font-family="Arial, sans-serif" font-size="9" fill="#F8F4EA">English (Native)</text>
  <!-- Main column -->
  <text x="216" y="72" font-family="Georgia, serif" font-size="28" font-weight="500" fill="#222222" letter-spacing="2">ISABELLA</text>
  <text x="358" y="72" font-family="Georgia, serif" font-size="28" font-weight="700" fill="#222222" letter-spacing="2">| CHEN</text>
  <text x="216" y="98" font-family="Arial, sans-serif" font-size="10" font-weight="600" fill="#666666" letter-spacing="2.4">CHIEF OPERATING OFFICER</text>
  <line x1="216" y1="114" x2="576" y2="114" stroke="#D9CFBE" stroke-width="1"/>
  <text x="216" y="148" font-family="Arial, sans-serif" font-size="11" font-weight="700" fill="#222222" letter-spacing="1.6">PROFESSIONAL SUMMARY</text>
  <line x1="216" y1="156" x2="280" y2="156" stroke="#B9975B" stroke-width="2"/>
  <line x1="280" y1="156" x2="576" y2="156" stroke="#D9CFBE" stroke-width="1"/>
  <rect x="216" y="170" width="340" height="5" rx="2" fill="#D9CFBE"/>
  <rect x="216" y="184" width="320" height="5" rx="2" fill="#D9CFBE"/>
  <rect x="216" y="198" width="300" height="5" rx="2" fill="#D9CFBE"/>
  <text x="216" y="238" font-family="Arial, sans-serif" font-size="11" font-weight="700" fill="#222222" letter-spacing="1.6">WORK EXPERIENCE</text>
  <line x1="216" y1="246" x2="280" y2="246" stroke="#B9975B" stroke-width="2"/>
  <line x1="280" y1="246" x2="576" y2="246" stroke="#D9CFBE" stroke-width="1"/>
  <text x="216" y="272" font-family="Arial, sans-serif" font-size="10" font-weight="700" fill="#222222" letter-spacing="0.6">FELICITAS SOLUTIONS</text>
  <text x="576" y="272" text-anchor="end" font-family="Arial, sans-serif" font-size="9" font-weight="600" fill="#666666">2035 - PRESENT</text>
  <text x="216" y="290" font-family="Arial, sans-serif" font-size="10" fill="#444444">Chief Operating Officer</text>
  <circle cx="224" cy="312" r="2.5" fill="#B9975B"/>
  <rect x="236" y="308" width="280" height="5" rx="2" fill="#D9CFBE"/>
  <circle cx="224" cy="328" r="2.5" fill="#B9975B"/>
  <rect x="236" y="324" width="260" height="5" rx="2" fill="#D9CFBE"/>
  <text x="216" y="368" font-family="Arial, sans-serif" font-size="11" font-weight="700" fill="#222222" letter-spacing="1.6">REFERENCES</text>
  <line x1="216" y1="376" x2="280" y2="376" stroke="#B9975B" stroke-width="2"/>
  <line x1="280" y1="376" x2="576" y2="376" stroke="#D9CFBE" stroke-width="1"/>
  <text x="216" y="402" font-family="Arial, sans-serif" font-size="10" font-weight="700" fill="#222222">Estelle Darcy</text>
  <text x="216" y="418" font-family="Arial, sans-serif" font-size="9" fill="#666666">Wardiere Inc. | CEO</text>
  <text x="396" y="402" font-family="Arial, sans-serif" font-size="10" font-weight="700" fill="#222222">Harper Russo</text>
  <text x="396" y="418" font-family="Arial, sans-serif" font-size="9" fill="#666666">Wardiere Inc. | CEO</text>
</svg>
