<svg xmlns="http://www.w3.org/2000/svg" width="200" height="260" viewBox="0 0 200 260">
  <rect width="200" height="260" fill="#F8F4EA"/>
  <rect x="0" y="0" width="64" height="260" fill="#5E6433"/>
  <circle cx="32" cy="34" r="20" fill="none" stroke="#FFFFFF" stroke-width="2"/>
  <circle cx="32" cy="34" r="16" fill="#FFFFFF" stroke="#B9975B" stroke-width="1.5"/>
  <circle cx="32" cy="34" r="12" fill="#4A5030"/>
  <rect x="10" y="62" width="44" height="3" rx="1.5" fill="rgba(248,244,234,0.5)"/>
  <rect x="10" y="72" width="36" height="2" rx="1" fill="rgba(248,244,234,0.35)"/>
  <rect x="10" y="78" width="40" height="2" rx="1" fill="rgba(248,244,234,0.35)"/>
  <rect x="10" y="94" width="44" height="3" rx="1.5" fill="rgba(248,244,234,0.5)"/>
  <rect x="10" y="104" width="38" height="2" rx="1" fill="rgba(248,244,234,0.35)"/>
  <rect x="10" y="120" width="44" height="3" rx="1.5" fill="rgba(248,244,234,0.5)"/>
  <circle cx="14" cy="134" r="1.5" fill="#B9975B"/>
  <rect x="18" y="132.5" width="32" height="2" rx="1" fill="rgba(248,244,234,0.35)"/>
  <circle cx="14" cy="142" r="1.5" fill="#B9975B"/>
  <rect x="18" y="140.5" width="28" height="2" rx="1" fill="rgba(248,244,234,0.35)"/>
  <text x="72" y="28" font-family="Georgia, serif" font-size="9" font-weight="500" fill="#222222" letter-spacing="0.6">ISABELLA</text>
  <text x="120" y="28" font-family="Georgia, serif" font-size="9" font-weight="700" fill="#222222">| CHEN</text>
  <text x="72" y="40" font-family="Arial, sans-serif" font-size="4" font-weight="600" fill="#666666" letter-spacing="0.8">CHIEF OPERATING OFFICER</text>
  <line x1="72" y1="46" x2="190" y2="46" stroke="#D9CFBE" stroke-width="0.8"/>
  <rect x="72" y="56" width="48" height="3" rx="1.5" fill="#222222" opacity="0.85"/>
  <line x1="72" y1="64" x2="190" y2="64" stroke="#D9CFBE" stroke-width="0.6"/>
  <rect x="72" y="72" width="110" height="2" rx="1" fill="#D9CFBE"/>
  <rect x="72" y="78" width="100" height="2" rx="1" fill="#D9CFBE"/>
  <rect x="72" y="92" width="48" height="3" rx="1.5" fill="#222222" opacity="0.85"/>
  <line x1="72" y1="100" x2="190" y2="100" stroke="#D9CFBE" stroke-width="0.6"/>
  <rect x="72" y="108" width="70" height="2.5" rx="1" fill="#222222" opacity="0.7"/>
  <rect x="160" y="108" width="30" height="2" rx="1" fill="#666666"/>
  <rect x="72" y="116" width="90" height="2" rx="1" fill="#444444"/>
  <circle cx="76" cy="126" r="1.5" fill="#B9975B"/>
  <rect x="80" y="124.5" width="90" height="2" rx="1" fill="#D9CFBE"/>
  <circle cx="76" cy="134" r="1.5" fill="#B9975B"/>
  <rect x="80" y="132.5" width="80" height="2" rx="1" fill="#D9CFBE"/>
</svg>
