<svg width="300" height="400" xmlns="http://www.w3.org/2000/svg">
  <rect width="300" height="400" fill="#f4f6f8"/>
  <rect x="24" y="28" width="252" height="348" rx="4" fill="#fff" stroke="#e2e8f0"/>
  <circle cx="280" cy="72" r="50" fill="#7b9eb8" opacity="0.12"/>
  <circle cx="40" cy="200" r="35" fill="#c8a8c0" opacity="0.1"/>
  <circle cx="58" cy="52" r="28" fill="#e2e8f0" stroke="#7b9eb8" stroke-width="2"/>
  <text x="96" y="48" font-family="Georgia,serif" font-size="13" font-weight="bold" fill="#475569">JANE DOE</text>
  <text x="96" y="64" font-family="Arial,sans-serif" font-size="5" fill="#64748b" letter-spacing="1">SENIOR MARKETING</text>
  <text x="200" y="44" font-family="Georgia,serif" font-size="6" fill="#475569">CONTACT</text>
  <line x1="28" y1="88" x2="272" y2="88" stroke="#e2e8f0"/>
  <text x="32" y="108" font-family="Georgia,serif" font-size="8" fill="#475569">PROFILE SUMMARY</text>
  <line x1="32" y1="114" x2="268" y2="114" stroke="#7b9eb8"/>
  <line x1="32" y1="148" x2="268" y2="148" stroke="#7b9eb8"/>
  <text x="32" y="140" font-family="Georgia,serif" font-size="8" fill="#475569">WORK EXPERIENCE</text>
  <text x="32" y="168" font-family="Arial,sans-serif" font-size="5" fill="#7b9eb8">2021</text>
  <rect x="72" y="164" width="100" height="4" fill="#cbd5e1"/>
  <polyline points="262,36 278,36 278,52" fill="none" stroke="#7b9eb8" stroke-width="1.2"/>
  <polyline points="262,364 278,364 278,348" fill="none" stroke="#7b9eb8" stroke-width="1.2"/>
  <text x="150" y="388" text-anchor="middle" font-family="Georgia,serif" font-size="10" font-weight="600" fill="#475569">Nordic Minimal</text>
</svg>
