<svg width="800" height="1000" xmlns="http://www.w3.org/2000/svg">
  <rect width="800" height="1000" fill="#e9e2d6"/>
  <rect x="0" y="0" width="260" height="1000" fill="#5c6778"/>
  <circle cx="130" cy="120" r="70" fill="#888" stroke="#f4efe6" stroke-width="3"/>
  <text x="130" y="230" text-anchor="middle" font-family="Georgia, serif" font-size="32" fill="#f4efe6">Barbara</text>
  <text x="130" y="268" text-anchor="middle" font-family="Georgia, serif" font-size="32" fill="#f4efe6">Miller</text>
  <text x="130" y="300" text-anchor="middle" font-family="Arial, sans-serif" font-size="11" fill="#f4efe6" letter-spacing="2">CUSTOMER SERVICE</text>
  <rect x="30" y="330" width="200" height="28" fill="#f0ebe2"/>
  <text x="130" y="349" text-anchor="middle" font-family="Arial, sans-serif" font-size="12" font-weight="bold" fill="#5c6778" letter-spacing="2">CONTACT</text>
  <rect x="280" y="60" width="480" height="32" fill="#fff"/>
  <text x="300" y="82" font-family="Arial, sans-serif" font-size="14" font-weight="bold" fill="#333" letter-spacing="2">CAREER OBJECTIVE</text>
  <rect x="300" y="110" width="420" height="10" fill="#ccc" rx="2"/>
  <rect x="300" y="128" width="400" height="10" fill="#bbb" rx="2"/>
  <rect x="280" y="170" width="480" height="32" fill="#fff"/>
  <text x="300" y="192" font-family="Arial, sans-serif" font-size="14" font-weight="bold" fill="#333" letter-spacing="2">PROFESSIONAL PROFILE</text>
  <rect x="300" y="220" width="400" height="8" fill="#aaa" rx="1"/>
  <rect x="300" y="236" width="380" height="8" fill="#999" rx="1"/>
  <rect x="280" y="280" width="480" height="32" fill="#fff"/>
  <text x="300" y="302" font-family="Arial, sans-serif" font-size="14" font-weight="bold" fill="#333" letter-spacing="2">EXPERIENCE</text>
  <rect x="300" y="330" width="200" height="10" fill="#444" rx="1"/>
  <rect x="300" y="348" width="180" height="8" fill="#999" rx="1"/>
  <rect x="280" y="420" width="480" height="32" fill="#fff"/>
  <text x="300" y="442" font-family="Arial, sans-serif" font-size="14" font-weight="bold" fill="#333" letter-spacing="2">EDUCATION</text>
  <text x="400" y="960" text-anchor="middle" font-family="Georgia, serif" font-size="24" fill="#5c6778">Editorial Elegant</text>
  <text x="400" y="985" text-anchor="middle" font-family="Arial, sans-serif" font-size="14" fill="#888">Luxury Magazine-Style Resume</text>
</svg>
