<svg xmlns="http://www.w3.org/2000/svg" width="300" height="400" viewBox="0 0 300 400">
  <rect width="300" height="400" fill="#1F2937"/>
  <rect x="10" y="10" width="280" height="380" fill="#FAF9F6" stroke="rgba(201,162,39,0.4)"/>
  <!-- Header -->
  <rect x="22" y="28" width="3" height="52" fill="#1F2937"/>
  <rect x="22" y="50" width="3" height="30" fill="#C9A227"/>
  <text x="32" y="44" font-family="Georgia, serif" font-size="14" font-weight="700" fill="#1F2937" letter-spacing="1.5">DENNIS</text>
  <text x="32" y="60" font-family="Georgia, serif" font-size="14" font-weight="700" fill="#1F2937" letter-spacing="1.5">BENNETTE</text>
  <line x1="32" y1="68" x2="78" y2="68" stroke="#C9A227" stroke-width="1"/>
  <text x="32" y="80" font-family="Arial, sans-serif" font-size="5.5" font-weight="600" fill="#8B6B4A" letter-spacing="2">GRAPHIC DESIGNER</text>
  <circle cx="258" cy="54" r="28" fill="#242B38" stroke="#C9A227" stroke-width="2"/>
  <circle cx="258" cy="54" r="33" fill="none" stroke="#1F2937" stroke-width="5"/>
  <line x1="22" y1="96" x2="278" y2="96" stroke="rgba(201,162,39,0.5)" stroke-width="1"/>
  <!-- Sidebar -->
  <rect x="22" y="108" width="96" height="268" fill="#111827"/>
  <text x="30" y="126" font-family="Georgia, serif" font-size="7" font-weight="700" fill="#C9A227" letter-spacing="1">CONTACT</text>
  <line x1="30" y1="130" x2="108" y2="130" stroke="rgba(201,162,39,0.55)" stroke-width="1"/>
  <circle cx="34" cy="144" r="2.5" fill="#D4AF37"/>
  <rect x="42" y="142" width="58" height="3" rx="1" fill="#CFCFCF"/>
  <circle cx="34" cy="156" r="2.5" fill="#D4AF37"/>
  <rect x="42" y="154" width="62" height="3" rx="1" fill="#CFCFCF"/>
  <circle cx="34" cy="168" r="2.5" fill="#D4AF37"/>
  <rect x="42" y="166" width="50" height="3" rx="1" fill="#CFCFCF"/>
  <text x="30" y="196" font-family="Georgia, serif" font-size="7" font-weight="700" fill="#C9A227" letter-spacing="1">SKILLS</text>
  <line x1="30" y1="200" x2="108" y2="200" stroke="rgba(201,162,39,0.55)" stroke-width="1"/>
  <text x="30" y="214" font-family="Arial, sans-serif" font-size="5" fill="#F5F5F5">Branding</text>
  <text x="108" y="214" text-anchor="end" font-family="Georgia, serif" font-size="5" font-weight="700" fill="#D4AF37">9/10</text>
  <text x="30" y="226" font-family="Arial, sans-serif" font-size="5" fill="#F5F5F5">Typography</text>
  <text x="108" y="226" text-anchor="end" font-family="Georgia, serif" font-size="5" font-weight="700" fill="#D4AF37">8/10</text>
  <text x="30" y="238" font-family="Arial, sans-serif" font-size="5" fill="#F5F5F5">Layout</text>
  <text x="108" y="238" text-anchor="end" font-family="Georgia, serif" font-size="5" font-weight="700" fill="#D4AF37">9/10</text>
  <text x="30" y="264" font-family="Georgia, serif" font-size="7" font-weight="700" fill="#C9A227" letter-spacing="1">EDUCATION</text>
  <line x1="30" y1="268" x2="108" y2="268" stroke="rgba(201,162,39,0.55)" stroke-width="1"/>
  <text x="30" y="282" font-family="Arial, sans-serif" font-size="5" font-weight="700" fill="#F5F5F5">BFA DESIGN</text>
  <text x="30" y="292" font-family="Arial, sans-serif" font-size="4.5" fill="#CFCFCF">Art Institute</text>
  <text x="30" y="301" font-family="Arial, sans-serif" font-size="4.5" font-weight="600" fill="#D4AF37">2014</text>
  <text x="30" y="328" font-family="Georgia, serif" font-size="7" font-weight="700" fill="#C9A227" letter-spacing="1">LANGUAGES</text>
  <line x1="30" y1="332" x2="108" y2="332" stroke="rgba(201,162,39,0.55)" stroke-width="1"/>
  <text x="30" y="346" font-family="Arial, sans-serif" font-size="5" fill="#F5F5F5">English - Fluent</text>
  <text x="30" y="358" font-family="Arial, sans-serif" font-size="5" fill="#F5F5F5">French - Advanced</text>
  <!-- Main -->
  <text x="132" y="126" font-family="Georgia, serif" font-size="7.5" font-weight="700" fill="#1F2937" letter-spacing="1.2">ABOUT ME</text>
  <line x1="132" y1="130" x2="278" y2="130" stroke="rgba(201,162,39,0.6)" stroke-width="1"/>
  <rect x="132" y="138" width="146" height="3" rx="1" fill="#D6D9DE"/>
  <rect x="132" y="146" width="136" height="3" rx="1" fill="#D6D9DE"/>
  <rect x="132" y="154" width="128" height="3" rx="1" fill="#D6D9DE"/>
  <text x="132" y="180" font-family="Georgia, serif" font-size="7.5" font-weight="700" fill="#1F2937" letter-spacing="1.2">EXPERIENCE</text>
  <line x1="132" y1="184" x2="278" y2="184" stroke="rgba(201,162,39,0.6)" stroke-width="1"/>
  <text x="132" y="200" font-family="Georgia, serif" font-size="6" font-weight="700" fill="#1F2937">SENIOR DESIGNER</text>
  <text x="278" y="200" text-anchor="end" font-family="Arial, sans-serif" font-size="4.5" font-weight="600" fill="#8B6B4A">2020-25</text>
  <text x="132" y="210" font-family="Arial, sans-serif" font-size="5" fill="#5B6472">Studio North</text>
  <circle cx="136" cy="220" r="1.5" fill="#C9A227"/>
  <rect x="142" y="218" width="120" height="2.5" rx="1" fill="#D6D9DE"/>
  <circle cx="136" cy="230" r="1.5" fill="#C9A227"/>
  <rect x="142" y="228" width="110" height="2.5" rx="1" fill="#D6D9DE"/>
  <text x="132" y="252" font-family="Georgia, serif" font-size="6" font-weight="700" fill="#1F2937">BRAND DESIGNER</text>
  <text x="278" y="252" text-anchor="end" font-family="Arial, sans-serif" font-size="4.5" font-weight="600" fill="#8B6B4A">2016-20</text>
  <text x="132" y="262" font-family="Arial, sans-serif" font-size="5" fill="#5B6472">Atlas Creative</text>
  <text x="132" y="290" font-family="Georgia, serif" font-size="7.5" font-weight="700" fill="#1F2937" letter-spacing="1.2">PROJECTS</text>
  <line x1="132" y1="294" x2="278" y2="294" stroke="rgba(201,162,39,0.6)" stroke-width="1"/>
  <rect x="132" y="302" width="146" height="36" rx="3" fill="#242B38" stroke="#374151"/>
  <text x="140" y="316" font-family="Georgia, serif" font-size="5.5" font-weight="700" fill="#F5F5F5">Identity System</text>
  <text x="140" y="326" font-family="Arial, sans-serif" font-size="4.5" fill="#D4AF37">Figma / Illustrator</text>
</svg>
