<svg xmlns="http://www.w3.org/2000/svg" width="400" height="520" viewBox="0 0 400 520">
  <defs>
    <linearGradient id="burgundy" x1="0" y1="0" x2="1" y2="1">
      <stop offset="0%" stop-color="#7A1F38"/>
      <stop offset="50%" stop-color="#5B1024"/>
      <stop offset="100%" stop-color="#3D0818"/>
    </linearGradient>
    <linearGradient id="gold" x1="0" y1="0" x2="1" y2="0">
      <stop offset="0%" stop-color="#E8D4B0"/>
      <stop offset="50%" stop-color="#C9A26B"/>
      <stop offset="100%" stop-color="#A8844A"/>
    </linearGradient>
  </defs>
  <rect width="400" height="520" fill="#F8F3EC"/>
  <rect x="12" y="12" width="376" height="496" fill="none" stroke="url(#gold)" stroke-width="1.5" opacity="0.85"/>
  <path d="M12,12 L12,36 L28,36 L28,20 L44,20 L44,12 Z" fill="none" stroke="url(#gold)" stroke-width="1" opacity="0.75"/>
  <path d="M388,12 L388,36 L372,36 L372,20 L356,20 L356,12 Z" fill="none" stroke="url(#gold)" stroke-width="1" opacity="0.75"/>
  <!-- Header -->
  <rect x="12" y="12" width="376" height="96" fill="url(#burgundy)"/>
  <rect x="28" y="32" width="56" height="56" fill="none" stroke="url(#gold)" stroke-width="1.5" transform="rotate(45 56 60)"/>
  <circle cx="56" cy="60" r="24" fill="#4A2030" stroke="url(#gold)" stroke-width="1"/>
  <text x="100" y="52" font-family="Georgia,serif" font-size="22" font-weight="700" fill="#FFFFFF" letter-spacing="3">JULIAN VANCE</text>
  <text x="100" y="72" font-family="Arial,sans-serif" font-size="9" fill="url(#gold)" letter-spacing="2.5">CHIEF OPERATIONS OFFICER</text>
  <line x1="28" y1="92" x2="372" y2="92" stroke="url(#gold)" stroke-width="0.6" opacity="0.5"/>
  <circle cx="48" cy="100" r="5" fill="rgba(201,162,107,0.3)" stroke="#C9A26B" stroke-width="0.5"/>
  <rect x="58" y="97" width="60" height="6" rx="2" fill="rgba(255,255,255,0.7)"/>
  <circle cx="140" cy="100" r="5" fill="rgba(201,162,107,0.3)" stroke="#C9A26B" stroke-width="0.5"/>
  <rect x="150" y="97" width="80" height="6" rx="2" fill="rgba(255,255,255,0.7)"/>
  <!-- Summary -->
  <text x="28" y="132" font-family="Georgia,serif" font-size="11" font-weight="700" fill="#5B1024" letter-spacing="2">SUMMARY</text>
  <line x1="28" y1="138" x2="372" y2="138" stroke="#C9A26B" stroke-width="0.6" opacity="0.6"/>
  <rect x="28" y="148" width="320" height="5" rx="2" fill="#2A2A2A" opacity="0.15"/>
  <rect x="28" y="158" width="280" height="5" rx="2" fill="#2A2A2A" opacity="0.12"/>
  <rect x="28" y="168" width="300" height="5" rx="2" fill="#2A2A2A" opacity="0.12"/>
  <!-- Experience timeline -->
  <text x="28" y="196" font-family="Georgia,serif" font-size="11" font-weight="700" fill="#5B1024" letter-spacing="2">EXPERIENCE</text>
  <line x1="28" y1="202" x2="372" y2="202" stroke="#C9A26B" stroke-width="0.6" opacity="0.6"/>
  <line x1="88" y1="212" x2="88" y2="290" stroke="#5B1024" stroke-width="1.2" opacity="0.4"/>
  <circle cx="88" cy="218" r="5" fill="#5B1024" stroke="#C9A26B" stroke-width="1"/>
  <circle cx="88" cy="258" r="5" fill="#5B1024" stroke="#C9A26B" stroke-width="1"/>
  <text x="78" y="222" font-family="Arial,sans-serif" font-size="8" fill="#5B1024" text-anchor="end">04/2020</text>
  <text x="100" y="218" font-family="Georgia,serif" font-size="10" font-weight="700" fill="#5B1024">VP OPERATIONS</text>
  <rect x="100" y="224" width="120" height="5" rx="2" fill="#2A2A2A" opacity="0.15"/>
  <rect x="100" y="234" width="240" height="4" rx="2" fill="#2A2A2A" opacity="0.1"/>
  <text x="78" y="262" font-family="Arial,sans-serif" font-size="8" fill="#5B1024" text-anchor="end">2016</text>
  <text x="100" y="258" font-family="Georgia,serif" font-size="10" font-weight="700" fill="#5B1024">DIRECTOR</text>
  <rect x="100" y="264" width="100" height="5" rx="2" fill="#2A2A2A" opacity="0.15"/>
  <!-- Skills -->
  <text x="28" y="316" font-family="Georgia,serif" font-size="11" font-weight="700" fill="#5B1024" letter-spacing="2">SKILLS</text>
  <line x1="28" y1="322" x2="372" y2="322" stroke="#C9A26B" stroke-width="0.6" opacity="0.6"/>
  <rect x="28" y="332" width="90" height="18" rx="2" fill="rgba(201,162,107,0.22)" stroke="#C9A26B" stroke-width="0.5"/>
  <rect x="124" y="332" width="110" height="18" rx="2" fill="rgba(201,162,107,0.22)" stroke="#C9A26B" stroke-width="0.5"/>
  <rect x="240" y="332" width="100" height="18" rx="2" fill="rgba(201,162,107,0.22)" stroke="#C9A26B" stroke-width="0.5"/>
  <rect x="28" y="356" width="80" height="18" rx="2" fill="rgba(201,162,107,0.22)" stroke="#C9A26B" stroke-width="0.5"/>
  <rect x="114" y="356" width="95" height="18" rx="2" fill="rgba(201,162,107,0.22)" stroke="#C9A26B" stroke-width="0.5"/>
  <!-- Bottom columns -->
  <text x="28" y="400" font-family="Georgia,serif" font-size="10" font-weight="700" fill="#5B1024" letter-spacing="1.5">EDUCATION</text>
  <line x1="28" y1="405" x2="190" y2="405" stroke="#C9A26B" stroke-width="0.5" opacity="0.5"/>
  <rect x="28" y="414" width="140" height="5" rx="2" fill="#5B1024" opacity="0.5"/>
  <rect x="28" y="424" width="120" height="4" rx="2" fill="#2A2A2A" opacity="0.12"/>
  <text x="210" y="400" font-family="Georgia,serif" font-size="10" font-weight="700" fill="#5B1024" letter-spacing="1.5">ACHIEVEMENTS</text>
  <line x1="210" y1="405" x2="372" y2="405" stroke="#C9A26B" stroke-width="0.5" opacity="0.5"/>
  <rect x="218" y="414" width="6" height="6" fill="#C9A26B" transform="rotate(45 221 417)"/>
  <rect x="230" y="414" width="130" height="4" rx="2" fill="#2A2A2A" opacity="0.12"/>
  <rect x="218" y="426" width="6" height="6" fill="#C9A26B" transform="rotate(45 221 429)"/>
  <rect x="230" y="426" width="120" height="4" rx="2" fill="#2A2A2A" opacity="0.12"/>
  <text x="28" y="456" font-family="Georgia,serif" font-size="10" font-weight="700" fill="#5B1024" letter-spacing="1.5">LANGUAGES</text>
  <text x="210" y="456" font-family="Georgia,serif" font-size="10" font-weight="700" fill="#5B1024" letter-spacing="1.5">INTERESTS</text>
  <rect x="28" y="464" width="80" height="4" rx="2" fill="#2A2A2A" opacity="0.12"/>
  <rect x="210" y="464" width="150" height="4" rx="2" fill="#2A2A2A" opacity="0.12"/>
</svg>
