<svg xmlns="http://www.w3.org/2000/svg" width="240" height="160" viewBox="0 0 240 160">
  <defs>
    <linearGradient id="burgundy" x1="0" y1="0" x2="1" y2="1">
      <stop offset="0%" stop-color="#7A1F38"/>
      <stop offset="50%" stop-color="#5B1024"/>
      <stop offset="100%" stop-color="#3D0818"/>
    </linearGradient>
    <linearGradient id="gold" x1="0" y1="0" x2="1" y2="0">
      <stop offset="0%" stop-color="#E8D4B0"/>
      <stop offset="50%" stop-color="#C9A26B"/>
      <stop offset="100%" stop-color="#A8844A"/>
    </linearGradient>
  </defs>
  <rect width="240" height="160" rx="10" fill="#F8F3EC"/>
  <rect x="8" y="8" width="224" height="144" fill="none" stroke="url(#gold)" stroke-width="1" opacity="0.85"/>
  <rect x="12" y="12" width="216" height="136" fill="none" stroke="#5B1024" stroke-width="0.4" opacity="0.3"/>
  <path d="M8,8 L8,22 L18,22 L18,12 L28,12 L28,8 Z" fill="none" stroke="url(#gold)" stroke-width="0.7" opacity="0.8"/>
  <path d="M232,8 L232,22 L222,22 L222,12 L212,12 L212,8 Z" fill="none" stroke="url(#gold)" stroke-width="0.7" opacity="0.8"/>
  <!-- Header band -->
  <rect x="8" y="8" width="224" height="38" rx="4" fill="url(#burgundy)"/>
  <!-- Diamond photo frame -->
  <rect x="18" y="16" width="22" height="22" fill="none" stroke="url(#gold)" stroke-width="1" transform="rotate(45 29 27)" opacity="0.9"/>
  <circle cx="29" cy="27" r="8" fill="#4A2030" stroke="url(#gold)" stroke-width="0.5"/>
  <text x="52" y="24" font-family="Georgia,serif" font-size="8" font-weight="700" fill="#FFFFFF" letter-spacing="1.5">JULIAN VANCE</text>
  <text x="52" y="34" font-family="Arial,sans-serif" font-size="3.5" fill="url(#gold)" letter-spacing="1.2">CHIEF OPERATIONS OFFICER</text>
  <line x1="52" y1="38" x2="220" y2="38" stroke="url(#gold)" stroke-width="0.4" opacity="0.5"/>
  <!-- Body sections -->
  <text x="18" y="58" font-family="Georgia,serif" font-size="4.5" fill="#5B1024" font-weight="700" letter-spacing="1">SUMMARY</text>
  <line x1="18" y1="61" x2="222" y2="61" stroke="#C9A26B" stroke-width="0.4" opacity="0.55"/>
  <rect x="18" y="65" width="190" height="2" rx="1" fill="#2A2A2A" opacity="0.2"/>
  <rect x="18" y="70" width="170" height="2" rx="1" fill="#2A2A2A" opacity="0.15"/>
  <text x="18" y="82" font-family="Georgia,serif" font-size="4.5" fill="#5B1024" font-weight="700" letter-spacing="1">EXPERIENCE</text>
  <line x1="18" y1="85" x2="222" y2="85" stroke="#C9A26B" stroke-width="0.4" opacity="0.55"/>
  <line x1="38" y1="90" x2="38" y2="108" stroke="#5B1024" stroke-width="0.8" opacity="0.45"/>
  <circle cx="38" cy="92" r="2" fill="#5B1024" stroke="#C9A26B" stroke-width="0.5"/>
  <circle cx="38" cy="104" r="2" fill="#5B1024" stroke="#C9A26B" stroke-width="0.5"/>
  <text x="18" y="94" font-family="Arial,sans-serif" font-size="3" fill="#5B1024" text-anchor="end">2020</text>
  <rect x="46" y="90" width="60" height="2.5" rx="1" fill="#5B1024" opacity="0.65"/>
  <rect x="46" y="95" width="80" height="2" rx="1" fill="#2A2A2A" opacity="0.2"/>
  <text x="18" y="106" font-family="Arial,sans-serif" font-size="3" fill="#5B1024" text-anchor="end">2018</text>
  <rect x="46" y="102" width="55" height="2.5" rx="1" fill="#5B1024" opacity="0.65"/>
  <!-- Skills tags -->
  <text x="18" y="118" font-family="Georgia,serif" font-size="4.5" fill="#5B1024" font-weight="700" letter-spacing="1">SKILLS</text>
  <line x1="18" y1="121" x2="222" y2="121" stroke="#C9A26B" stroke-width="0.4" opacity="0.55"/>
  <rect x="18" y="125" width="42" height="8" rx="1" fill="rgba(201,162,107,0.25)" stroke="#C9A26B" stroke-width="0.3"/>
  <rect x="64" y="125" width="48" height="8" rx="1" fill="rgba(201,162,107,0.25)" stroke="#C9A26B" stroke-width="0.3"/>
  <rect x="116" y="125" width="52" height="8" rx="1" fill="rgba(201,162,107,0.25)" stroke="#C9A26B" stroke-width="0.3"/>
  <!-- Bottom columns -->
  <text x="18" y="142" font-family="Georgia,serif" font-size="4" fill="#5B1024" font-weight="700" letter-spacing="0.8">EDUCATION</text>
  <rect x="18" y="146" width="70" height="2" rx="1" fill="#2A2A2A" opacity="0.2"/>
  <text x="130" y="142" font-family="Georgia,serif" font-size="4" fill="#5B1024" font-weight="700" letter-spacing="0.8">ACHIEVEMENTS</text>
  <rect x="130" y="146" width="80" height="2" rx="1" fill="#2A2A2A" opacity="0.2"/>
</svg>
