<svg xmlns="http://www.w3.org/2000/svg" width="800" height="1000" viewBox="0 0 800 1000">
  <rect width="800" height="1000" fill="#FCFBF9"/>
  <path d="M0 60 Q160 0 320 60" fill="none" stroke="rgba(214,206,194,0.5)" stroke-width="16"/>
  <path d="M40 80 Q180 40 300 80" fill="none" stroke="rgba(239,230,218,0.55)" stroke-width="10"/>
  <circle cx="720" cy="40" r="100" fill="rgba(185,119,91,0.18)"/>
  <circle cx="96" cy="132" r="56" fill="#EAE6E2" stroke="#DDD4CA" stroke-width="1"/>
  <circle cx="96" cy="132" r="64" fill="none" stroke="rgba(214,206,194,0.85)" stroke-width="2"/>
  <text x="180" y="112" font-family="Georgia,serif" font-size="26" font-weight="700" fill="#2D2D2D">ARTHUR</text>
  <text x="180" y="144" font-family="Georgia,serif" font-size="26" font-weight="700" fill="#2D2D2D">STERLING</text>
  <text x="180" y="170" font-family="Arial,sans-serif" font-size="7" fill="#666666" letter-spacing="1.2">CHIEF PRODUCT STRATEGIST | DESIGN LEADER</text>
  <rect x="36" y="188" width="728" height="40" rx="10" fill="#EFE6DA" stroke="#DDD4CA" stroke-width="0.8"/>
  <text x="56" y="214" font-family="Arial,sans-serif" font-size="5.5" fill="#2D2D2D">email@example.com</text>
  <text x="280" y="214" font-family="Arial,sans-serif" font-size="5.5" fill="#2D2D2D">+1 555 0123</text>
  <text x="440" y="214" font-family="Arial,sans-serif" font-size="5.5" fill="#2D2D2D">linkedin.com/in/arthur</text>
  <line x1="36" y1="240" x2="764" y2="240" stroke="#DDD4CA" stroke-width="0.8"/>
  <text x="36" y="272" font-family="Arial,sans-serif" font-size="7" font-weight="600" fill="#2D2D2D" letter-spacing="1.4">PROFESSIONAL SUMMARY</text>
  <line x1="36" y1="280" x2="220" y2="280" stroke="#C78F72" stroke-width="1.5" opacity="0.55"/>
  <rect x="36" y="292" width="488" height="80" rx="14" fill="#F6F2EB" stroke="#DDD4CA" stroke-width="0.8"/>
  <text x="36" y="396" font-family="Arial,sans-serif" font-size="7" font-weight="600" fill="#2D2D2D" letter-spacing="1.4">EXPERIENCE</text>
  <line x1="36" y1="404" x2="180" y2="404" stroke="#C78F72" stroke-width="1.5" opacity="0.55"/>
  <line x1="36" y1="420" x2="36" y2="520" stroke="#B9775B" stroke-width="2" opacity="0.75"/>
  <text x="52" y="440" font-family="Arial,sans-serif" font-size="6.5" font-weight="700" fill="#2D2D2D">Lead Product Strategist</text>
  <text x="52" y="456" font-family="Arial,sans-serif" font-size="5.5" fill="#666666">Global Studio · 2020  Present</text>
  <text x="36" y="548" font-family="Arial,sans-serif" font-size="7" font-weight="600" fill="#2D2D2D" letter-spacing="1.4">PROJECTS</text>
  <rect x="36" y="560" width="488" height="72" rx="14" fill="#F6F2EB" stroke="#DDD4CA" stroke-width="0.8"/>
  <text x="544" y="272" font-family="Arial,sans-serif" font-size="7" font-weight="600" fill="#2D2D2D" letter-spacing="1.4">SKILLS</text>
  <line x1="544" y1="280" x2="764" y2="280" stroke="#C78F72" stroke-width="1.5" opacity="0.55"/>
  <rect x="544" y="292" width="72" height="24" rx="12" fill="#F6F2EB" stroke="#DDD4CA" stroke-width="0.6"/>
  <rect x="624" y="292" width="80" height="24" rx="12" fill="#F6F2EB" stroke="#DDD4CA" stroke-width="0.6"/>
  <rect x="544" y="324" width="64" height="24" rx="12" fill="#F6F2EB" stroke="#DDD4CA" stroke-width="0.6"/>
  <text x="544" y="372" font-family="Arial,sans-serif" font-size="7" font-weight="600" fill="#2D2D2D" letter-spacing="1.4">EDUCATION</text>
  <line x1="544" y1="380" x2="764" y2="380" stroke="#C78F72" stroke-width="1.5" opacity="0.55"/>
  <text x="544" y="440" font-family="Arial,sans-serif" font-size="7" font-weight="600" fill="#2D2D2D" letter-spacing="1.4">LANGUAGES</text>
  <rect x="544" y="500" width="204" height="64" rx="12" fill="#EAE6E2" stroke="#DDD4CA" stroke-width="0.8"/>
  <text x="544" y="488" font-family="Arial,sans-serif" font-size="7" font-weight="600" fill="#2D2D2D" letter-spacing="1.4">ACHIEVEMENTS</text>
  <text x="400" y="972" text-anchor="middle" font-family="Georgia,serif" font-size="18" font-weight="600" fill="#C78F72" letter-spacing="3">STERLING EXECUTIVE</text>
</svg>
