<svg xmlns="http://www.w3.org/2000/svg" width="300" height="400" viewBox="0 0 300 400">
  <rect width="300" height="400" fill="#FCFBF9"/>
  <path d="M0 20 Q50 0 100 20" fill="none" stroke="rgba(214,206,194,0.5)" stroke-width="8"/>
  <circle cx="270" cy="20" r="40" fill="rgba(185,119,91,0.18)"/>
  <circle cx="40" cy="52" r="24" fill="#EAE6E2" stroke="#DDD4CA" stroke-width="0.6"/>
  <circle cx="40" cy="52" r="28" fill="none" stroke="rgba(214,206,194,0.85)" stroke-width="1"/>
  <text x="78" y="44" font-family="Georgia,serif" font-size="9" font-weight="700" fill="#2D2D2D">ARTHUR</text>
  <text x="78" y="54" font-family="Georgia,serif" font-size="9" font-weight="700" fill="#2D2D2D">STERLING</text>
  <text x="78" y="62" font-family="Arial,sans-serif" font-size="2" fill="#666666" letter-spacing="0.3">CHIEF PRODUCT STRATEGIST</text>
  <rect x="14" y="68" width="272" height="16" rx="5" fill="#EFE6DA" stroke="#DDD4CA" stroke-width="0.3"/>
  <line x1="14" y1="90" x2="286" y2="90" stroke="#DDD4CA" stroke-width="0.4"/>
  <text x="14" y="104" font-family="Arial,sans-serif" font-size="2.4" font-weight="600" fill="#2D2D2D" letter-spacing="0.4">PROFESSIONAL SUMMARY</text>
  <line x1="14" y1="108" x2="120" y2="108" stroke="#C78F72" stroke-width="0.8" opacity="0.55"/>
  <rect x="14" y="112" width="188" height="32" rx="7" fill="#F6F2EB" stroke="#DDD4CA" stroke-width="0.3"/>
  <line x1="14" y1="152" x2="14" y2="188" stroke="#B9775B" stroke-width="1.2" opacity="0.75"/>
  <text x="22" y="158" font-family="Arial,sans-serif" font-size="2.4" font-weight="600" fill="#2D2D2D" letter-spacing="0.4">EXPERIENCE</text>
  <rect x="208" y="112" width="78" height="100" fill="none"/>
  <text x="214" y="126" font-family="Arial,sans-serif" font-size="2.4" font-weight="600" fill="#2D2D2D" letter-spacing="0.4">SKILLS</text>
  <line x1="214" y1="130" x2="286" y2="130" stroke="#C78F72" stroke-width="0.8" opacity="0.55"/>
  <rect x="214" y="136" width="28" height="10" rx="5" fill="#F6F2EB" stroke="#DDD4CA" stroke-width="0.3"/>
  <rect x="246" y="136" width="28" height="10" rx="5" fill="#F6F2EB" stroke="#DDD4CA" stroke-width="0.3"/>
  <rect x="214" y="150" width="32" height="10" rx="5" fill="#F6F2EB" stroke="#DDD4CA" stroke-width="0.3"/>
  <text x="150" y="388" text-anchor="middle" font-family="Georgia,serif" font-size="7" font-weight="600" fill="#C78F72" letter-spacing="1.2">STERLING EXECUTIVE</text>
</svg>
