<svg xmlns="http://www.w3.org/2000/svg" width="300" height="400" viewBox="0 0 300 400">
  <rect width="300" height="400" fill="#F9F4EC"/>
  <path d="M0 20 Q50 0 100 20" fill="none" stroke="rgba(212,196,170,0.55)" stroke-width="8"/>
  <circle cx="270" cy="20" r="40" fill="rgba(181,107,69,0.16)"/>
  <rect x="14" y="14" width="272" height="56" rx="8" fill="rgba(237,227,208,0.65)" stroke="#C9B89A" stroke-width="0.4"/>
  <circle cx="40" cy="42" r="24" fill="#EDE5D6" stroke="#C9B89A" stroke-width="0.6"/>
  <circle cx="40" cy="42" r="28" fill="none" stroke="rgba(201,184,154,0.85)" stroke-width="1"/>
  <text x="78" y="36" font-family="Georgia,serif" font-size="9" font-weight="700" fill="#4A3F35">ARTHUR</text>
  <text x="78" y="46" font-family="Georgia,serif" font-size="9" font-weight="700" fill="#4A3F35">STERLING</text>
  <text x="78" y="54" font-family="Arial,sans-serif" font-size="2" fill="#6E6258" letter-spacing="0.3">CHIEF PRODUCT STRATEGIST</text>
  <rect x="22" y="58" width="256" height="10" rx="4" fill="#EDE3D0" stroke="#C9B89A" stroke-width="0.3"/>
  <text x="14" y="88" font-family="Arial,sans-serif" font-size="2.4" font-weight="600" fill="#4A3F35" letter-spacing="0.4">PROFESSIONAL SUMMARY</text>
  <line x1="14" y1="92" x2="120" y2="92" stroke="#7A8068" stroke-width="0.8" opacity="0.65"/>
  <rect x="14" y="96" width="188" height="32" rx="7" fill="#F5EDE0" stroke="#C9B89A" stroke-width="0.3"/>
  <line x1="14" y1="136" x2="14" y2="172" stroke="#7A8068" stroke-width="1.2" opacity="0.8"/>
  <rect x="22" y="142" width="176" height="24" rx="6" fill="rgba(245,237,224,0.85)" stroke="#C9B89A" stroke-width="0.3"/>
  <rect x="208" y="96" width="78" height="100" fill="none"/>
  <text x="214" y="110" font-family="Arial,sans-serif" font-size="2.4" font-weight="600" fill="#4A3F35" letter-spacing="0.4">SKILLS</text>
  <line x1="214" y1="114" x2="286" y2="114" stroke="#7A8068" stroke-width="0.8" opacity="0.65"/>
  <rect x="214" y="120" width="28" height="10" rx="5" fill="#EDE3D0" stroke="rgba(122,128,104,0.28)" stroke-width="0.3"/>
  <rect x="246" y="120" width="28" height="10" rx="5" fill="#EDE3D0" stroke="rgba(122,128,104,0.28)" stroke-width="0.3"/>
  <rect x="214" y="134" width="32" height="10" rx="5" fill="#EDE3D0" stroke="rgba(122,128,104,0.28)" stroke-width="0.3"/>
  <rect x="214" y="152" width="72" height="18" rx="5" fill="#FAF6EF" stroke="#C9B89A" stroke-width="0.3"/>
  <text x="150" y="388" text-anchor="middle" font-family="Georgia,serif" font-size="7" font-weight="600" fill="#8E7358" letter-spacing="1.2">STERLING EXECUTIVE</text>
</svg>
