<svg width="800" height="1000" xmlns="http://www.w3.org/2000/svg">
  <rect width="800" height="1000" fill="#FFFFFF"/>
  <rect x="0" y="0" width="800" height="4" fill="#C87840"/>
  <rect x="0" y="4" width="800" height="136" fill="#1E2328"/>
  <rect x="48" y="28" width="112" height="112" rx="4" fill="#3A4048" stroke="#BFC4C8" stroke-width="2"/>
  <text x="184" y="72" font-family="Arial,sans-serif" font-size="28" font-weight="700" fill="#fff" letter-spacing="2">ETHAN JAMES CLARK</text>
  <text x="184" y="96" font-family="Arial,sans-serif" font-size="10" fill="#BFC4C8" letter-spacing="2.5">SENIOR PRODUCT MANAGER</text>
  <text x="184" y="118" font-family="Arial,sans-serif" font-size="9" fill="#BFC4C8">Phone • Email • LinkedIn • Location</text>
  <rect x="48" y="152" width="500" height="780" fill="#fff"/>
  <line x1="548" y1="152" x2="548" y2="932" stroke="#DADADA"/>
  <rect x="552" y="152" width="200" height="780" fill="#fff"/>
  <rect x="48" y="176" width="500" height="28" fill="#5F6973"/>
  <rect x="48" y="204" width="500" height="3" fill="#C87840"/>
  <text x="60" y="196" font-family="Arial,sans-serif" font-size="11" font-weight="700" fill="#fff" letter-spacing="1.5">PROFESSIONAL EXPERIENCE</text>
  <line x1="68" y1="240" x2="68" y2="420" stroke="#BFC4C8" stroke-width="2"/>
  <circle cx="68" cy="252" r="6" fill="#5F6973"/>
  <rect x="552" y="176" width="200" height="24" fill="#5F6973"/>
  <rect x="560" y="212" width="184" height="22" rx="2" fill="#BFC4C8"/>
  <text x="400" y="968" text-anchor="middle" font-family="Arial,sans-serif" font-size="22" font-weight="700" fill="#1E2328">Slate Executive Pro</text>
</svg>
