<svg width="800" height="1000" xmlns="http://www.w3.org/2000/svg">
  <rect width="800" height="1000" fill="#FFFFFF"/>
  <rect x="0" y="0" width="800" height="4" fill="#C87840"/>
  <rect x="0" y="4" width="800" height="140" fill="#1E2328"/>
  <text x="400" y="64" text-anchor="middle" font-family="Arial,sans-serif" font-size="32" font-weight="700" fill="#fff" letter-spacing="2">ETHAN JAMES CLARK</text>
  <text x="400" y="92" text-anchor="middle" font-family="Arial,sans-serif" font-size="11" fill="#BFC4C8" letter-spacing="2.5">SENIOR PRODUCT MANAGER</text>
  <line x1="120" y1="108" x2="680" y2="108" stroke="rgba(255,255,255,0.15)"/>
  <text x="400" y="128" text-anchor="middle" font-family="Arial,sans-serif" font-size="10" fill="#BFC4C8">Phone " Email " LinkedIn " Location</text>
  <rect x="48" y="160" width="500" height="780" fill="#fff"/>
  <line x1="548" y1="160" x2="548" y2="940" stroke="#DADADA"/>
  <rect x="552" y="160" width="200" height="780" fill="#fff"/>
  <text x="56" y="200" font-family="Arial,sans-serif" font-size="10.5" fill="#1F1F1F">Professional summary paragraph...</text>
  <rect x="48" y="240" width="500" height="28" fill="#5F6973"/>
  <rect x="48" y="268" width="500" height="3" fill="#C87840"/>
  <text x="60" y="260" font-family="Arial,sans-serif" font-size="11" font-weight="700" fill="#fff" letter-spacing="1.5">PROFESSIONAL EXPERIENCE</text>
  <line x1="68" y1="300" x2="68" y2="480" stroke="#BFC4C8" stroke-width="2"/>
  <circle cx="68" cy="312" r="6" fill="#5F6973"/>
  <circle cx="68" cy="400" r="6" fill="#5F6973"/>
  <rect x="552" y="240" width="200" height="24" fill="#5F6973"/>
  <text x="560" y="256" font-family="Arial,sans-serif" font-size="10" font-weight="700" fill="#fff" letter-spacing="1">SKILLS</text>
  <rect x="560" y="276" width="184" height="22" rx="2" fill="#BFC4C8"/>
  <rect x="560" y="304" width="184" height="22" rx="2" fill="#BFC4C8"/>
  <rect x="560" y="332" width="184" height="22" rx="2" fill="#BFC4C8"/>
  <rect x="552" y="380" width="200" height="24" fill="#5F6973"/>
  <text x="560" y="396" font-family="Arial,sans-serif" font-size="10" font-weight="700" fill="#fff" letter-spacing="1">EDUCATION</text>
  <text x="400" y="968" text-anchor="middle" font-family="Arial,sans-serif" font-size="22" font-weight="700" fill="#1E2328">Slate Executive Pro</text>
</svg>
