<svg width="300" height="400" xmlns="http://www.w3.org/2000/svg">
  <rect width="300" height="400" fill="#FFFFFF"/>
  <rect x="0" y="0" width="300" height="3" fill="#C87840"/>
  <rect x="0" y="3" width="300" height="68" fill="#1E2328"/>
  <text x="150" y="32" text-anchor="middle" font-family="Arial,sans-serif" font-size="11" font-weight="700" fill="#fff" letter-spacing="1">ETHAN JAMES CLARK</text>
  <text x="150" y="48" text-anchor="middle" font-family="Arial,sans-serif" font-size="5" fill="#BFC4C8" letter-spacing="0.8">SENIOR PRODUCT MANAGER</text>
  <line x1="40" y1="56" x2="260" y2="56" stroke="rgba(255,255,255,0.15)"/>
  <text x="150" y="66" text-anchor="middle" font-family="Arial,sans-serif" font-size="4" fill="#BFC4C8">contact row</text>
  <rect x="24" y="82" width="168" height="300" fill="#fff"/>
  <line x1="192" y1="82" x2="192" y2="382" stroke="#DADADA"/>
  <rect x="196" y="82" width="80" height="300" fill="#fff"/>
  <rect x="24" y="96" width="168" height="14" fill="#5F6973"/>
  <rect x="24" y="110" width="168" height="2" fill="#C87840"/>
  <text x="30" y="106" font-family="Arial,sans-serif" font-size="4.5" fill="#fff" letter-spacing="0.6">PROFESSIONAL EXPERIENCE</text>
  <line x1="32" y1="130" x2="32" y2="200" stroke="#BFC4C8" stroke-width="1.5"/>
  <circle cx="32" cy="138" r="3" fill="#5F6973"/>
  <rect x="196" y="96" width="80" height="12" fill="#5F6973"/>
  <rect x="200" y="114" width="72" height="10" rx="2" fill="#BFC4C8"/>
  <rect x="200" y="128" width="72" height="10" rx="2" fill="#BFC4C8"/>
  <rect x="200" y="142" width="72" height="10" rx="2" fill="#BFC4C8"/>
  <text x="150" y="392" text-anchor="middle" font-family="Arial,sans-serif" font-size="9" font-weight="700" fill="#1E2328">Slate Executive Pro</text>
</svg>
