<svg xmlns="http://www.w3.org/2000/svg" width="300" height="400" viewBox="0 0 300 400">
  <rect width="300" height="400" fill="#FFFFFF"/>
  <!-- Portrait -->
  <rect x="218" y="18" width="58" height="72" rx="8" fill="#F1F5F9" stroke="#CBD5E1"/>
  <rect x="210" y="26" width="58" height="72" rx="8" fill="#E2E8F0" stroke="#CBD5E1"/>
  <rect x="218" y="18" width="58" height="72" rx="8" fill="#334155" opacity="0.15"/>
  <!-- Name -->
  <text x="24" y="36" font-family="Georgia,serif" font-size="14" font-weight="700" fill="#1E293B" letter-spacing="1">JEREMY TORRES</text>
  <text x="24" y="52" font-family="Arial,sans-serif" font-size="6" font-weight="600" fill="#6B7280" letter-spacing="0.8">GRAPHIC DESIGNER</text>
  <!-- Objective -->
  <line x1="24" y1="62" x2="276" y2="62" stroke="#1E293B" stroke-width="1.2"/>
  <text x="24" y="74" font-family="Georgia,serif" font-size="5.5" font-weight="700" fill="#1E293B">OBJECTIVE</text>
  <rect x="24" y="80" width="240" height="2" rx="1" fill="#E2E8F0"/>
  <rect x="24" y="86" width="220" height="2" rx="1" fill="#E2E8F0"/>
  <!-- Contact icons row -->
  <circle cx="34" cy="104" r="6" fill="#1E293B"/>
  <circle cx="114" cy="104" r="6" fill="#1E293B"/>
  <circle cx="194" cy="104" r="6" fill="#1E293B"/>
  <rect x="44" y="100" width="50" height="2" rx="1" fill="#CBD5E1"/>
  <rect x="124" y="100" width="50" height="2" rx="1" fill="#CBD5E1"/>
  <rect x="204" y="100" width="50" height="2" rx="1" fill="#CBD5E1"/>
  <!-- Left column -->
  <text x="24" y="128" font-family="Georgia,serif" font-size="5.5" font-weight="700" fill="#1E293B">EDUCATION</text>
  <line x1="24" y1="132" x2="170" y2="132" stroke="#1E293B" stroke-width="1"/>
  <rect x="24" y="138" width="146" height="36" rx="3" fill="#F8FAFC" stroke="#CBD5E1"/>
  <rect x="24" y="170" width="146" height="3" fill="#B08D57"/>
  <text x="24" y="188" font-family="Georgia,serif" font-size="5.5" font-weight="700" fill="#1E293B">WORK EXPERIENCE</text>
  <line x1="24" y1="192" x2="170" y2="192" stroke="#1E293B" stroke-width="1"/>
  <rect x="24" y="198" width="130" height="2" rx="1" fill="#334155"/>
  <rect x="24" y="204" width="110" height="2" rx="1" fill="#CBD5E1"/>
  <line x1="24" y1="214" x2="170" y2="214" stroke="#E2E8F0"/>
  <rect x="24" y="220" width="120" height="2" rx="1" fill="#334155"/>
  <!-- Right column -->
  <text x="188" y="128" font-family="Georgia,serif" font-size="5.5" font-weight="700" fill="#1E293B">SKILLS</text>
  <line x1="188" y1="132" x2="276" y2="132" stroke="#1E293B" stroke-width="1"/>
  <rect x="188" y="138" width="36" height="10" rx="5" fill="#F8FAFC" stroke="#CBD5E1"/>
  <rect x="228" y="138" width="36" height="10" rx="5" fill="#F8FAFC" stroke="#CBD5E1"/>
  <rect x="188" y="152" width="40" height="10" rx="5" fill="#F8FAFC" stroke="#CBD5E1"/>
  <text x="188" y="178" font-family="Georgia,serif" font-size="5.5" font-weight="700" fill="#1E293B">AWARDS</text>
  <line x1="188" y1="182" x2="276" y2="182" stroke="#1E293B" stroke-width="1"/>
  <rect x="188" y="188" width="88" height="28" rx="4" fill="#F1F5F9" stroke="#CBD5E1"/>
  <text x="150" y="388" text-anchor="middle" font-family="Arial,sans-serif" font-size="7" font-weight="700" fill="#1E293B">Slate Elite Professional</text>
</svg>
