<svg width="300" height="400" xmlns="http://www.w3.org/2000/svg">
  <rect width="300" height="400" fill="#FFFFFF"/>
  <circle cx="40" cy="40" r="22" fill="#ECECEC" stroke="#C91F2E" stroke-width="2"/>
  <circle cx="40" cy="40" r="18" fill="#D6D6D6"/>
  <text x="72" y="34" font-family="Arial,sans-serif" font-size="9" font-weight="800" fill="#1F1F1F" letter-spacing="0.8">JONATHAN REED</text>
  <text x="168" y="34" font-family="Arial,sans-serif" font-size="14" font-weight="300" fill="#C91F2E">/</text>
  <text x="72" y="46" font-family="Arial,sans-serif" font-size="4" fill="#5C5C5C" letter-spacing="0.5">CHIEF OPERATIONS OFFICER</text>
  <line x1="24" y1="54" x2="276" y2="54" stroke="#D6D6D6"/>
  <text x="24" y="64" font-family="Arial,sans-serif" font-size="3.5" fill="#5C5C5C">phone  email  linkedin</text>
  <rect x="24" y="76" width="160" height="14" fill="#ECECEC"/>
  <polygon points="184,76 196,90 184,90" fill="#C91F2E"/>
  <text x="32" y="86" font-family="Arial,sans-serif" font-size="4.5" font-weight="700" fill="#1F1F1F">/ EXPERIENCE</text>
  <line x1="28" y1="100" x2="28" y2="140" stroke="#D6D6D6" stroke-width="1"/>
  <circle cx="28" cy="106" r="3" fill="#C91F2E"/>
  <text x="36" y="108" font-family="Arial,sans-serif" font-size="4" font-weight="800" fill="#1F1F1F">GRAPHITE BLACK</text>
  <line x1="188" y1="76" x2="188" y2="360" stroke="#D6D6D6"/>
  <rect x="196" y="76" width="88" height="12" fill="#ECECEC"/>
  <text x="204" y="85" font-family="Arial,sans-serif" font-size="3.5" font-weight="700" fill="#1F1F1F">/ CORE SKILLS</text>
  <rect x="196" y="92" width="40" height="10" fill="#ECECEC" stroke="#D6D6D6"/>
  <rect x="240" y="92" width="40" height="10" fill="#ECECEC" stroke="#D6D6D6"/>
  <text x="150" y="388" text-anchor="middle" font-family="Arial,sans-serif" font-size="9" font-weight="600" fill="#C91F2E">Executive Redline Elite</text>
</svg>
