<svg width="800" height="1000" xmlns="http://www.w3.org/2000/svg">
  <rect width="800" height="1000" fill="#f5f0e8"/>
  <rect x="48" y="40" width="704" height="8" fill="#2c2824"/>
  <rect x="48" y="52" width="704" height="140" rx="0 0 24 24" fill="#f7f3ec" stroke="#e5ddd0"/>
  <rect x="72" y="72" width="100" height="120" rx="14" fill="#e8e0d4" stroke="#c5a574" stroke-width="3"/>
  <text x="200" y="108" font-family="Georgia,serif" font-size="36" font-weight="600" fill="#3d3530" letter-spacing="1">DAVID CHEN</text>
  <text x="200" y="142" font-family="Arial,sans-serif" font-size="11" fill="#6b6258" letter-spacing="3">SENIOR EXECUTIVE LEADERSHIP</text>
  <circle cx="680" cy="88" r="8" fill="none" stroke="#c5a574" stroke-width="1.5"/>
  <circle cx="680" cy="118" r="8" fill="none" stroke="#c5a574" stroke-width="1.5"/>
  <path d="M620 70 Q720 50 740 100" fill="none" stroke="#c5a574" stroke-width="2"/>
  <line x1="48" y1="196" x2="752" y2="196" stroke="#e5ddd0"/>
  <rect x="48" y="200" width="480" height="760" fill="#fdfbf7"/>
  <rect x="528" y="200" width="224" height="760" fill="#faf8f4" stroke="#e5ddd0"/>
  <path d="M120 240 Q280 220 440 240" fill="none" stroke="#c5a574" stroke-width="1.5"/>
  <text x="280" y="248" text-anchor="middle" font-family="Georgia,serif" font-size="14" fill="#3d3530" letter-spacing="2">PROFILE SUMMARY</text>
  <path d="M120 258 Q280 278 440 258" fill="none" stroke="#c5a574" stroke-width="1.5"/>
  <path d="M120 340 Q280 320 440 340" fill="none" stroke="#c5a574" stroke-width="1.5"/>
  <text x="280" y="348" text-anchor="middle" font-family="Georgia,serif" font-size="14" fill="#3d3530" letter-spacing="2">EXPERIENCE</text>
  <path d="M120 358 Q280 378 440 358" fill="none" stroke="#c5a574" stroke-width="1.5"/>
  <path d="M560 240 Q640 228 720 240" fill="none" stroke="#c5a574" stroke-width="1.5"/>
  <text x="640" y="248" text-anchor="middle" font-family="Georgia,serif" font-size="12" fill="#3d3530" letter-spacing="2">SKILLS</text>
  <path d="M560 258 Q640 270 720 258" fill="none" stroke="#c5a574" stroke-width="1.5"/>
  <rect x="560" y="280" width="140" height="8" rx="4" fill="#c5a574"/>
  <rect x="560" y="300" width="120" height="8" rx="4" fill="#c5a574" opacity="0.75"/>
  <text x="400" y="960" text-anchor="middle" font-family="Georgia,serif" font-size="22" font-weight="600" fill="#3d3530">Luxe Executive</text>
</svg>
