<svg width="300" height="400" xmlns="http://www.w3.org/2000/svg">
  <rect width="300" height="400" fill="#f5f0e8"/>
  <rect x="24" y="8" width="252" height="4" fill="#2c2824"/>
  <rect x="24" y="16" width="252" height="72" rx="0 0 16 16" fill="#f7f3ec" stroke="#e5ddd0"/>
  <rect x="36" y="28" width="44" height="52" rx="8" fill="#e8e0d4" stroke="#c5a574" stroke-width="2"/>
  <text x="92" y="42" font-family="Georgia,serif" font-size="14" font-weight="600" fill="#3d3530">DAVID CHEN</text>
  <text x="92" y="58" font-family="Arial,sans-serif" font-size="5" fill="#6b6258" letter-spacing="1">EXECUTIVE LEADERSHIP</text>
  <circle cx="248" cy="36" r="5" fill="none" stroke="#c5a574"/>
  <circle cx="248" cy="52" r="5" fill="none" stroke="#c5a574"/>
  <path d="M230 24 Q260 20 270 40" fill="none" stroke="#c5a574" stroke-width="1"/>
  <line x1="24" y1="92" x2="276" y2="92" stroke="#e5ddd0"/>
  <path d="M40 108 Q90 98 140 108" fill="none" stroke="#c5a574" stroke-width="1"/>
  <text x="90" y="112" font-family="Georgia,serif" font-size="7" fill="#3d3530" letter-spacing="1">PROFILE</text>
  <path d="M40 118 Q90 128 140 118" fill="none" stroke="#c5a574" stroke-width="1"/>
  <rect x="36" y="128" width="140" height="36" fill="none"/>
  <path d="M40 180 Q90 170 140 180" fill="none" stroke="#c5a574" stroke-width="1"/>
  <text x="90" y="184" font-family="Georgia,serif" font-size="7" fill="#3d3530">EXPERIENCE</text>
  <path d="M40 190 Q90 200 140 190" fill="none" stroke="#c5a574" stroke-width="1"/>
  <rect x="188" y="108" width="88" height="200" fill="#faf8f4" stroke="#e5ddd0"/>
  <path d="M200 120 Q240 112 268 120" fill="none" stroke="#c5a574" stroke-width="1"/>
  <text x="228" y="124" text-anchor="middle" font-family="Georgia,serif" font-size="6" fill="#3d3530">SKILLS</text>
  <path d="M200 132 Q240 140 268 132" fill="none" stroke="#c5a574" stroke-width="1"/>
  <rect x="204" y="142" width="56" height="4" rx="2" fill="#c5a574"/>
  <rect x="204" y="154" width="48" height="4" rx="2" fill="#c5a574" opacity="0.7"/>
  <text x="150" y="388" text-anchor="middle" font-family="Georgia,serif" font-size="10" font-weight="600" fill="#3d3530">Luxe Executive</text>
</svg>
