<svg xmlns="http://www.w3.org/2000/svg" width="600" height="800" viewBox="0 0 600 800">
  <rect width="600" height="800" fill="#FFFFFF"/>
  <!-- Main -->
  <rect x="36" y="52" width="4" height="68" rx="2" fill="#1F4E79"/>
  <text x="56" y="78" font-family="Arial, sans-serif" font-size="28" font-weight="500" fill="#171717" letter-spacing="2">ALEXANDER</text>
  <text x="56" y="112" font-family="Arial, sans-serif" font-size="28" font-weight="800" fill="#171717" letter-spacing="2">WILLIAM SMITH</text>
  <text x="56" y="140" font-family="Arial, sans-serif" font-size="12" font-weight="600" fill="#555555" letter-spacing="4">SOFTWARE ENGINEER</text>
  <rect x="56" y="156" width="64" height="3" rx="1.5" fill="#1F4E79"/>
  <text x="36" y="210" font-family="Arial, sans-serif" font-size="12" font-weight="700" fill="#171717" letter-spacing="3">SUMMARY</text>
  <line x1="36" y1="220" x2="380" y2="220" stroke="#E7E7E7" stroke-width="1"/>
  <rect x="36" y="219" width="36" height="3" fill="#1F4E79"/>
  <rect x="36" y="240" width="340" height="7" rx="2" fill="#D0D0D0"/>
  <rect x="36" y="258" width="320" height="7" rx="2" fill="#D0D0D0"/>
  <rect x="36" y="276" width="300" height="7" rx="2" fill="#D0D0D0"/>
  <text x="36" y="328" font-family="Arial, sans-serif" font-size="12" font-weight="700" fill="#171717" letter-spacing="3">WORK EXPERIENCE</text>
  <line x1="36" y1="338" x2="380" y2="338" stroke="#E7E7E7" stroke-width="1"/>
  <rect x="36" y="337" width="36" height="3" fill="#1F4E79"/>
  <text x="36" y="370" font-family="Arial, sans-serif" font-size="14" font-weight="700" fill="#171717">SENIOR SOFTWARE ENGINEER</text>
  <text x="380" y="370" text-anchor="end" font-family="Arial, sans-serif" font-size="11" font-weight="600" fill="#1F4E79">2021 - Present</text>
  <text x="36" y="392" font-family="Arial, sans-serif" font-size="12" fill="#555555">Northwind Labs</text>
  <circle cx="44" cy="420" r="3.5" fill="#1F4E79"/>
  <rect x="58" y="415" width="280" height="6" rx="2" fill="#D0D0D0"/>
  <circle cx="44" cy="444" r="3.5" fill="#1F4E79"/>
  <rect x="58" y="439" width="260" height="6" rx="2" fill="#D0D0D0"/>
  <text x="36" y="490" font-family="Arial, sans-serif" font-size="14" font-weight="700" fill="#171717">SOFTWARE ENGINEER</text>
  <text x="380" y="490" text-anchor="end" font-family="Arial, sans-serif" font-size="11" font-weight="600" fill="#1F4E79">2018 - 2021</text>
  <text x="36" y="512" font-family="Arial, sans-serif" font-size="12" fill="#555555">Brightline Systems</text>
  <circle cx="44" cy="540" r="3.5" fill="#1F4E79"/>
  <rect x="58" y="535" width="270" height="6" rx="2" fill="#D0D0D0"/>
  <text x="36" y="590" font-family="Arial, sans-serif" font-size="12" font-weight="700" fill="#171717" letter-spacing="3">PROJECTS</text>
  <line x1="36" y1="600" x2="380" y2="600" stroke="#E7E7E7" stroke-width="1"/>
  <rect x="36" y="599" width="36" height="3" fill="#1F4E79"/>
  <rect x="36" y="620" width="340" height="56" rx="8" fill="#FAFAFA" stroke="#E7E7E7"/>
  <text x="52" y="646" font-family="Arial, sans-serif" font-size="13" font-weight="700" fill="#171717">Realtime Analytics Hub</text>
  <text x="52" y="666" font-family="Arial, sans-serif" font-size="11" fill="#1F4E79">React / Node.js / AWS</text>
  <text x="36" y="714" font-family="Arial, sans-serif" font-size="12" font-weight="700" fill="#171717" letter-spacing="3">EDUCATION</text>
  <line x1="36" y1="724" x2="380" y2="724" stroke="#E7E7E7" stroke-width="1"/>
  <rect x="36" y="723" width="36" height="3" fill="#1F4E79"/>
  <text x="36" y="754" font-family="Arial, sans-serif" font-size="13" font-weight="700" fill="#171717">B.S. Computer Science</text>
  <text x="36" y="776" font-family="Arial, sans-serif" font-size="12" fill="#555555">State University · 2018</text>
  <!-- Sidebar -->
  <line x1="408" y1="40" x2="408" y2="780" stroke="#E7E7E7" stroke-width="1"/>
  <rect x="436" y="72" width="5" height="140" rx="2.5" fill="#1F4E79"/>
  <rect x="448" y="56" width="112" height="168" rx="14" fill="#FAFAFA" stroke="#E7E7E7"/>
  <rect x="454" y="62" width="100" height="156" rx="11" fill="#D0D0D0"/>
  <text x="432" y="260" font-family="Arial, sans-serif" font-size="12" font-weight="700" fill="#171717" letter-spacing="2">CONTACT</text>
  <line x1="432" y1="270" x2="576" y2="270" stroke="#E7E7E7" stroke-width="1"/>
  <text x="432" y="296" font-family="Arial, sans-serif" font-size="9" font-weight="700" fill="#1F4E79" letter-spacing="2">PHONE</text>
  <text x="432" y="316" font-family="Arial, sans-serif" font-size="12" fill="#171717">+1 (415) 555-0142</text>
  <text x="432" y="348" font-family="Arial, sans-serif" font-size="9" font-weight="700" fill="#1F4E79" letter-spacing="2">EMAIL</text>
  <text x="432" y="368" font-family="Arial, sans-serif" font-size="12" fill="#171717">alex@smith.dev</text>
  <text x="432" y="400" font-family="Arial, sans-serif" font-size="9" font-weight="700" fill="#1F4E79" letter-spacing="2">LOCATION</text>
  <text x="432" y="420" font-family="Arial, sans-serif" font-size="12" fill="#171717">San Francisco, CA</text>
  <text x="432" y="464" font-family="Arial, sans-serif" font-size="12" font-weight="700" fill="#171717" letter-spacing="2">SKILLS</text>
  <line x1="432" y1="474" x2="576" y2="474" stroke="#E7E7E7" stroke-width="1"/>
  <rect x="432" y="492" width="52" height="24" rx="6" fill="#FAFAFA" stroke="#E7E7E7"/>
  <text x="458" y="508" text-anchor="middle" font-family="Arial, sans-serif" font-size="10" font-weight="600" fill="#171717">React</text>
  <rect x="492" y="492" width="48" height="24" rx="6" fill="#FAFAFA" stroke="#E7E7E7"/>
  <text x="516" y="508" text-anchor="middle" font-family="Arial, sans-serif" font-size="10" font-weight="600" fill="#171717">Node</text>
  <rect x="432" y="524" width="58" height="24" rx="6" fill="#FAFAFA" stroke="#E7E7E7"/>
  <text x="461" y="540" text-anchor="middle" font-family="Arial, sans-serif" font-size="10" font-weight="600" fill="#171717">TypeScript</text>
  <rect x="498" y="524" width="44" height="24" rx="6" fill="#FAFAFA" stroke="#E7E7E7"/>
  <text x="520" y="540" text-anchor="middle" font-family="Arial, sans-serif" font-size="10" font-weight="600" fill="#171717">AWS</text>
  <text x="432" y="584" font-family="Arial, sans-serif" font-size="12" font-weight="700" fill="#171717" letter-spacing="2">LANGUAGES</text>
  <line x1="432" y1="594" x2="576" y2="594" stroke="#E7E7E7" stroke-width="1"/>
  <text x="432" y="622" font-family="Arial, sans-serif" font-size="12" fill="#171717">English</text>
  <text x="576" y="622" text-anchor="end" font-family="Arial, sans-serif" font-size="11" fill="#8A8A8A">Fluent</text>
  <text x="432" y="648" font-family="Arial, sans-serif" font-size="12" fill="#171717">Spanish</text>
  <text x="576" y="648" text-anchor="end" font-family="Arial, sans-serif" font-size="11" fill="#8A8A8A">Proficient</text>
  <text x="300" y="790" text-anchor="middle" font-family="Arial, sans-serif" font-size="12" fill="#8A8A8A">Ink Editorial Executive</text>
</svg>
