<svg xmlns="http://www.w3.org/2000/svg" width="300" height="400" viewBox="0 0 300 400">
  <rect width="300" height="400" fill="#FFFFFF"/>
  <!-- Main -->
  <rect x="16" y="28" width="3" height="36" rx="1.5" fill="#1F4E79"/>
  <text x="28" y="42" font-family="Arial, sans-serif" font-size="13" font-weight="500" fill="#171717" letter-spacing="1">ALEXANDER</text>
  <text x="28" y="60" font-family="Arial, sans-serif" font-size="13" font-weight="800" fill="#171717" letter-spacing="1">WILLIAM SMITH</text>
  <text x="28" y="76" font-family="Arial, sans-serif" font-size="6" font-weight="600" fill="#555555" letter-spacing="2">SOFTWARE ENGINEER</text>
  <rect x="28" y="84" width="40" height="2" rx="1" fill="#1F4E79"/>
  <text x="16" y="112" font-family="Arial, sans-serif" font-size="7" font-weight="700" fill="#171717" letter-spacing="1.5">SUMMARY</text>
  <line x1="16" y1="116" x2="188" y2="116" stroke="#E7E7E7" stroke-width="1"/>
  <rect x="16" y="116" width="22" height="2" fill="#1F4E79"/>
  <rect x="16" y="126" width="168" height="3" rx="1" fill="#D0D0D0"/>
  <rect x="16" y="134" width="156" height="3" rx="1" fill="#D0D0D0"/>
  <rect x="16" y="142" width="144" height="3" rx="1" fill="#D0D0D0"/>
  <text x="16" y="170" font-family="Arial, sans-serif" font-size="7" font-weight="700" fill="#171717" letter-spacing="1.5">WORK EXPERIENCE</text>
  <line x1="16" y1="174" x2="188" y2="174" stroke="#E7E7E7" stroke-width="1"/>
  <rect x="16" y="174" width="22" height="2" fill="#1F4E79"/>
  <text x="16" y="192" font-family="Arial, sans-serif" font-size="7" font-weight="700" fill="#171717">SENIOR ENGINEER</text>
  <text x="188" y="192" text-anchor="end" font-family="Arial, sans-serif" font-size="5" font-weight="600" fill="#1F4E79">2021-25</text>
  <text x="16" y="204" font-family="Arial, sans-serif" font-size="5.5" fill="#555555">Northwind Labs</text>
  <circle cx="20" cy="218" r="1.8" fill="#1F4E79"/>
  <rect x="28" y="216" width="130" height="2.5" rx="1" fill="#D0D0D0"/>
  <circle cx="20" cy="230" r="1.8" fill="#1F4E79"/>
  <rect x="28" y="228" width="118" height="2.5" rx="1" fill="#D0D0D0"/>
  <text x="16" y="256" font-family="Arial, sans-serif" font-size="7" font-weight="700" fill="#171717">SOFTWARE ENGINEER</text>
  <text x="188" y="256" text-anchor="end" font-family="Arial, sans-serif" font-size="5" font-weight="600" fill="#1F4E79">2018-21</text>
  <text x="16" y="268" font-family="Arial, sans-serif" font-size="5.5" fill="#555555">Brightline Systems</text>
  <text x="16" y="296" font-family="Arial, sans-serif" font-size="7" font-weight="700" fill="#171717" letter-spacing="1.5">PROJECTS</text>
  <line x1="16" y1="300" x2="188" y2="300" stroke="#E7E7E7" stroke-width="1"/>
  <rect x="16" y="300" width="22" height="2" fill="#1F4E79"/>
  <rect x="16" y="310" width="172" height="36" rx="6" fill="#FAFAFA" stroke="#E7E7E7"/>
  <text x="24" y="326" font-family="Arial, sans-serif" font-size="6" font-weight="700" fill="#171717">Realtime Analytics Hub</text>
  <text x="24" y="338" font-family="Arial, sans-serif" font-size="5" fill="#1F4E79">React / Node / AWS</text>
  <!-- Sidebar -->
  <line x1="204" y1="20" x2="204" y2="380" stroke="#E7E7E7" stroke-width="1"/>
  <rect x="218" y="36" width="4" height="72" rx="2" fill="#1F4E79"/>
  <rect x="226" y="28" width="58" height="88" rx="10" fill="#FAFAFA" stroke="#E7E7E7"/>
  <rect x="230" y="32" width="50" height="80" rx="8" fill="#D8D8D8"/>
  <text x="218" y="140" font-family="Arial, sans-serif" font-size="6.5" font-weight="700" fill="#171717" letter-spacing="1">CONTACT</text>
  <line x1="218" y1="144" x2="284" y2="144" stroke="#E7E7E7" stroke-width="1"/>
  <text x="218" y="158" font-family="Arial, sans-serif" font-size="4.5" font-weight="700" fill="#1F4E79" letter-spacing="1">PHONE</text>
  <rect x="218" y="164" width="56" height="3" rx="1" fill="#555555"/>
  <text x="218" y="182" font-family="Arial, sans-serif" font-size="4.5" font-weight="700" fill="#1F4E79" letter-spacing="1">EMAIL</text>
  <rect x="218" y="188" width="62" height="3" rx="1" fill="#555555"/>
  <text x="218" y="214" font-family="Arial, sans-serif" font-size="6.5" font-weight="700" fill="#171717" letter-spacing="1">SKILLS</text>
  <line x1="218" y1="218" x2="284" y2="218" stroke="#E7E7E7" stroke-width="1"/>
  <rect x="218" y="228" width="32" height="12" rx="4" fill="#FAFAFA" stroke="#E7E7E7"/>
  <rect x="254" y="228" width="28" height="12" rx="4" fill="#FAFAFA" stroke="#E7E7E7"/>
  <rect x="218" y="244" width="38" height="12" rx="4" fill="#FAFAFA" stroke="#E7E7E7"/>
  <rect x="260" y="244" width="22" height="12" rx="4" fill="#FAFAFA" stroke="#E7E7E7"/>
  <text x="218" y="280" font-family="Arial, sans-serif" font-size="6.5" font-weight="700" fill="#171717" letter-spacing="1">LANGUAGES</text>
  <line x1="218" y1="284" x2="284" y2="284" stroke="#E7E7E7" stroke-width="1"/>
  <text x="218" y="300" font-family="Arial, sans-serif" font-size="5.5" fill="#171717">English</text>
  <text x="284" y="300" text-anchor="end" font-family="Arial, sans-serif" font-size="5" fill="#8A8A8A">Fluent</text>
  <text x="218" y="314" font-family="Arial, sans-serif" font-size="5.5" fill="#171717">Spanish</text>
  <text x="284" y="314" text-anchor="end" font-family="Arial, sans-serif" font-size="5" fill="#8A8A8A">Proficient</text>
</svg>
