<svg xmlns="http://www.w3.org/2000/svg" width="300" height="400" viewBox="0 0 300 400">
  <defs>
    <radialGradient id="goe-glow" cx="80%" cy="10%" r="55%">
      <stop offset="0%" stop-color="#C96F35" stop-opacity="0.2"/>
      <stop offset="100%" stop-color="#C96F35" stop-opacity="0"/>
    </radialGradient>
  </defs>
  <rect width="300" height="400" fill="#F5F3EE"/>
  <rect width="300" height="400" fill="url(#goe-glow)"/>
  <rect x="18" y="22" width="56" height="56" rx="8" fill="#EFECE6" stroke="#D8D2C9"/>
  <text x="84" y="42" font-family="Arial,sans-serif" font-size="11" font-weight="800" fill="#2F3B43" letter-spacing="0.6">ELIZA VANCE</text>
  <text x="84" y="56" font-family="Arial,sans-serif" font-size="4.5" fill="#6B6B6B">Senior Operations Director</text>
  <rect x="0" y="88" width="300" height="18" fill="#2F3B43"/>
  <text x="18" y="100" font-family="Arial,sans-serif" font-size="3.5" fill="#FFFFFF">phone</text>
  <text x="58" y="100" font-family="Arial,sans-serif" font-size="3.5" fill="#C96F35">|</text>
  <text x="68" y="100" font-family="Arial,sans-serif" font-size="3.5" fill="#FFFFFF">email</text>
  <text x="108" y="100" font-family="Arial,sans-serif" font-size="3.5" fill="#C96F35">|</text>
  <text x="118" y="100" font-family="Arial,sans-serif" font-size="3.5" fill="#FFFFFF">linkedin</text>
  <rect x="18" y="118" width="5" height="12" fill="#C96F35"/>
  <text x="28" y="128" font-family="Arial,sans-serif" font-size="5" font-weight="800" fill="#2F3B43" letter-spacing="0.5">PROFESSIONAL SUMMARY</text>
  <rect x="18" y="136" width="168" height="2" rx="1" fill="#D8D2C9" opacity="0.7"/>
  <rect x="18" y="142" width="156" height="2" rx="1" fill="#D8D2C9" opacity="0.5"/>
  <rect x="18" y="158" width="5" height="12" fill="#C96F35"/>
  <text x="28" y="168" font-family="Arial,sans-serif" font-size="5" font-weight="800" fill="#2F3B43">EXPERIENCE</text>
  <text x="18" y="184" font-family="Arial,sans-serif" font-size="3.5" fill="#6B6B6B" text-anchor="end">2024</text>
  <line x1="34" y1="178" x2="34" y2="220" stroke="#D8D2C9"/>
  <circle cx="34" cy="182" r="2.5" fill="#F5F3EE" stroke="#D8D2C9"/>
  <text x="42" y="184" font-family="Arial,sans-serif" font-size="4" font-weight="700" fill="#C96F35">Role Title</text>
  <text x="42" y="194" font-family="Arial,sans-serif" font-size="3.5" font-weight="700" fill="#2F3B43">Company Name</text>
  <rect x="198" y="118" width="84" height="268" fill="#E8E4DD"/>
  <rect x="206" y="126" width="68" height="72" rx="6" fill="#EFECE6" stroke="#D8D2C9"/>
  <rect x="212" y="134" width="4" height="8" fill="#C96F35"/>
  <text x="220" y="141" font-family="Arial,sans-serif" font-size="4" font-weight="800" fill="#2F3B43">SKILLS</text>
  <rect x="214" y="150" width="26" height="2" rx="1" fill="#C96F35"/>
  <rect x="244" y="150" width="22" height="2" rx="1" fill="#D8D2C9"/>
  <rect x="214" y="158" width="24" height="2" rx="1" fill="#C96F35"/>
  <rect x="242" y="158" width="24" height="2" rx="1" fill="#D8D2C9"/>
  <rect x="206" y="206" width="68" height="48" rx="6" fill="#EFECE6" stroke="#D8D2C9"/>
  <rect x="212" y="214" width="4" height="8" fill="#C96F35"/>
  <text x="220" y="221" font-family="Arial,sans-serif" font-size="4" font-weight="800" fill="#2F3B43">EDUCATION</text>
  <text x="214" y="236" font-family="Arial,sans-serif" font-size="3.2" font-weight="700" fill="#2F3B43">M.S. Degree</text>
  <text x="150" y="388" text-anchor="middle" font-family="Arial,sans-serif" font-size="8" font-weight="700" fill="#C96F35">Graphite Orange Executive</text>
</svg>
