<svg width="600" height="800" xmlns="http://www.w3.org/2000/svg">
  <rect width="600" height="800" fill="#FFFFFF"/>
  <rect x="0" y="0" width="32" height="100" fill="#D9B2B2" opacity="0.9"/>
  <path d="M548,24 L580,24 L580,56" fill="none" stroke="#D9B2B2" stroke-width="4"/>
  <path d="M548,748 L580,748 L580,716" fill="none" stroke="#D9B2B2" stroke-width="4"/>
  <text x="52" y="64" font-family="Arial,sans-serif" font-size="28" font-weight="700" fill="#222222" letter-spacing="2.5">CANDIDATE NAME</text>
  <text x="52" y="92" font-family="Arial,sans-serif" font-size="11" fill="#5C5C5C" letter-spacing="1.5">SENIOR PRODUCT MANAGER</text>
  <text x="52" y="112" font-family="Arial,sans-serif" font-size="9" fill="#5C5C5C">phone  "  email  "  linkedin</text>
  <circle cx="520" cy="76" r="48" fill="#F4F1EC" stroke="#D9B2B2" stroke-width="3"/>
  <rect x="52" y="136" width="496" height="72" rx="14" fill="#F4F1EC"/>
  <text x="72" y="162" font-family="Arial,sans-serif" font-size="11" font-weight="700" fill="#222222" letter-spacing="1.2">PROFESSIONAL SUMMARY</text>
  <text x="72" y="184" font-family="Arial,sans-serif" font-size="10" fill="#222222">Results-driven executive with 15+ years leading product strategy.</text>
  <rect x="52" y="228" width="8" height="28" rx="4" fill="#F4F1EC" stroke="#D6D0C8"/>
  <text x="68" y="248" font-family="Arial,sans-serif" font-size="11" font-weight="700" fill="#222222" letter-spacing="1.2">EXPERIENCE</text>
  <text x="68" y="272" font-family="Arial,sans-serif" font-size="11" font-weight="700" fill="#222222">APPLE</text>
  <text x="480" y="272" font-family="Arial,sans-serif" font-size="10" fill="#5C5C5C">2018  Present</text>
  <text x="68" y="290" font-family="Arial,sans-serif" font-size="10" font-weight="600" fill="#222222">Senior Product Manager</text>
  <line x1="68" y1="330" x2="288" y2="330" stroke="#D6D0C8"/>
  <line x1="312" y1="330" x2="548" y2="330" stroke="#D6D0C8"/>
  <text x="68" y="352" font-family="Arial,sans-serif" font-size="11" font-weight="700" fill="#222222" letter-spacing="1">PROJECTS</text>
  <text x="312" y="352" font-family="Arial,sans-serif" font-size="11" font-weight="700" fill="#222222" letter-spacing="1">SKILLS</text>
  <rect x="312" y="364" width="236" height="56" rx="12" fill="#F4F1EC"/>
  <rect x="324" y="376" width="200" height="16" rx="6" fill="#FFFFFF" stroke="#D6D0C8"/>
  <rect x="324" y="398" width="200" height="16" rx="6" fill="#FFFFFF" stroke="#D6D0C8"/>
  <line x1="52" y1="448" x2="548" y2="448" stroke="#D6D0C8"/>
  <text x="52" y="472" font-family="Arial,sans-serif" font-size="10" font-weight="700" fill="#222222" letter-spacing="1">EDUCATION</text>
  <line x1="168" y1="456" x2="168" y2="488" stroke="#D6D0C8"/>
  <text x="184" y="472" font-family="Arial,sans-serif" font-size="10" fill="#222222">MBA, Stanford Graduate School of Business</text>
  <text x="300" y="776" text-anchor="middle" font-family="Arial,sans-serif" font-size="11" font-weight="600" fill="#D9B2B2">Aether Professional</text>
</svg>
