<svg width="600" height="800" xmlns="http://www.w3.org/2000/svg">
  <rect width="600" height="800" fill="#F8F6F1"/>
  <ellipse cx="100" cy="112" rx="110" ry="100" fill="#C8CFB2" opacity="0.92"/>
  <circle cx="108" cy="104" r="64" fill="#E0DCD4" stroke="#FFFFFF" stroke-width="4"/>
  <text x="200" y="88" font-family="Arial,sans-serif" font-size="28" font-weight="800" fill="#4A342A" letter-spacing="2.5">LENA HOLMQUIST</text>
  <text x="200" y="116" font-family="Arial,sans-serif" font-size="11" fill="#8F6A56" letter-spacing="1.5">CREATIVE DIRECTOR &amp; BRAND STRATEGIST</text>
  <line x1="48" y1="140" x2="552" y2="140" stroke="#8F6A56" stroke-width="1"/>
  <line x1="48" y1="152" x2="552" y2="152" stroke="#8F6A56" stroke-width="1"/>
  <text x="48" y="172" font-family="Arial,sans-serif" font-size="10" fill="#5E534C">+46 70 123 4567  |  lena@email.com  |  linkedin.com  |  Stockholm</text>
  <text x="48" y="212" font-family="Arial,sans-serif" font-size="12" font-weight="700" fill="#4A342A" letter-spacing="1.2">EXPERIENCE</text>
  <line x1="48" y1="218" x2="380" y2="218" stroke="#8F6A56" stroke-width="0.6"/>
  <text x="48" y="238" font-family="Arial,sans-serif" font-size="10" fill="#5E534C" letter-spacing="0.5">2018 - PRESENT  |  STOCKHOLM</text>
  <text x="48" y="256" font-family="Arial,sans-serif" font-size="12" font-weight="700" fill="#2A2A2A">Creative Lead</text>
  <text x="48" y="274" font-family="Arial,sans-serif" font-size="10" fill="#5E534C">Company name, City</text>
  <text x="56" y="296" font-family="Arial,sans-serif" font-size="10" fill="#2A2A2A">" Led brand transformation across Nordic markets</text>
  <ellipse cx="500" cy="420" rx="100" ry="96" fill="#DCCFC4" opacity="0.88"/>
  <text x="408" y="212" font-family="Arial,sans-serif" font-size="12" font-weight="700" fill="#4A342A" letter-spacing="1">SKILLS</text>
  <rect x="408" y="224" width="168" height="120" rx="12" fill="rgba(255,255,255,0.55)" stroke="#DCCFC4"/>
  <text x="420" y="248" font-family="Arial,sans-serif" font-size="9" font-weight="700" fill="#8F6A56">STRATEGIC VISION</text>
  <text x="420" y="264" font-family="Arial,sans-serif" font-size="9" fill="#2A2A2A">Market analysis</text>
  <text x="420" y="288" font-family="Arial,sans-serif" font-size="9" font-weight="700" fill="#8F6A56">CREATIVE LEADERSHIP</text>
  <ellipse cx="72" cy="700" rx="96" ry="88" fill="#C8CFB2" opacity="0.85"/>
  <ellipse cx="520" cy="680" rx="64" ry="60" fill="#DCCFC4" opacity="0.8"/>
  <text x="300" y="776" text-anchor="middle" font-family="Arial,sans-serif" font-size="11" font-weight="600" fill="#8F6A56">Nordic Creative Executive</text>
</svg>
