<svg xmlns="http://www.w3.org/2000/svg" width="300" height="400" viewBox="0 0 300 400">
  <rect width="300" height="400" fill="#F6F7FA"/>
  <!-- Top geo -->
  <path d="M220 0 H300 V55 L245 40 Z" fill="#162548"/>
  <!-- Diamond pattern -->
  <g opacity="0.45" stroke="#D7D9DD" stroke-width="0.6" fill="none">
    <path d="M230 20l8 8-8 8-8-8zM246 20l8 8-8 8-8-8zM230 36l8 8-8 8-8-8zM246 36l8 8-8 8-8-8z"/>
  </g>
  <!-- Curves -->
  <ellipse cx="150" cy="220" rx="200" ry="90" fill="none" stroke="#D7D9DD" stroke-width="1" opacity="0.5" transform="rotate(-18 150 220)"/>
  <!-- Photo -->
  <circle cx="52" cy="52" r="32" fill="#FFFFFF" stroke="#1F315E" stroke-width="5"/>
  <circle cx="52" cy="52" r="26" fill="#E8EAF0"/>
  <!-- Name -->
  <text x="100" y="48" font-family="Arial, sans-serif" font-size="14" font-weight="700" fill="#1F315E" letter-spacing="1.5">JON THOMAS</text>
  <text x="100" y="64" font-family="Arial, sans-serif" font-size="6" font-weight="500" fill="#1F315E" letter-spacing="2">GRAPHIC DESIGNER</text>
  <rect x="100" y="70" width="28" height="1.5" fill="#1F315E"/>
  <!-- Sidebar divider -->
  <line x1="108" y1="100" x2="108" y2="320" stroke="#D7D9DD" stroke-width="1"/>
  <!-- Contact -->
  <text x="22" y="112" font-family="Arial, sans-serif" font-size="6.5" font-weight="700" fill="#1F315E" letter-spacing="1">CONTACT</text>
  <line x1="22" y1="116" x2="98" y2="116" stroke="#CFCFCF" stroke-width="0.7"/>
  <circle cx="28" cy="128" r="5" fill="#1F315E"/>
  <rect x="38" y="126" width="52" height="3" rx="1" fill="#C8CAD0"/>
  <circle cx="28" cy="142" r="5" fill="#1F315E"/>
  <rect x="38" y="140" width="48" height="3" rx="1" fill="#C8CAD0"/>
  <!-- Education -->
  <text x="22" y="168" font-family="Arial, sans-serif" font-size="6.5" font-weight="700" fill="#1F315E" letter-spacing="1">EDUCATION</text>
  <line x1="22" y1="172" x2="98" y2="172" stroke="#CFCFCF" stroke-width="0.7"/>
  <text x="22" y="186" font-family="Arial, sans-serif" font-size="5.5" font-weight="700" fill="#1F315E">BA Design</text>
  <text x="22" y="196" font-family="Arial, sans-serif" font-size="4.5" fill="#666666">Wardiere University</text>
  <!-- Expertise -->
  <text x="22" y="220" font-family="Arial, sans-serif" font-size="6.5" font-weight="700" fill="#1F315E" letter-spacing="1">EXPERTISE</text>
  <line x1="22" y1="224" x2="98" y2="224" stroke="#CFCFCF" stroke-width="0.7"/>
  <text x="22" y="238" font-family="Arial, sans-serif" font-size="5" fill="#222222">UI/UX</text>
  <text x="22" y="250" font-family="Arial, sans-serif" font-size="5" fill="#222222">Visual Design</text>
  <text x="22" y="262" font-family="Arial, sans-serif" font-size="5" fill="#222222">Print Design</text>
  <!-- Main -->
  <text x="122" y="112" font-family="Arial, sans-serif" font-size="6.5" font-weight="700" fill="#1F315E" letter-spacing="1">PROFILE</text>
  <rect x="122" y="120" width="150" height="3" rx="1" fill="#D7D9DD"/>
  <rect x="122" y="128" width="140" height="3" rx="1" fill="#D7D9DD"/>
  <rect x="122" y="136" width="120" height="3" rx="1" fill="#D7D9DD"/>
  <text x="122" y="162" font-family="Arial, sans-serif" font-size="6.5" font-weight="700" fill="#1F315E" letter-spacing="1">WORK EXPERIENCE</text>
  <text x="122" y="178" font-family="Arial, sans-serif" font-size="5.5" font-weight="700" fill="#1F315E">Ginyard International Co.</text>
  <text x="122" y="188" font-family="Arial, sans-serif" font-size="4.5" fill="#666666">Marketing Manager  |  2010  2015</text>
  <circle cx="126" cy="200" r="1.5" fill="#1F315E"/>
  <rect x="132" y="198" width="120" height="2.5" rx="1" fill="#D7D9DD"/>
  <circle cx="126" cy="210" r="1.5" fill="#1F315E"/>
  <rect x="132" y="208" width="110" height="2.5" rx="1" fill="#D7D9DD"/>
  <!-- Waves -->
  <ellipse cx="40" cy="400" rx="90" ry="50" fill="#1F315E"/>
  <ellipse cx="240" cy="410" rx="120" ry="55" fill="#D7D9DD"/>
  <text x="150" y="382" text-anchor="middle" font-family="Arial, sans-serif" font-size="6.5" font-weight="600" fill="#1F315E">Modern Navy Profile</text>
</svg>
