<svg xmlns="http://www.w3.org/2000/svg" width="300" height="400" viewBox="0 0 300 400">
  <rect width="300" height="400" fill="#FFFFFF"/>
  <rect x="10" y="14" width="280" height="52" rx="8" fill="#3E3E42"/>
  <rect x="20" y="20" width="42" height="52" rx="7" fill="#FFFFFF" stroke="#FFFFFF" stroke-width="2"/>
  <rect x="22" y="22" width="38" height="48" rx="5" fill="#C8C8C8"/>
  <text x="74" y="40" font-family="Georgia, serif" font-size="12" font-weight="700" fill="#FFFFFF" letter-spacing="1">DIANA FROST</text>
  <text x="74" y="54" font-family="Arial, sans-serif" font-size="5.5" font-weight="500" fill="rgba(255,255,255,0.8)" letter-spacing="1.5">OPERATIONS DIRECTOR</text>
  <!-- Sidebar -->
  <rect x="0" y="78" width="96" height="322" fill="#F3F3F3"/>
  <text x="14" y="100" font-family="Arial, sans-serif" font-size="6.5" font-weight="600" fill="#1B1B1B" letter-spacing="1">CONTACTS</text>
  <line x1="14" y1="104" x2="86" y2="104" stroke="#D8D8D8" stroke-width="1"/>
  <circle cx="20" cy="118" r="2.5" fill="#6B6B6B"/>
  <rect x="28" y="116" width="50" height="3" rx="1" fill="#666666"/>
  <circle cx="20" cy="130" r="2.5" fill="#6B6B6B"/>
  <rect x="28" y="128" width="54" height="3" rx="1" fill="#666666"/>
  <text x="14" y="158" font-family="Arial, sans-serif" font-size="6.5" font-weight="600" fill="#1B1B1B" letter-spacing="1">OBJECTIVE</text>
  <line x1="14" y1="162" x2="86" y2="162" stroke="#D8D8D8" stroke-width="1"/>
  <rect x="14" y="172" width="70" height="3" rx="1" fill="#C0C0C0"/>
  <rect x="14" y="180" width="64" height="3" rx="1" fill="#C0C0C0"/>
  <rect x="14" y="188" width="58" height="3" rx="1" fill="#C0C0C0"/>
  <text x="14" y="216" font-family="Arial, sans-serif" font-size="6.5" font-weight="600" fill="#1B1B1B" letter-spacing="1">EDUCATION</text>
  <line x1="14" y1="220" x2="86" y2="220" stroke="#D8D8D8" stroke-width="1"/>
  <text x="14" y="236" font-family="Arial, sans-serif" font-size="5.5" font-weight="600" fill="#1B1B1B">MBA Ops</text>
  <text x="14" y="248" font-family="Arial, sans-serif" font-size="5" fill="#666666">Wharton</text>
  <text x="14" y="274" font-family="Arial, sans-serif" font-size="6.5" font-weight="600" fill="#1B1B1B" letter-spacing="1">SKILLS</text>
  <line x1="14" y1="278" x2="86" y2="278" stroke="#D8D8D8" stroke-width="1"/>
  <circle cx="18" cy="292" r="1.5" fill="#6B6B6B"/>
  <text x="26" y="295" font-family="Arial, sans-serif" font-size="5.5" fill="#1B1B1B">Leadership</text>
  <circle cx="18" cy="306" r="1.5" fill="#6B6B6B"/>
  <text x="26" y="309" font-family="Arial, sans-serif" font-size="5.5" fill="#1B1B1B">Planning</text>
  <!-- Main -->
  <text x="112" y="100" font-family="Arial, sans-serif" font-size="7" font-weight="600" fill="#1B1B1B" letter-spacing="1.2">EXPERIENCE</text>
  <line x1="112" y1="104" x2="284" y2="104" stroke="#D8D8D8" stroke-width="1"/>
  <text x="112" y="124" font-family="Georgia, serif" font-size="8" font-weight="700" fill="#1B1B1B">Operations Director</text>
  <text x="284" y="124" text-anchor="end" font-family="Arial, sans-serif" font-size="5" fill="#6B6B6B">2018-25</text>
  <text x="112" y="138" font-family="Arial, sans-serif" font-size="5.5" fill="#666666">Northline Health</text>
  <circle cx="116" cy="152" r="1.8" fill="#6B6B6B"/>
  <rect x="124" y="150" width="130" height="2.5" rx="1" fill="#C8C8C8"/>
  <circle cx="116" cy="164" r="1.8" fill="#6B6B6B"/>
  <rect x="124" y="162" width="118" height="2.5" rx="1" fill="#C8C8C8"/>
  <text x="112" y="192" font-family="Georgia, serif" font-size="8" font-weight="700" fill="#1B1B1B">Lab Supervisor</text>
  <text x="284" y="192" text-anchor="end" font-family="Arial, sans-serif" font-size="5" fill="#6B6B6B">2014-18</text>
  <text x="112" y="206" font-family="Arial, sans-serif" font-size="5.5" fill="#666666">Summit Diagnostics</text>
  <text x="112" y="236" font-family="Arial, sans-serif" font-size="7" font-weight="600" fill="#1B1B1B" letter-spacing="1.2">PROJECTS</text>
  <line x1="112" y1="240" x2="284" y2="240" stroke="#D8D8D8" stroke-width="1"/>
  <rect x="112" y="250" width="172" height="40" rx="6" fill="#FAFAFA" stroke="#D8D8D8"/>
  <text x="122" y="268" font-family="Georgia, serif" font-size="7" font-weight="700" fill="#1B1B1B">Quality System Rollout</text>
  <text x="122" y="280" font-family="Arial, sans-serif" font-size="5" fill="#6B6B6B">Lean / Compliance</text>
</svg>
