<svg width="800" height="1000" xmlns="http://www.w3.org/2000/svg">
  <defs>
    <pattern id="sidebarTex" width="20" height="20" patternUnits="userSpaceOnUse">
      <rect width="20" height="20" fill="#3d3d3d"/>
      <path d="M0 10h20M10 0v20" stroke="#464646" stroke-width="0.6"/>
    </pattern>
  </defs>
  <rect width="800" height="1000" fill="#111" stroke="#c4a574" stroke-width="3"/>
  <rect x="40" y="40" width="220" height="920" fill="url(#sidebarTex)" rx="4"/>
  <rect x="280" y="40" width="480" height="920" fill="#111" rx="4"/>
  <circle cx="150" cy="130" r="55" fill="none" stroke="#f0f0f0" stroke-width="3"/>
  <circle cx="150" cy="130" r="48" fill="#555"/>
  <rect x="70" y="220" width="160" height="3" fill="#666"/>
  <rect x="70" y="240" width="140" height="12" fill="#999" rx="2"/>
  <rect x="70" y="260" width="120" height="12" fill="#777" rx="2"/>
  <rect x="70" y="310" width="160" height="3" fill="#666"/>
  <rect x="75" y="330" width="150" height="10" fill="#aaa" rx="2"/>
  <rect x="75" y="350" width="130" height="10" fill="#888" rx="2"/>
  <rect x="70" y="400" width="160" height="3" fill="#666"/>
  <rect x="78" y="420" width="100" height="8" fill="#999" rx="1"/>
  <rect x="78" y="436" width="90" height="8" fill="#777" rx="1"/>
  <rect x="78" y="452" width="110" height="8" fill="#999" rx="1"/>
  <rect x="70" y="500" width="160" height="3" fill="#666"/>
  <rect x="78" y="520" width="140" height="6" fill="#555" rx="2"/>
  <rect x="78" y="534" width="120" height="6" fill="#444" rx="2"/>
  <text x="300" y="110" font-family="Segoe UI, Arial, sans-serif" font-size="42" font-weight="700" fill="#c4a574">Terrance Ryan</text>
  <rect x="300" y="130" width="200" height="3" fill="#333"/>
  <rect x="300" y="170" width="220" height="14" fill="#c4a574" opacity="0.85" rx="2"/>
  <rect x="300" y="200" width="440" height="10" fill="#555" rx="2"/>
  <rect x="300" y="218" width="420" height="10" fill="#444" rx="2"/>
  <rect x="300" y="236" width="430" height="10" fill="#555" rx="2"/>
  <rect x="300" y="280" width="180" height="14" fill="#c4a574" opacity="0.85" rx="2"/>
  <rect x="300" y="310" width="120" height="10" fill="#666" rx="2"/>
  <rect x="300" y="330" width="400" height="10" fill="#555" rx="2"/>
  <rect x="300" y="350" width="380" height="10" fill="#444" rx="2"/>
  <rect x="300" y="380" width="400" height="10" fill="#555" rx="2"/>
  <text x="400" y="960" text-anchor="middle" font-family="Segoe UI, Arial, sans-serif" font-size="22" font-weight="700" fill="#c4a574">Charcoal Premium</text>
  <text x="400" y="985" text-anchor="middle" font-family="Segoe UI, Arial, sans-serif" font-size="14" fill="#888">Dark Professional Sidebar Template</text>
</svg>
