<svg width="300" height="400" xmlns="http://www.w3.org/2000/svg">
  <defs>
    <pattern id="tex" width="12" height="12" patternUnits="userSpaceOnUse">
      <rect width="12" height="12" fill="#3d3d3d"/>
      <path d="M0 6h12M6 0v12" stroke="#454545" stroke-width="0.5"/>
    </pattern>
  </defs>
  <rect width="300" height="400" fill="#111" stroke="#c4a574" stroke-width="2"/>
  <rect x="16" y="16" width="88" height="368" fill="url(#tex)" rx="2"/>
  <rect x="112" y="16" width="172" height="368" fill="#111" rx="2"/>
  <circle cx="60" cy="62" r="28" fill="none" stroke="#f2f2f2" stroke-width="2"/>
  <circle cx="60" cy="62" r="24" fill="#555"/>
  <rect x="26" y="108" width="68" height="2" fill="#666"/>
  <rect x="26" y="118" width="56" height="6" fill="#888" rx="1"/>
  <rect x="26" y="130" width="48" height="6" fill="#666" rx="1"/>
  <rect x="26" y="158" width="68" height="2" fill="#666"/>
  <rect x="30" y="170" width="52" height="5" fill="#aaa" rx="1"/>
  <rect x="30" y="182" width="44" height="5" fill="#777" rx="1"/>
  <rect x="26" y="210" width="68" height="2" fill="#666"/>
  <rect x="30" y="222" width="40" height="4" fill="#888" rx="1"/>
  <rect x="30" y="232" width="36" height="4" fill="#777" rx="1"/>
  <rect x="30" y="242" width="42" height="4" fill="#888" rx="1"/>
  <text x="122" y="52" font-family="Segoe UI, Arial, sans-serif" font-size="16" font-weight="700" fill="#c4a574">Full Name</text>
  <rect x="122" y="62" width="80" height="2" fill="#333"/>
  <rect x="122" y="78" width="100" height="6" fill="#c4a574" opacity="0.8" rx="1"/>
  <rect x="122" y="96" width="150" height="4" fill="#555" rx="1"/>
  <rect x="122" y="104" width="140" height="4" fill="#444" rx="1"/>
  <rect x="122" y="112" width="145" height="4" fill="#555" rx="1"/>
  <rect x="122" y="136" width="100" height="6" fill="#c4a574" opacity="0.8" rx="1"/>
  <rect x="122" y="152" width="60" height="4" fill="#666" rx="1"/>
  <rect x="122" y="162" width="130" height="4" fill="#555" rx="1"/>
  <rect x="122" y="172" width="120" height="4" fill="#444" rx="1"/>
  <text x="150" y="380" text-anchor="middle" font-family="Segoe UI, Arial, sans-serif" font-size="12" font-weight="700" fill="#c4a574">Charcoal Premium</text>
</svg>
