<svg xmlns="http://www.w3.org/2000/svg" width="800" height="1000" viewBox="0 0 800 1000">
  <rect width="800" height="1000" fill="#FCFBF9"/>
  <polygon points="720,36 760,36 760,76" fill="rgba(181,107,79,0.85)"/>
  <polygon points="740,48 760,48 760,68" fill="none" stroke="rgba(47,47,47,0.2)" stroke-width="1"/>
  <text x="400" y="56" text-anchor="middle" font-family="Arial,sans-serif" font-size="7" fill="#666666" letter-spacing="2.4">MONARCH EDGE</text>
  <rect x="36" y="80" width="120" height="148" rx="14" fill="#EFE8DD" stroke="#E7DED4" stroke-width="0.8"/>
  <path d="M20 72 Q96 40 172 72" fill="none" stroke="rgba(231,222,212,0.85)" stroke-width="14"/>
  <text x="180" y="120" font-family="Georgia,serif" font-size="26" font-weight="700" fill="#2F2F2F">ISABELLE</text>
  <text x="180" y="152" font-family="Georgia,serif" font-size="26" font-weight="700" fill="#2F2F2F">MOREAU</text>
  <text x="180" y="178" font-family="Arial,sans-serif" font-size="7" fill="#666666" letter-spacing="1.2">CREATIVE DIRECTOR &amp; STRATEGIC BRAND LEAD</text>
  <text x="180" y="200" font-family="Arial,sans-serif" font-size="5.5" fill="#2F2F2F">Paris, France</text>
  <text x="300" y="200" font-family="Arial,sans-serif" font-size="5.5" fill="#2F2F2F">+33 555 0123</text>
  <text x="420" y="200" font-family="Arial,sans-serif" font-size="5.5" fill="#2F2F2F">email@example.com</text>
  <line x1="36" y1="220" x2="764" y2="220" stroke="#E7DED4" stroke-width="0.8"/>
  <text x="36" y="252" font-family="Arial,sans-serif" font-size="7" font-weight="600" fill="#2F2F2F" letter-spacing="1.4">PROFESSIONAL SUMMARY</text>
  <rect x="36" y="264" width="504" height="88" rx="16" fill="#F4E8DA" stroke="#E7DED4" stroke-width="0.8"/>
  <text x="52" y="300" font-family="Arial,sans-serif" font-size="6" fill="#666666">Visionary creative director with 15+ years leading brand strategy...</text>
  <text x="36" y="380" font-family="Arial,sans-serif" font-size="7" font-weight="600" fill="#2F2F2F" letter-spacing="1.4">EXPERIENCE</text>
  <rect x="36" y="392" width="14" height="140" rx="8" fill="#8A8E72" opacity="0.82"/>
  <rect x="36" y="460" width="14" height="40" rx="4" fill="#B56B4F" opacity="0.82"/>
  <text x="64" y="412" font-family="Arial,sans-serif" font-size="6.5" font-weight="700" fill="#2F2F2F">Maison Lumičre</text>
  <text x="64" y="428" font-family="Arial,sans-serif" font-size="5.5" fill="#B56B4F">CREATIVE DIRECTOR</text>
  <text x="420" y="412" font-family="Arial,sans-serif" font-size="5" fill="#666666">2020  Present</text>
  <text x="36" y="560" font-family="Arial,sans-serif" font-size="7" font-weight="600" fill="#2F2F2F" letter-spacing="1.4">PROJECTS</text>
  <rect x="36" y="572" width="504" height="100" rx="16" fill="#F4E8DA" stroke="#2F2F2F" stroke-width="2"/>
  <text x="560" y="252" font-family="Arial,sans-serif" font-size="7" font-weight="600" fill="#2F2F2F" letter-spacing="1.4">SKILLS</text>
  <rect x="560" y="268" width="204" height="14" rx="3" fill="rgba(231,222,212,0.7)"/>
  <rect x="560" y="288" width="204" height="14" rx="3" fill="rgba(231,222,212,0.7)"/>
  <text x="560" y="340" font-family="Arial,sans-serif" font-size="7" font-weight="600" fill="#2F2F2F" letter-spacing="1.4">EDUCATION</text>
  <text x="560" y="420" font-family="Arial,sans-serif" font-size="7" font-weight="600" fill="#2F2F2F" letter-spacing="1.4">LANGUAGES</text>
  <text x="560" y="440" font-family="Arial,sans-serif" font-size="5.5" fill="#2F2F2F">English | French | Spanish | Italian</text>
  <text x="560" y="500" font-family="Arial,sans-serif" font-size="7" font-weight="600" fill="#2F2F2F" letter-spacing="1.4">ACHIEVEMENTS</text>
  <circle cx="576" cy="536" r="16" fill="#B56B4F"/>
  <rect x="600" y="524" width="164" height="36" rx="10" fill="#F4E8DA" stroke="#E7DED4" stroke-width="0.6"/>
  <polygon points="48,920 96,920 72,968" fill="#8A8E72" opacity="0.55"/>
  <circle cx="720" cy="920" r="3" fill="#B56B4F"/>
  <circle cx="736" cy="920" r="3" fill="#8A8E72"/>
  <circle cx="720" cy="936" r="3" fill="#2F2F2F"/>
  <circle cx="736" cy="936" r="3" fill="#B56B4F"/>
  <text x="400" y="980" text-anchor="middle" font-family="Arial,sans-serif" font-size="7" fill="#666666" letter-spacing="2.4">MONARCH EDGE</text>
</svg>
