<svg xmlns="http://www.w3.org/2000/svg" width="800" height="1000" viewBox="0 0 800 1000">
  <rect width="800" height="1000" fill="#FCFBF9"/>
  <path d="M0 60 Q120 0 240 60" fill="none" stroke="rgba(231,222,212,0.8)" stroke-width="20"/>
  <path d="M40 80 Q140 40 220 80" fill="none" stroke="rgba(244,232,218,0.7)" stroke-width="12"/>
  <circle cx="680" cy="72" r="36" fill="rgba(181,107,79,0.78)"/>
  <rect x="700" y="88" width="56" height="40" rx="8" fill="rgba(244,232,218,0.75)" transform="rotate(-8 728 108)"/>
  <text x="400" y="56" text-anchor="middle" font-family="Arial,sans-serif" font-size="7" fill="#666666" letter-spacing="2.4">MONARCH EDGE</text>
  <circle cx="96" cy="140" r="58" fill="#EFE8DD" stroke="#E7DED4" stroke-width="1"/>
  <circle cx="96" cy="140" r="68" fill="none" stroke="rgba(216,215,211,0.85)" stroke-width="3"/>
  <text x="180" y="120" font-family="Georgia,serif" font-size="26" font-weight="700" fill="#2F2F2F">ARTHUR</text>
  <text x="180" y="152" font-family="Georgia,serif" font-size="26" font-weight="700" fill="#2F2F2F">STERLING</text>
  <text x="180" y="178" font-family="Arial,sans-serif" font-size="7" fill="#666666" letter-spacing="1.2">CHIEF PRODUCT STRATEGIST | DESIGN LEADER</text>
  <rect x="36" y="196" width="728" height="44" rx="12" fill="#F4E8DA" stroke="#E7DED4" stroke-width="0.8"/>
  <text x="56" y="224" font-family="Arial,sans-serif" font-size="5.5" fill="#2F2F2F">email@example.com</text>
  <text x="260" y="224" font-family="Arial,sans-serif" font-size="5.5" fill="#2F2F2F">+1 555 0123</text>
  <text x="400" y="224" font-family="Arial,sans-serif" font-size="5.5" fill="#2F2F2F">linkedin.com/in/arthur</text>
  <line x1="36" y1="252" x2="764" y2="252" stroke="#E7DED4" stroke-width="0.8"/>
  <text x="36" y="284" font-family="Arial,sans-serif" font-size="7" font-weight="600" fill="#2F2F2F" letter-spacing="1.4">PROFESSIONAL SUMMARY</text>
  <rect x="36" y="296" width="504" height="88" rx="16" fill="#F4E8DA" stroke="#E7DED4" stroke-width="0.8"/>
  <text x="36" y="408" font-family="Arial,sans-serif" font-size="7" font-weight="600" fill="#2F2F2F" letter-spacing="1.4">EXPERIENCE</text>
  <rect x="36" y="420" width="12" height="120" rx="6" fill="#B56B4F" opacity="0.85"/>
  <text x="64" y="440" font-family="Arial,sans-serif" font-size="6.5" font-weight="700" fill="#2F2F2F">Global Studio</text>
  <text x="64" y="456" font-family="Arial,sans-serif" font-size="5.5" fill="#B56B4F">CHIEF PRODUCT STRATEGIST</text>
  <text x="420" y="440" font-family="Arial,sans-serif" font-size="5" fill="#666666">2020 – Present</text>
  <text x="36" y="560" font-family="Arial,sans-serif" font-size="7" font-weight="600" fill="#2F2F2F" letter-spacing="1.4">PROJECTS</text>
  <rect x="36" y="572" width="504" height="88" rx="16" fill="#F4E8DA" stroke="#E7DED4" stroke-width="0.8"/>
  <text x="560" y="284" font-family="Arial,sans-serif" font-size="7" font-weight="600" fill="#2F2F2F" letter-spacing="1.4">SKILLS</text>
  <rect x="560" y="300" width="88" height="22" rx="11" fill="#F4E8DA" stroke="#E7DED4" stroke-width="0.6"/>
  <rect x="656" y="300" width="88" height="22" rx="11" fill="#F4E8DA" stroke="#E7DED4" stroke-width="0.6"/>
  <text x="560" y="360" font-family="Arial,sans-serif" font-size="7" font-weight="600" fill="#2F2F2F" letter-spacing="1.4">EDUCATION</text>
  <line x1="560" y1="368" x2="764" y2="368" stroke="#B56B4F" stroke-width="1.5"/>
  <text x="560" y="440" font-family="Arial,sans-serif" font-size="7" font-weight="600" fill="#2F2F2F" letter-spacing="1.4">LANGUAGES</text>
  <line x1="560" y1="448" x2="764" y2="448" stroke="#E7DED4" stroke-width="1.5"/>
  <text x="560" y="468" font-family="Arial,sans-serif" font-size="5.5" fill="#2F2F2F">English | French | Spanish | Italian</text>
  <text x="560" y="520" font-family="Arial,sans-serif" font-size="7" font-weight="600" fill="#2F2F2F" letter-spacing="1.4">ACHIEVEMENTS</text>
  <rect x="560" y="532" width="204" height="72" rx="12" fill="#FCFBF9" stroke="#E7DED4" stroke-width="0.8"/>
  <circle cx="576" cy="556" r="12" fill="#B56B4F"/>
  <polygon points="48,920 96,920 72,968" fill="#8A8E72" opacity="0.55"/>
  <text x="400" y="980" text-anchor="middle" font-family="Arial,sans-serif" font-size="7" fill="#666666" letter-spacing="2.4">MONARCH EDGE</text>
</svg>
