<svg xmlns="http://www.w3.org/2000/svg" width="300" height="400" viewBox="0 0 300 400">
  <rect width="300" height="400" fill="#FCFBF9"/>
  <polygon points="270,14 286,14 286,30" fill="rgba(181,107,79,0.85)"/>
  <text x="150" y="24" text-anchor="middle" font-family="Arial,sans-serif" font-size="2" fill="#666666" letter-spacing="0.6">MONARCH EDGE</text>
  <rect x="14" y="34" width="48" height="58" rx="6" fill="#EFE8DD" stroke="#E7DED4" stroke-width="0.4"/>
  <path d="M10 30 Q40 10 70 30" fill="none" stroke="rgba(231,222,212,0.8)" stroke-width="6"/>
  <text x="72" y="48" font-family="Georgia,serif" font-size="9" font-weight="700" fill="#2F2F2F">ISABELLE</text>
  <text x="72" y="58" font-family="Georgia,serif" font-size="9" font-weight="700" fill="#2F2F2F">MOREAU</text>
  <text x="72" y="66" font-family="Arial,sans-serif" font-size="2.2" fill="#666666" letter-spacing="0.3">CREATIVE DIRECTOR</text>
  <line x1="14" y1="78" x2="286" y2="78" stroke="#E7DED4" stroke-width="0.4"/>
  <rect x="14" y="88" width="188" height="36" rx="8" fill="#F4E8DA" stroke="#E7DED4" stroke-width="0.4"/>
  <text x="22" y="102" font-family="Arial,sans-serif" font-size="2.4" font-weight="600" fill="#2F2F2F" letter-spacing="0.4">PROFESSIONAL SUMMARY</text>
  <rect x="10" y="132" width="8" height="56" rx="4" fill="#8A8E72" opacity="0.8"/>
  <rect x="10" y="168" width="8" height="20" rx="2" fill="#B56B4F" opacity="0.8"/>
  <text x="26" y="144" font-family="Arial,sans-serif" font-size="2.4" font-weight="600" fill="#2F2F2F" letter-spacing="0.4">EXPERIENCE</text>
  <text x="26" y="158" font-family="Arial,sans-serif" font-size="2.6" font-weight="700" fill="#2F2F2F">Studio North</text>
  <rect x="14" y="196" width="188" height="44" rx="8" fill="#F4E8DA" stroke="#2F2F2F" stroke-width="1.2"/>
  <rect x="208" y="88" width="78" height="140" fill="none"/>
  <text x="214" y="102" font-family="Arial,sans-serif" font-size="2.4" font-weight="600" fill="#2F2F2F" letter-spacing="0.4">SKILLS</text>
  <rect x="214" y="108" width="66" height="8" rx="2" fill="rgba(231,222,212,0.7)"/>
  <circle cx="220" cy="240" r="8" fill="#B56B4F"/>
  <rect x="232" y="234" width="48" height="16" rx="4" fill="#F4E8DA" stroke="#E7DED4" stroke-width="0.3"/>
  <polygon points="20,360 44,360 32,380" fill="#8A8E72" opacity="0.55"/>
  <circle cx="270" cy="360" r="2" fill="#B56B4F"/>
  <circle cx="278" cy="360" r="2" fill="#8A8E72"/>
  <circle cx="270" cy="368" r="2" fill="#2F2F2F"/>
  <circle cx="278" cy="368" r="2" fill="#B56B4F"/>
  <text x="150" y="392" text-anchor="middle" font-family="Arial,sans-serif" font-size="2" fill="#666666" letter-spacing="0.6">MONARCH EDGE</text>
</svg>
