<svg xmlns="http://www.w3.org/2000/svg" width="300" height="400" viewBox="0 0 300 400">
  <rect width="300" height="400" fill="#FCFBF9"/>
  <path d="M0 20 Q40 0 80 20" fill="none" stroke="rgba(231,222,212,0.8)" stroke-width="8"/>
  <circle cx="248" cy="28" r="18" fill="rgba(181,107,79,0.78)"/>
  <rect x="258" y="36" width="28" height="20" rx="4" fill="rgba(244,232,218,0.75)" transform="rotate(-8 272 46)"/>
  <text x="150" y="22" text-anchor="middle" font-family="Arial,sans-serif" font-size="2" fill="#666666" letter-spacing="0.6">MONARCH EDGE</text>
  <circle cx="40" cy="58" r="24" fill="#EFE8DD" stroke="#E7DED4" stroke-width="0.6"/>
  <circle cx="40" cy="58" r="28" fill="none" stroke="rgba(216,215,211,0.85)" stroke-width="1.2"/>
  <text x="78" y="48" font-family="Georgia,serif" font-size="9" font-weight="700" fill="#2F2F2F">ARTHUR</text>
  <text x="78" y="58" font-family="Georgia,serif" font-size="9" font-weight="700" fill="#2F2F2F">STERLING</text>
  <text x="78" y="66" font-family="Arial,sans-serif" font-size="2" fill="#666666" letter-spacing="0.3">CHIEF PRODUCT STRATEGIST</text>
  <rect x="14" y="72" width="272" height="18" rx="6" fill="#F4E8DA" stroke="#E7DED4" stroke-width="0.3"/>
  <line x1="14" y1="96" x2="286" y2="96" stroke="#E7DED4" stroke-width="0.4"/>
  <rect x="14" y="106" width="188" height="34" rx="8" fill="#F4E8DA" stroke="#E7DED4" stroke-width="0.4"/>
  <text x="22" y="120" font-family="Arial,sans-serif" font-size="2.4" font-weight="600" fill="#2F2F2F" letter-spacing="0.4">PROFESSIONAL SUMMARY</text>
  <rect x="10" y="148" width="8" height="48" rx="4" fill="#B56B4F" opacity="0.85"/>
  <text x="26" y="158" font-family="Arial,sans-serif" font-size="2.4" font-weight="600" fill="#2F2F2F" letter-spacing="0.4">EXPERIENCE</text>
  <rect x="14" y="204" width="188" height="38" rx="8" fill="#F4E8DA" stroke="#2F2F2F" stroke-width="0.8"/>
  <text x="214" y="120" font-family="Arial,sans-serif" font-size="2.4" font-weight="600" fill="#2F2F2F" letter-spacing="0.4">SKILLS</text>
  <rect x="214" y="126" width="30" height="10" rx="5" fill="#F4E8DA" stroke="#E7DED4" stroke-width="0.3"/>
  <rect x="248" y="126" width="30" height="10" rx="5" fill="#F4E8DA" stroke="#E7DED4" stroke-width="0.3"/>
  <line x1="208" y1="148" x2="208" y2="148" stroke="#B56B4F" stroke-width="1.2"/>
  <line x1="214" y1="168" x2="286" y2="168" stroke="#E7DED4" stroke-width="0.8"/>
  <circle cx="220" cy="228" r="7" fill="#B56B4F"/>
  <rect x="214" y="248" width="66" height="28" rx="6" fill="#FCFBF9" stroke="#E7DED4" stroke-width="0.4"/>
  <polygon points="20,360 44,360 32,380" fill="#8A8E72" opacity="0.55"/>
  <text x="150" y="392" text-anchor="middle" font-family="Arial,sans-serif" font-size="2" fill="#666666" letter-spacing="0.6">MONARCH EDGE</text>
</svg>
