<svg xmlns="http://www.w3.org/2000/svg" width="300" height="400" viewBox="0 0 300 400">
  <rect width="300" height="400" fill="#F9F7F3"/>
  <rect x="18" y="16" width="264" height="108" rx="10" fill="rgba(232,222,211,0.55)"/>
  <text x="150" y="44" text-anchor="middle" font-family="Georgia,serif" font-size="13" font-weight="700" fill="#222222" letter-spacing="1.2">ELEANOR</text>
  <text x="150" y="60" text-anchor="middle" font-family="Georgia,serif" font-size="13" font-weight="700" fill="#222222" letter-spacing="1.2">WHITFIELD</text>
  <text x="150" y="74" text-anchor="middle" font-family="Arial,sans-serif" font-size="3.2" font-weight="600" fill="#666666" letter-spacing="0.8">STRATEGIC OPERATIONS LEADER</text>
  <rect x="122" y="82" width="56" height="62" rx="28" fill="#FFFFFF" stroke="#9B7653" stroke-width="1.5"/>
  <ellipse cx="150" cy="104" rx="22" ry="24" fill="#E8DED3"/>
  <line x1="60" y1="152" x2="240" y2="152" stroke="#9B7653" opacity="0.5"/>
  <circle cx="72" cy="162" r="2" fill="#9B7653"/>
  <text x="78" y="164" font-family="Arial,sans-serif" font-size="3" fill="#666666">email@example.com</text>
  <circle cx="148" cy="162" r="2" fill="#9B7653"/>
  <text x="154" y="164" font-family="Arial,sans-serif" font-size="3" fill="#666666">+1 555 0100</text>
  <circle cx="208" cy="162" r="2" fill="#9B7653"/>
  <text x="214" y="164" font-family="Arial,sans-serif" font-size="3" fill="#666666">London, UK</text>
  <rect x="22" y="178" width="82" height="200" rx="10" fill="#E8DED3" stroke="#DDD4C9"/>
  <text x="32" y="198" font-family="Georgia,serif" font-size="5.5" fill="#222222">Skills</text>
  <line x1="32" y1="202" x2="94" y2="202" stroke="#D7CFC5"/>
  <rect x="32" y="210" width="28" height="8" rx="4" fill="#F9F7F3" stroke="#DDD4C9"/>
  <rect x="62" y="210" width="32" height="8" rx="4" fill="#F9F7F3" stroke="#DDD4C9"/>
  <rect x="32" y="222" width="36" height="8" rx="4" fill="#F9F7F3" stroke="#DDD4C9"/>
  <text x="32" y="248" font-family="Georgia,serif" font-size="5.5" fill="#222222">Education</text>
  <line x1="32" y1="252" x2="94" y2="252" stroke="#D7CFC5"/>
  <text x="32" y="264" font-family="Arial,sans-serif" font-size="3.5" font-weight="700" fill="#222222">MBA</text>
  <text x="32" y="274" font-family="Arial,sans-serif" font-size="3" fill="#666666">Business School</text>
  <text x="32" y="296" font-family="Georgia,serif" font-size="5.5" fill="#222222">Languages</text>
  <line x1="32" y1="300" x2="94" y2="300" stroke="#D7CFC5"/>
  <rect x="32" y="308" width="30" height="8" rx="4" fill="#F9F7F3" stroke="#DDD4C9"/>
  <rect x="64" y="308" width="28" height="8" rx="4" fill="#F9F7F3" stroke="#DDD4C9"/>
  <text x="118" y="198" font-family="Georgia,serif" font-size="6.5" fill="#222222">Professional Summary</text>
  <line x1="118" y1="203" x2="278" y2="203" stroke="#9B7653"/>
  <rect x="118" y="212" width="150" height="3" rx="1" fill="#D7CFC5"/>
  <rect x="118" y="220" width="140" height="3" rx="1" fill="#D7CFC5"/>
  <rect x="118" y="228" width="128" height="3" rx="1" fill="#D7CFC5"/>
  <text x="118" y="252" font-family="Georgia,serif" font-size="6.5" fill="#222222">Experience</text>
  <line x1="118" y1="257" x2="278" y2="257" stroke="#9B7653"/>
  <text x="118" y="272" font-family="Arial,sans-serif" font-size="4" font-weight="700" fill="#222222">Director of Operations</text>
  <text x="230" y="272" font-family="Arial,sans-serif" font-size="3" fill="#666666">2019Present</text>
  <text x="118" y="282" font-family="Arial,sans-serif" font-size="3.5" fill="#9B7653">Northbridge Group</text>
  <circle cx="122" cy="294" r="1.5" fill="#9B7653"/>
  <rect x="128" y="292" width="120" height="2.5" rx="1" fill="#D7CFC5"/>
  <circle cx="122" cy="302" r="1.5" fill="#9B7653"/>
  <rect x="128" y="300" width="110" height="2.5" rx="1" fill="#D7CFC5"/>
  <text x="150" y="388" text-anchor="middle" font-family="Georgia,serif" font-size="8" font-weight="700" fill="#222222">Warm Editorial Executive</text>
</svg>
