<svg xmlns="http://www.w3.org/2000/svg" width="400" height="520" viewBox="0 0 400 520">
  <defs>
    <linearGradient id="gold" x1="0" y1="0" x2="1" y2="1">
      <stop offset="0%" stop-color="#f0e2c4"/>
      <stop offset="50%" stop-color="#c9a962"/>
      <stop offset="100%" stop-color="#8b6f3a"/>
    </linearGradient>
    <linearGradient id="midnight" x1="0" y1="0" x2="0" y2="1">
      <stop offset="0%" stop-color="#1e1e22"/>
      <stop offset="100%" stop-color="#111114"/>
    </linearGradient>
  </defs>
  <rect width="400" height="520" fill="url(#midnight)"/>
  <!-- Art Deco frame -->
  <rect x="14" y="14" width="372" height="492" fill="none" stroke="url(#gold)" stroke-width="1.5" opacity="0.92"/>
  <rect x="20" y="20" width="360" height="480" fill="none" stroke="url(#gold)" stroke-width="0.7" opacity="0.5"/>
  <path d="M14,14 L14,38 L26,38 L26,26 L38,26 L38,14 Z" fill="none" stroke="url(#gold)" stroke-width="1" opacity="0.88"/>
  <path d="M386,14 L386,38 L374,38 L374,26 L362,26 L362,14 Z" fill="none" stroke="url(#gold)" stroke-width="1" opacity="0.88"/>
  <path d="M14,506 L14,482 L26,482 L26,494 L38,494 L38,506 Z" fill="none" stroke="url(#gold)" stroke-width="1" opacity="0.88"/>
  <path d="M386,506 L386,482 L374,482 L374,494 L362,494 L362,506 Z" fill="none" stroke="url(#gold)" stroke-width="1" opacity="0.88"/>
  <path d="M14,260 L20,254 L26,260 L20,266 Z" fill="none" stroke="url(#gold)" stroke-width="0.8" opacity="0.72"/>
  <path d="M386,260 L380,254 L374,260 L380,266 Z" fill="none" stroke="url(#gold)" stroke-width="0.8" opacity="0.72"/>
  <!-- Header -->
  <rect x="172" y="42" width="56" height="56" fill="none" stroke="url(#gold)" stroke-width="1.2" transform="rotate(45 200 70)" opacity="0.85"/>
  <rect x="182" y="52" width="36" height="36" fill="none" stroke="url(#gold)" stroke-width="0.7" opacity="0.55"/>
  <rect x="186" y="56" width="28" height="28" fill="#2a2a2e" stroke="url(#gold)" stroke-width="0.5"/>
  <text x="200" y="118" font-family="Georgia,serif" font-size="16" font-weight="700" fill="url(#gold)" text-anchor="middle" letter-spacing="4">ALEXANDER VANCE</text>
  <text x="200" y="134" font-family="Arial,sans-serif" font-size="7" fill="#a8a49c" text-anchor="middle" letter-spacing="2.5">CHIEF EXECUTIVE OFFICER | GLOBAL OPERATIONS</text>
  <line x1="70" y1="144" x2="330" y2="144" stroke="url(#gold)" stroke-width="0.7" opacity="0.55"/>
  <text x="200" y="156" font-family="Arial,sans-serif" font-size="6" fill="#a8a49c" text-anchor="middle">email@company.com  |  +1 234 567 8900  |  linkedin.com/in/alex</text>
  <line x1="70" y1="162" x2="330" y2="162" stroke="url(#gold)" stroke-width="0.7" opacity="0.55"/>
  <!-- Left column -->
  <text x="44" y="186" font-family="Georgia,serif" font-size="8" fill="url(#gold)" letter-spacing="2">EXECUTIVE SUMMARY</text>
  <line x1="44" y1="190" x2="250" y2="190" stroke="url(#gold)" stroke-width="0.5" opacity="0.45"/>
  <rect x="44" y="198" width="230" height="3" rx="1" fill="#e8e4dc" opacity="0.3"/>
  <rect x="44" y="206" width="220" height="3" rx="1" fill="#e8e4dc" opacity="0.25"/>
  <rect x="44" y="214" width="225" height="3" rx="1" fill="#e8e4dc" opacity="0.25"/>
  <text x="44" y="238" font-family="Georgia,serif" font-size="8" fill="url(#gold)" letter-spacing="2">PROFESSIONAL EXPERIENCE</text>
  <line x1="44" y1="242" x2="250" y2="242" stroke="url(#gold)" stroke-width="0.5" opacity="0.45"/>
  <text x="44" y="256" font-family="Georgia,serif" font-size="7" fill="url(#gold)" font-weight="700" letter-spacing="1">GLOBAL ENTERPRISES INC.</text>
  <text x="230" y="256" font-family="Arial,sans-serif" font-size="6" fill="#a8a49c" text-anchor="end">2018  PRESENT</text>
  <text x="44" y="266" font-family="Arial,sans-serif" font-size="7" fill="#e8e4dc">Chief Executive Officer</text>
  <rect x="52" y="274" width="4" height="4" fill="url(#gold)" transform="rotate(45 54 276)" opacity="0.8"/>
  <rect x="60" y="273" width="190" height="2.5" rx="1" fill="#e8e4dc" opacity="0.28"/>
  <rect x="52" y="282" width="4" height="4" fill="url(#gold)" transform="rotate(45 54 284)" opacity="0.8"/>
  <rect x="60" y="281" width="180" height="2.5" rx="1" fill="#e8e4dc" opacity="0.28"/>
  <text x="44" y="306" font-family="Georgia,serif" font-size="8" fill="url(#gold)" letter-spacing="2">MAJOR PROJECTS</text>
  <line x1="44" y1="310" x2="250" y2="310" stroke="url(#gold)" stroke-width="0.5" opacity="0.45"/>
  <line x1="50" y1="322" x2="50" y2="360" stroke="url(#gold)" stroke-width="1.2" opacity="0.6"/>
  <rect x="46" y="318" width="8" height="8" fill="#16161a" stroke="url(#gold)" stroke-width="1" transform="rotate(45 50 322)"/>
  <text x="58" y="328" font-family="Georgia,serif" font-size="6.5" fill="url(#gold)" letter-spacing="0.8">DIGITAL TRANSFORMATION</text>
  <rect x="58" y="334" width="170" height="2" rx="1" fill="#e8e4dc" opacity="0.25"/>
  <rect x="58" y="340" width="160" height="2" rx="1" fill="#e8e4dc" opacity="0.22"/>
  <!-- Right column -->
  <text x="278" y="186" font-family="Georgia,serif" font-size="7.5" fill="url(#gold)" letter-spacing="1.5">CORE COMPETENCIES</text>
  <line x1="270" y1="190" x2="370" y2="190" stroke="url(#gold)" stroke-width="0.5" opacity="0.45"/>
  <rect x="274" y="198" width="4" height="4" fill="url(#gold)" transform="rotate(45 276 200)" opacity="0.8"/>
  <rect x="282" y="197" width="72" height="2.5" rx="1" fill="#e8e4dc" opacity="0.32"/>
  <rect x="274" y="208" width="4" height="4" fill="url(#gold)" transform="rotate(45 276 210)" opacity="0.8"/>
  <rect x="282" y="207" width="68" height="2.5" rx="1" fill="#e8e4dc" opacity="0.32"/>
  <rect x="274" y="218" width="4" height="4" fill="url(#gold)" transform="rotate(45 276 220)" opacity="0.8"/>
  <rect x="282" y="217" width="76" height="2.5" rx="1" fill="#e8e4dc" opacity="0.32"/>
  <text x="278" y="240" font-family="Georgia,serif" font-size="7.5" fill="url(#gold)" letter-spacing="1.5">EDUCATION</text>
  <line x1="270" y1="244" x2="370" y2="244" stroke="url(#gold)" stroke-width="0.5" opacity="0.45"/>
  <text x="274" y="256" font-family="Georgia,serif" font-size="6.5" fill="url(#gold)" letter-spacing="0.6">MBA</text>
  <text x="274" y="264" font-family="Arial,sans-serif" font-size="6" fill="#a8a49c">Harvard Business School</text>
  <text x="278" y="284" font-family="Georgia,serif" font-size="7.5" fill="url(#gold)" letter-spacing="1.5">CERTIFICATIONS</text>
  <line x1="270" y1="288" x2="370" y2="288" stroke="url(#gold)" stroke-width="0.5" opacity="0.45"/>
  <rect x="274" y="296" width="80" height="2.5" rx="1" fill="#e8e4dc" opacity="0.28"/>
  <text x="278" y="316" font-family="Georgia,serif" font-size="7.5" fill="url(#gold)" letter-spacing="1.5">ACHIEVEMENTS</text>
  <line x1="270" y1="320" x2="370" y2="320" stroke="url(#gold)" stroke-width="0.5" opacity="0.45"/>
  <rect x="274" y="328" width="4" height="4" fill="url(#gold)" transform="rotate(45 276 330)" opacity="0.8"/>
  <rect x="282" y="327" width="72" height="2.5" rx="1" fill="#e8e4dc" opacity="0.28"/>
  <!-- Bottom flourish -->
  <path d="M175,506 L175,498 L190,498 L190,506" fill="none" stroke="url(#gold)" stroke-width="0.7" opacity="0.6"/>
  <path d="M225,506 L225,498 L210,498 L210,506" fill="none" stroke="url(#gold)" stroke-width="0.7" opacity="0.6"/>
  <path d="M190,502 L210,502" fill="none" stroke="url(#gold)" stroke-width="0.5" opacity="0.45"/>
</svg>
