<svg xmlns="http://www.w3.org/2000/svg" width="240" height="160" viewBox="0 0 240 160">
  <defs>
    <linearGradient id="gold" x1="0" y1="0" x2="1" y2="1">
      <stop offset="0%" stop-color="#f0e2c4"/>
      <stop offset="50%" stop-color="#c9a962"/>
      <stop offset="100%" stop-color="#8b6f3a"/>
    </linearGradient>
    <linearGradient id="midnight" x1="0" y1="0" x2="0" y2="1">
      <stop offset="0%" stop-color="#1e1e22"/>
      <stop offset="100%" stop-color="#111114"/>
    </linearGradient>
  </defs>
  <rect width="240" height="160" rx="10" fill="url(#midnight)"/>
  <!-- Art Deco frame -->
  <rect x="8" y="8" width="224" height="144" fill="none" stroke="url(#gold)" stroke-width="1" opacity="0.9"/>
  <rect x="12" y="12" width="216" height="136" fill="none" stroke="url(#gold)" stroke-width="0.5" opacity="0.5"/>
  <path d="M8,8 L8,24 L18,24 L18,14 L28,14 L28,8 Z" fill="none" stroke="url(#gold)" stroke-width="0.8" opacity="0.85"/>
  <path d="M232,8 L232,24 L222,24 L222,14 L212,14 L212,8 Z" fill="none" stroke="url(#gold)" stroke-width="0.8" opacity="0.85"/>
  <path d="M8,152 L8,136 L18,136 L18,146 L28,146 L28,152 Z" fill="none" stroke="url(#gold)" stroke-width="0.8" opacity="0.85"/>
  <path d="M232,152 L232,136 L222,136 L222,146 L212,146 L212,152 Z" fill="none" stroke="url(#gold)" stroke-width="0.8" opacity="0.85"/>
  <path d="M8,80 L12,76 L16,80 L12,84 Z" fill="none" stroke="url(#gold)" stroke-width="0.6" opacity="0.7"/>
  <path d="M232,80 L228,76 L224,80 L228,84 Z" fill="none" stroke="url(#gold)" stroke-width="0.6" opacity="0.7"/>
  <!-- Photo frame -->
  <rect x="104" y="22" width="32" height="32" fill="none" stroke="url(#gold)" stroke-width="1" transform="rotate(45 120 38)" opacity="0.8"/>
  <rect x="110" y="28" width="20" height="20" fill="none" stroke="url(#gold)" stroke-width="0.6" opacity="0.55"/>
  <rect x="112" y="30" width="16" height="16" fill="#2a2a2e" stroke="url(#gold)" stroke-width="0.4"/>
  <!-- Name -->
  <text x="120" y="68" font-family="Georgia,serif" font-size="9" font-weight="700" fill="url(#gold)" text-anchor="middle" letter-spacing="2">ALEXANDER</text>
  <text x="120" y="78" font-family="Georgia,serif" font-size="9" font-weight="700" fill="url(#gold)" text-anchor="middle" letter-spacing="2">VANCE</text>
  <text x="120" y="86" font-family="Arial,sans-serif" font-size="3.5" fill="#a8a49c" text-anchor="middle" letter-spacing="1.2">CHIEF EXECUTIVE OFFICER</text>
  <line x1="50" y1="90" x2="190" y2="90" stroke="url(#gold)" stroke-width="0.5" opacity="0.5"/>
  <!-- Two columns -->
  <text x="28" y="102" font-family="Georgia,serif" font-size="4.5" fill="url(#gold)" letter-spacing="1">EXPERIENCE</text>
  <line x1="28" y1="105" x2="130" y2="105" stroke="url(#gold)" stroke-width="0.4" opacity="0.45"/>
  <rect x="28" y="110" width="48" height="3" rx="1" fill="url(#gold)" opacity="0.7"/>
  <rect x="28" y="117" width="90" height="2" rx="1" fill="#e8e4dc" opacity="0.35"/>
  <rect x="28" y="122" width="82" height="2" rx="1" fill="#e8e4dc" opacity="0.28"/>
  <rect x="28" y="127" width="86" height="2" rx="1" fill="#e8e4dc" opacity="0.28"/>
  <line x1="34" y1="134" x2="34" y2="148" stroke="url(#gold)" stroke-width="1" opacity="0.55"/>
  <rect x="40" y="136" width="70" height="10" rx="1" fill="none" stroke="url(#gold)" stroke-width="0.3" opacity="0.35"/>
  <text x="158" y="102" font-family="Georgia,serif" font-size="4.5" fill="url(#gold)" letter-spacing="1">SKILLS</text>
  <line x1="148" y1="105" x2="212" y2="105" stroke="url(#gold)" stroke-width="0.4" opacity="0.45"/>
  <rect x="152" y="110" width="3" height="3" fill="url(#gold)" transform="rotate(45 153.5 111.5)" opacity="0.8"/>
  <rect x="158" y="109" width="48" height="2" rx="1" fill="#e8e4dc" opacity="0.35"/>
  <rect x="152" y="118" width="3" height="3" fill="url(#gold)" transform="rotate(45 153.5 119.5)" opacity="0.8"/>
  <rect x="158" y="117" width="42" height="2" rx="1" fill="#e8e4dc" opacity="0.35"/>
  <rect x="152" y="126" width="3" height="3" fill="url(#gold)" transform="rotate(45 153.5 127.5)" opacity="0.8"/>
  <rect x="158" y="125" width="50" height="2" rx="1" fill="#e8e4dc" opacity="0.35"/>
  <text x="158" y="138" font-family="Georgia,serif" font-size="4" fill="url(#gold)" letter-spacing="0.8" opacity="0.85">EDUCATION</text>
  <rect x="152" y="142" width="52" height="2" rx="1" fill="#e8e4dc" opacity="0.3"/>
</svg>
