<svg width="600" height="800" viewBox="0 0 600 800" xmlns="http://www.w3.org/2000/svg" role="img" aria-labelledby="title desc">
  <title id="title">Premium Side Profile Resume Preview</title>
  <desc id="desc">Illustration of a resume with a colored left sidebar and main content on the right.</desc>
  <defs>
    <linearGradient id="sidebarGradient" x1="0" y1="0" x2="0" y2="1">
      <stop offset="0%" stop-color="#2A3A5C"/>
      <stop offset="100%" stop-color="#111827"/>
    </linearGradient>
  </defs>
  <rect x="0" y="0" width="600" height="800" fill="#f3f4f6"/>
  <rect x="60" y="60" width="480" height="680" rx="24" fill="#ffffff" stroke="#e5e7eb"/>
  <rect x="60" y="60" width="150" height="680" rx="24" fill="url(#sidebarGradient)"/>
  <circle cx="135" cy="150" r="46" fill="#e5e7eb" stroke="#f9fafb" stroke-width="4"/>
  <rect x="95" y="220" width="80" height="10" rx="5" fill="#e5e7eb"/>
  <rect x="85" y="240" width="100" height="8" rx="4" fill="#9ca3af"/>
  <rect x="85" y="290" width="100" height="8" rx="4" fill="#9ca3af"/>
  <rect x="85" y="308" width="90" height="8" rx="4" fill="#9ca3af"/>
  <rect x="85" y="326" width="80" height="8" rx="4" fill="#9ca3af"/>

  <rect x="240" y="100" width="120" height="10" rx="5" fill="#111827"/>
  <rect x="240" y="135" width="260" height="8" rx="4" fill="#d1d5db"/>
  <rect x="240" y="152" width="220" height="8" rx="4" fill="#e5e7eb"/>

  <rect x="240" y="210" width="90" height="8" rx="4" fill="#374151"/>
  <rect x="240" y="230" width="230" height="6" rx="3" fill="#d1d5db"/>
  <rect x="240" y="242" width="210" height="6" rx="3" fill="#e5e7eb"/>

  <rect x="240" y="295" width="110" height="8" rx="4" fill="#374151"/>
  <rect x="240" y="315" width="230" height="6" rx="3" fill="#d1d5db"/>
  <rect x="240" y="327" width="210" height="6" rx="3" fill="#e5e7eb"/>
  <rect x="240" y="339" width="200" height="6" rx="3" fill="#e5e7eb"/>

  <rect x="240" y="395" width="110" height="8" rx="4" fill="#374151"/>
  <rect x="240" y="415" width="230" height="6" rx="3" fill="#d1d5db"/>
  <rect x="240" y="427" width="210" height="6" rx="3" fill="#e5e7eb"/>

  <rect x="240" y="485" width="110" height="8" rx="4" fill="#374151"/>
  <rect x="240" y="505" width="230" height="6" rx="3" fill="#d1d5db"/>
  <rect x="240" y="517" width="210" height="6" rx="3" fill="#e5e7eb"/>

  <rect x="240" y="575" width="110" height="8" rx="4" fill="#374151"/>
  <rect x="240" y="595" width="200" height="6" rx="3" fill="#d1d5db"/>
  <rect x="240" y="607" width="180" height="6" rx="3" fill="#e5e7eb"/>
</svg>
