<svg width="160" height="200" viewBox="0 0 160 200" xmlns="http://www.w3.org/2000/svg" role="img" aria-labelledby="title desc">
  <title id="title">Premium Side Profile Thumbnail</title>
  <desc id="desc">Small preview of a resume with a left sidebar.</desc>
  <defs>
    <linearGradient id="sidebarGradientThumb" x1="0" y1="0" x2="0" y2="1">
      <stop offset="0%" stop-color="#2A3A5C"/>
      <stop offset="100%" stop-color="#111827"/>
    </linearGradient>
  </defs>
  <rect x="4" y="4" width="152" height="192" rx="16" fill="#ffffff" stroke="#e5e7eb"/>
  <rect x="4" y="4" width="45" height="192" rx="16" fill="url(#sidebarGradientThumb)"/>
  <circle cx="26" cy="40" r="14" fill="#e5e7eb" stroke="#f9fafb" stroke-width="2"/>
  <rect x="14" y="70" width="24" height="4" rx="2" fill="#e5e7eb"/>
  <rect x="12" y="82" width="28" height="3" rx="1.5" fill="#9ca3af"/>

  <rect x="60" y="24" width="50" height="4" rx="2" fill="#111827"/>
  <rect x="60" y="36" width="80" height="3" rx="1.5" fill="#d1d5db"/>
  <rect x="60" y="44" width="72" height="3" rx="1.5" fill="#e5e7eb"/>

  <rect x="60" y="70" width="40" height="3" rx="1.5" fill="#374151"/>
  <rect x="60" y="78" width="72" height="3" rx="1.5" fill="#d1d5db"/>
  <rect x="60" y="86" width="68" height="3" rx="1.5" fill="#e5e7eb"/>

  <rect x="60" y="110" width="40" height="3" rx="1.5" fill="#374151"/>
  <rect x="60" y="118" width="72" height="3" rx="1.5" fill="#d1d5db"/>
  <rect x="60" y="126" width="68" height="3" rx="1.5" fill="#e5e7eb"/>
</svg>
