<svg xmlns="http://www.w3.org/2000/svg" width="400" height="520" viewBox="0 0 400 520">
  <defs>
    <linearGradient id="bg" x1="0" y1="0" x2="0" y2="1">
      <stop offset="0%" stop-color="#f7f5f0"/>
      <stop offset="100%" stop-color="#faf9f6"/>
    </linearGradient>
  </defs>
  <rect width="400" height="520" fill="url(#bg)"/>
  <path d="M0,0 L400,0 L400,48 Q240,68 200,58 Q80,42 0,56 Z" fill="#0f2341"/>
  <path d="M0,56 Q120,42 200,62 Q300,72 400,48" fill="none" stroke="#c4b896" stroke-width="1.5"/>
  <rect x="8" y="8" width="36" height="36" fill="none" stroke="#c4b896" stroke-width="2"/>
  <rect x="356" y="8" width="36" height="36" fill="none" stroke="#c4b896" stroke-width="2"/>
  <text x="200" y="108" text-anchor="middle" font-family="Georgia,serif" font-size="22" font-weight="700" fill="#0f2341" letter-spacing="2">ARTHUR L. VANCE</text>
  <text x="200" y="128" text-anchor="middle" font-family="Arial,sans-serif" font-size="8" fill="#c4b896" letter-spacing="2">SENIOR EXECUTIVE STRATEGIST</text>
  <line x1="120" y1="138" x2="280" y2="138" stroke="#c4b896" stroke-width="1.5"/>
  <circle cx="200" cy="178" r="34" fill="#0a1628" stroke="#c4b896" stroke-width="3"/>
  <circle cx="200" cy="178" r="40" fill="none" stroke="#c4b896" stroke-width="1.5"/>
  <rect x="48" y="230" width="200" height="250" fill="none"/>
  <line x1="268" y1="230" x2="268" y2="480" stroke="#c4b896" stroke-width="1.5"/>
  <rect x="280" y="230" width="72" height="250" fill="#faf9f6" opacity="0.8"/>
  <text x="64" y="252" font-family="Georgia,serif" font-size="9" fill="#0f2341" font-weight="700">EXECUTIVE SUMMARY</text>
  <text x="64" y="280" font-family="Georgia,serif" font-size="9" fill="#0f2341" font-weight="700">EXPERIENCE</text>
  <line x1="72" y1="300" x2="72" y2="390" stroke="#c4b896"/>
  <circle cx="72" cy="308" r="4" fill="#c4b896"/>
  <text x="292" y="252" font-family="Georgia,serif" font-size="8" fill="#0f2341" font-weight="700">SKILLS</text>
  <rect x="292" y="262" width="52" height="5" rx="2" fill="#c4b896" opacity="0.35"/>
  <rect x="292" y="262" width="42" height="5" rx="2" fill="#0f2341"/>
  <rect x="8" y="476" width="32" height="36" fill="none" stroke="#c4b896" stroke-width="1.5"/>
  <rect x="360" y="476" width="32" height="36" fill="none" stroke="#c4b896" stroke-width="1.5"/>
  <text x="200" y="508" text-anchor="middle" font-family="Georgia,serif" font-size="11" fill="#0f2341">Ivory Boardroom Executive</text>
</svg>
