<svg xmlns="http://www.w3.org/2000/svg" width="794" height="1123" viewBox="0 0 794 1123">
  <rect width="794" height="1123" fill="#FFFDFB"/>
  <circle cx="680" cy="90" r="120" fill="#EBCFC8" opacity="0.35"/>
  <circle cx="720" cy="130" r="80" fill="#DFAFA4" opacity="0.25"/>
  <circle cx="80" cy="1020" r="100" fill="#EBCFC8" opacity="0.3"/>
  <rect x="0" y="0" width="794" height="160" fill="#F3E3DE"/>
  <line x1="0" y1="160" x2="794" y2="160" stroke="#D9C3BC"/>
  <circle cx="100" cy="80" r="56" fill="#F2E2DC" stroke="#DFAFA4" stroke-width="3"/>
  <text x="190" y="72" font-family="Georgia,serif" font-size="42" font-weight="700" fill="#111111">ALEXANDER REED</text>
  <text x="190" y="108" font-family="Arial,sans-serif" font-size="12" fill="#4A4A4A" letter-spacing="2">SENIOR OPERATIONS DIRECTOR</text>
  <text x="190" y="132" font-family="Arial,sans-serif" font-size="10" fill="#4A4A4A">phone | email | linkedin | location</text>
  <text x="48" y="200" font-family="Georgia,serif" font-size="14" font-weight="700" fill="#111111" letter-spacing="1">PROFESSIONAL SUMMARY</text>
  <line x1="48" y1="208" x2="520" y2="208" stroke="#D9C3BC"/>
  <rect x="48" y="220" width="500" height="80" fill="rgba(243,227,222,0.45)" stroke="#D9C3BC"/>
  <text x="48" y="330" font-family="Georgia,serif" font-size="14" font-weight="700" fill="#111111">PROFESSIONAL EXPERIENCE</text>
  <line x1="48" y1="338" x2="520" y2="338" stroke="#D9C3BC"/>
  <rect x="60" y="352" width="488" height="72" fill="#F2E2DC" stroke="#D9C3BC"/>
  <rect x="60" y="436" width="488" height="72" fill="#F2E2DC" stroke="#D9C3BC"/>
  <line x1="560" y1="180" x2="560" y2="900" stroke="#D9C3BC" opacity="0.35"/>
  <text x="580" y="200" font-family="Georgia,serif" font-size="12" font-weight="700" fill="#111111">EXPERTISE &amp; SKILLS</text>
  <rect x="580" y="220" width="180" height="28" fill="#F2E2DC"/>
  <rect x="580" y="220" width="4" height="28" fill="#D6A79B"/>
  <text x="580" y="280" font-family="Georgia,serif" font-size="12" font-weight="700" fill="#111111">EDUCATION</text>
</svg>
