<svg xmlns="http://www.w3.org/2000/svg" width="300" height="400" viewBox="0 0 300 400">
  <rect width="300" height="400" fill="#FFFDFB"/>
  <circle cx="248" cy="52" r="38" fill="#EBCFC8" opacity="0.45"/>
  <circle cx="268" cy="72" r="28" fill="#DFAFA4" opacity="0.32"/>
  <circle cx="230" cy="68" r="22" fill="#F3E3DE" opacity="0.5"/>
  <circle cx="42" cy="348" r="34" fill="#EBCFC8" opacity="0.4"/>
  <circle cx="58" cy="330" r="24" fill="#DFAFA4" opacity="0.28"/>
  <rect x="0" y="0" width="300" height="72" fill="#F3E3DE"/>
  <line x1="0" y1="72" x2="300" y2="72" stroke="#D9C3BC"/>
  <circle cx="44" cy="38" r="24" fill="#F2E2DC" stroke="#DFAFA4" stroke-width="2"/>
  <circle cx="44" cy="38" r="20" fill="#E8D5CF"/>
  <text x="78" y="34" font-family="Georgia,serif" font-size="10" font-weight="700" fill="#111111" letter-spacing="0.8">ALEXANDER REED</text>
  <text x="78" y="48" font-family="Arial,sans-serif" font-size="4.5" fill="#4A4A4A" letter-spacing="1.2">SENIOR OPERATIONS DIRECTOR</text>
  <text x="78" y="62" font-family="Arial,sans-serif" font-size="3.5" fill="#4A4A4A">phone | email | linkedin</text>
  <line x1="188" y1="84" x2="276" y2="84" stroke="#D9C3BC"/>
  <text x="24" y="96" font-family="Georgia,serif" font-size="5" font-weight="700" fill="#111111" letter-spacing="0.6">PROFESSIONAL SUMMARY</text>
  <rect x="24" y="100" width="168" height="28" fill="rgba(243,227,222,0.5)" stroke="#D9C3BC" stroke-width="0.5"/>
  <text x="24" y="138" font-family="Georgia,serif" font-size="5" font-weight="700" fill="#111111" letter-spacing="0.6">PROFESSIONAL EXPERIENCE</text>
  <line x1="28" y1="152" x2="28" y2="200" stroke="#D9C3BC"/>
  <rect x="36" y="148" width="156" height="22" fill="#F2E2DC" stroke="#D9C3BC" stroke-width="0.5"/>
  <rect x="36" y="174" width="156" height="22" fill="#F2E2DC" stroke="#D9C3BC" stroke-width="0.5"/>
  <line x1="200" y1="84" x2="200" y2="320" stroke="#D9C3BC" opacity="0.4"/>
  <text x="208" y="96" font-family="Georgia,serif" font-size="4.5" font-weight="700" fill="#111111">EXPERTISE</text>
  <rect x="208" y="102" width="72" height="10" fill="#F2E2DC"/>
  <rect x="211" y="102" width="3" height="10" fill="#D6A79B"/>
  <rect x="208" y="116" width="72" height="10" fill="#F2E2DC"/>
  <rect x="211" y="116" width="3" height="10" fill="#D6A79B"/>
  <text x="208" y="140" font-family="Georgia,serif" font-size="4.5" font-weight="700" fill="#111111">EDUCATION</text>
  <text x="150" y="388" text-anchor="middle" font-family="Georgia,serif" font-size="8" font-weight="600" fill="#D6A79B">Blush Executive Watercolor</text>
</svg>
