<svg width="800" height="1000" xmlns="http://www.w3.org/2000/svg">
  <rect width="800" height="1000" fill="#F7F7F7"/>
  <path d="M0 0 L80 0 L80 14 L14 14 L14 80 L0 80 Z" fill="#C9CDD3"/>
  <path d="M720 0 L800 0 L800 80 L786 80 L786 14 L720 14 Z" fill="#C9CDD3"/>
  <path d="M0 920 L0 1000 L80 1000 L80 986 L14 986 L14 920 Z" fill="#C9CDD3"/>
  <rect x="0" y="0" width="800" height="160" fill="url(#peeBanner)"/>
  <defs>
    <linearGradient id="peeBanner" x1="0%" y1="0%" x2="100%" y2="100%">
      <stop offset="0%" stop-color="#E8EAED"/>
      <stop offset="50%" stop-color="#C9CDD3"/>
      <stop offset="100%" stop-color="#F0F1F3"/>
    </linearGradient>
  </defs>
  <polygon points="80,120 120,88 160,120 160,168 80,168" fill="#D5D9DE" stroke="#D8A28F" stroke-width="2"/>
  <text x="190" y="108" font-family="Georgia,serif" font-size="34" font-weight="700" fill="#1F1F1F">MARCUS J. STERLING</text>
  <text x="190" y="132" font-family="Arial,sans-serif" font-size="10" fill="#5D636B" letter-spacing="2">SENIOR TECHNOLOGY INNOVATOR &amp; PRODUCT STRATEGIST</text>
  <rect x="190" y="144" width="100" height="22" rx="11" fill="#fff" stroke="#D5D9DE"/>
  <rect x="300" y="144" width="100" height="22" rx="11" fill="#fff" stroke="#D5D9DE"/>
  <rect x="410" y="144" width="100" height="22" rx="11" fill="#fff" stroke="#D5D9DE"/>
  <rect x="520" y="144" width="100" height="22" rx="11" fill="#fff" stroke="#D5D9DE"/>
  <rect x="56" y="180" width="688" height="28" fill="#2F3136"/>
  <polygon points="56,180 72,180 62,208 56,208" fill="#D8A28F"/>
  <text x="78" y="200" font-family="Georgia,serif" font-size="12" fill="#fff" letter-spacing="2">SUMMARY</text>
  <rect x="56" y="220" width="460" height="720" fill="#F7F7F7"/>
  <rect x="516" y="220" width="228" height="720" fill="#ECEEF1"/>
  <line x1="516" y1="220" x2="516" y2="940" stroke="#D5D9DE"/>
  <rect x="56" y="248" width="460" height="28" fill="#2F3136"/>
  <polygon points="56,248 72,248 62,276 56,276" fill="#D8A28F"/>
  <text x="78" y="268" font-family="Georgia,serif" font-size="12" fill="#fff" letter-spacing="2">EXPERIENCE</text>
  <line x1="80" y1="310" x2="80" y2="420" stroke="#9BA1A9" stroke-width="2"/>
  <circle cx="80" cy="320" r="6" fill="#2F3136"/>
  <circle cx="80" cy="380" r="6" fill="#2F3136"/>
  <rect x="516" y="248" width="228" height="28" fill="#2F3136"/>
  <polygon points="516,248 532,248 522,276 516,276" fill="#D8A28F"/>
  <text x="538" y="268" font-family="Georgia,serif" font-size="11" fill="#fff" letter-spacing="1.5">EDUCATION</text>
  <text x="400" y="968" text-anchor="middle" font-family="Georgia,serif" font-size="22" font-weight="600" fill="#2F3136">Platinum Executive Edge</text>
</svg>
