<svg xmlns="http://www.w3.org/2000/svg" width="240" height="160" viewBox="0 0 240 160">
  <defs>
    <linearGradient id="wine" x1="0" y1="0" x2="1" y2="1">
      <stop offset="0%" stop-color="#7a3456"/>
      <stop offset="100%" stop-color="#3d1a35"/>
    </linearGradient>
    <linearGradient id="gold" x1="0" y1="0" x2="1" y2="0">
      <stop offset="0%" stop-color="#f0e4cc"/>
      <stop offset="100%" stop-color="#b89968"/>
    </linearGradient>
  </defs>
  <rect width="240" height="160" rx="10" fill="#faf6f1"/>
  <path d="M0,0 Q30,60 15,120 T0,160 L0,0 Z" fill="url(#wine)" opacity="0.9"/>
  <path d="M8,20 Q40,50 25,90 T12,150" fill="none" stroke="url(#gold)" stroke-width="1.5" opacity="0.6"/>
  <path d="M0,0 L240,0 L240,44 Q150,58 120,48 Q60,36 0,52 Z" fill="url(#wine)"/>
  <circle cx="48" cy="48" r="18" fill="#3d1a35" stroke="url(#gold)" stroke-width="2"/>
  <text x="76" y="44" font-family="Georgia,serif" font-size="9" font-weight="700" fill="#ffffff">ISABELLE D.</text>
  <text x="76" y="56" font-family="Arial,sans-serif" font-size="4.5" fill="#f0e4cc" letter-spacing="0.8">MARKETING EXECUTIVE</text>
  <rect x="168" y="32" width="56" height="12" rx="6" fill="url(#gold)"/>
  <rect x="96" y="72" width="52" height="72" rx="0 10 10 0" fill="url(#wine)"/>
  <rect x="108" y="80" width="118" height="28" rx="0 8 8 0" fill="rgba(255,255,255,0.85)" stroke="rgba(212,188,142,0.4)"/>
  <rect x="108" y="116" width="118" height="28" rx="0 8 8 0" fill="rgba(255,255,255,0.8)" stroke="rgba(212,188,142,0.35)"/>
  <path d="M180,160 Q220,140 240,160 L180,160 Z" fill="url(#wine)" opacity="0.7"/>
</svg>
