<svg xmlns="http://www.w3.org/2000/svg" width="300" height="400" viewBox="0 0 300 400">
  <rect width="300" height="400" fill="#F8F4EE"/>
  <!-- Sidebar -->
  <defs>
    <linearGradient id="wood" x1="0" y1="0" x2="0" y2="1">
      <stop offset="0%" stop-color="#3A2C24"/>
      <stop offset="50%" stop-color="#2A201A"/>
      <stop offset="100%" stop-color="#1E1713"/>
    </linearGradient>
  </defs>
  <rect width="102" height="400" fill="url(#wood)"/>
  <!-- Grid behind photo -->
  <g opacity="0.4" stroke="#B98A5C" stroke-width="0.5">
    <path d="M28 28h48M28 36h48M28 44h48M28 52h48M28 60h48M28 68h48"/>
    <path d="M28 28v40M36 28v40M44 28v40M52 28v40M60 28v40M68 28v40M76 28v40"/>
  </g>
  <!-- Photo -->
  <circle cx="52" cy="52" r="28" fill="#5B3A29"/>
  <circle cx="52" cy="52" r="24" fill="#3D2A1F" stroke="#B98A5C" stroke-width="1.5"/>
  <circle cx="52" cy="52" r="20" fill="#F4EFE7"/>
  <!-- Sidebar sections -->
  <circle cx="24" cy="108" r="5" fill="#B98A5C"/>
  <text x="34" y="111" font-family="Georgia, serif" font-size="7" fill="#F4EFE7">Language</text>
  <text x="20" y="126" font-family="Arial, sans-serif" font-size="5" fill="#F4EFE7">English</text>
  <rect x="20" y="130" width="28" height="7" rx="3.5" fill="#F4EFE7"/>
  <text x="26" y="135" font-family="Arial, sans-serif" font-size="3.5" fill="#5B3A29">Fluency</text>
  <circle cx="78" cy="132" r="10" fill="none" stroke="#B98A5C" stroke-width="2.5" stroke-dasharray="45 20"/>
  <text x="73" y="134" font-family="Arial, sans-serif" font-size="4" font-weight="700" fill="#F4EFE7">90</text>
  <circle cx="24" cy="168" r="5" fill="#B98A5C"/>
  <text x="34" y="171" font-family="Georgia, serif" font-size="7" fill="#F4EFE7">Skills</text>
  <rect x="18" y="180" width="36" height="8" rx="4" fill="#F4EFE7"/>
  <circle cx="62" cy="184" r="1.8" fill="#B98A5C"/>
  <circle cx="68" cy="184" r="1.8" fill="#B98A5C"/>
  <circle cx="74" cy="184" r="1.8" fill="#B98A5C"/>
  <circle cx="80" cy="184" r="1.8" fill="#B98A5C"/>
  <circle cx="86" cy="184" r="1.8" fill="rgba(185,138,92,0.3)"/>
  <rect x="18" y="192" width="32" height="8" rx="4" fill="#2F3A5A"/>
  <circle cx="62" cy="196" r="1.8" fill="#B98A5C"/>
  <circle cx="68" cy="196" r="1.8" fill="#B98A5C"/>
  <circle cx="74" cy="196" r="1.8" fill="#B98A5C"/>
  <circle cx="80" cy="196" r="1.8" fill="rgba(185,138,92,0.3)"/>
  <circle cx="86" cy="196" r="1.8" fill="rgba(185,138,92,0.3)"/>
  <!-- Nameplate -->
  <rect x="92" y="38" width="188" height="42" rx="8" fill="#5B3A29"/>
  <text x="108" y="56" font-family="Georgia, serif" font-size="12" font-weight="700" fill="#F4EFE7">Connor Hamilton</text>
  <text x="108" y="70" font-family="Arial, sans-serif" font-size="5.5" fill="#F4EFE7">Professional Graphic Design</text>
  <!-- Deco line -->
  <line x1="118" y1="28" x2="260" y2="28" stroke="#B98A5C" stroke-width="1"/>
  <!-- Timeline -->
  <line x1="122" y1="100" x2="122" y2="340" stroke="#B98A5C" stroke-width="1.2"/>
  <circle cx="122" cy="108" r="7" fill="#B98A5C"/>
  <text x="138" y="112" font-family="Georgia, serif" font-size="9" font-weight="700" fill="#5B3A29">Education</text>
  <rect x="138" y="120" width="140" height="48" rx="8" fill="#F4EFE7" stroke="#E8E0D4"/>
  <rect x="138" y="120" width="140" height="3" rx="1" fill="#B98A5C"/>
  <text x="146" y="138" font-family="Arial, sans-serif" font-size="5" fill="#6B6B6B">2010-12</text>
  <line x1="176" y1="128" x2="176" y2="158" stroke="#D4CCC2" stroke-width="0.8"/>
  <text x="182" y="136" font-family="Arial, sans-serif" font-size="5.5" font-weight="700" fill="#1D1D1D">Wardiere University</text>
  <text x="182" y="146" font-family="Arial, sans-serif" font-size="5" fill="#5B3A29">BA Design</text>
  <circle cx="122" cy="190" r="7" fill="#B98A5C"/>
  <text x="138" y="194" font-family="Georgia, serif" font-size="9" font-weight="700" fill="#5B3A29">Work Experience</text>
  <rect x="138" y="202" width="140" height="56" rx="8" fill="#F4EFE7"/>
  <rect x="138" y="202" width="140" height="3" rx="1" fill="#C86452"/>
  <circle cx="122" cy="218" r="2.5" fill="#B98A5C"/>
  <text x="146" y="220" font-family="Arial, sans-serif" font-size="5" fill="#6B6B6B">2019-22</text>
  <text x="182" y="218" font-family="Arial, sans-serif" font-size="5.5" font-weight="700" fill="#1D1D1D">Framer Designer</text>
  <text x="182" y="228" font-family="Arial, sans-serif" font-size="4.5" fill="#5B3A29">Wardiere Inc.</text>
  <circle cx="122" cy="280" r="7" fill="#B98A5C"/>
  <text x="138" y="284" font-family="Georgia, serif" font-size="9" font-weight="700" fill="#5B3A29">Achievements</text>
  <rect x="138" y="292" width="140" height="36" rx="8" fill="#F4EFE7"/>
  <rect x="138" y="292" width="140" height="3" rx="1" fill="#6B7C8A"/>
  <circle cx="148" cy="310" r="1.5" fill="#B98A5C"/>
  <rect x="154" y="308" width="100" height="2" rx="1" fill="#D4CCC2"/>
  <circle cx="148" cy="320" r="1.5" fill="#B98A5C"/>
  <rect x="154" y="318" width="90" height="2" rx="1" fill="#D4CCC2"/>
  <text x="150" y="382" text-anchor="middle" font-family="Georgia, serif" font-size="7" font-weight="600" fill="#5B3A29">Royal Walnut Executive</text>
</svg>
