<svg xmlns="http://www.w3.org/2000/svg" width="800" height="1000" viewBox="0 0 800 1000">
  <rect width="800" height="1000" fill="#F8FBFA"/>
  <circle cx="-30" cy="90" r="170" fill="#6FAF9D" opacity="0.07"/>
  <circle cx="740" cy="70" r="110" fill="#CDE6DF" opacity="0.4"/>
  <circle cx="680" cy="90" r="50" fill="none" stroke="#9CCBC0" stroke-width="1" opacity="0.25"/>
  <path d="M620 880 Q700 780 760 820" fill="none" stroke="#6FAF9D" stroke-width="1.2" opacity="0.15"/>
  <rect x="48" y="48" width="704" height="156" rx="18" fill="#FFFFFF" stroke="#D9E7E2" stroke-width="1"/>
  <rect x="72" y="72" width="108" height="124" rx="14" fill="#EEF6F3" stroke="#9CCBC0" stroke-width="2"/>
  <text x="208" y="108" font-family="Georgia,serif" font-size="52" font-weight="700" fill="#1F2937">Eliza Chen</text>
  <text x="208" y="142" font-family="Arial,sans-serif" font-size="17" fill="#6B7280">Global Operations Strategist</text>
  <line x1="72" y1="168" x2="728" y2="168" stroke="#BFD8D1" stroke-width="1"/>
  <text x="72" y="188" font-family="Arial,sans-serif" font-size="11" fill="#6B7280">+1 (415) 555-0142</text>
  <line x1="200" y1="176" x2="200" y2="192" stroke="#BFD8D1"/>
  <text x="216" y="188" font-family="Arial,sans-serif" font-size="11" fill="#6B7280">eliza.chen@email.com</text>
  <line x1="380" y1="176" x2="380" y2="192" stroke="#BFD8D1"/>
  <text x="396" y="188" font-family="Arial,sans-serif" font-size="11" fill="#6B7280">linkedin.com/in/elizachen</text>
  <text x="48" y="248" font-family="Arial,sans-serif" font-size="11" font-weight="700" fill="#1F2937" letter-spacing="2">PROFESSIONAL SUMMARY</text>
  <rect x="48" y="258" width="496" height="72" rx="14" fill="#FFFFFF" stroke="#D9E7E2" stroke-width="0.8"/>
  <rect x="48" y="258" width="496" height="72" rx="14" fill="#FFFFFF" filter="url(#sspShadow)"/>
  <defs>
    <filter id="sspShadow" x="-4%" y="-8%" width="108%" height="120%">
      <feDropShadow dx="0" dy="4" stdDeviation="8" flood-color="#1F2937" flood-opacity="0.05"/>
    </filter>
  </defs>
  <rect x="48" y="348" width="496" height="520" rx="0" fill="none"/>
  <text x="48" y="372" font-family="Arial,sans-serif" font-size="11" font-weight="700" fill="#1F2937" letter-spacing="2">EXPERIENCE</text>
  <text x="52" y="408" font-family="Arial,sans-serif" font-size="11" font-weight="600" fill="#6FAF9D">Nov 2023</text>
  <text x="52" y="422" font-family="Arial,sans-serif" font-size="11" font-weight="600" fill="#6FAF9D">Present</text>
  <circle cx="132" cy="412" r="5" fill="#6FAF9D"/>
  <line x1="132" y1="422" x2="132" y2="500" stroke="#BFD8D1" stroke-width="1.2"/>
  <rect x="152" y="392" width="380" height="88" rx="12" fill="#FFFFFF" stroke="#D9E7E2" stroke-width="0.6"/>
  <text x="168" y="420" font-family="Arial,sans-serif" font-size="16" font-weight="600" fill="#1F2937">Chief Innovation Officer</text>
  <text x="168" y="442" font-family="Arial,sans-serif" font-size="13" fill="#6B7280">Global Innovations Tech, San Francisco</text>
  <rect x="568" y="248" width="184" height="200" rx="12" fill="#EEF6F3" stroke="#D9E7E2" stroke-width="0.8"/>
  <text x="584" y="280" font-family="Arial,sans-serif" font-size="10" font-weight="700" fill="#1F2937" letter-spacing="2">SKILLS</text>
  <line x1="584" y1="288" x2="736" y2="288" stroke="#BFD8D1"/>
  <text x="584" y="308" font-family="Arial,sans-serif" font-size="12" fill="#4B5563">Strategic Leadership</text>
  <text x="584" y="326" font-family="Arial,sans-serif" font-size="12" fill="#4B5563">Operations</text>
  <text x="584" y="344" font-family="Arial,sans-serif" font-size="12" fill="#4B5563">Digital Transformation</text>
  <rect x="568" y="464" width="184" height="140" rx="12" fill="#EEF6F3" stroke="#D9E7E2" stroke-width="0.8"/>
  <text x="584" y="496" font-family="Arial,sans-serif" font-size="10" font-weight="700" fill="#1F2937" letter-spacing="2">CERTIFICATIONS</text>
  <rect x="568" y="620" width="184" height="120" rx="12" fill="#EEF6F3" stroke="#D9E7E2" stroke-width="0.8"/>
  <text x="584" y="652" font-family="Arial,sans-serif" font-size="10" font-weight="700" fill="#1F2937" letter-spacing="2">LANGUAGES</text>
  <text x="400" y="968" text-anchor="middle" font-family="Georgia,serif" font-size="13" font-weight="600" fill="#6FAF9D" letter-spacing="2">SOFT SAGE PROFESSIONAL</text>
</svg>
