<svg xmlns="http://www.w3.org/2000/svg" width="300" height="400" viewBox="0 0 300 400">
  <rect width="300" height="400" fill="#F8FBFA"/>
  <circle cx="-15" cy="35" r="65" fill="#6FAF9D" opacity="0.07"/>
  <circle cx="275" cy="28" r="42" fill="#CDE6DF" opacity="0.45"/>
  <path d="M260 360 Q220 320 280 300" fill="none" stroke="#9CCBC0" stroke-width="0.8" opacity="0.2"/>
  <rect x="16" y="24" width="268" height="68" rx="12" fill="#FFFFFF" stroke="#D9E7E2" stroke-width="0.5"/>
  <rect x="28" y="36" width="44" height="50" rx="8" fill="#EEF6F3" stroke="#9CCBC0" stroke-width="0.8"/>
  <text x="84" y="52" font-family="Georgia,serif" font-size="11" font-weight="700" fill="#1F2937">ELIZA</text>
  <text x="84" y="64" font-family="Georgia,serif" font-size="11" font-weight="700" fill="#1F2937">CHEN</text>
  <text x="84" y="74" font-family="Arial,sans-serif" font-size="2.8" fill="#6B7280">Global Operations Strategist</text>
  <line x1="84" y1="80" x2="268" y2="80" stroke="#BFD8D1" stroke-width="0.4"/>
  <text x="84" y="86" font-family="Arial,sans-serif" font-size="2.2" fill="#6B7280">phone | email | linkedin</text>
  <rect x="16" y="104" width="188" height="272" rx="0" fill="none"/>
  <text x="20" y="120" font-family="Arial,sans-serif" font-size="3" font-weight="700" fill="#1F2937" letter-spacing="0.6">PROFESSIONAL SUMMARY</text>
  <rect x="20" y="124" width="180" height="36" rx="6" fill="#FFFFFF" stroke="#D9E7E2" stroke-width="0.3"/>
  <text x="20" y="172" font-family="Arial,sans-serif" font-size="3" font-weight="700" fill="#1F2937" letter-spacing="0.6">EXPERIENCE</text>
  <text x="22" y="188" font-family="Arial,sans-serif" font-size="2.4" fill="#6FAF9D">2021-26</text>
  <circle cx="52" cy="186" r="2.5" fill="#6FAF9D"/>
  <line x1="52" y1="190" x2="52" y2="230" stroke="#BFD8D1" stroke-width="0.6"/>
  <rect x="60" y="180" width="140" height="32" rx="5" fill="#FFFFFF" stroke="#D9E7E2" stroke-width="0.3"/>
  <rect x="212" y="104" width="72" height="130" rx="8" fill="#EEF6F3" stroke="#D9E7E2" stroke-width="0.4"/>
  <text x="220" y="120" font-family="Arial,sans-serif" font-size="2.8" font-weight="700" fill="#1F2937" letter-spacing="0.5">SKILLS</text>
  <text x="220" y="132" font-family="Arial,sans-serif" font-size="2.4" fill="#4B5563">Leadership</text>
  <text x="220" y="140" font-family="Arial,sans-serif" font-size="2.4" fill="#4B5563">Strategy</text>
  <rect x="212" y="242" width="72" height="56" rx="8" fill="#EEF6F3" stroke="#D9E7E2" stroke-width="0.4"/>
  <text x="220" y="258" font-family="Arial,sans-serif" font-size="2.8" font-weight="700" fill="#1F2937" letter-spacing="0.5">LANGUAGES</text>
  <text x="150" y="388" text-anchor="middle" font-family="Georgia,serif" font-size="7" font-weight="600" fill="#6FAF9D" letter-spacing="1.2">SOFT SAGE</text>
</svg>
