<svg xmlns="http://www.w3.org/2000/svg" width="800" height="1000" viewBox="0 0 800 1000">
  <rect width="800" height="1000" fill="#FFFFFF"/>
  <circle cx="720" cy="80" r="140" fill="#EDE7E1"/>
  <circle cx="740" cy="100" r="58" fill="none" stroke="#FF5A3D" stroke-width="5"/>
  <ellipse cx="40" cy="480" rx="70" ry="70" fill="#F8C6B4" opacity="0.12"/>
  <ellipse cx="720" cy="900" rx="90" ry="50" fill="#EDE7E1" opacity="0.55"/>
  <path d="M640 920 Q700 840 760 900" fill="none" stroke="#FF5A3D" stroke-width="4" opacity="0.5"/>
  <ellipse cx="60" cy="880" rx="80" ry="50" fill="#EDE7E1" opacity="0.5"/>
  <circle cx="120" cy="130" r="78" fill="#FFFFFF" stroke="#F8C6B4" stroke-width="5"/>
  <circle cx="120" cy="130" r="68" fill="#E0E0E0"/>
  <text x="230" y="108" font-family="Arial,sans-serif" font-size="48" font-weight="800" fill="#000000" letter-spacing="3">ALEXANDER</text>
  <text x="230" y="158" font-family="Arial,sans-serif" font-size="48" font-weight="800" fill="#000000" letter-spacing="3">REED</text>
  <text x="230" y="192" font-family="Arial,sans-serif" font-size="13" font-weight="500" fill="#222222" letter-spacing="1.5">SENIOR OPERATIONS DIRECTOR &amp; STRATEGIST</text>
  <line x1="48" y1="228" x2="752" y2="228" stroke="#D9D9D9" stroke-width="1.5"/>
  <line x1="48" y1="278" x2="752" y2="278" stroke="#D9D9D9" stroke-width="1.5"/>
  <line x1="200" y1="232" x2="200" y2="274" stroke="#D9D9D9"/>
  <line x1="360" y1="232" x2="360" y2="274" stroke="#D9D9D9"/>
  <line x1="520" y1="232" x2="520" y2="274" stroke="#D9D9D9"/>
  <line x1="640" y1="232" x2="640" y2="274" stroke="#D9D9D9"/>
  <text x="56" y="258" font-family="Arial,sans-serif" font-size="10" fill="#555555">Address</text>
  <text x="210" y="258" font-family="Arial,sans-serif" font-size="10" fill="#555555">Phone</text>
  <text x="370" y="258" font-family="Arial,sans-serif" font-size="10" fill="#555555">Email</text>
  <text x="530" y="258" font-family="Arial,sans-serif" font-size="10" fill="#555555">LinkedIn</text>
  <text x="650" y="258" font-family="Arial,sans-serif" font-size="10" fill="#555555">Portfolio</text>
  <text x="56" y="318" font-family="Arial,sans-serif" font-size="15" font-weight="700" fill="#111111" letter-spacing="2">EXPERIENCE</text>
  <line x1="56" y1="330" x2="500" y2="330" stroke="#D9D9D9"/>
  <text x="56" y="358" font-family="Arial,sans-serif" font-size="12" font-weight="700" fill="#111111">Senior Director | Company Name</text>
  <text x="56" y="378" font-family="Arial,sans-serif" font-size="11" fill="#555555">Stockholm | 2020 - Present</text>
  <line x1="520" y1="300" x2="520" y2="900" stroke="#D9D9D9"/>
  <text x="544" y="318" font-family="Arial,sans-serif" font-size="13" font-weight="700" fill="#111111" letter-spacing="1.5">PROFESSIONAL SUMMARY</text>
  <line x1="544" y1="330" x2="752" y2="330" stroke="#D9D9D9"/>
  <rect x="544" y="342" width="190" height="6" rx="2" fill="#D9D9D9" opacity="0.5"/>
  <text x="544" y="390" font-family="Arial,sans-serif" font-size="13" font-weight="700" fill="#111111" letter-spacing="1.5">SKILLS</text>
  <line x1="544" y1="402" x2="752" y2="402" stroke="#D9D9D9"/>
  <text x="544" y="426" font-family="Arial,sans-serif" font-size="10" fill="#111111">Operational Strategy</text>
  <text x="660" y="426" font-family="Arial,sans-serif" font-size="10" fill="#111111">Leadership</text>
  <text x="544" y="444" font-family="Arial,sans-serif" font-size="10" fill="#111111">Analytics</text>
  <text x="660" y="444" font-family="Arial,sans-serif" font-size="10" fill="#111111">Management</text>
  <text x="400" y="968" text-anchor="middle" font-family="Arial,sans-serif" font-size="18" font-weight="700" fill="#FF5A3D">Soft Coral Executive</text>
</svg>
