<svg xmlns="http://www.w3.org/2000/svg" width="600" height="800" viewBox="0 0 600 800">
  <rect width="600" height="800" fill="#FAFAFA"/>
  <path d="M36 36 H56 V56" stroke="#C48A4A" stroke-width="2" fill="none" opacity="0.75"/>
  <circle cx="536" cy="56" r="44" fill="none" stroke="#D8DCE5" stroke-width="1.2"/>
  <circle cx="536" cy="56" r="6" fill="#C48A4A" opacity="0.55"/>
  <circle cx="104" cy="104" r="56" fill="#FFFFFF" stroke="#C48A4A" stroke-width="4"/>
  <text x="184" y="96" font-family="Georgia, serif" font-size="22" font-weight="700" fill="#1E222D" letter-spacing="1">ALEXANDER REED</text>
  <text x="184" y="124" font-family="Arial, sans-serif" font-size="9" font-weight="600" fill="#6B7280" letter-spacing="1">SENIOR OPERATIONS DIRECTOR &amp; STRATEGIST</text>
  <rect x="56" y="144" width="96" height="44" rx="8" fill="#FFFFFF" stroke="#E8E8E8"/>
  <rect x="168" y="144" width="96" height="44" rx="8" fill="#FFFFFF" stroke="#E8E8E8"/>
  <rect x="280" y="144" width="96" height="44" rx="8" fill="#FFFFFF" stroke="#E8E8E8"/>
  <rect x="392" y="144" width="152" height="44" rx="8" fill="#FFFFFF" stroke="#E8E8E8"/>
  <line x1="392" y1="208" x2="392" y2="680" stroke="#D8DCE5" stroke-width="1.2"/>
  <text x="56" y="236" font-family="Arial, sans-serif" font-size="10" font-weight="600" fill="#1E222D" letter-spacing="1.4">EXPERIENCE</text>
  <line x1="56" y1="244" x2="376" y2="244" stroke="#D8DCE5"/>
  <line x1="64" y1="256" x2="64" y2="400" stroke="#D8DCE5" stroke-width="1.5"/>
  <circle cx="64" cy="268" r="5" fill="#C48A4A"/>
  <text x="80" y="272" font-family="Arial, sans-serif" font-size="9" font-weight="700" fill="#1E222D">CHIEF INNOVATION OFFICER</text>
  <text x="80" y="288" font-family="Arial, sans-serif" font-size="8" fill="#2D3342">Global Innovations Tech</text>
  <text x="56" y="440" font-family="Arial, sans-serif" font-size="10" font-weight="600" fill="#1E222D" letter-spacing="1.4">PROJECTS</text>
  <rect x="56" y="452" width="152" height="88" rx="10" fill="#FFFFFF" stroke="#E8E8E8"/>
  <rect x="224" y="452" width="152" height="88" rx="10" fill="#FFFFFF" stroke="#E8E8E8"/>
  <text x="408" y="236" font-family="Arial, sans-serif" font-size="10" font-weight="600" fill="#1E222D" letter-spacing="1.4">PROFESSIONAL SUMMARY</text>
  <rect x="408" y="248" width="136" height="72" rx="10" fill="#FFFFFF" stroke="#E8E8E8"/>
  <rect x="408" y="248" width="4" height="72" fill="#C48A4A"/>
  <text x="408" y="344" font-family="Arial, sans-serif" font-size="10" font-weight="600" fill="#1E222D" letter-spacing="1.4">SKILLS</text>
  <rect x="408" y="356" width="56" height="22" rx="11" fill="rgba(196,138,74,0.18)" stroke="#C48A4A" stroke-width="0.8"/>
  <rect x="472" y="356" width="64" height="22" rx="11" fill="rgba(196,138,74,0.18)" stroke="#C48A4A" stroke-width="0.8"/>
  <text x="300" y="776" text-anchor="middle" font-family="Georgia, serif" font-size="13" font-weight="600" fill="#1E222D">Soft Coral Executive</text>
</svg>
