<svg xmlns="http://www.w3.org/2000/svg" width="300" height="400" viewBox="0 0 300 400">
  <rect width="300" height="400" fill="#FAFAFA"/>
  <path d="M18 18 H34 V34" stroke="#C48A4A" stroke-width="1.5" fill="none" opacity="0.75"/>
  <circle cx="268" cy="28" r="22" fill="none" stroke="#D8DCE5" stroke-width="1"/>
  <circle cx="268" cy="28" r="3" fill="#C48A4A" opacity="0.55"/>
  <!-- Photo -->
  <circle cx="52" cy="52" r="28" fill="#FFFFFF" stroke="#C48A4A" stroke-width="2.5"/>
  <!-- Name -->
  <text x="92" y="44" font-family="Georgia, serif" font-size="11" font-weight="700" fill="#1E222D">ALEXANDER REED</text>
  <text x="92" y="56" font-family="Arial, sans-serif" font-size="4.5" font-weight="600" fill="#6B7280" letter-spacing="0.6">SENIOR OPERATIONS DIRECTOR</text>
  <!-- Contact cards -->
  <rect x="28" y="72" width="52" height="22" rx="4" fill="#FFFFFF" stroke="#E8E8E8" stroke-width="0.6"/>
  <rect x="84" y="72" width="52" height="22" rx="4" fill="#FFFFFF" stroke="#E8E8E8" stroke-width="0.6"/>
  <rect x="140" y="72" width="52" height="22" rx="4" fill="#FFFFFF" stroke="#E8E8E8" stroke-width="0.6"/>
  <rect x="196" y="72" width="76" height="22" rx="4" fill="#FFFFFF" stroke="#E8E8E8" stroke-width="0.6"/>
  <!-- Body columns -->
  <line x1="196" y1="104" x2="196" y2="340" stroke="#D8DCE5" stroke-width="0.8"/>
  <!-- Main: Experience -->
  <text x="28" y="118" font-family="Arial, sans-serif" font-size="5" font-weight="600" fill="#1E222D" letter-spacing="1">EXPERIENCE</text>
  <line x1="28" y1="122" x2="188" y2="122" stroke="#D8DCE5" stroke-width="0.5"/>
  <line x1="32" y1="128" x2="32" y2="200" stroke="#D8DCE5" stroke-width="0.8"/>
  <circle cx="32" cy="134" r="2.5" fill="#C48A4A"/>
  <rect x="40" y="130" width="120" height="2" rx="1" fill="#2D3342" opacity="0.8"/>
  <rect x="40" y="136" width="90" height="2" rx="1" fill="#6B7280"/>
  <!-- Projects grid -->
  <text x="28" y="218" font-family="Arial, sans-serif" font-size="5" font-weight="600" fill="#1E222D" letter-spacing="1">PROJECTS</text>
  <rect x="28" y="224" width="76" height="36" rx="4" fill="#FFFFFF" stroke="#E8E8E8" stroke-width="0.6"/>
  <rect x="108" y="224" width="76" height="36" rx="4" fill="#FFFFFF" stroke="#E8E8E8" stroke-width="0.6"/>
  <!-- Sidebar: Summary -->
  <text x="204" y="118" font-family="Arial, sans-serif" font-size="5" font-weight="600" fill="#1E222D" letter-spacing="1">SUMMARY</text>
  <rect x="204" y="124" width="68" height="28" rx="3" fill="#FFFFFF" stroke="#E8E8E8" stroke-width="0.6"/>
  <rect x="204" y="124" width="2" height="28" fill="#C48A4A"/>
  <!-- Skills pills -->
  <text x="204" y="166" font-family="Arial, sans-serif" font-size="5" font-weight="600" fill="#1E222D" letter-spacing="1">SKILLS</text>
  <rect x="204" y="172" width="28" height="8" rx="4" fill="rgba(196,138,74,0.2)" stroke="#C48A4A" stroke-width="0.4"/>
  <rect x="234" y="172" width="32" height="8" rx="4" fill="rgba(196,138,74,0.2)" stroke="#C48A4A" stroke-width="0.4"/>
  <text x="150" y="388" text-anchor="middle" font-family="Georgia, serif" font-size="6.5" font-weight="600" fill="#1E222D">Soft Coral Executive</text>
</svg>
