<svg xmlns="http://www.w3.org/2000/svg" width="300" height="400" viewBox="0 0 300 400">
  <rect width="300" height="400" fill="#FAF8F4"/>
  <rect x="14" y="16" width="272" height="88" rx="16" fill="#EADCCB"/>
  <path d="M220 16 Q260 16 270 50" fill="none" stroke="rgba(255,253,252,0.6)" stroke-width="8"/>
  <rect x="230" y="28" width="36" height="28" rx="6" fill="rgba(185,199,179,0.4)" transform="rotate(-6 248 42)"/>
  <circle cx="52" cy="58" r="24" fill="#FFFDFC" stroke="#FFFFFF" stroke-width="2"/>
  <text x="88" y="48" font-family="Georgia,serif" font-size="10" font-weight="700" fill="#2B2B2B" letter-spacing="0.6">ALEXANDER</text>
  <text x="88" y="60" font-family="Georgia,serif" font-size="10" font-weight="700" fill="#2B2B2B" letter-spacing="0.6">CHEN</text>
  <text x="88" y="70" font-family="Arial,sans-serif" font-size="2.6" fill="#7C7F82" letter-spacing="0.5">SENIOR PRODUCT DESIGNER</text>
  <text x="88" y="78" font-family="Arial,sans-serif" font-size="2" fill="#666666">phone · email · linkedin</text>
  <rect x="14" y="112" width="188" height="48" rx="12" fill="#EADCCB"/>
  <text x="22" y="128" font-family="Arial,sans-serif" font-size="2.8" font-weight="700" fill="#2B2B2B">Professional Summary</text>
  <text x="22" y="138" font-family="Arial,sans-serif" font-size="2.2" fill="#666666">Results-driven designer with 10+ years...</text>
  <text x="14" y="176" font-family="Arial,sans-serif" font-size="3.2" font-weight="700" fill="#2B2B2B">Experience</text>
  <rect x="16" y="184" width="3" height="36" rx="1.5" fill="#C4A090"/>
  <text x="24" y="192" font-family="Arial,sans-serif" font-size="2.6" font-weight="700" fill="#2B2B2B">Product Lead</text>
  <text x="24" y="200" font-family="Arial,sans-serif" font-size="2.2" fill="#666666">Studio Nord  2021Present</text>
  <text x="14" y="232" font-family="Arial,sans-serif" font-size="3.2" font-weight="700" fill="#2B2B2B">Projects</text>
  <rect x="14" y="240" width="88" height="44" rx="8" fill="#FFFDFC" stroke="#E7E1D9" stroke-width="0.4"/>
  <rect x="14" y="246" width="88" height="4" rx="2" fill="#E7E1D9" opacity="0.5"/>
  <rect x="106" y="240" width="88" height="44" rx="8" fill="#FFFDFC" stroke="#E7E1D9" stroke-width="0.4"/>
  <rect x="208" y="112" width="78" height="272" rx="0" fill="none"/>
  <text x="214" y="128" font-family="Arial,sans-serif" font-size="2.6" font-weight="700" fill="#2B2B2B" letter-spacing="0.4">SKILLS</text>
  <line x1="214" y1="132" x2="278" y2="132" stroke="#E7E1D9" stroke-width="0.4"/>
  <text x="214" y="142" font-family="Arial,sans-serif" font-size="2" fill="#7C7F82">DESIGN TOOLS</text>
  <rect x="214" y="220" width="68" height="36" rx="8" fill="#B9C7B3"/>
  <text x="222" y="234" font-family="Arial,sans-serif" font-size="2.2" font-weight="600" fill="#2B2B2B">Award Winner</text>
  <path d="M250 380 Q300 340 300 400 L250 400 Z" fill="rgba(234,220,203,0.25)"/>
  <text x="150" y="388" text-anchor="middle" font-family="Georgia,serif" font-size="7" font-weight="600" fill="#7C7F82" letter-spacing="1.2">NORDIC FUSION</text>
</svg>
