<svg xmlns="http://www.w3.org/2000/svg" width="300" height="400" viewBox="0 0 300 400">
  <rect width="300" height="400" fill="#FAF8F4"/>
  <path d="M260 0 Q300 40 300 100 L300 0 Z" fill="#FFFDFC" stroke="#E7DDD3" stroke-width="0.4"/>
  <circle cx="48" cy="52" r="28" fill="rgba(201,120,97,0.15)"/>
  <rect x="72" y="44" width="18" height="24" rx="3" fill="rgba(154,155,133,0.22)" transform="rotate(-6 81 56)"/>
  <circle cx="52" cy="58" r="22" fill="#E8E1D8" stroke="#FFFFFF" stroke-width="2"/>
  <text x="88" y="48" font-family="Georgia,serif" font-size="10" font-weight="700" fill="#2C201C" letter-spacing="0.6">KATHERINE</text>
  <text x="88" y="60" font-family="Georgia,serif" font-size="10" font-weight="700" fill="#2C201C" letter-spacing="0.6">REED</text>
  <text x="88" y="70" font-family="Arial,sans-serif" font-size="2.6" fill="#C97861" letter-spacing="0.5">CHIEF STRATEGY OFFICER</text>
  <line x1="88" y1="76" x2="278" y2="76" stroke="#D9CEC4" stroke-width="0.4"/>
  <text x="88" y="82" font-family="Arial,sans-serif" font-size="2" fill="#666666">email | phone | web | location</text>
  <rect x="14" y="96" width="182" height="288" rx="0" fill="none"/>
  <circle cx="58" cy="112" r="8" fill="none" stroke="#9A9B85" stroke-width="0.8"/>
  <text x="72" y="114" font-family="Arial,sans-serif" font-size="2.8" font-weight="700" fill="#2C201C" letter-spacing="0.5">EXPERIENCE</text>
  <line x1="72" y1="116" x2="188" y2="116" stroke="#D9CEC4" stroke-width="0.3"/>
  <line x1="58" y1="124" x2="58" y2="200" stroke="#9A9B85" stroke-width="0.6" opacity="0.6"/>
  <text x="22" y="132" font-family="Arial,sans-serif" font-size="2.2" fill="#666666" text-anchor="end">202122</text>
  <circle cx="58" cy="130" r="3" fill="#FFFDFC" stroke="#9A9B85" stroke-width="0.8"/>
  <text x="68" y="130" font-family="Arial,sans-serif" font-size="2.4" font-weight="700" fill="#2C201C">AMAZON</text>
  <text x="68" y="138" font-family="Arial,sans-serif" font-size="2.2" fill="#2C201C">Product Director</text>
  <text x="68" y="146" font-family="Arial,sans-serif" font-size="2" fill="#666666">" Led global roadmap</text>
  <rect x="204" y="96" width="82" height="288" rx="10" fill="#FFFDFC" stroke="#E7DDD3" stroke-width="0.4"/>
  <circle cx="216" cy="112" r="7" fill="none" stroke="#9A9B85" stroke-width="0.7"/>
  <text x="228" y="114" font-family="Arial,sans-serif" font-size="2.6" font-weight="700" fill="#2C201C" letter-spacing="0.4">SKILLS</text>
  <line x1="228" y1="116" x2="276" y2="116" stroke="#D9CEC4" stroke-width="0.3"/>
  <text x="212" y="128" font-family="Arial,sans-serif" font-size="2.2" font-weight="700" fill="#2C201C">Leadership</text>
  <text x="212" y="136" font-family="Arial,sans-serif" font-size="2" fill="#666666">" Strategy</text>
  <circle cx="216" cy="168" r="7" fill="none" stroke="#9A9B85" stroke-width="0.7"/>
  <text x="228" y="170" font-family="Arial,sans-serif" font-size="2.6" font-weight="700" fill="#2C201C" letter-spacing="0.4">LANGUAGES</text>
  <text x="212" y="182" font-family="Arial,sans-serif" font-size="2" fill="#666666">English ĎĎĎĎĎ</text>
  <text x="150" y="388" text-anchor="middle" font-family="Georgia,serif" font-size="7" font-weight="600" fill="#C97861" letter-spacing="1.2">EXECUTIVE TIMELINE</text>
</svg>
