<svg xmlns="http://www.w3.org/2000/svg" width="600" height="800" viewBox="0 0 600 800">
  <rect width="600" height="800" fill="#F7F8F3"/>
  <!-- Header band -->
  <rect x="140" y="36" width="420" height="150" rx="28" fill="#E8EFE4"/>
  <rect x="190" y="28" width="90" height="7" rx="3.5" fill="#435B4A"/>
  <!-- Photo -->
  <circle cx="104" cy="112" r="72" fill="#DCE8D7"/>
  <circle cx="104" cy="112" r="60" fill="#CAD8C5" stroke="#FFFFFF" stroke-width="6"/>
  <!-- Name + badge -->
  <text x="200" y="105" font-family="Georgia, serif" font-size="36" font-style="italic" fill="#435B4A">Olivia Wilson</text>
  <rect x="200" y="124" width="230" height="30" rx="15" fill="#BF8B52"/>
  <text x="315" y="144" text-anchor="middle" font-family="Arial, sans-serif" font-size="11" font-weight="700" fill="#FFFFFF" letter-spacing="2.5">ADMINISTRATION MANAGER</text>
  <!-- Sidebar -->
  <rect x="28" y="210" width="214" height="560" rx="22" fill="#E8EFE4"/>
  <rect x="44" y="234" width="182" height="34" rx="17" fill="#CAD8C5"/>
  <circle cx="66" cy="251" r="11" fill="#A8BCA3"/>
  <text x="86" y="256" font-family="Arial, sans-serif" font-size="11" font-weight="700" fill="#435B4A" letter-spacing="1.5">ABOUT ME</text>
  <rect x="48" y="284" width="170" height="6" rx="2" fill="#B8C7B4"/>
  <rect x="48" y="300" width="158" height="6" rx="2" fill="#B8C7B4"/>
  <rect x="48" y="316" width="146" height="6" rx="2" fill="#B8C7B4"/>
  <rect x="48" y="332" width="132" height="6" rx="2" fill="#B8C7B4"/>
  <rect x="44" y="368" width="182" height="34" rx="17" fill="#CAD8C5"/>
  <circle cx="66" cy="385" r="11" fill="#A8BCA3"/>
  <text x="86" y="390" font-family="Arial, sans-serif" font-size="11" font-weight="700" fill="#435B4A" letter-spacing="1.5">CONTACT</text>
  <circle cx="56" cy="430" r="5" fill="#73886E"/>
  <text x="72" y="434" font-family="Arial, sans-serif" font-size="11" fill="#2F3530">123-456-7890</text>
  <circle cx="56" cy="458" r="5" fill="#73886E"/>
  <text x="72" y="462" font-family="Arial, sans-serif" font-size="11" fill="#2F3530">hello@reallygreatsite.com</text>
  <circle cx="56" cy="486" r="5" fill="#73886E"/>
  <text x="72" y="490" font-family="Arial, sans-serif" font-size="11" fill="#2F3530">123 Anywhere St., Any City</text>
  <rect x="44" y="524" width="182" height="34" rx="17" fill="#CAD8C5"/>
  <circle cx="66" cy="541" r="11" fill="#A8BCA3"/>
  <text x="86" y="546" font-family="Arial, sans-serif" font-size="11" font-weight="700" fill="#435B4A" letter-spacing="1.5">EDUCATION</text>
  <text x="52" y="584" font-family="Arial, sans-serif" font-size="12" font-weight="700" fill="#435B4A">BA Business Administration</text>
  <text x="52" y="606" font-family="Arial, sans-serif" font-size="11" fill="#6D736F">Wardiere University</text>
  <text x="52" y="626" font-family="Arial, sans-serif" font-size="11" font-weight="600" fill="#73886E">2011 - 2015</text>
  <text x="52" y="658" font-family="Arial, sans-serif" font-size="12" font-weight="700" fill="#435B4A">BA Business Management</text>
  <text x="52" y="680" font-family="Arial, sans-serif" font-size="11" fill="#6D736F">Wardiere University</text>
  <text x="52" y="700" font-family="Arial, sans-serif" font-size="11" font-weight="600" fill="#73886E">2020 - 2023</text>
  <!-- Main -->
  <rect x="268" y="218" width="300" height="36" rx="18" fill="#CAD8C5"/>
  <circle cx="292" cy="236" r="12" fill="#A8BCA3"/>
  <text x="314" y="241" font-family="Arial, sans-serif" font-size="12" font-weight="700" fill="#435B4A" letter-spacing="2">WORK EXPERIENCE</text>
  <text x="276" y="286" font-family="Arial, sans-serif" font-size="14" font-weight="700" fill="#435B4A">Senior Administrative Manager</text>
  <text x="568" y="286" text-anchor="end" font-family="Arial, sans-serif" font-size="11" font-weight="600" fill="#BF8B52">2019 - 2022</text>
  <text x="276" y="308" font-family="Arial, sans-serif" font-size="12" fill="#6D736F">Wardiere Inc. / Full-Time</text>
  <circle cx="284" cy="336" r="3.5" fill="#73886E"/>
  <rect x="298" y="331" width="250" height="6" rx="2" fill="#C5CEC2"/>
  <circle cx="284" cy="360" r="3.5" fill="#73886E"/>
  <rect x="298" y="355" width="230" height="6" rx="2" fill="#C5CEC2"/>
  <text x="276" y="404" font-family="Arial, sans-serif" font-size="14" font-weight="700" fill="#435B4A">Administrative Assistant</text>
  <text x="568" y="404" text-anchor="end" font-family="Arial, sans-serif" font-size="11" font-weight="600" fill="#BF8B52">2015 - 2019</text>
  <text x="276" y="426" font-family="Arial, sans-serif" font-size="12" fill="#6D736F">Larrowe Group / Full-Time</text>
  <circle cx="284" cy="454" r="3.5" fill="#73886E"/>
  <rect x="298" y="449" width="240" height="6" rx="2" fill="#C5CEC2"/>
  <circle cx="284" cy="478" r="3.5" fill="#73886E"/>
  <rect x="298" y="473" width="220" height="6" rx="2" fill="#C5CEC2"/>
  <rect x="268" y="520" width="300" height="36" rx="18" fill="#CAD8C5"/>
  <circle cx="292" cy="538" r="12" fill="#A8BCA3"/>
  <text x="314" y="543" font-family="Arial, sans-serif" font-size="12" font-weight="700" fill="#435B4A" letter-spacing="2">SKILLS</text>
  <rect x="276" y="576" width="92" height="26" rx="13" fill="#DCE8D7" stroke="#CAD8C5"/>
  <text x="322" y="593" text-anchor="middle" font-family="Arial, sans-serif" font-size="11" font-weight="600" fill="#435B4A">Teamwork</text>
  <rect x="378" y="576" width="100" height="26" rx="13" fill="#DCE8D7" stroke="#CAD8C5"/>
  <text x="428" y="593" text-anchor="middle" font-family="Arial, sans-serif" font-size="11" font-weight="600" fill="#435B4A">Office Tools</text>
  <rect x="488" y="576" width="72" height="26" rx="13" fill="#DCE8D7" stroke="#CAD8C5"/>
  <text x="524" y="593" text-anchor="middle" font-family="Arial, sans-serif" font-size="11" font-weight="600" fill="#435B4A">Email</text>
  <rect x="276" y="612" width="110" height="26" rx="13" fill="#DCE8D7" stroke="#CAD8C5"/>
  <text x="331" y="629" text-anchor="middle" font-family="Arial, sans-serif" font-size="11" font-weight="600" fill="#435B4A">Data Analytics</text>
  <rect x="268" y="662" width="300" height="36" rx="18" fill="#CAD8C5"/>
  <circle cx="292" cy="680" r="12" fill="#A8BCA3"/>
  <text x="314" y="685" font-family="Arial, sans-serif" font-size="12" font-weight="700" fill="#435B4A" letter-spacing="2">PROJECTS</text>
  <rect x="276" y="714" width="284" height="48" rx="14" fill="#DCE8D7" stroke="#CAD8C5"/>
  <text x="292" y="742" font-family="Arial, sans-serif" font-size="12" font-weight="700" fill="#435B4A">Operations Playbook</text>
  <text x="300" y="780" text-anchor="middle" font-family="Georgia, serif" font-size="13" fill="#6D736F">Sage Capsule Executive</text>
</svg>
