<svg xmlns="http://www.w3.org/2000/svg" width="300" height="400" viewBox="0 0 300 400">
  <rect width="300" height="400" fill="#F7F8F3"/>
  <!-- Header band -->
  <rect x="70" y="18" width="210" height="78" rx="16" fill="#E8EFE4"/>
  <rect x="96" y="14" width="48" height="4" rx="2" fill="#435B4A"/>
  <!-- Photo -->
  <circle cx="52" cy="58" r="36" fill="#DCE8D7"/>
  <circle cx="52" cy="58" r="30" fill="#CAD8C5" stroke="#FFFFFF" stroke-width="3"/>
  <!-- Name + badge -->
  <text x="100" y="52" font-family="Georgia, serif" font-size="18" font-style="italic" fill="#435B4A">Olivia Wilson</text>
  <rect x="100" y="62" width="118" height="16" rx="8" fill="#BF8B52"/>
  <text x="159" y="73" text-anchor="middle" font-family="Arial, sans-serif" font-size="5.5" font-weight="700" fill="#FFFFFF" letter-spacing="1.2">ADMIN MANAGER</text>
  <!-- Sidebar -->
  <rect x="14" y="108" width="108" height="274" rx="14" fill="#E8EFE4"/>
  <!-- Capsules left -->
  <rect x="22" y="120" width="92" height="18" rx="9" fill="#CAD8C5"/>
  <circle cx="33" cy="129" r="6" fill="#A8BCA3"/>
  <text x="44" y="133" font-family="Arial, sans-serif" font-size="5.5" font-weight="700" fill="#435B4A" letter-spacing="0.8">ABOUT ME</text>
  <rect x="24" y="146" width="86" height="3" rx="1" fill="#B8C7B4"/>
  <rect x="24" y="154" width="78" height="3" rx="1" fill="#B8C7B4"/>
  <rect x="24" y="162" width="70" height="3" rx="1" fill="#B8C7B4"/>
  <rect x="22" y="180" width="92" height="18" rx="9" fill="#CAD8C5"/>
  <circle cx="33" cy="189" r="6" fill="#A8BCA3"/>
  <text x="44" y="193" font-family="Arial, sans-serif" font-size="5.5" font-weight="700" fill="#435B4A" letter-spacing="0.8">CONTACT</text>
  <circle cx="28" cy="214" r="2.5" fill="#73886E"/>
  <rect x="36" y="212" width="68" height="3" rx="1" fill="#6D736F"/>
  <circle cx="28" cy="226" r="2.5" fill="#73886E"/>
  <rect x="36" y="224" width="62" height="3" rx="1" fill="#6D736F"/>
  <circle cx="28" cy="238" r="2.5" fill="#73886E"/>
  <rect x="36" y="236" width="56" height="3" rx="1" fill="#6D736F"/>
  <rect x="22" y="258" width="92" height="18" rx="9" fill="#CAD8C5"/>
  <circle cx="33" cy="267" r="6" fill="#A8BCA3"/>
  <text x="44" y="271" font-family="Arial, sans-serif" font-size="5.5" font-weight="700" fill="#435B4A" letter-spacing="0.8">EDUCATION</text>
  <text x="26" y="290" font-family="Arial, sans-serif" font-size="5.5" font-weight="700" fill="#435B4A">BA Business</text>
  <text x="26" y="300" font-family="Arial, sans-serif" font-size="5" fill="#6D736F">Wardiere Univ.</text>
  <text x="26" y="310" font-family="Arial, sans-serif" font-size="5" font-weight="600" fill="#73886E">2011 - 2015</text>
  <!-- Main -->
  <rect x="136" y="112" width="150" height="20" rx="10" fill="#CAD8C5"/>
  <circle cx="148" cy="122" r="6.5" fill="#A8BCA3"/>
  <text x="160" y="126" font-family="Arial, sans-serif" font-size="6" font-weight="700" fill="#435B4A" letter-spacing="1">WORK EXPERIENCE</text>
  <text x="140" y="150" font-family="Arial, sans-serif" font-size="6.5" font-weight="700" fill="#435B4A">Senior Admin Manager</text>
  <text x="286" y="150" text-anchor="end" font-family="Arial, sans-serif" font-size="5" font-weight="600" fill="#BF8B52">2019-22</text>
  <text x="140" y="162" font-family="Arial, sans-serif" font-size="5.5" fill="#6D736F">Wardiere Inc.</text>
  <circle cx="144" cy="176" r="1.8" fill="#73886E"/>
  <rect x="152" y="174" width="120" height="3" rx="1" fill="#C5CEC2"/>
  <circle cx="144" cy="188" r="1.8" fill="#73886E"/>
  <rect x="152" y="186" width="110" height="3" rx="1" fill="#C5CEC2"/>
  <text x="140" y="212" font-family="Arial, sans-serif" font-size="6.5" font-weight="700" fill="#435B4A">Admin Assistant</text>
  <text x="286" y="212" text-anchor="end" font-family="Arial, sans-serif" font-size="5" font-weight="600" fill="#BF8B52">2015-19</text>
  <text x="140" y="224" font-family="Arial, sans-serif" font-size="5.5" fill="#6D736F">Larrowe Group</text>
  <circle cx="144" cy="238" r="1.8" fill="#73886E"/>
  <rect x="152" y="236" width="116" height="3" rx="1" fill="#C5CEC2"/>
  <rect x="136" y="260" width="150" height="20" rx="10" fill="#CAD8C5"/>
  <circle cx="148" cy="270" r="6.5" fill="#A8BCA3"/>
  <text x="160" y="274" font-family="Arial, sans-serif" font-size="6" font-weight="700" fill="#435B4A" letter-spacing="1">SKILLS</text>
  <rect x="140" y="292" width="52" height="14" rx="7" fill="#DCE8D7" stroke="#CAD8C5"/>
  <text x="166" y="302" text-anchor="middle" font-family="Arial, sans-serif" font-size="5" font-weight="600" fill="#435B4A">Teamwork</text>
  <rect x="198" y="292" width="48" height="14" rx="7" fill="#DCE8D7" stroke="#CAD8C5"/>
  <text x="222" y="302" text-anchor="middle" font-family="Arial, sans-serif" font-size="5" font-weight="600" fill="#435B4A">Office</text>
  <rect x="140" y="312" width="58" height="14" rx="7" fill="#DCE8D7" stroke="#CAD8C5"/>
  <text x="169" y="322" text-anchor="middle" font-family="Arial, sans-serif" font-size="5" font-weight="600" fill="#435B4A">Analytics</text>
  <rect x="204" y="312" width="46" height="14" rx="7" fill="#DCE8D7" stroke="#CAD8C5"/>
  <text x="227" y="322" text-anchor="middle" font-family="Arial, sans-serif" font-size="5" font-weight="600" fill="#435B4A">Email</text>
  <rect x="136" y="340" width="150" height="20" rx="10" fill="#CAD8C5"/>
  <circle cx="148" cy="350" r="6.5" fill="#A8BCA3"/>
  <text x="160" y="354" font-family="Arial, sans-serif" font-size="6" font-weight="700" fill="#435B4A" letter-spacing="1">PROJECTS</text>
  <rect x="140" y="368" width="142" height="22" rx="8" fill="#DCE8D7" stroke="#CAD8C5"/>
</svg>
