<svg width="800" height="1000" xmlns="http://www.w3.org/2000/svg">
  <defs>
    <linearGradient id="pageBg" x1="0%" y1="0%" x2="100%" y2="100%">
      <stop offset="0%" stop-color="#eef1f6"/>
      <stop offset="100%" stop-color="#d8e0ea"/>
    </linearGradient>
  </defs>
  <rect width="800" height="1000" fill="url(#pageBg)"/>
  <rect x="48" y="56" width="704" height="888" rx="8" fill="#fff" filter="drop-shadow(0 8px 24px rgba(26,39,68,0.1))"/>
  <rect x="48" y="56" width="704" height="200" fill="#1a2744"/>
  <rect x="88" y="96" width="120" height="148" rx="12" fill="#3d4f6b" stroke="#c9a227" stroke-width="4"/>
  <rect x="240" y="118" width="220" height="28" fill="#fff" opacity="0.95"/>
  <rect x="240" y="158" width="280" height="28" fill="#c9a227"/>
  <rect x="240" y="208" width="320" height="14" fill="#fff" opacity="0.45"/>
  <rect x="88" y="280" width="400" height="16" fill="#1a2744" opacity="0.9"/>
  <line x1="88" y1="304" x2="488" y2="304" stroke="#c9a227" stroke-width="3"/>
  <rect x="88" y="328" width="380" height="10" fill="#e2e8f0"/>
  <rect x="104" y="360" width="6" height="200" fill="#c9a227" opacity="0.5"/>
  <circle cx="107" cy="372" r="8" fill="#c9a227"/>
  <circle cx="107" cy="432" r="8" fill="#c9a227"/>
  <circle cx="107" cy="492" r="8" fill="#c9a227"/>
  <rect x="520" y="280" width="200" height="16" fill="#1a2744" opacity="0.9"/>
  <line x1="520" y1="304" x2="720" y2="304" stroke="#c9a227" stroke-width="3"/>
  <rect x="520" y="328" width="180" height="280" fill="#f4f6f9"/>
  <rect x="540" y="348" width="140" height="12" fill="#cbd5e1"/>
  <rect x="540" y="372" width="120" height="12" fill="#cbd5e1"/>
  <rect x="540" y="408" width="130" height="28" rx="6" fill="#fff" stroke="#dde3ec"/>
  <rect x="540" y="448" width="130" height="28" rx="6" fill="#fff" stroke="#dde3ec"/>
  <polygon points="680,780 720,720 760,780 740,840 700,840" fill="#c9a227" opacity="0.12"/>
  <text x="400" y="960" text-anchor="middle" font-family="Arial,sans-serif" font-size="22" font-weight="bold" fill="#1a2744">Luxury Corporate</text>
</svg>
