<svg width="800" height="600" viewBox="0 0 800 600" xmlns="http://www.w3.org/2000/svg">
  <!-- Background -->
  <rect width="800" height="600" fill="#f8fafc" />
  
  <!-- Title -->
  <text x="400" y="40" font-family="Arial, sans-serif" font-size="24" font-weight="bold" text-anchor="middle" fill="#1e293b">Resume Color Scheme Redesign</text>
  
  <!-- Before Section -->
  <g transform="translate(50, 80)">
    <!-- Section Title -->
    <text x="150" y="30" font-family="Arial, sans-serif" font-size="20" font-weight="bold" text-anchor="middle" fill="#713f12">Before (Yellow Theme)</text>
    
    <!-- File Info Card -->
    <rect x="0" y="50" width="300" height="80" rx="8" fill="#fde047" />
    <circle cx="30" cy="80" r="15" fill="#facc15" />
    <text x="30" y="85" font-family="Arial, sans-serif" font-size="14" text-anchor="middle" fill="#713f12">📄</text>
    <text x="60" y="75" font-family="Arial, sans-serif" font-size="14" font-weight="bold" fill="#713f12">Resume_Software_Engineer.pdf</text>
    <text x="60" y="95" font-family="Arial, sans-serif" font-size="12" fill="#854d0e">0.01 MB</text>
    <rect x="220" y="70" width="70" height="20" rx="10" fill="#facc15" />
    <text x="255" y="85" font-family="Arial, sans-serif" font-size="10" text-anchor="middle" fill="#713f12">Completed</text>
    
    <!-- ATS Score Card -->
    <rect x="0" y="150" width="300" height="100" rx="8" fill="#fef08a" />
    <text x="20" y="180" font-family="Arial, sans-serif" font-size="16" font-weight="bold" fill="#713f12">ATS Compatibility Score</text>
    <text x="20" y="200" font-family="Arial, sans-serif" font-size="12" fill="#854d0e">How well your resume passes through ATS</text>
    <text x="250" y="185" font-family="Arial, sans-serif" font-size="24" font-weight="bold" text-anchor="middle" fill="#a16207">85%</text>
    <text x="250" y="205" font-family="Arial, sans-serif" font-size="12" text-anchor="middle" fill="#854d0e">⭐ Excellent</text>
    
    <!-- Skills Section -->
    <rect x="0" y="270" width="300" height="150" rx="8" fill="#ffffff" stroke="#fef08a" stroke-width="2" />
    <rect x="20" y="290" width="30" height="30" rx="15" fill="#fef08a" />
    <text x="35" y="310" font-family="Arial, sans-serif" font-size="14" text-anchor="middle" fill="#713f12">🧠</text>
    <text x="60" y="305" font-family="Arial, sans-serif" font-size="16" font-weight="bold" fill="#713f12">Skills Extracted</text>
    
    <!-- Skill Tags -->
    <rect x="20" y="330" width="80" height="25" rx="12.5" fill="#fef9c3" />
    <text x="60" y="347" font-family="Arial, sans-serif" font-size="12" text-anchor="middle" fill="#854d0e">JavaScript</text>
    
    <rect x="110" y="330" width="60" height="25" rx="12.5" fill="#fef9c3" />
    <text x="140" y="347" font-family="Arial, sans-serif" font-size="12" text-anchor="middle" fill="#854d0e">React</text>
    
    <rect x="180" y="330" width="70" height="25" rx="12.5" fill="#fef9c3" />
    <text x="215" y="347" font-family="Arial, sans-serif" font-size="12" text-anchor="middle" fill="#854d0e">Node.js</text>
    
    <rect x="20" y="365" width="60" height="25" rx="12.5" fill="#fef9c3" />
    <text x="50" y="382" font-family="Arial, sans-serif" font-size="12" text-anchor="middle" fill="#854d0e">Python</text>
    
    <rect x="90" y="365" width="50" height="25" rx="12.5" fill="#fef9c3" />
    <text x="115" y="382" font-family="Arial, sans-serif" font-size="12" text-anchor="middle" fill="#854d0e">SQL</text>
    
    <rect x="150" y="365" width="50" height="25" rx="12.5" fill="#fef9c3" />
    <text x="175" y="382" font-family="Arial, sans-serif" font-size="12" text-anchor="middle" fill="#854d0e">AWS</text>
    
    <!-- Experience Section -->
    <rect x="0" y="440" width="300" height="120" rx="8" fill="#ffffff" stroke="#fef08a" stroke-width="2" />
    <rect x="20" y="460" width="30" height="30" rx="15" fill="#fef08a" />
    <text x="35" y="480" font-family="Arial, sans-serif" font-size="14" text-anchor="middle" fill="#713f12">💼</text>
    <text x="60" y="475" font-family="Arial, sans-serif" font-size="16" font-weight="bold" fill="#713f12">Work Experience</text>
    
    <!-- Experience Item -->
    <rect x="20" y="500" width="260" height="40" rx="5" fill="#fefce8" />
    <circle cx="30" cy="520" r="3" fill="#eab308" />
    <text x="40" y="515" font-family="Arial, sans-serif" font-size="11" fill="#713f12">Led a team of 5 developers to build</text>
    <text x="40" y="530" font-family="Arial, sans-serif" font-size="11" fill="#713f12">scalable web applications</text>
  </g>
  
  <!-- After Section -->
  <g transform="translate(450, 80)">
    <!-- Section Title -->
    <text x="150" y="30" font-family="Arial, sans-serif" font-size="20" font-weight="bold" text-anchor="middle" fill="#2c3e50">After (Professional Theme)</text>
    
    <!-- File Info Card -->
    <rect x="0" y="50" width="300" height="80" rx="8" fill="#ffffff" stroke="#e2e8f0" stroke-width="2" />
    <circle cx="30" cy="80" r="15" fill="#f0f4f8" />
    <text x="30" y="85" font-family="Arial, sans-serif" font-size="14" text-anchor="middle" fill="#2c3e50">📄</text>
    <text x="60" y="75" font-family="Arial, sans-serif" font-size="14" font-weight="bold" fill="#2c3e50">Resume_Software_Engineer.pdf</text>
    <text x="60" y="95" font-family="Arial, sans-serif" font-size="12" fill="#4a5568">0.01 MB</text>
    <rect x="220" y="70" width="70" height="20" rx="10" fill="#2c3e50" />
    <text x="255" y="85" font-family="Arial, sans-serif" font-size="10" text-anchor="middle" fill="#ffffff">Completed</text>
    
    <!-- ATS Score Card -->
    <rect x="0" y="150" width="300" height="100" rx="8" fill="#f0f4f8" stroke="#e2e8f0" stroke-width="2" />
    <text x="20" y="180" font-family="Arial, sans-serif" font-size="16" font-weight="bold" fill="#2c3e50">ATS Compatibility Score</text>
    <text x="20" y="200" font-family="Arial, sans-serif" font-size="12" fill="#4a5568">How well your resume passes through ATS</text>
    <text x="250" y="185" font-family="Arial, sans-serif" font-size="24" font-weight="bold" text-anchor="middle" fill="#2c3e50">85%</text>
    <text x="250" y="205" font-family="Arial, sans-serif" font-size="12" text-anchor="middle" fill="#4a5568">⭐ Excellent</text>
    
    <!-- Skills Section -->
    <rect x="0" y="270" width="300" height="150" rx="8" fill="#ffffff" stroke="#e2e8f0" stroke-width="2" />
    <text x="20" y="305" font-family="Arial, sans-serif" font-size="16" font-weight="bold" fill="#2c3e50">🧠 Skills Extracted</text>
    
    <!-- Skill Tags -->
    <rect x="20" y="330" width="80" height="25" rx="12.5" fill="#e2e8f0" />
    <text x="60" y="347" font-family="Arial, sans-serif" font-size="12" text-anchor="middle" fill="#2c3e50">JavaScript</text>
    
    <rect x="110" y="330" width="60" height="25" rx="12.5" fill="#e2e8f0" />
    <text x="140" y="347" font-family="Arial, sans-serif" font-size="12" text-anchor="middle" fill="#2c3e50">React</text>
    
    <rect x="180" y="330" width="70" height="25" rx="12.5" fill="#e2e8f0" />
    <text x="215" y="347" font-family="Arial, sans-serif" font-size="12" text-anchor="middle" fill="#2c3e50">Node.js</text>
    
    <rect x="20" y="365" width="60" height="25" rx="12.5" fill="#e2e8f0" />
    <text x="50" y="382" font-family="Arial, sans-serif" font-size="12" text-anchor="middle" fill="#2c3e50">Python</text>
    
    <rect x="90" y="365" width="50" height="25" rx="12.5" fill="#e2e8f0" />
    <text x="115" y="382" font-family="Arial, sans-serif" font-size="12" text-anchor="middle" fill="#2c3e50">SQL</text>
    
    <rect x="150" y="365" width="50" height="25" rx="12.5" fill="#e2e8f0" />
    <text x="175" y="382" font-family="Arial, sans-serif" font-size="12" text-anchor="middle" fill="#2c3e50">AWS</text>
    
    <!-- Experience Section -->
    <rect x="0" y="440" width="300" height="120" rx="8" fill="#ffffff" stroke="#e2e8f0" stroke-width="2" />
    <text x="20" y="475" font-family="Arial, sans-serif" font-size="16" font-weight="bold" fill="#2c3e50">💼 Work Experience</text>
    
    <!-- Experience Item -->
    <rect x="20" y="500" width="260" height="40" rx="5" fill="#ffffff" stroke="#f0f4f8" stroke-width="1" />
    <rect x="20" y="500" width="4" height="40" fill="#2c3e50" rx="2" />
    <text x="35" y="515" font-family="Arial, sans-serif" font-size="11" fill="#4a5568">Led a team of 5 developers to build</text>
    <text x="35" y="530" font-family="Arial, sans-serif" font-size="11" fill="#4a5568">scalable web applications</text>
  </g>
  
  <!-- Color Palette Comparison -->
  <g transform="translate(50, 580)">
    <text x="0" y="0" font-family="Arial, sans-serif" font-size="12" font-weight="bold" fill="#1e293b">Original Colors:</text>
    <rect x="100" y="-10" width="20" height="10" fill="#fde047" />
    <rect x="130" y="-10" width="20" height="10" fill="#fef08a" />
    <rect x="160" y="-10" width="20" height="10" fill="#fef9c3" />
    <rect x="190" y="-10" width="20" height="10" fill="#713f12" />
  </g>
  
  <g transform="translate(450, 580)">
    <text x="0" y="0" font-family="Arial, sans-serif" font-size="12" font-weight="bold" fill="#1e293b">New Colors:</text>
    <rect x="100" y="-10" width="20" height="10" fill="#2c3e50" />
    <rect x="130" y="-10" width="20" height="10" fill="#f0f4f8" />
    <rect x="160" y="-10" width="20" height="10" fill="#e2e8f0" />
    <rect x="190" y="-10" width="20" height="10" fill="#4a5568" />
  </g>
</svg>