<svg xmlns="http://www.w3.org/2000/svg" width="800" height="1000" viewBox="0 0 800 1000">
  <rect width="800" height="1000" fill="#FFFFFF"/>
  <circle cx="-40" cy="60" r="160" fill="#F3B7A7" opacity="0.1"/>
  <path d="M0,100 Q200,20 360,80" fill="none" stroke="#F3B7A7" stroke-width="10" opacity="0.22"/>
  <path d="M720,0 A160,160 0 0 1 800,160 L800,0 Z" fill="#F5EEE8" opacity="0.12"/>
  <path d="M0,900 Q240,780 480,860" fill="none" stroke="#F6D7CC" stroke-width="12" opacity="0.28"/>
  <path d="M0,940 Q200,860 400,920" fill="none" stroke="#F3B7A7" stroke-width="6" opacity="0.18"/>
  <path d="M620,920 Q720,820 800,900" fill="none" stroke="#F6D7CC" stroke-width="14" opacity="0.25"/>
  <rect x="48" y="56" width="704" height="220" rx="28" fill="#FFFFFF" filter="url(#cfShadow)"/>
  <defs>
    <filter id="cfShadow" x="-4%" y="-4%" width="108%" height="112%">
      <feDropShadow dx="0" dy="6" stdDeviation="14" flood-color="#1E1E1E" flood-opacity="0.07"/>
    </filter>
  </defs>
  <rect x="80" y="88" width="148" height="148" rx="18" fill="#E8E8E8"/>
  <text x="260" y="130" font-family="Arial,sans-serif" font-size="42" font-weight="800" fill="#111111" letter-spacing="3">ELIZA CHEN</text>
  <text x="260" y="172" font-family="Arial,sans-serif" font-size="13" font-weight="500" fill="#333333" letter-spacing="2">SENIOR PRODUCT DESIGNER | AI INNOVATION</text>
  <rect x="120" y="210" width="560" height="44" rx="22" fill="#F8F5F1" stroke="#E9E9E9"/>
  <text x="150" y="238" font-family="Arial,sans-serif" font-size="11" fill="#555555">eliza.chen@email.com</text>
  <text x="340" y="238" font-family="Arial,sans-serif" font-size="11" fill="#555555">+1 (415) 555-0198</text>
  <text x="500" y="238" font-family="Arial,sans-serif" font-size="11" fill="#555555">linkedin.com/in/elizachen</text>
  <text x="640" y="238" font-family="Arial,sans-serif" font-size="11" fill="#555555">elizachen.com</text>
  <text x="56" y="330" font-family="Arial,sans-serif" font-size="18" font-weight="700" fill="#111111">Summary</text>
  <rect x="56" y="346" width="460" height="72" rx="16" fill="#FFFFFF" stroke="#E9E9E9"/>
  <rect x="72" y="364" width="420" height="8" rx="2" fill="#E9E9E9" opacity="0.5"/>
  <rect x="72" y="380" width="400" height="8" rx="2" fill="#E9E9E9" opacity="0.4"/>
  <rect x="72" y="396" width="380" height="8" rx="2" fill="#E9E9E9" opacity="0.35"/>
  <text x="56" y="460" font-family="Arial,sans-serif" font-size="18" font-weight="700" fill="#111111">Experience</text>
  <text x="56" y="492" font-family="Arial,sans-serif" font-size="13" font-weight="700" fill="#1E1E1E">Senior Product Designer</text>
  <text x="480" y="492" font-family="Arial,sans-serif" font-size="11" fill="#555555">2021 - Present | San Francisco</text>
  <text x="56" y="512" font-family="Arial,sans-serif" font-size="11" fill="#555555">Innovate Labs</text>
  <circle cx="64" cy="532" r="3" fill="#F3B7A7"/>
  <rect x="76" y="528" width="380" height="6" rx="2" fill="#E9E9E9" opacity="0.45"/>
  <circle cx="64" cy="548" r="3" fill="#F3B7A7"/>
  <rect x="76" y="544" width="360" height="6" rx="2" fill="#E9E9E9" opacity="0.4"/>
  <text x="56" y="590" font-family="Arial,sans-serif" font-size="18" font-weight="700" fill="#111111">Projects</text>
  <text x="56" y="620" font-family="Arial,sans-serif" font-size="12" font-weight="700" fill="#1E1E1E">AI Design System</text>
  <rect x="56" y="632" width="400" height="6" rx="2" fill="#E9E9E9" opacity="0.35"/>
  <rect x="540" y="300" width="224" height="620" rx="28" fill="#F5EEE8"/>
  <text x="568" y="336" font-family="Arial,sans-serif" font-size="15" font-weight="700" fill="#111111">Skills</text>
  <text x="568" y="362" font-family="Arial,sans-serif" font-size="11" fill="#1E1E1E">Design Systems</text>
  <text x="568" y="380" font-family="Arial,sans-serif" font-size="11" fill="#1E1E1E">Data Analysis</text>
  <text x="568" y="398" font-family="Arial,sans-serif" font-size="11" fill="#1E1E1E">Leadership</text>
  <text x="568" y="416" font-family="Arial,sans-serif" font-size="11" fill="#1E1E1E">User Research</text>
  <text x="568" y="434" font-family="Arial,sans-serif" font-size="11" fill="#1E1E1E">Product Strategy</text>
  <text x="568" y="452" font-family="Arial,sans-serif" font-size="11" fill="#1E1E1E">AI Design</text>
  <line x1="568" y1="472" x2="740" y2="472" stroke="#DCDCDC"/>
  <text x="568" y="498" font-family="Arial,sans-serif" font-size="15" font-weight="700" fill="#111111">Education</text>
  <text x="568" y="524" font-family="Arial,sans-serif" font-size="11" font-weight="700" fill="#1E1E1E">B.Des, Interaction Design</text>
  <text x="568" y="542" font-family="Arial,sans-serif" font-size="10" fill="#555555">RISD</text>
  <text x="568" y="558" font-family="Arial,sans-serif" font-size="10" fill="#555555">2012 - 2016</text>
  <line x1="568" y1="578" x2="740" y2="578" stroke="#DCDCDC"/>
  <text x="568" y="604" font-family="Arial,sans-serif" font-size="15" font-weight="700" fill="#111111">Certifications</text>
  <text x="568" y="630" font-family="Arial,sans-serif" font-size="11" fill="#1E1E1E">Google UX Design</text>
  <line x1="568" y1="650" x2="740" y2="650" stroke="#DCDCDC"/>
  <text x="568" y="676" font-family="Arial,sans-serif" font-size="15" font-weight="700" fill="#111111">Achievements</text>
  <text x="568" y="702" font-family="Arial,sans-serif" font-size="11" fill="#1E1E1E">Design Leader Award 2023</text>
  <line x1="568" y1="722" x2="740" y2="722" stroke="#DCDCDC"/>
  <text x="568" y="748" font-family="Arial,sans-serif" font-size="15" font-weight="700" fill="#111111">Languages</text>
  <text x="568" y="774" font-family="Arial,sans-serif" font-size="11" fill="#1E1E1E">English</text>
  <text x="700" y="774" font-family="Arial,sans-serif" font-size="11" fill="#555555">- Fluent</text>
  <text x="568" y="792" font-family="Arial,sans-serif" font-size="11" fill="#1E1E1E">Hindi</text>
  <text x="700" y="792" font-family="Arial,sans-serif" font-size="11" fill="#555555">- Native</text>
  <text x="400" y="968" text-anchor="middle" font-family="Arial,sans-serif" font-size="20" font-weight="700" fill="#F3B7A7">Cascade Flow</text>
</svg>
