<svg xmlns="http://www.w3.org/2000/svg" width="300" height="400" viewBox="0 0 300 400">
  <rect width="300" height="400" fill="#FFFFFF"/>
  <circle cx="-10" cy="20" r="60" fill="#F3B7A7" opacity="0.12"/>
  <path d="M0,50 Q80,10 140,40" fill="none" stroke="#F3B7A7" stroke-width="4" opacity="0.2"/>
  <path d="M260,0 A80,80 0 0 1 300,80 L300,0 Z" fill="#F5EEE8" opacity="0.14"/>
  <path d="M0,360 Q90,300 180,340" fill="none" stroke="#F6D7CC" stroke-width="5" opacity="0.25"/>
  <path d="M250,380 Q280,320 300,360" fill="none" stroke="#F3B7A7" stroke-width="3" opacity="0.18"/>
  <rect x="18" y="28" width="264" height="88" rx="14" fill="#FFFFFF" stroke="#E9E9E9" stroke-width="0.5"/>
  <rect x="28" y="40" width="44" height="44" rx="8" fill="#E8E8E8"/>
  <text x="82" y="50" font-family="Arial,sans-serif" font-size="10" font-weight="800" fill="#111111" letter-spacing="0.6">ELIZA CHEN</text>
  <text x="82" y="62" font-family="Arial,sans-serif" font-size="3.5" fill="#333333" letter-spacing="0.2">SENIOR PRODUCT DESIGNER</text>
  <rect x="28" y="72" width="244" height="16" rx="8" fill="#F8F5F1" stroke="#E9E9E9"/>
  <text x="40" y="82" font-family="Arial,sans-serif" font-size="2.5" fill="#555555">email | phone | linkedin</text>
  <text x="20" y="138" font-family="Arial,sans-serif" font-size="5" font-weight="700" fill="#111111">Summary</text>
  <rect x="20" y="144" width="168" height="28" rx="6" fill="#FFFFFF" stroke="#E9E9E9"/>
  <text x="20" y="188" font-family="Arial,sans-serif" font-size="5" font-weight="700" fill="#111111">Experience</text>
  <text x="20" y="200" font-family="Arial,sans-serif" font-size="3.8" font-weight="700" fill="#1E1E1E">Product Designer</text>
  <text x="140" y="200" font-family="Arial,sans-serif" font-size="3" fill="#555555">2020-24</text>
  <text x="20" y="208" font-family="Arial,sans-serif" font-size="3" fill="#555555">Tech Corp</text>
  <rect x="198" y="124" width="82" height="220" rx="14" fill="#F5EEE8"/>
  <text x="206" y="142" font-family="Arial,sans-serif" font-size="4.5" font-weight="700" fill="#111111">Skills</text>
  <text x="206" y="154" font-family="Arial,sans-serif" font-size="3" fill="#1E1E1E">Design Systems</text>
  <text x="206" y="164" font-family="Arial,sans-serif" font-size="3" fill="#1E1E1E">User Research</text>
  <text x="206" y="182" font-family="Arial,sans-serif" font-size="4.5" font-weight="700" fill="#111111">Education</text>
  <text x="206" y="194" font-family="Arial,sans-serif" font-size="3" font-weight="700" fill="#1E1E1E">B.Des</text>
  <text x="150" y="388" text-anchor="middle" font-family="Arial,sans-serif" font-size="8" font-weight="700" fill="#F3B7A7">Cascade Flow</text>
</svg>
