<svg xmlns="http://www.w3.org/2000/svg" width="400" height="520" viewBox="0 0 400 520">
  <rect width="400" height="520" fill="#f4f3ef"/>
  <rect x="0" y="0" width="400" height="36" fill="#fafaf8" stroke="#b8a574" stroke-width="0.8"/>
  <circle cx="80" cy="18" r="3" fill="#526580" opacity="0.4"/>
  <circle cx="160" cy="18" r="3" fill="#526580" opacity="0.4"/>
  <circle cx="240" cy="18" r="3" fill="#526580" opacity="0.4"/>
  <circle cx="320" cy="18" r="3" fill="#526580" opacity="0.4"/>
  <rect x="32" y="52" width="72" height="88" fill="#3d4654" stroke="#b8a574" stroke-width="2"/>
  <rect x="20" y="44" width="48" height="56" fill="#526580" opacity="0.35"/>
  <rect x="120" y="48" width="248" height="96" rx="3" fill="#526580"/>
  <text x="140" y="88" font-family="Georgia,serif" font-size="20" font-weight="700" fill="#fff" letter-spacing="1.5">ALEXANDER CHEN</text>
  <text x="140" y="112" font-family="Arial,sans-serif" font-size="8" fill="rgba(255,255,255,0.9)" letter-spacing="2">SENIOR OPERATIONS EXECUTIVE</text>
  <rect x="32" y="168" width="220" height="120" rx="0 10 0 10" fill="#fafaf8" stroke="rgba(82,101,128,0.12)"/>
  <text x="48" y="192" font-family="Georgia,serif" font-size="10" fill="#526580" font-weight="700">PROFESSIONAL SUMMARY</text>
  <text x="48" y="228" font-family="Georgia,serif" font-size="10" fill="#526580" font-weight="700">WORK EXPERIENCE</text>
  <line x1="56" y1="248" x2="56" y2="320" stroke="#b8a574"/>
  <circle cx="56" cy="256" r="4" fill="#b8a574"/>
  <line x1="268" y1="168" x2="268" y2="480" stroke="#b8a574" stroke-width="1"/>
  <text x="284" y="192" font-family="Georgia,serif" font-size="9" fill="#526580" font-weight="700">SKILLS</text>
  <rect x="284" y="202" width="88" height="6" rx="3" fill="rgba(82,101,128,0.15)"/>
  <rect x="284" y="202" width="72" height="6" rx="3" fill="#526580"/>
  <text x="200" y="508" text-anchor="middle" font-family="Georgia,serif" font-size="11" fill="#526580">Executive Slate Luxe</text>
</svg>
