<svg width="200" height="260" viewBox="0 0 200 260" fill="none" xmlns="http://www.w3.org/2000/svg">
  <rect width="200" height="260" fill="white"/>
  <rect x="10" y="10" width="180" height="240" fill="#F9FAFB" stroke="#E5E7EB" stroke-width="1"/>
  
  <!-- Header -->
  <rect x="20" y="20" width="100" height="8" rx="2" fill="#1F2937"/>
  <rect x="20" y="32" width="80" height="4" rx="2" fill="#9CA3AF"/>
  <circle cx="170" cy="28" r="14" fill="#E5E7EB"/>
  
  <!-- Divider -->
  <line x1="20" y1="50" x2="180" y2="50" stroke="#E5E7EB" stroke-width="1"/>
  
  <!-- Two columns -->
  <!-- Left column -->
  <rect x="20" y="60" width="40" height="4" rx="2" fill="#1F2937"/>
  <rect x="20" y="68" width="50" height="2" rx="1" fill="#D1D5DB"/>
  <rect x="20" y="72" width="50" height="2" rx="1" fill="#D1D5DB"/>
  <rect x="20" y="76" width="50" height="2" rx="1" fill="#D1D5DB"/>
  
  <rect x="20" y="88" width="40" height="4" rx="2" fill="#1F2937"/>
  <rect x="20" y="96" width="50" height="2" rx="1" fill="#D1D5DB"/>
  <rect x="20" y="100" width="50" height="2" rx="1" fill="#D1D5DB"/>
  
  <rect x="20" y="112" width="30" height="4" rx="2" fill="#1F2937"/>
  <rect x="20" y="120" width="45" height="2" rx="1" fill="#D1D5DB"/>
  <rect x="20" y="124" width="45" height="2" rx="1" fill="#D1D5DB"/>
  
  <!-- Right column -->
  <rect x="85" y="60" width="60" height="5" rx="2" fill="#1F2937"/>
  <rect x="85" y="69" width="90" height="2" rx="1" fill="#D1D5DB"/>
  <rect x="85" y="73" width="90" height="2" rx="1" fill="#D1D5DB"/>
  <rect x="85" y="77" width="70" height="2" rx="1" fill="#D1D5DB"/>
  
  <rect x="85" y="88" width="50" height="4" rx="2" fill="#1F2937"/>
  <rect x="85" y="96" width="90" height="2" rx="1" fill="#D1D5DB"/>
  <rect x="85" y="100" width="90" height="2" rx="1" fill="#D1D5DB"/>
  <rect x="85" y="104" width="80" height="2" rx="1" fill="#D1D5DB"/>
  
  <rect x="85" y="116" width="90" height="2" rx="1" fill="#D1D5DB"/>
  <rect x="85" y="120" width="90" height="2" rx="1" fill="#D1D5DB"/>
  <rect x="85" y="124" width="75" height="2" rx="1" fill="#D1D5DB"/>
</svg>

