<svg xmlns="http://www.w3.org/2000/svg" width="300" height="400" viewBox="0 0 300 400">
  <rect width="300" height="400" fill="#FCFAF7"/>
  <!-- Header band -->
  <path d="M0,0 H300 V78 Q300,96 282,96 H18 Q0,96 0,78 Z" fill="#F5F2EC"/>
  <line x1="14" y1="90" x2="286" y2="90" stroke="#B57A54" stroke-width="1.5" opacity="0.55"/>
  <!-- Photo -->
  <circle cx="44" cy="46" r="27" fill="#364250" stroke="#FFFFFF" stroke-width="3.5"/>
  <circle cx="44" cy="46" r="30" fill="none" stroke="#ECE8E1" stroke-width="1"/>
  <!-- Name -->
  <text x="84" y="38" font-family="Georgia, serif" font-size="15" font-weight="700" fill="#364250" letter-spacing="1">HELENA MARSH</text>
  <text x="84" y="54" font-family="Arial, sans-serif" font-size="6" font-weight="600" fill="#B57A54" letter-spacing="2">EXECUTIVE OPERATIONS DIRECTOR</text>
  <!-- Contact row -->
  <circle cx="88" cy="68" r="4" fill="#B57A54"/>
  <rect x="96" y="66" width="34" height="3" rx="1" fill="#6E7681"/>
  <circle cx="142" cy="68" r="4" fill="#B57A54"/>
  <rect x="150" y="66" width="38" height="3" rx="1" fill="#6E7681"/>
  <circle cx="200" cy="68" r="4" fill="#B57A54"/>
  <rect x="208" y="66" width="32" height="3" rx="1" fill="#6E7681"/>
  <!-- Sidebar panel -->
  <path d="M14,108 Q14,104 18,104 H78 Q100,104 100,126 V370 Q100,390 80,390 H30 Q14,390 14,374 Z" fill="#364250"/>
  <!-- Summary -->
  <text x="26" y="126" font-family="Georgia, serif" font-size="7.5" fill="#FFFFFF">Summary</text>
  <rect x="26" y="130" width="16" height="1.5" fill="#CE9A76"/>
  <rect x="26" y="138" width="60" height="2.5" rx="1" fill="#8A93A0"/>
  <rect x="26" y="145" width="56" height="2.5" rx="1" fill="#8A93A0"/>
  <rect x="26" y="152" width="58" height="2.5" rx="1" fill="#8A93A0"/>
  <!-- Skills chips -->
  <text x="26" y="176" font-family="Georgia, serif" font-size="7.5" fill="#FFFFFF">Skills</text>
  <rect x="26" y="180" width="16" height="1.5" fill="#CE9A76"/>
  <rect x="26" y="188" width="34" height="10" rx="5" fill="none" stroke="#CE9A76" stroke-width="0.8"/>
  <text x="43" y="195" text-anchor="middle" font-family="Arial, sans-serif" font-size="4.5" fill="#F4F2EE">Strategy</text>
  <rect x="64" y="188" width="28" height="10" rx="5" fill="none" stroke="#CE9A76" stroke-width="0.8"/>
  <text x="78" y="195" text-anchor="middle" font-family="Arial, sans-serif" font-size="4.5" fill="#F4F2EE">Teams</text>
  <rect x="26" y="202" width="30" height="10" rx="5" fill="none" stroke="#CE9A76" stroke-width="0.8"/>
  <text x="41" y="209" text-anchor="middle" font-family="Arial, sans-serif" font-size="4.5" fill="#F4F2EE">Budget</text>
  <rect x="60" y="202" width="26" height="10" rx="5" fill="none" stroke="#CE9A76" stroke-width="0.8"/>
  <text x="73" y="209" text-anchor="middle" font-family="Arial, sans-serif" font-size="4.5" fill="#F4F2EE">Risk</text>
  <!-- Languages -->
  <text x="26" y="234" font-family="Georgia, serif" font-size="7.5" fill="#FFFFFF">Languages</text>
  <rect x="26" y="238" width="16" height="1.5" fill="#CE9A76"/>
  <circle cx="29" cy="248" r="2" fill="#CE9A76"/>
  <text x="36" y="251" font-family="Arial, sans-serif" font-size="5" fill="#F4F2EE">English</text>
  <circle cx="29" cy="260" r="2" fill="#CE9A76"/>
  <text x="36" y="263" font-family="Arial, sans-serif" font-size="5" fill="#F4F2EE">German</text>
  <!-- Certificates -->
  <text x="26" y="286" font-family="Georgia, serif" font-size="7.5" fill="#FFFFFF">Certificates</text>
  <rect x="26" y="290" width="16" height="1.5" fill="#CE9A76"/>
  <circle cx="29" cy="300" r="2" fill="#CE9A76"/>
  <text x="36" y="303" font-family="Arial, sans-serif" font-size="5" fill="#F4F2EE">PMP</text>
  <circle cx="29" cy="312" r="2" fill="#CE9A76"/>
  <text x="36" y="315" font-family="Arial, sans-serif" font-size="5" fill="#F4F2EE">Lean Six Sigma</text>
  <!-- Achievements -->
  <text x="26" y="340" font-family="Georgia, serif" font-size="7.5" fill="#FFFFFF">Achievements</text>
  <rect x="26" y="344" width="16" height="1.5" fill="#CE9A76"/>
  <circle cx="29" cy="354" r="2" fill="#CE9A76"/>
  <rect x="36" y="352" width="48" height="2.5" rx="1" fill="#8A93A0"/>
  <circle cx="29" cy="364" r="2" fill="#CE9A76"/>
  <rect x="36" y="362" width="44" height="2.5" rx="1" fill="#8A93A0"/>
  <!-- Main: Experience -->
  <text x="112" y="122" font-family="Georgia, serif" font-size="9" fill="#B57A54">Experience</text>
  <line x1="166" y1="119" x2="286" y2="119" stroke="#ECE8E1" stroke-width="1"/>
  <rect x="112" y="130" width="174" height="52" rx="7" fill="#F5F2EC" stroke="#ECE8E1" stroke-width="1"/>
  <text x="120" y="144" font-family="Arial, sans-serif" font-size="6" font-weight="700" fill="#364250">Operations Director</text>
  <text x="278" y="144" text-anchor="end" font-family="Arial, sans-serif" font-size="5" font-weight="600" fill="#B57A54">2020 - 2025</text>
  <text x="120" y="153" font-family="Arial, sans-serif" font-size="5" fill="#6E7681">Lightstone Companies</text>
  <circle cx="123" cy="162" r="1.5" fill="#B57A54"/>
  <rect x="129" y="160" width="140" height="2.5" rx="1" fill="#DBD6CC"/>
  <circle cx="123" cy="172" r="1.5" fill="#B57A54"/>
  <rect x="129" y="170" width="128" height="2.5" rx="1" fill="#DBD6CC"/>
  <rect x="112" y="188" width="174" height="44" rx="7" fill="#F5F2EC" stroke="#ECE8E1" stroke-width="1"/>
  <text x="120" y="202" font-family="Arial, sans-serif" font-size="6" font-weight="700" fill="#364250">Senior Program Manager</text>
  <text x="278" y="202" text-anchor="end" font-family="Arial, sans-serif" font-size="5" font-weight="600" fill="#B57A54">2016 - 2020</text>
  <text x="120" y="211" font-family="Arial, sans-serif" font-size="5" fill="#6E7681">Meridian Group</text>
  <circle cx="123" cy="220" r="1.5" fill="#B57A54"/>
  <rect x="129" y="218" width="132" height="2.5" rx="1" fill="#DBD6CC"/>
  <!-- Main: Projects -->
  <text x="112" y="254" font-family="Georgia, serif" font-size="9" fill="#B57A54">Projects</text>
  <line x1="156" y1="251" x2="286" y2="251" stroke="#ECE8E1" stroke-width="1"/>
  <rect x="112" y="262" width="84" height="38" rx="7" fill="#FFFFFF" stroke="#ECE8E1" stroke-width="1"/>
  <text x="119" y="276" font-family="Arial, sans-serif" font-size="5.5" font-weight="700" fill="#364250">Digital Transformation</text>
  <text x="119" y="285" font-family="Arial, sans-serif" font-size="4.5" fill="#B57A54">Lead / Enterprise</text>
  <rect x="119" y="290" width="66" height="2" rx="1" fill="#ECE8E1"/>
  <rect x="202" y="262" width="84" height="38" rx="7" fill="#FFFFFF" stroke="#ECE8E1" stroke-width="1"/>
  <text x="209" y="276" font-family="Arial, sans-serif" font-size="5.5" font-weight="700" fill="#364250">Process Optimization</text>
  <text x="209" y="285" font-family="Arial, sans-serif" font-size="4.5" fill="#B57A54">Owner / Global</text>
  <rect x="209" y="290" width="62" height="2" rx="1" fill="#ECE8E1"/>
  <!-- Main: Education -->
  <text x="112" y="322" font-family="Georgia, serif" font-size="9" fill="#B57A54">Education</text>
  <line x1="162" y1="319" x2="286" y2="319" stroke="#ECE8E1" stroke-width="1"/>
  <rect x="112" y="330" width="84" height="40" rx="7" fill="#F5F2EC" stroke="#ECE8E1" stroke-width="1"/>
  <text x="119" y="344" font-family="Arial, sans-serif" font-size="5.5" font-weight="700" fill="#364250">MBA, Operations</text>
  <text x="119" y="353" font-family="Arial, sans-serif" font-size="4.5" fill="#6E7681">Kellton University</text>
  <text x="119" y="363" font-family="Arial, sans-serif" font-size="4.5" font-weight="600" fill="#B57A54">2014</text>
  <rect x="202" y="330" width="84" height="40" rx="7" fill="#F5F2EC" stroke="#ECE8E1" stroke-width="1"/>
  <text x="209" y="344" font-family="Arial, sans-serif" font-size="5.5" font-weight="700" fill="#364250">BSc, Management</text>
  <text x="209" y="353" font-family="Arial, sans-serif" font-size="4.5" fill="#6E7681">Harlow College</text>
  <text x="209" y="363" font-family="Arial, sans-serif" font-size="4.5" font-weight="600" fill="#B57A54">2011</text>
</svg>
