<svg xmlns="http://www.w3.org/2000/svg" width="300" height="400" viewBox="0 0 300 400">
  <rect width="300" height="400" fill="#FFFFFF"/>
  <rect x="0" y="0" width="92" height="400" fill="#1F232B"/>
  <polygon points="0,0 58,0 0,42" fill="#F59E0B"/>
  <rect x="0" y="380" width="28" height="8" fill="#F59E0B"/>
  <rect x="0" y="372" width="8" height="28" fill="#F59E0B"/>
  <rect x="272" y="380" width="28" height="8" fill="#F59E0B"/>
  <rect x="292" y="372" width="8" height="28" fill="#F59E0B"/>
  <circle cx="46" cy="48" r="26" fill="#2A3039" stroke="#F59E0B" stroke-width="2.5"/>
  <circle cx="46" cy="48" r="22" fill="#4B5563"/>
  <circle cx="18" cy="92" r="4" fill="#F59E0B"/>
  <text x="26" y="95" font-family="Arial,sans-serif" font-size="4" font-weight="700" fill="#FFFFFF" letter-spacing="0.4">CONTACT</text>
  <line x1="18" y1="100" x2="80" y2="100" stroke="#3A414D"/>
  <circle cx="18" cy="110" r="2" fill="#F59E0B"/>
  <text x="24" y="112" font-family="Arial,sans-serif" font-size="3" fill="#E5E7EB">+1 555 0142</text>
  <circle cx="18" cy="122" r="2" fill="#F59E0B"/>
  <text x="24" y="124" font-family="Arial,sans-serif" font-size="3" fill="#E5E7EB">clara@design.io</text>
  <circle cx="18" cy="148" r="4" fill="#F59E0B"/>
  <text x="26" y="151" font-family="Arial,sans-serif" font-size="4" font-weight="700" fill="#FFFFFF" letter-spacing="0.4">SKILLS</text>
  <rect x="16" y="160" width="64" height="9" rx="4.5" fill="#3A414D"/>
  <rect x="16" y="160" width="54" height="9" rx="4.5" fill="#F59E0B"/>
  <text x="22" y="167" font-family="Arial,sans-serif" font-size="3" font-weight="700" fill="#FFFFFF">UX/UI Design</text>
  <rect x="16" y="174" width="64" height="9" rx="4.5" fill="#3A414D"/>
  <rect x="16" y="174" width="46" height="9" rx="4.5" fill="#F59E0B"/>
  <text x="22" y="181" font-family="Arial,sans-serif" font-size="3" font-weight="700" fill="#FFFFFF">Figma</text>
  <circle cx="18" cy="206" r="4" fill="#F59E0B"/>
  <text x="26" y="209" font-family="Arial,sans-serif" font-size="4" font-weight="700" fill="#FFFFFF" letter-spacing="0.4">LANGUAGES</text>
  <text x="16" y="222" font-family="Arial,sans-serif" font-size="3.5" fill="#FFFFFF">English</text>
  <text x="66" y="222" font-family="Arial,sans-serif" font-size="3" fill="#B8BFC9" text-anchor="end">Native</text>
  <text x="16" y="234" font-family="Arial,sans-serif" font-size="3.5" fill="#FFFFFF">Spanish</text>
  <text x="66" y="234" font-family="Arial,sans-serif" font-size="3" fill="#B8BFC9" text-anchor="end">Fluent</text>
  <text x="108" y="42" font-family="Arial,sans-serif" font-size="12" font-weight="800" fill="#1F232B" letter-spacing="1">CLARA</text>
  <text x="108" y="56" font-family="Arial,sans-serif" font-size="12" font-weight="800" fill="#1F232B" letter-spacing="1">SMITH</text>
  <text x="108" y="70" font-family="Arial,sans-serif" font-size="4" fill="#6B7280" letter-spacing="0.8">SENIOR PRODUCT DESIGNER</text>
  <line x1="108" y1="78" x2="284" y2="78" stroke="#F59E0B" stroke-width="2"/>
  <circle cx="112" cy="100" r="4" fill="#F59E0B"/>
  <text x="120" y="103" font-family="Arial,sans-serif" font-size="5" font-weight="700" fill="#1F232B" letter-spacing="0.6">SUMMARY</text>
  <line x1="120" y1="108" x2="284" y2="108" stroke="#E5E7EB"/>
  <rect x="120" y="116" width="160" height="3" rx="1" fill="#E5E7EB"/>
  <rect x="120" y="124" width="148" height="3" rx="1" fill="#E5E7EB"/>
  <rect x="120" y="132" width="130" height="3" rx="1" fill="#E5E7EB"/>
  <circle cx="112" cy="156" r="4" fill="#F59E0B"/>
  <text x="120" y="159" font-family="Arial,sans-serif" font-size="5" font-weight="700" fill="#1F232B" letter-spacing="0.6">EXPERIENCE</text>
  <line x1="120" y1="164" x2="284" y2="164" stroke="#E5E7EB"/>
  <text x="120" y="178" font-family="Arial,sans-serif" font-size="4.5" font-weight="700" fill="#1F232B">Graphite Labs</text>
  <text x="120" y="188" font-family="Arial,sans-serif" font-size="3.5" fill="#6B7280">2021  Present</text>
  <text x="120" y="198" font-family="Arial,sans-serif" font-size="3.5" fill="#6B7280">Senior Product Designer</text>
  <circle cx="112" cy="224" r="4" fill="#F59E0B"/>
  <text x="120" y="227" font-family="Arial,sans-serif" font-size="5" font-weight="700" fill="#1F232B" letter-spacing="0.6">PROJECTS</text>
  <rect x="120" y="236" width="78" height="48" rx="6" fill="#F5F5F5" stroke="#F59E0B"/>
  <rect x="206" y="236" width="78" height="48" rx="6" fill="#F5F5F5" stroke="#F59E0B"/>
  <text x="128" y="252" font-family="Arial,sans-serif" font-size="4" font-weight="700" fill="#F59E0B">Design System</text>
  <text x="214" y="252" font-family="Arial,sans-serif" font-size="4" font-weight="700" fill="#F59E0B">Mobile App</text>
  <circle cx="112" cy="308" r="4" fill="#F59E0B"/>
  <text x="120" y="311" font-family="Arial,sans-serif" font-size="5" font-weight="700" fill="#1F232B" letter-spacing="0.6">EDUCATION</text>
  <line x1="124" y1="322" x2="124" y2="360" stroke="#E5E7EB"/>
  <circle cx="124" cy="326" r="3" fill="#FFFFFF" stroke="#F59E0B"/>
  <text x="134" y="328" font-family="Arial,sans-serif" font-size="3.5" fill="#6B7280">2015  2019</text>
  <text x="134" y="340" font-family="Arial,sans-serif" font-size="4" font-weight="700" fill="#1F232B">BFA Interaction Design</text>
  <text x="150" y="388" text-anchor="middle" font-family="Arial,sans-serif" font-size="7.5" font-weight="700" fill="#1F232B">Charcoal Orange Executive</text>
</svg>
