<svg xmlns="http://www.w3.org/2000/svg" width="600" height="800" viewBox="0 0 600 800">
  <rect width="600" height="800" fill="#FAF8F4"/>
  <path d="M36 140 A90 90 0 0 1 216 140 L216 760 H36 Z" fill="#E7E4DD"/>
  <circle cx="126" cy="140" r="90" fill="#E7E4DD"/>
  <circle cx="126" cy="140" r="68" fill="#D0CDC5"/>
  <circle cx="70" cy="260" r="4" fill="#1E1E1E"/>
  <text x="86" y="264" font-family="Arial, sans-serif" font-size="11" fill="#1E1E1E">+1 (415) 555-0142</text>
  <circle cx="70" cy="290" r="4" fill="#1E1E1E"/>
  <text x="86" y="294" font-family="Arial, sans-serif" font-size="11" fill="#1E1E1E">elena.brooks@email.com</text>
  <circle cx="70" cy="320" r="4" fill="#1E1E1E"/>
  <text x="86" y="324" font-family="Arial, sans-serif" font-size="11" fill="#1E1E1E">San Francisco, CA</text>
  <circle cx="70" cy="350" r="4" fill="#1E1E1E"/>
  <text x="86" y="354" font-family="Arial, sans-serif" font-size="11" fill="#1E1E1E">www.executiveportfolio.com</text>
  <text x="56" y="410" font-family="Arial, sans-serif" font-size="13" font-weight="700" fill="#111111" letter-spacing="3">SKILLS</text>
  <circle cx="66" cy="436" r="2.5" fill="#1E1E1E"/>
  <text x="80" y="440" font-family="Arial, sans-serif" font-size="12" fill="#1E1E1E">Leadership</text>
  <circle cx="66" cy="462" r="2.5" fill="#1E1E1E"/>
  <text x="80" y="466" font-family="Arial, sans-serif" font-size="12" fill="#1E1E1E">Strategy</text>
  <circle cx="66" cy="488" r="2.5" fill="#1E1E1E"/>
  <text x="80" y="492" font-family="Arial, sans-serif" font-size="12" fill="#1E1E1E">Communication</text>
  <circle cx="66" cy="514" r="2.5" fill="#1E1E1E"/>
  <text x="80" y="518" font-family="Arial, sans-serif" font-size="12" fill="#1E1E1E">Brand Marketing</text>
  <text x="56" y="570" font-family="Arial, sans-serif" font-size="13" font-weight="700" fill="#111111" letter-spacing="3">EDUCATION</text>
  <text x="56" y="600" font-family="Arial, sans-serif" font-size="11" font-weight="700" fill="#111111" letter-spacing="1">MASTER OF BUSINESS</text>
  <text x="56" y="620" font-family="Arial, sans-serif" font-size="11" fill="#1E1E1E">Stanford Graduate School</text>
  <text x="56" y="640" font-family="Arial, sans-serif" font-size="11" fill="#5F5F5F">2010</text>
  <text x="56" y="690" font-family="Arial, sans-serif" font-size="13" font-weight="700" fill="#111111" letter-spacing="3">LANGUAGE</text>
  <text x="56" y="718" font-family="Arial, sans-serif" font-size="12" fill="#1E1E1E">English</text>
  <text x="56" y="740" font-family="Arial, sans-serif" font-size="12" fill="#1E1E1E">Spanish</text>
  <text x="250" y="100" font-family="Georgia, serif" font-size="48" font-style="italic" fill="#111111">Elena</text>
  <text x="250" y="156" font-family="Georgia, serif" font-size="48" font-style="italic" fill="#111111">Brooks</text>
  <text x="250" y="190" font-family="Arial, sans-serif" font-size="12" font-weight="500" fill="#111111" letter-spacing="4">MARKETING MANAGER</text>
  <rect x="250" y="214" width="290" height="6" rx="2" fill="#D8D6CF"/>
  <rect x="250" y="230" width="270" height="6" rx="2" fill="#D8D6CF"/>
  <rect x="250" y="246" width="250" height="6" rx="2" fill="#D8D6CF"/>
  <text x="250" y="300" font-family="Arial, sans-serif" font-size="14" font-weight="700" fill="#111111" letter-spacing="3">EXPERIENCE</text>
  <line x1="250" y1="312" x2="560" y2="312" stroke="#D8D6CF" stroke-width="1"/>
  <text x="250" y="348" font-family="Arial, sans-serif" font-size="13" font-weight="700" fill="#111111" letter-spacing="1.5">CHIEF MARKETING OFFICER</text>
  <text x="250" y="372" font-family="Arial, sans-serif" font-size="12" fill="#1E1E1E">Global Innovations Tech</text>
  <text x="250" y="394" font-family="Arial, sans-serif" font-size="11" fill="#5F5F5F">2018 - Present</text>
  <circle cx="260" cy="424" r="2.5" fill="#1E1E1E"/>
  <rect x="274" y="420" width="260" height="5" rx="2" fill="#D8D6CF"/>
  <circle cx="260" cy="448" r="2.5" fill="#1E1E1E"/>
  <rect x="274" y="444" width="240" height="5" rx="2" fill="#D8D6CF"/>
  <text x="250" y="500" font-family="Arial, sans-serif" font-size="13" font-weight="700" fill="#111111" letter-spacing="1.5">VP OF PRODUCT MARKETING</text>
  <text x="250" y="524" font-family="Arial, sans-serif" font-size="12" fill="#1E1E1E">Meridian Digital Solutions</text>
  <text x="250" y="546" font-family="Arial, sans-serif" font-size="11" fill="#5F5F5F">2014 - 2017</text>
  <circle cx="260" cy="576" r="2.5" fill="#1E1E1E"/>
  <rect x="274" y="572" width="250" height="5" rx="2" fill="#D8D6CF"/>
  <text x="250" y="630" font-family="Arial, sans-serif" font-size="14" font-weight="700" fill="#111111" letter-spacing="3">PROJECTS</text>
  <line x1="250" y1="642" x2="560" y2="642" stroke="#D8D6CF" stroke-width="1"/>
  <text x="250" y="672" font-family="Arial, sans-serif" font-size="12" font-weight="700" fill="#111111" letter-spacing="1">ENTERPRISE AI PLATFORM</text>
  <rect x="250" y="686" width="280" height="5" rx="2" fill="#D8D6CF"/>
  <text x="300" y="760" text-anchor="middle" font-family="Georgia, serif" font-size="14" font-style="italic" fill="#5F5F5F">Elegant Minimal Script Executive</text>
</svg>
