<svg xmlns="http://www.w3.org/2000/svg" width="300" height="400" viewBox="0 0 300 400">
  <rect width="300" height="400" fill="#FAF8F4"/>
  <!-- Sidebar arch -->
  <path d="M18 70 A48 48 0 0 1 114 70 L114 380 H18 Z" fill="#E7E4DD"/>
  <circle cx="66" cy="70" r="48" fill="#E7E4DD"/>
  <circle cx="66" cy="70" r="36" fill="#D8D6CF"/>
  <!-- Contact icons -->
  <circle cx="36" cy="130" r="2" fill="#1E1E1E"/>
  <rect x="44" y="128" width="52" height="3" rx="1" fill="#C8C6BF"/>
  <circle cx="36" cy="144" r="2" fill="#1E1E1E"/>
  <rect x="44" y="142" width="48" height="3" rx="1" fill="#C8C6BF"/>
  <circle cx="36" cy="158" r="2" fill="#1E1E1E"/>
  <rect x="44" y="156" width="50" height="3" rx="1" fill="#C8C6BF"/>
  <!-- Skills -->
  <text x="30" y="188" font-family="Arial, sans-serif" font-size="6" font-weight="700" fill="#111111" letter-spacing="1.5">SKILLS</text>
  <circle cx="34" cy="202" r="1.5" fill="#1E1E1E"/>
  <text x="42" y="204" font-family="Arial, sans-serif" font-size="5" fill="#1E1E1E">Leadership</text>
  <circle cx="34" cy="216" r="1.5" fill="#1E1E1E"/>
  <text x="42" y="218" font-family="Arial, sans-serif" font-size="5" fill="#1E1E1E">Strategy</text>
  <circle cx="34" cy="230" r="1.5" fill="#1E1E1E"/>
  <text x="42" y="232" font-family="Arial, sans-serif" font-size="5" fill="#1E1E1E">Communication</text>
  <!-- Education -->
  <text x="30" y="260" font-family="Arial, sans-serif" font-size="6" font-weight="700" fill="#111111" letter-spacing="1.5">EDUCATION</text>
  <text x="30" y="276" font-family="Arial, sans-serif" font-size="5" font-weight="700" fill="#111111">MBA</text>
  <text x="30" y="288" font-family="Arial, sans-serif" font-size="4.5" fill="#5F5F5F">Stanford GSB</text>
  <text x="30" y="300" font-family="Arial, sans-serif" font-size="4.5" fill="#5F5F5F">2010</text>
  <!-- Name -->
  <text x="140" y="58" font-family="Georgia, serif" font-size="22" font-style="italic" fill="#111111">Elena</text>
  <text x="140" y="86" font-family="Georgia, serif" font-size="22" font-style="italic" fill="#111111">Brooks</text>
  <text x="140" y="108" font-family="Arial, sans-serif" font-size="5.5" font-weight="500" fill="#111111" letter-spacing="2">MARKETING MANAGER</text>
  <rect x="140" y="122" width="130" height="3" rx="1" fill="#D8D6CF"/>
  <rect x="140" y="130" width="120" height="3" rx="1" fill="#D8D6CF"/>
  <rect x="140" y="138" width="110" height="3" rx="1" fill="#D8D6CF"/>
  <!-- Experience -->
  <text x="140" y="170" font-family="Arial, sans-serif" font-size="6.5" font-weight="700" fill="#111111" letter-spacing="1.5">EXPERIENCE</text>
  <line x1="140" y1="176" x2="280" y2="176" stroke="#D8D6CF" stroke-width="0.7"/>
  <text x="140" y="194" font-family="Arial, sans-serif" font-size="5.5" font-weight="700" fill="#111111" letter-spacing="0.5">CHIEF MARKETING OFFICER</text>
  <text x="140" y="206" font-family="Arial, sans-serif" font-size="5" fill="#1E1E1E">Global Innovations Tech</text>
  <text x="140" y="218" font-family="Arial, sans-serif" font-size="4.5" fill="#5F5F5F">2018 - Present</text>
  <circle cx="146" cy="234" r="1.2" fill="#1E1E1E"/>
  <rect x="154" y="232" width="110" height="2.5" rx="1" fill="#D8D6CF"/>
  <circle cx="146" cy="246" r="1.2" fill="#1E1E1E"/>
  <rect x="154" y="244" width="100" height="2.5" rx="1" fill="#D8D6CF"/>
  <text x="140" y="272" font-family="Arial, sans-serif" font-size="5.5" font-weight="700" fill="#111111" letter-spacing="0.5">VP OF MARKETING</text>
  <text x="140" y="284" font-family="Arial, sans-serif" font-size="5" fill="#1E1E1E">Meridian Digital</text>
  <text x="140" y="296" font-family="Arial, sans-serif" font-size="4.5" fill="#5F5F5F">2014 - 2017</text>
  <text x="150" y="382" text-anchor="middle" font-family="Georgia, serif" font-size="6.5" font-style="italic" fill="#5F5F5F">Elegant Minimal Script</text>
</svg>
