<svg xmlns="http://www.w3.org/2000/svg" width="600" height="800" viewBox="0 0 600 800">
  <rect width="600" height="800" fill="#FFFFFF"/>
  <rect width="190" height="800" fill="#18263D"/>
  <circle cx="95" cy="96" r="58" fill="none" stroke="#E8A6B6" stroke-width="5"/>
  <circle cx="95" cy="96" r="48" fill="#3A4A62"/>
  <circle cx="52" cy="200" r="9" fill="#E8A6B6"/>
  <text x="70" y="205" font-family="Arial, sans-serif" font-size="12" font-weight="700" fill="#FFFFFF" letter-spacing="2">CONTACT</text>
  <line x1="40" y1="214" x2="170" y2="214" stroke="#E8A6B6" stroke-width="1.2"/>
  <circle cx="50" cy="240" r="6" fill="#E8A6B6"/>
  <text x="66" y="244" font-family="Arial, sans-serif" font-size="10" fill="#FFFFFF">+92 300 1234567</text>
  <circle cx="50" cy="268" r="6" fill="#E8A6B6"/>
  <text x="66" y="272" font-family="Arial, sans-serif" font-size="10" fill="#FFFFFF">sarah@email.com</text>
  <circle cx="52" cy="320" r="9" fill="#E8A6B6"/>
  <text x="70" y="325" font-family="Arial, sans-serif" font-size="12" font-weight="700" fill="#FFFFFF" letter-spacing="2">SKILLS</text>
  <line x1="40" y1="334" x2="170" y2="334" stroke="#E8A6B6" stroke-width="1.2"/>
  <text x="40" y="360" font-family="Arial, sans-serif" font-size="10" fill="#FFFFFF">Graphic Design</text>
  <rect x="40" y="368" width="130" height="6" rx="3" fill="#3A4A62"/>
  <rect x="40" y="368" width="115" height="6" rx="3" fill="#E8A6B6"/>
  <text x="40" y="398" font-family="Arial, sans-serif" font-size="10" fill="#FFFFFF">Adobe Photoshop</text>
  <rect x="40" y="406" width="130" height="6" rx="3" fill="#3A4A62"/>
  <rect x="40" y="406" width="100" height="6" rx="3" fill="#E8A6B6"/>
  <circle cx="52" cy="460" r="9" fill="#E8A6B6"/>
  <text x="70" y="465" font-family="Arial, sans-serif" font-size="12" font-weight="700" fill="#FFFFFF" letter-spacing="2">EDUCATION</text>
  <line x1="40" y1="474" x2="170" y2="474" stroke="#E8A6B6" stroke-width="1.2"/>
  <line x1="52" y1="494" x2="52" y2="560" stroke="#E8A6B6" stroke-width="1.5"/>
  <circle cx="52" cy="504" r="4" fill="#E8A6B6"/>
  <text x="66" y="508" font-family="Arial, sans-serif" font-size="10" font-weight="700" fill="#FFFFFF">Bachelor of Arts</text>
  <text x="66" y="524" font-family="Arial, sans-serif" font-size="9" fill="#E8A6B6">Design University</text>
  <circle cx="52" cy="600" r="9" fill="#E8A6B6"/>
  <text x="70" y="605" font-family="Arial, sans-serif" font-size="12" font-weight="700" fill="#FFFFFF" letter-spacing="2">LANGUAGES</text>
  <line x1="40" y1="614" x2="170" y2="614" stroke="#E8A6B6" stroke-width="1.2"/>
  <text x="40" y="640" font-family="Arial, sans-serif" font-size="10" fill="#FFFFFF">English</text>
  <circle cx="110" cy="636" r="3.5" fill="#E8A6B6"/>
  <circle cx="122" cy="636" r="3.5" fill="#E8A6B6"/>
  <circle cx="134" cy="636" r="3.5" fill="#E8A6B6"/>
  <circle cx="146" cy="636" r="3.5" fill="#E8A6B6"/>
  <circle cx="158" cy="636" r="3.5" fill="#5A6A80"/>
  <text x="220" y="78" font-family="Georgia, serif" font-size="42" font-style="italic" fill="#E8A6B6">Sarah</text>
  <text x="220" y="118" font-family="Georgia, serif" font-size="32" font-weight="700" fill="#18263D" letter-spacing="2">AHMED</text>
  <line x1="220" y1="140" x2="280" y2="140" stroke="#E8A6B6" stroke-width="1.5"/>
  <text x="290" y="145" font-family="Arial, sans-serif" font-size="11" font-weight="600" fill="#18263D" letter-spacing="2.5">GRAPHIC DESIGNER &amp; CV DESIGNER</text>
  <line x1="520" y1="140" x2="560" y2="140" stroke="#E8A6B6" stroke-width="1.5"/>
  <ellipse cx="540" cy="48" rx="12" ry="20" fill="#E8A6B6" opacity="0.75"/>
  <ellipse cx="556" cy="62" rx="10" ry="16" fill="#D98FA2" opacity="0.7"/>
  <circle cx="232" cy="190" r="10" fill="#E8A6B6"/>
  <text x="252" y="195" font-family="Arial, sans-serif" font-size="12" font-weight="700" fill="#18263D" letter-spacing="2">PROFESSIONAL SUMMARY</text>
  <line x1="252" y1="206" x2="560" y2="206" stroke="#EFD7DF" stroke-width="1"/>
  <rect x="220" y="222" width="330" height="6" rx="2" fill="#E8E0E4"/>
  <rect x="220" y="238" width="310" height="6" rx="2" fill="#E8E0E4"/>
  <circle cx="232" cy="290" r="10" fill="#E8A6B6"/>
  <text x="252" y="295" font-family="Arial, sans-serif" font-size="12" font-weight="700" fill="#18263D" letter-spacing="2">EXPERIENCE</text>
  <line x1="252" y1="306" x2="560" y2="306" stroke="#EFD7DF" stroke-width="1"/>
  <line x1="234" y1="328" x2="234" y2="460" stroke="#E8A6B6" stroke-width="2"/>
  <circle cx="234" cy="340" r="5" fill="#E8A6B6"/>
  <text x="252" y="344" font-family="Arial, sans-serif" font-size="12" font-weight="700" fill="#1B2430">Senior Graphic Designer</text>
  <text x="560" y="344" text-anchor="end" font-family="Arial, sans-serif" font-size="10" fill="#6C6C6C">2023 - Present</text>
  <text x="252" y="364" font-family="Arial, sans-serif" font-size="11" font-style="italic" fill="#D98FA2">Creative Studio</text>
  <circle cx="260" cy="388" r="2.5" fill="#E8A6B6"/>
  <rect x="270" y="384" width="240" height="5" rx="2" fill="#E8E0E4"/>
  <circle cx="232" cy="500" r="10" fill="#E8A6B6"/>
  <text x="252" y="505" font-family="Arial, sans-serif" font-size="12" font-weight="700" fill="#18263D" letter-spacing="2">SERVICES</text>
  <line x1="252" y1="516" x2="560" y2="516" stroke="#EFD7DF" stroke-width="1"/>
  <rect x="220" y="532" width="100" height="90" rx="12" fill="#FFF8FA" stroke="#EFD7DF"/>
  <rect x="332" y="532" width="100" height="90" rx="12" fill="#FFF8FA" stroke="#EFD7DF"/>
  <rect x="444" y="532" width="100" height="90" rx="12" fill="#FFF8FA" stroke="#EFD7DF"/>
  <circle cx="270" cy="560" r="14" fill="#E8A6B6"/>
  <circle cx="382" cy="560" r="14" fill="#E8A6B6"/>
  <circle cx="494" cy="560" r="14" fill="#E8A6B6"/>
  <text x="270" y="592" text-anchor="middle" font-family="Arial, sans-serif" font-size="8" font-weight="700" fill="#18263D">GRAPHIC</text>
  <text x="382" y="592" text-anchor="middle" font-family="Arial, sans-serif" font-size="8" font-weight="700" fill="#18263D">BRANDING</text>
  <text x="494" y="592" text-anchor="middle" font-family="Arial, sans-serif" font-size="8" font-weight="700" fill="#18263D">UI DESIGN</text>
  <circle cx="232" cy="660" r="10" fill="#E8A6B6"/>
  <text x="252" y="665" font-family="Arial, sans-serif" font-size="12" font-weight="700" fill="#18263D" letter-spacing="2">ACHIEVEMENTS</text>
  <circle cx="240" cy="696" r="8" fill="#E8A6B6"/>
  <rect x="258" y="692" width="120" height="5" rx="2" fill="#E8E0E4"/>
  <circle cx="400" cy="696" r="8" fill="#E8A6B6"/>
  <rect x="418" y="692" width="120" height="5" rx="2" fill="#E8E0E4"/>
  <text x="300" y="760" text-anchor="middle" font-family="Georgia, serif" font-size="14" fill="#E8A6B6">Blush Navy Creative Executive</text>
</svg>
