<svg xmlns="http://www.w3.org/2000/svg" width="300" height="400" viewBox="0 0 300 400">
  <rect width="300" height="400" fill="#FFFFFF"/>
  <rect width="98" height="400" fill="#18263D"/>
  <!-- Photo -->
  <circle cx="49" cy="48" r="30" fill="none" stroke="#E8A6B6" stroke-width="3"/>
  <circle cx="49" cy="48" r="25" fill="#3A4A62"/>
  <!-- Contact -->
  <circle cx="22" cy="100" r="5" fill="#E8A6B6"/>
  <text x="32" y="103" font-family="Arial, sans-serif" font-size="5.5" font-weight="700" fill="#FFFFFF" letter-spacing="0.8">CONTACT</text>
  <line x1="18" y1="108" x2="88" y2="108" stroke="#E8A6B6" stroke-width="0.7"/>
  <circle cx="22" cy="120" r="3" fill="#E8A6B6"/>
  <rect x="30" y="118" width="50" height="2.5" rx="1" fill="#8A95A8"/>
  <circle cx="22" cy="132" r="3" fill="#E8A6B6"/>
  <rect x="30" y="130" width="48" height="2.5" rx="1" fill="#8A95A8"/>
  <!-- Skills -->
  <circle cx="22" cy="156" r="5" fill="#E8A6B6"/>
  <text x="32" y="159" font-family="Arial, sans-serif" font-size="5.5" font-weight="700" fill="#FFFFFF" letter-spacing="0.8">SKILLS</text>
  <line x1="18" y1="164" x2="88" y2="164" stroke="#E8A6B6" stroke-width="0.7"/>
  <text x="18" y="178" font-family="Arial, sans-serif" font-size="4.5" fill="#FFFFFF">Graphic Design</text>
  <rect x="18" y="182" width="70" height="3.5" rx="2" fill="#3A4A62"/>
  <rect x="18" y="182" width="60" height="3.5" rx="2" fill="#E8A6B6"/>
  <text x="18" y="198" font-family="Arial, sans-serif" font-size="4.5" fill="#FFFFFF">Photoshop</text>
  <rect x="18" y="202" width="70" height="3.5" rx="2" fill="#3A4A62"/>
  <rect x="18" y="202" width="52" height="3.5" rx="2" fill="#E8A6B6"/>
  <!-- Languages -->
  <circle cx="22" cy="230" r="5" fill="#E8A6B6"/>
  <text x="32" y="233" font-family="Arial, sans-serif" font-size="5.5" font-weight="700" fill="#FFFFFF" letter-spacing="0.8">LANGUAGES</text>
  <line x1="18" y1="238" x2="88" y2="238" stroke="#E8A6B6" stroke-width="0.7"/>
  <text x="18" y="252" font-family="Arial, sans-serif" font-size="4.5" fill="#FFFFFF">English</text>
  <circle cx="58" cy="250" r="2" fill="#E8A6B6"/>
  <circle cx="66" cy="250" r="2" fill="#E8A6B6"/>
  <circle cx="74" cy="250" r="2" fill="#E8A6B6"/>
  <circle cx="82" cy="250" r="2" fill="#E8A6B6"/>
  <circle cx="90" cy="250" r="2" fill="#5A6A80"/>
  <!-- Name -->
  <text x="118" y="42" font-family="Georgia, serif" font-size="18" font-style="italic" fill="#E8A6B6">Sarah</text>
  <text x="118" y="62" font-family="Georgia, serif" font-size="14" font-weight="700" fill="#18263D" letter-spacing="1">AHMED</text>
  <line x1="118" y1="72" x2="150" y2="72" stroke="#E8A6B6" stroke-width="1"/>
  <text x="156" y="75" font-family="Arial, sans-serif" font-size="4.5" font-weight="600" fill="#18263D" letter-spacing="1">GRAPHIC DESIGNER</text>
  <line x1="230" y1="72" x2="280" y2="72" stroke="#E8A6B6" stroke-width="1"/>
  <!-- Floral -->
  <ellipse cx="268" cy="28" rx="6" ry="10" fill="#E8A6B6" opacity="0.7"/>
  <ellipse cx="278" cy="36" rx="5" ry="9" fill="#D98FA2" opacity="0.65"/>
  <!-- Summary -->
  <circle cx="124" cy="100" r="5" fill="#E8A6B6"/>
  <text x="134" y="103" font-family="Arial, sans-serif" font-size="5.5" font-weight="700" fill="#18263D" letter-spacing="0.6">PROFESSIONAL SUMMARY</text>
  <line x1="134" y1="108" x2="280" y2="108" stroke="#EFD7DF" stroke-width="0.7"/>
  <rect x="118" y="116" width="150" height="3" rx="1" fill="#E8E0E4"/>
  <rect x="118" y="124" width="140" height="3" rx="1" fill="#E8E0E4"/>
  <!-- Experience -->
  <circle cx="124" cy="150" r="5" fill="#E8A6B6"/>
  <text x="134" y="153" font-family="Arial, sans-serif" font-size="5.5" font-weight="700" fill="#18263D" letter-spacing="0.6">EXPERIENCE</text>
  <line x1="134" y1="158" x2="280" y2="158" stroke="#EFD7DF" stroke-width="0.7"/>
  <line x1="122" y1="168" x2="122" y2="240" stroke="#E8A6B6" stroke-width="1.2"/>
  <circle cx="122" cy="176" r="3" fill="#E8A6B6"/>
  <text x="132" y="176" font-family="Arial, sans-serif" font-size="5" font-weight="700" fill="#1B2430">Senior Designer</text>
  <text x="250" y="176" font-family="Arial, sans-serif" font-size="4" fill="#6C6C6C" text-anchor="end">2023-Now</text>
  <text x="132" y="186" font-family="Arial, sans-serif" font-size="4" font-style="italic" fill="#D98FA2">Design Studio</text>
  <!-- Services cards -->
  <circle cx="124" cy="260" r="5" fill="#E8A6B6"/>
  <text x="134" y="263" font-family="Arial, sans-serif" font-size="5.5" font-weight="700" fill="#18263D" letter-spacing="0.6">SERVICES</text>
  <rect x="118" y="272" width="50" height="48" rx="6" fill="#FFF8FA" stroke="#EFD7DF"/>
  <rect x="174" y="272" width="50" height="48" rx="6" fill="#FFF8FA" stroke="#EFD7DF"/>
  <rect x="230" y="272" width="50" height="48" rx="6" fill="#FFF8FA" stroke="#EFD7DF"/>
  <circle cx="143" cy="286" r="6" fill="#E8A6B6"/>
  <circle cx="199" cy="286" r="6" fill="#E8A6B6"/>
  <circle cx="255" cy="286" r="6" fill="#E8A6B6"/>
  <text x="150" y="382" text-anchor="middle" font-family="Georgia, serif" font-size="6.5" fill="#E8A6B6">Blush Navy Creative</text>
</svg>
