<svg width="800" height="1000" xmlns="http://www.w3.org/2000/svg">
  <defs>
    <linearGradient id="hdr" x1="0%" y1="0%" x2="100%" y2="0%">
      <stop offset="0%" stop-color="#2a2e32"/>
      <stop offset="100%" stop-color="#1e2124"/>
    </linearGradient>
  </defs>
  <rect width="800" height="1000" fill="#faf7f2"/>
  <rect x="48" y="40" width="704" height="140" fill="url(#hdr)"/>
  <path d="M48,180 Q200,120 400,160 T752,130" fill="none" stroke="#c87840" stroke-width="2" opacity="0.35"/>
  <path d="M48,170 Q300,100 550,150 T752,140" fill="none" stroke="#e8a060" stroke-width="1" opacity="0.25"/>
  <circle cx="120" cy="108" r="52" fill="none" stroke="#e8a060" stroke-width="2" opacity="0.4"/>
  <circle cx="120" cy="108" r="42" fill="#4a5055" stroke="#c87840" stroke-width="3"/>
  <text x="200" y="100" font-family="Georgia,serif" font-size="32" font-weight="600" fill="#f8f4ee">ISABELLA C. CHEN</text>
  <text x="200" y="132" font-family="Arial,sans-serif" font-size="11" fill="#e8a060" letter-spacing="3">CHIEF OPERATING OFFICER</text>
  <rect x="48" y="184" width="704" height="32" fill="#1e2124"/>
  <circle cx="200" cy="200" r="6" fill="none" stroke="#e8a060"/>
  <circle cx="400" cy="200" r="6" fill="none" stroke="#e8a060"/>
  <circle cx="600" cy="200" r="6" fill="none" stroke="#e8a060"/>
  <line x1="48" y1="220" x2="752" y2="220" stroke="#ddd5c8"/>
  <rect x="48" y="224" width="248" height="720" fill="#faf7f2"/>
  <rect x="296" y="224" width="456" height="720" fill="#faf7f2"/>
  <line x1="296" y1="224" x2="296" y2="944" stroke="#ddd5c8"/>
  <path d="M72,260 Q140,250 208,260" fill="none" stroke="#c87840" stroke-width="2"/>
  <text x="72" y="256" font-family="Georgia,serif" font-size="13" fill="#2a2e32">SKILLS</text>
  <rect x="72" y="280" width="180" height="10" rx="3" fill="#e8e2d8"/>
  <rect x="72" y="280" width="160" height="10" rx="3" fill="url(#hdr)"/>
  <rect x="72" y="300" width="180" height="10" rx="3" fill="#e8e2d8"/>
  <rect x="72" y="300" width="140" height="10" rx="3" fill="#c87840"/>
  <path d="M320,260 Q440,250 560,260" fill="none" stroke="#c87840" stroke-width="2"/>
  <text x="320" y="256" font-family="Georgia,serif" font-size="13" fill="#2a2e32">WORK EXPERIENCE</text>
  <text x="320" y="300" font-family="Arial,sans-serif" font-size="10" fill="#c87840">2024</text>
  <path d="M380,290 Q388,350 380,410 T380,470" fill="none" stroke="#c87840" stroke-width="1" opacity="0.35"/>
  <path d="M600,700 Q700,650 752,750 L752,944 L520,944 Z" fill="#c87840" opacity="0.1"/>
  <text x="400" y="960" text-anchor="middle" font-family="Georgia,serif" font-size="22" font-weight="600" fill="#2a2e32">Royal Copper Executive</text>
</svg>
