<svg width="300" height="400" xmlns="http://www.w3.org/2000/svg">
  <defs>
    <linearGradient id="hdr" x1="0%" y1="0%" x2="100%" y2="100%">
      <stop offset="0%" stop-color="#2a2e32"/>
      <stop offset="100%" stop-color="#1e2124"/>
    </linearGradient>
  </defs>
  <rect width="300" height="400" fill="#faf7f2"/>
  <rect x="24" y="16" width="252" height="72" fill="url(#hdr)"/>
  <path d="M24,88 Q80,60 140,75 T276,65" fill="none" stroke="#c87840" stroke-width="1" opacity="0.4"/>
  <circle cx="56" cy="52" r="28" fill="none" stroke="#e8a060" stroke-width="2" opacity="0.5"/>
  <circle cx="56" cy="52" r="22" fill="#4a5055" stroke="#c87840" stroke-width="2"/>
  <text x="96" y="48" font-family="Georgia,serif" font-size="12" font-weight="600" fill="#f8f4ee">ISABELLA C.</text>
  <text x="96" y="62" font-family="Arial,sans-serif" font-size="5" fill="#e8a060" letter-spacing="1">CHIEF OPERATING</text>
  <rect x="24" y="88" width="252" height="20" fill="#1e2124"/>
  <circle cx="80" cy="98" r="3" fill="none" stroke="#e8a060"/>
  <circle cx="140" cy="98" r="3" fill="none" stroke="#e8a060"/>
  <rect x="24" y="112" width="88" height="272" fill="#faf7f2" stroke="#ddd5c8"/>
  <rect x="116" y="112" width="160" height="272" fill="#faf7f2"/>
  <path d="M32,128 Q60,122 88,128" fill="none" stroke="#c87840" stroke-width="1"/>
  <text x="32" y="126" font-family="Georgia,serif" font-size="5" fill="#2a2e32">SKILLS</text>
  <rect x="32" y="136" width="72" height="3" rx="1" fill="#c87840"/>
  <rect x="32" y="144" width="60" height="3" rx="1" fill="#e8a060" opacity="0.7"/>
  <path d="M124,128 Q160,122 196,128" fill="none" stroke="#c87840" stroke-width="1"/>
  <text x="124" y="126" font-family="Georgia,serif" font-size="5" fill="#2a2e32">EXPERIENCE</text>
  <text x="124" y="148" font-family="Arial,sans-serif" font-size="4" fill="#c87840">2024</text>
  <path d="M148,140 L148,200" stroke="#c87840" stroke-width="0.8" opacity="0.4"/>
  <circle cx="200" cy="340" r="40" fill="#c87840" opacity="0.08"/>
  <text x="150" y="388" text-anchor="middle" font-family="Georgia,serif" font-size="9" font-weight="600" fill="#2a2e32">Royal Copper Executive</text>
</svg>
