<svg xmlns="http://www.w3.org/2000/svg" width="794" height="1123" viewBox="0 0 794 1123">
  <defs>
    <linearGradient id="pv-bg" x1="0" y1="0" x2="0.3" y2="1">
      <stop offset="0%" stop-color="#FFFFFF"/>
      <stop offset="100%" stop-color="#F7FAFC"/>
    </linearGradient>
    <linearGradient id="pv-card" x1="0" y1="0" x2="0" y2="1">
      <stop offset="0%" stop-color="#FFFFFF"/>
      <stop offset="100%" stop-color="#FAFCFE"/>
    </linearGradient>
    <linearGradient id="pv-ring" x1="0" y1="0" x2="1" y2="1">
      <stop offset="0%" stop-color="#34D6C3"/>
      <stop offset="100%" stop-color="#7EF0E1"/>
    </linearGradient>
    <radialGradient id="pv-glow-tl" cx="50%" cy="50%" r="50%">
      <stop offset="0%" stop-color="#34D6C3" stop-opacity="0.14"/>
      <stop offset="100%" stop-color="#34D6C3" stop-opacity="0"/>
    </radialGradient>
    <radialGradient id="pv-glow-br" cx="50%" cy="50%" r="50%">
      <stop offset="0%" stop-color="#7EF0E1" stop-opacity="0.12"/>
      <stop offset="100%" stop-color="#7EF0E1" stop-opacity="0"/>
    </radialGradient>
  </defs>
  <rect width="794" height="1123" fill="url(#pv-bg)"/>
  <circle cx="80" cy="100" r="140" fill="url(#pv-glow-tl)"/>
  <circle cx="720" cy="1000" r="120" fill="url(#pv-glow-br)"/>
  <rect x="0" y="0" width="794" height="4" fill="url(#pv-ring)"/>
  <rect x="48" y="32" width="698" height="148" rx="0" fill="#FFFFFF" stroke="#E2E8F0"/>
  <circle cx="120" cy="106" r="58" fill="none" stroke="url(#pv-ring)" stroke-width="4"/>
  <circle cx="120" cy="106" r="52" fill="#EDF2F7" stroke="#FFFFFF" stroke-width="3"/>
  <text x="200" y="96" font-family="Arial,sans-serif" font-size="36" font-weight="800" fill="#0F172A">Anya Petrova</text>
  <text x="200" y="128" font-family="Arial,sans-serif" font-size="13" font-weight="600" fill="#64748B" letter-spacing="1">LEAD SOFTWARE ARCHITECT</text>
  <rect x="200" y="142" width="100" height="26" rx="13" fill="#FFFFFF" stroke="#E2E8F0"/>
  <rect x="310" y="142" width="120" height="26" rx="13" fill="#FFFFFF" stroke="#E2E8F0"/>
  <rect x="440" y="142" width="90" height="26" rx="13" fill="#FFFFFF" stroke="#E2E8F0"/>
  <rect x="48" y="208" width="490" height="120" rx="12" fill="url(#pv-card)" stroke="#E2E8F0"/>
  <rect x="64" y="224" width="4" height="18" rx="2" fill="#34D6C3"/>
  <text x="76" y="238" font-family="Arial,sans-serif" font-size="13" font-weight="700" fill="#0F172A" letter-spacing="1.2">PROFESSIONAL SUMMARY</text>
  <rect x="48" y="344" width="490" height="280" rx="12" fill="url(#pv-card)" stroke="#E2E8F0"/>
  <rect x="64" y="360" width="4" height="18" rx="2" fill="#34D6C3"/>
  <text x="76" y="374" font-family="Arial,sans-serif" font-size="13" font-weight="700" fill="#0F172A" letter-spacing="1.2">EXPERIENCE</text>
  <line x1="76" y1="400" x2="76" y2="580" stroke="#34D6C3" stroke-width="2" opacity="0.4"/>
  <circle cx="76" cy="410" r="8" fill="#FFF" stroke="#34D6C3" stroke-width="2"/>
  <text x="96" y="418" font-family="Arial,sans-serif" font-size="14" font-weight="700" fill="#0F172A">Senior Software Architect</text>
  <text x="96" y="440" font-family="Arial,sans-serif" font-size="12" fill="#34D6C3">Global Tech Inc.</text>
  <rect x="558" y="208" width="188" height="200" rx="10" fill="url(#pv-card)" stroke="#E2E8F0"/>
  <rect x="572" y="224" width="4" height="16" rx="2" fill="#34D6C3"/>
  <text x="584" y="236" font-family="Arial,sans-serif" font-size="12" font-weight="700" fill="#0F172A">SKILLS</text>
  <rect x="572" y="252" width="72" height="24" rx="6" fill="#F0FDFA" stroke="#34D6C3" stroke-opacity="0.35"/>
  <rect x="652" y="252" width="80" height="24" rx="6" fill="#F0FDFA" stroke="#34D6C3" stroke-opacity="0.35"/>
  <rect x="572" y="284" width="88" height="24" rx="6" fill="#F0FDFA" stroke="#34D6C3" stroke-opacity="0.35"/>
  <rect x="558" y="424" width="188" height="120" rx="10" fill="url(#pv-card)" stroke="#E2E8F0"/>
  <rect x="572" y="440" width="4" height="16" rx="2" fill="#34D6C3"/>
  <text x="584" y="452" font-family="Arial,sans-serif" font-size="12" font-weight="700" fill="#0F172A">EDUCATION</text>
  <rect x="572" y="468" width="160" height="56" rx="6" fill="#F7FAFC" stroke="#E2E8F0"/>
</svg>
