<svg xmlns="http://www.w3.org/2000/svg" width="300" height="400" viewBox="0 0 300 400">
  <defs>
    <linearGradient id="aeg-bg" x1="0" y1="0" x2="1" y2="1">
      <stop offset="0%" stop-color="#f8fafc"/>
      <stop offset="50%" stop-color="#f1f5f9"/>
      <stop offset="100%" stop-color="#eef2f7"/>
    </linearGradient>
    <filter id="aeg-blur" x="-15%" y="-15%" width="130%" height="130%">
      <feGaussianBlur stdDeviation="10"/>
    </filter>
    <radialGradient id="aeg-glow" cx="50%" cy="50%" r="50%">
      <stop offset="0%" stop-color="#5eead4" stop-opacity="0.55"/>
      <stop offset="100%" stop-color="#5eead4" stop-opacity="0"/>
    </radialGradient>
  </defs>
  <rect width="300" height="400" fill="url(#aeg-bg)"/>
  <circle cx="48" cy="52" r="42" fill="#5eead4" opacity="0.22" filter="url(#aeg-blur)"/>
  <circle cx="258" cy="348" r="38" fill="#2dd4bf" opacity="0.18" filter="url(#aeg-blur)"/>
  <!-- Header glass card -->
  <rect x="20" y="24" width="260" height="72" rx="16" fill="rgba(255,255,255,0.72)" stroke="rgba(255,255,255,0.95)" stroke-width="1.2"/>
  <circle cx="52" cy="60" r="24" fill="#dffcf6" stroke="#5eead4" stroke-width="2.5"/>
  <circle cx="52" cy="60" r="30" fill="none" stroke="url(#aeg-glow)" stroke-width="4" opacity="0.7"/>
  <text x="88" y="52" font-family="Arial,sans-serif" font-size="11" font-weight="800" fill="#1e293b" letter-spacing="0.6">ANYA PETROVA</text>
  <text x="88" y="66" font-family="Arial,sans-serif" font-size="5" fill="#64748b" letter-spacing="0.3">LEAD SOFTWARE ARCHITECT</text>
  <rect x="32" y="78" width="236" height="12" rx="6" fill="rgba(255,255,255,0.55)" stroke="rgba(255,255,255,0.9)" stroke-width="0.6"/>
  <!-- Full-width summary -->
  <rect x="20" y="108" width="260" height="44" rx="14" fill="rgba(255,255,255,0.65)" stroke="rgba(255,255,255,0.92)" stroke-width="0.8"/>
  <text x="32" y="124" font-family="Arial,sans-serif" font-size="7" font-weight="700" fill="#1e293b">PROFESSIONAL SUMMARY</text>
  <rect x="32" y="130" width="220" height="2" rx="1" fill="#2dd4bf" opacity="0.35"/>
  <rect x="32" y="136" width="210" height="2" rx="1" fill="#94a3b8" opacity="0.3"/>
  <rect x="32" y="142" width="200" height="2" rx="1" fill="#94a3b8" opacity="0.25"/>
  <!-- Experience card -->
  <rect x="20" y="160" width="260" height="56" rx="14" fill="rgba(255,255,255,0.65)" stroke="rgba(255,255,255,0.92)" stroke-width="0.8"/>
  <text x="32" y="176" font-family="Arial,sans-serif" font-size="7" font-weight="700" fill="#1e293b">EXPERIENCE</text>
  <rect x="28" y="184" width="244" height="24" rx="8" fill="rgba(255,255,255,0.55)" stroke="rgba(255,255,255,0.85)" stroke-width="0.5"/>
  <circle cx="36" cy="198" r="2.5" fill="#2dd4bf"/>
  <rect x="42" y="196" width="80" height="2" rx="1" fill="#334155" opacity="0.5"/>
  <rect x="42" y="202" width="120" height="2" rx="1" fill="#94a3b8" opacity="0.35"/>
  <!-- Bottom two columns -->
  <rect x="20" y="226" width="124" height="72" rx="14" fill="rgba(255,255,255,0.65)" stroke="rgba(255,255,255,0.92)" stroke-width="0.8"/>
  <text x="32" y="242" font-family="Arial,sans-serif" font-size="6.5" font-weight="700" fill="#1e293b">SKILLS</text>
  <rect x="32" y="250" width="48" height="12" rx="6" fill="rgba(255,255,255,0.7)" stroke="rgba(255,255,255,0.9)" stroke-width="0.4"/>
  <rect x="84" y="250" width="48" height="12" rx="6" fill="rgba(255,255,255,0.7)" stroke="rgba(255,255,255,0.9)" stroke-width="0.4"/>
  <rect x="32" y="266" width="52" height="12" rx="6" fill="rgba(255,255,255,0.7)" stroke="rgba(255,255,255,0.9)" stroke-width="0.4"/>
  <rect x="88" y="266" width="44" height="12" rx="6" fill="rgba(255,255,255,0.7)" stroke="rgba(255,255,255,0.9)" stroke-width="0.4"/>
  <rect x="32" y="282" width="8" height="2" rx="1" fill="#2dd4bf"/>
  <rect x="42" y="282" width="8" height="2" rx="1" fill="#2dd4bf"/>
  <rect x="52" y="282" width="8" height="2" rx="1" fill="#2dd4bf"/>
  <rect x="62" y="282" width="8" height="2" rx="1" fill="#cbd5e1"/>
  <rect x="156" y="226" width="124" height="72" rx="14" fill="rgba(255,255,255,0.65)" stroke="rgba(255,255,255,0.92)" stroke-width="0.8"/>
  <text x="168" y="242" font-family="Arial,sans-serif" font-size="6.5" font-weight="700" fill="#1e293b">EDUCATION</text>
  <rect x="168" y="252" width="96" height="2" rx="1" fill="#334155" opacity="0.45"/>
  <rect x="168" y="258" width="88" height="2" rx="1" fill="#94a3b8" opacity="0.35"/>
  <rect x="168" y="268" width="92" height="2" rx="1" fill="#334155" opacity="0.4"/>
  <rect x="168" y="274" width="80" height="2" rx="1" fill="#94a3b8" opacity="0.3"/>
  <text x="150" y="388" text-anchor="middle" font-family="Arial,sans-serif" font-size="9" font-weight="600" fill="#2dd4bf">Aurora Executive Glass</text>
</svg>
