<svg xmlns="http://www.w3.org/2000/svg" width="300" height="400" viewBox="0 0 300 400">
  <defs>
    <linearGradient id="aeg-bg" x1="0" y1="0" x2="0" y2="1">
      <stop offset="0%" stop-color="#FFFFFF"/>
      <stop offset="100%" stop-color="#F7FAFC"/>
    </linearGradient>
    <linearGradient id="aeg-card" x1="0" y1="0" x2="0" y2="1">
      <stop offset="0%" stop-color="#FFFFFF"/>
      <stop offset="100%" stop-color="#FAFCFE"/>
    </linearGradient>
    <linearGradient id="aeg-ring" x1="0" y1="0" x2="1" y2="1">
      <stop offset="0%" stop-color="#34D6C3"/>
      <stop offset="100%" stop-color="#7EF0E1"/>
    </linearGradient>
    <radialGradient id="aeg-glow" cx="50%" cy="50%" r="50%">
      <stop offset="0%" stop-color="#34D6C3" stop-opacity="0.18"/>
      <stop offset="100%" stop-color="#34D6C3" stop-opacity="0"/>
    </radialGradient>
  </defs>
  <rect width="300" height="400" fill="url(#aeg-bg)"/>
  <circle cx="40" cy="50" r="70" fill="url(#aeg-glow)"/>
  <rect x="0" y="0" width="300" height="3" fill="url(#aeg-ring)"/>
  <rect x="0" y="3" width="300" height="82" fill="#FFFFFF"/>
  <line x1="0" y1="85" x2="300" y2="85" stroke="#E2E8F0"/>
  <circle cx="46" cy="44" r="24" fill="none" stroke="url(#aeg-ring)" stroke-width="2.5"/>
  <circle cx="46" cy="44" r="20" fill="#EDF2F7" stroke="#FFFFFF" stroke-width="2"/>
  <text x="82" y="36" font-family="Arial,sans-serif" font-size="11" font-weight="800" fill="#0F172A">ANYA PETROVA</text>
  <text x="82" y="50" font-family="Arial,sans-serif" font-size="4.5" font-weight="600" fill="#64748B" letter-spacing="0.8">LEAD SOFTWARE ARCHITECT</text>
  <rect x="82" y="58" width="42" height="10" rx="5" fill="#FFFFFF" stroke="#E2E8F0"/>
  <rect x="128" y="58" width="48" height="10" rx="5" fill="#FFFFFF" stroke="#E2E8F0"/>
  <rect x="180" y="58" width="40" height="10" rx="5" fill="#FFFFFF" stroke="#E2E8F0"/>
  <rect x="18" y="96" width="188" height="118" rx="8" fill="url(#aeg-card)" stroke="#E2E8F0"/>
  <rect x="26" y="104" width="3" height="10" rx="1" fill="#34D6C3"/>
  <text x="34" y="112" font-family="Arial,sans-serif" font-size="4.5" font-weight="700" fill="#0F172A" letter-spacing="0.6">PROFESSIONAL SUMMARY</text>
  <line x1="34" y1="116" x2="196" y2="116" stroke="#34D6C3" stroke-opacity="0.3"/>
  <rect x="30" y="122" width="164" height="2" rx="1" fill="#CBD5E1" opacity="0.5"/>
  <rect x="30" y="128" width="150" height="2" rx="1" fill="#CBD5E1" opacity="0.4"/>
  <rect x="26" y="140" width="3" height="10" rx="1" fill="#34D6C3"/>
  <text x="34" y="148" font-family="Arial,sans-serif" font-size="4.5" font-weight="700" fill="#0F172A" letter-spacing="0.6">EXPERIENCE</text>
  <line x1="36" y1="158" x2="36" y2="200" stroke="#34D6C3" stroke-width="1.5" opacity="0.5"/>
  <circle cx="36" cy="162" r="3.5" fill="#FFF" stroke="#34D6C3" stroke-width="1.5"/>
  <text x="46" y="164" font-family="Arial,sans-serif" font-size="4" font-weight="700" fill="#0F172A">Senior Architect</text>
  <text x="46" y="174" font-family="Arial,sans-serif" font-size="3.5" fill="#34D6C3">Tech Corp</text>
  <rect x="214" y="96" width="68" height="280" rx="8" fill="url(#aeg-card)" stroke="#E2E8F0"/>
  <rect x="222" y="104" width="3" height="8" rx="1" fill="#34D6C3"/>
  <text x="228" y="111" font-family="Arial,sans-serif" font-size="4" font-weight="700" fill="#0F172A">SKILLS</text>
  <rect x="222" y="118" width="48" height="10" rx="4" fill="#F0FDFA" stroke="#34D6C3" stroke-opacity="0.35"/>
  <rect x="222" y="132" width="44" height="10" rx="4" fill="#F0FDFA" stroke="#34D6C3" stroke-opacity="0.35"/>
  <rect x="222" y="146" width="50" height="10" rx="4" fill="#F0FDFA" stroke="#34D6C3" stroke-opacity="0.35"/>
  <rect x="222" y="168" width="3" height="8" rx="1" fill="#34D6C3"/>
  <text x="228" y="175" font-family="Arial,sans-serif" font-size="4" font-weight="700" fill="#0F172A">EDUCATION</text>
  <rect x="222" y="182" width="52" height="22" rx="4" fill="#F7FAFC" stroke="#E2E8F0"/>
  <text x="226" y="194" font-family="Arial,sans-serif" font-size="3" fill="#334155">M.S. CS</text>
  <circle cx="270" cy="360" r="50" fill="url(#aeg-glow)"/>
  <text x="150" y="388" text-anchor="middle" font-family="Arial,sans-serif" font-size="8" font-weight="700" fill="#34D6C3">Aurora Executive Glass</text>
</svg>
