<svg xmlns="http://www.w3.org/2000/svg" width="300" height="400" viewBox="0 0 300 400">
  <rect width="300" height="400" fill="#ffffff"/>
  <rect x="0" y="0" width="300" height="3" fill="#2dd4bf" opacity="0.7"/>
  <rect x="0" y="3" width="300" height="78" fill="#f8fafc"/>
  <line x1="0" y1="81" x2="300" y2="81" stroke="#e2e8f0"/>
  <circle cx="44" cy="42" r="22" fill="#e2e8f0" stroke="#2dd4bf" stroke-width="2"/>
  <text x="78" y="38" font-family="Arial,sans-serif" font-size="10" font-weight="700" fill="#1e293b" letter-spacing="0.8">ANYA PETROVA</text>
  <text x="78" y="52" font-family="Arial,sans-serif" font-size="4.5" fill="#64748b" letter-spacing="1.2">LEAD SOFTWARE ARCHITECT</text>
  <line x1="78" y1="62" x2="276" y2="62" stroke="#e2e8f0"/>
  <text x="78" y="72" font-family="Arial,sans-serif" font-size="3.5" fill="#64748b">phone  email  linkedin</text>
  <rect x="24" y="94" width="3" height="12" fill="#2dd4bf"/>
  <rect x="27" y="94" width="120" height="12" fill="#1e293b"/>
  <text x="34" y="103" font-family="Arial,sans-serif" font-size="4.5" font-weight="700" fill="#ffffff" letter-spacing="0.8">PROFESSIONAL SUMMARY</text>
  <rect x="24" y="112" width="252" height="2" rx="1" fill="#cbd5e1" opacity="0.6"/>
  <rect x="24" y="118" width="240" height="2" rx="1" fill="#cbd5e1" opacity="0.45"/>
  <rect x="24" y="132" width="3" height="12" fill="#2dd4bf"/>
  <rect x="27" y="132" width="100" height="12" fill="#1e293b"/>
  <text x="34" y="141" font-family="Arial,sans-serif" font-size="4.5" font-weight="700" fill="#ffffff" letter-spacing="0.8">EXPERIENCE</text>
  <line x1="30" y1="154" x2="30" y2="200" stroke="#e2e8f0"/>
  <circle cx="30" cy="160" r="3" fill="#fff" stroke="#2dd4bf" stroke-width="1.5"/>
  <text x="40" y="162" font-family="Arial,sans-serif" font-size="4" font-weight="700" fill="#1e293b">SENIOR ARCHITECT</text>
  <text x="40" y="172" font-family="Arial,sans-serif" font-size="3.5" fill="#64748b">Company Name</text>
  <line x1="156" y1="210" x2="156" y2="340" stroke="#e2e8f0" opacity="0.5"/>
  <rect x="24" y="218" width="120" height="3" fill="#2dd4bf"/>
  <rect x="27" y="218" width="110" height="10" fill="#1e293b"/>
  <text x="34" y="226" font-family="Arial,sans-serif" font-size="4" font-weight="700" fill="#fff">SKILLS</text>
  <rect x="28" y="234" width="44" height="10" fill="#f8fafc" stroke="#e2e8f0"/>
  <rect x="76" y="234" width="44" height="10" fill="#f8fafc" stroke="#e2e8f0"/>
  <rect x="28" y="248" width="48" height="10" fill="#f8fafc" stroke="#e2e8f0"/>
  <rect x="164" y="218" width="3" height="10" fill="#2dd4bf"/>
  <rect x="167" y="218" width="110" height="10" fill="#1e293b"/>
  <text x="174" y="226" font-family="Arial,sans-serif" font-size="4" font-weight="700" fill="#fff">EDUCATION</text>
  <text x="174" y="242" font-family="Arial,sans-serif" font-size="3.5" fill="#334155">M.S. Computer Science</text>
  <text x="150" y="388" text-anchor="middle" font-family="Arial,sans-serif" font-size="9" font-weight="600" fill="#2dd4bf">Aurora Executive Glass</text>
</svg>
