<svg xmlns="http://www.w3.org/2000/svg" width="300" height="400" viewBox="0 0 300 400">
  <rect width="300" height="400" fill="#FCFAF6"/>
  <!-- Portrait -->
  <rect x="28" y="24" width="52" height="66" rx="10" fill="#F5F0E8" stroke="#3D2645" stroke-width="2.5"/>
  <!-- Name -->
  <text x="92" y="42" font-family="Georgia, serif" font-size="11" font-weight="700" fill="#3D2645" letter-spacing="0.5">ALEXANDRA KEMP</text>
  <text x="92" y="56" font-family="Arial, sans-serif" font-size="4.5" font-weight="600" fill="#6B6368" letter-spacing="0.8">PRODUCT DESIGN STRATEGIST</text>
  <!-- Sidebar divider -->
  <line x1="98" y1="98" x2="98" y2="340" stroke="#3D2645" stroke-width="1.2"/>
  <!-- Sidebar: Contact -->
  <text x="28" y="112" font-family="Arial, sans-serif" font-size="5" font-weight="700" fill="#3D2645" letter-spacing="1">CONTACT</text>
  <rect x="28" y="118" width="58" height="2" rx="1" fill="#E5DFD6"/>
  <circle cx="32" cy="128" r="2" fill="#3D2645"/>
  <rect x="38" y="126" width="48" height="2" rx="1" fill="#D4CCC2"/>
  <circle cx="32" cy="136" r="2" fill="#3D2645"/>
  <rect x="38" y="134" width="52" height="2" rx="1" fill="#D4CCC2"/>
  <!-- Skills pills -->
  <text x="28" y="156" font-family="Arial, sans-serif" font-size="5" font-weight="700" fill="#3D2645" letter-spacing="1">SKILLS</text>
  <rect x="28" y="162" width="24" height="8" rx="4" fill="#C9D9A8"/>
  <rect x="54" y="162" width="28" height="8" rx="4" fill="#C9D9A8"/>
  <rect x="28" y="174" width="32" height="8" rx="4" fill="#C9D9A8"/>
  <!-- Languages -->
  <text x="28" y="196" font-family="Arial, sans-serif" font-size="5" font-weight="700" fill="#3D2645" letter-spacing="1">LANGUAGES</text>
  <rect x="28" y="202" width="30" height="10" rx="3" fill="#FFFFFF" stroke="#D4CCC2" stroke-width="0.8"/>
  <rect x="60" y="202" width="28" height="10" rx="3" fill="#FFFFFF" stroke="#D4CCC2" stroke-width="0.8"/>
  <!-- Main: Summary card -->
  <text x="110" y="112" font-family="Georgia, serif" font-size="6" font-weight="700" fill="#3D2645" letter-spacing="0.6">PROFESSIONAL SUMMARY</text>
  <line x1="110" y1="116" x2="272" y2="116" stroke="#D4CCC2" stroke-width="0.6"/>
  <rect x="110" y="122" width="162" height="36" rx="6" fill="#F5F0E8" stroke="#E5DFD6" stroke-width="0.6"/>
  <rect x="118" y="130" width="140" height="2" rx="1" fill="#E5DFD6"/>
  <rect x="118" y="136" width="130" height="2" rx="1" fill="#E5DFD6"/>
  <rect x="118" y="142" width="120" height="2" rx="1" fill="#E5DFD6"/>
  <!-- Experience -->
  <text x="110" y="174" font-family="Georgia, serif" font-size="6" font-weight="700" fill="#3D2645" letter-spacing="0.6">WORK EXPERIENCE</text>
  <line x1="110" y1="178" x2="272" y2="178" stroke="#D4CCC2" stroke-width="0.6"/>
  <text x="110" y="190" font-family="Arial, sans-serif" font-size="4.5" font-weight="700" fill="#2A2230">SENIOR UX DESIGNER</text>
  <text x="110" y="198" font-family="Arial, sans-serif" font-size="4" fill="#3D2645">METICULOUS DESIGN</text>
  <circle cx="114" cy="208" r="1.2" fill="#7A4B33"/>
  <rect x="120" y="206" width="130" height="2" rx="1" fill="#E5DFD6"/>
  <!-- Projects grid -->
  <text x="110" y="228" font-family="Georgia, serif" font-size="6" font-weight="700" fill="#3D2645" letter-spacing="0.6">PROJECTS</text>
  <rect x="110" y="234" width="76" height="40" rx="4" fill="#FFFFFF" stroke="#E5DFD6" stroke-width="0.6"/>
  <rect x="196" y="234" width="76" height="40" rx="4" fill="#FFFFFF" stroke="#E5DFD6" stroke-width="0.6"/>
  <path d="M178 240 L184 240 L184 246" stroke="#7A4B33" stroke-width="1" fill="none"/>
  <path d="M112 268 L112 274 L118 274" stroke="#7A4B33" stroke-width="1" fill="none"/>
  <!-- Awards bar -->
  <text x="110" y="290" font-family="Georgia, serif" font-size="6" font-weight="700" fill="#3D2645" letter-spacing="0.6">AWARDS</text>
  <rect x="110" y="296" width="162" height="14" rx="7" fill="#C9D9A8"/>
  <rect x="114" y="300" width="6" height="10" rx="1" fill="#7A4B33"/>
  <rect x="262" y="300" width="6" height="10" rx="1" fill="#7A4B33"/>
  <text x="150" y="306" font-family="Arial, sans-serif" font-size="4" font-weight="700" fill="#2A2230" letter-spacing="0.5">DESIGN EXCELLENCE</text>
  <text x="150" y="382" text-anchor="middle" font-family="Georgia, serif" font-size="6.5" font-weight="600" fill="#3D2645" letter-spacing="0.4">Royal Plum Executive</text>
</svg>
