<svg width="800" height="1000" xmlns="http://www.w3.org/2000/svg">
  <rect width="800" height="1000" fill="#f3ede6"/>
  <ellipse cx="680" cy="80" rx="200" ry="90" fill="#d4c4d8" opacity="0.45"/>
  <ellipse cx="100" cy="920" rx="160" ry="160" fill="#8e7373" opacity="0.12"/>
  <ellipse cx="600" cy="950" rx="180" ry="180" fill="#c4b4a8" opacity="0.18"/>
  <rect x="0" y="0" width="238" height="1000" fill="#f3ede6"/>
  <rect x="238" y="0" width="200" height="1000" fill="#8e7373"/>
  <rect x="438" y="0" width="362" height="1000" fill="#f3ede6"/>
  <path d="M238 0 Q318 0 318 80 L318 280 Q318 320 238 320 L238 0" fill="#999"/>
  <text x="28" y="60" font-family="Arial,sans-serif" font-size="14" fill="#888" letter-spacing="3">/ RESUME</text>
  <text x="28" y="100" font-family="Arial,sans-serif" font-size="28" font-weight="bold" fill="#333" letter-spacing="4">SALMA</text>
  <text x="28" y="132" font-family="Arial,sans-serif" font-size="28" font-weight="bold" fill="#333" letter-spacing="4">MATTHEWS</text>
  <text x="258" y="380" font-family="Arial,sans-serif" font-size="11" fill="#faf7f4" letter-spacing="2">/ LANGUAGES</text>
  <text x="258" y="480" font-family="Arial,sans-serif" font-size="11" fill="#faf7f4" letter-spacing="2">/ CONTACT</text>
  <text x="458" y="80" font-family="Arial,sans-serif" font-size="26" font-weight="bold" fill="#333" letter-spacing="3">PROJECT MANAGER</text>
  <text x="458" y="130" font-family="Arial,sans-serif" font-size="12" fill="#888" letter-spacing="2">/ EXPERIENCE</text>
  <text x="400" y="960" text-anchor="middle" font-family="Arial,sans-serif" font-size="22" font-weight="600" fill="#8e7373">Editorial Mauve</text>
  <text x="400" y="985" text-anchor="middle" font-family="Arial,sans-serif" font-size="14" fill="#888">Three-Column Editorial Resume</text>
</svg>
