<svg width="800" height="1000" xmlns="http://www.w3.org/2000/svg">
  <defs>
    <linearGradient id="bg" x1="0%" y1="0%" x2="100%" y2="100%">
      <stop offset="0%" stop-color="#14151c"/>
      <stop offset="50%" stop-color="#0c0d12"/>
      <stop offset="100%" stop-color="#12131a"/>
    </linearGradient>
    <linearGradient id="ribbon" x1="0%" y1="0%" x2="0%" y2="100%">
      <stop offset="0%" stop-color="#f9fafb"/>
      <stop offset="50%" stop-color="#d1d5db"/>
      <stop offset="100%" stop-color="#9ca3af"/>
    </linearGradient>
    <linearGradient id="name" x1="0%" y1="0%" x2="0%" y2="100%">
      <stop offset="0%" stop-color="#f3f4f6"/>
      <stop offset="100%" stop-color="#9ca3af"/>
    </linearGradient>
  </defs>
  <rect width="800" height="1000" fill="url(#bg)"/>
  <ellipse cx="120" cy="80" rx="100" ry="80" fill="#a855f7" opacity="0.15"/>
  <ellipse cx="680" cy="900" rx="120" ry="100" fill="#a855f7" opacity="0.12"/>
  <path d="M0,80 C200,30 400,90 600,50 S800,70 800,45 L800,0 L0,0 Z" fill="#d1d5db" opacity="0.1"/>
  <path d="M0,95 Q200,60 400,85 T800,70" fill="none" stroke="#a855f7" stroke-width="1" opacity="0.35"/>
  <rect x="0" y="0" width="140" height="120" fill="#a855f7" opacity="0.1"/>
  <text x="48" y="88" font-family="Georgia,serif" font-size="42" font-weight="600" fill="url(#name)" letter-spacing="4">VICTORIA ASHFORD</text>
  <text x="48" y="118" font-family="Arial,sans-serif" font-size="12" fill="#a855f7" letter-spacing="5">CHIEF EXECUTIVE OFFICER</text>
  <rect x="48" y="136" width="704" height="44" rx="8" fill="rgba(168,85,247,0.12)" stroke="#a855f7" stroke-width="1" opacity="0.5"/>
  <circle cx="120" cy="158" r="6" fill="none" stroke="#a855f7"/>
  <circle cx="280" cy="158" r="6" fill="none" stroke="#a855f7"/>
  <circle cx="440" cy="158" r="6" fill="none" stroke="#a855f7"/>
  <circle cx="600" cy="158" r="6" fill="none" stroke="#a855f7"/>
  <rect x="48" y="200" width="480" height="720" fill="rgba(18,20,28,0.5)" rx="10"/>
  <rect x="544" y="200" width="208" height="720" fill="rgba(14,15,22,0.95)" stroke="#a855f7" stroke-width="0.5" opacity="0.35"/>
  <rect x="56" y="220" width="140" height="28" rx="4" fill="url(#ribbon)"/>
  <text x="72" y="238" font-family="Georgia,serif" font-size="11" fill="#0c0d12" letter-spacing="2">PROFILE SUMMARY</text>
  <rect x="56" y="268" width="460" height="60" rx="8" fill="rgba(18,20,28,0.92)" stroke="rgba(255,255,255,0.06)"/>
  <rect x="56" y="348" width="160" height="28" rx="4" fill="url(#ribbon)"/>
  <text x="72" y="366" font-family="Georgia,serif" font-size="11" fill="#0c0d12">WORK EXPERIENCE</text>
  <line x1="72" y1="400" x2="72" y2="520" stroke="#a855f7" stroke-width="2" opacity="0.6"/>
  <circle cx="72" cy="412" r="8" fill="#a855f7"/>
  <rect x="96" y="396" width="400" height="72" rx="8" fill="rgba(18,20,28,0.92)" stroke="rgba(168,85,247,0.4)"/>
  <circle cx="72" cy="488" r="8" fill="#a855f7"/>
  <rect x="96" y="472" width="400" height="72" rx="8" fill="rgba(18,20,28,0.92)" stroke="rgba(168,85,247,0.4)"/>
  <rect x="56" y="560" width="180" height="28" rx="4" fill="url(#ribbon)"/>
  <circle cx="100" cy="620" r="22" fill="none" stroke="#a855f7" stroke-width="3" opacity="0.8"/>
  <circle cx="100" cy="620" r="14" fill="#0c0d12"/>
  <text x="100" y="624" text-anchor="middle" font-size="8" fill="#a855f7" font-weight="bold">85%</text>
  <circle cx="200" cy="620" r="22" fill="none" stroke="#a855f7" stroke-width="3" opacity="0.6"/>
  <circle cx="300" cy="620" r="22" fill="none" stroke="#a855f7" stroke-width="3" opacity="0.7"/>
  <rect x="560" y="220" width="176" height="200" fill="#1a1b24" stroke="#d1d5db" stroke-width="2" opacity="0.4"/>
  <path d="M560,236 L576,220 L720,220 L736,236 L736,404 L720,420 L576,420 L560,404 Z" fill="none" stroke="#a855f7" stroke-width="2" opacity="0.5"/>
  <rect x="560" y="440" width="100" height="20" rx="3" fill="url(#ribbon)" opacity="0.9"/>
  <text x="400" y="960" text-anchor="middle" font-family="Georgia,serif" font-size="22" font-weight="600" fill="#d1d5db" letter-spacing="2">Royal Edge</text>
</svg>
