<svg width="300" height="400" xmlns="http://www.w3.org/2000/svg">
  <defs>
    <linearGradient id="bg" x1="0%" y1="0%" x2="100%" y2="100%">
      <stop offset="0%" stop-color="#14151c"/>
      <stop offset="100%" stop-color="#0c0d12"/>
    </linearGradient>
    <linearGradient id="silver" x1="0%" y1="0%" x2="0%" y2="100%">
      <stop offset="0%" stop-color="#f3f4f6"/>
      <stop offset="100%" stop-color="#9ca3af"/>
    </linearGradient>
  </defs>
  <rect width="300" height="400" fill="url(#bg)"/>
  <rect x="0" y="0" width="80" height="70" fill="#a855f7" opacity="0.12"/>
  <path d="M0,50 C60,20 120,70 180,40 S300,55 300,35 L300,0 L0,0 Z" fill="#d1d5db" opacity="0.08"/>
  <text x="24" y="42" font-family="Georgia,serif" font-size="14" font-weight="600" fill="url(#silver)" letter-spacing="2">VICTORIA</text>
  <text x="24" y="58" font-family="Georgia,serif" font-size="9" fill="#a855f7" letter-spacing="2">CEO</text>
  <rect x="20" y="68" width="260" height="18" rx="4" fill="rgba(168,85,247,0.15)" stroke="#a855f7" stroke-width="0.5" opacity="0.8"/>
  <circle cx="60" cy="77" r="3" fill="#a855f7" opacity="0.6"/>
  <circle cx="120" cy="77" r="3" fill="#a855f7" opacity="0.6"/>
  <circle cx="180" cy="77" r="3" fill="#a855f7" opacity="0.6"/>
  <rect x="20" y="96" width="168" height="288" fill="rgba(18,20,28,0.6)" rx="6"/>
  <rect x="196" y="96" width="84" height="288" fill="rgba(14,15,22,0.9)" stroke="#a855f7" stroke-width="0.5" opacity="0.4"/>
  <rect x="204" y="108" width="68" height="80" fill="#1a1b24" stroke="#d1d5db" stroke-width="1" opacity="0.5"/>
  <path d="M204,116 L212,108 L276,108 L284,116 L284,180 L276,188 L212,188 L204,180 Z" fill="none" stroke="#a855f7" stroke-width="1" opacity="0.5"/>
  <rect x="28" y="108" width="56" height="12" rx="3" fill="url(#silver)" opacity="0.9"/>
  <line x1="28" y1="132" x2="172" y2="132" stroke="#a855f7" stroke-width="0.5" opacity="0.3"/>
  <circle cx="36" cy="152" r="4" fill="#a855f7" opacity="0.8"/>
  <line x1="36" y1="156" x2="36" y2="200" stroke="#a855f7" stroke-width="0.6" opacity="0.35"/>
  <rect x="48" y="146" width="120" height="36" rx="4" fill="rgba(255,255,255,0.04)" stroke="rgba(168,85,247,0.3)"/>
  <circle cx="52" cy="230" r="10" fill="none" stroke="#a855f7" stroke-width="2" opacity="0.7"/>
  <circle cx="52" cy="230" r="6" fill="none" stroke="#d1d5db" stroke-width="1" opacity="0.3"/>
  <circle cx="88" cy="230" r="10" fill="none" stroke="#a855f7" stroke-width="2" opacity="0.5"/>
  <circle cx="124" cy="230" r="10" fill="none" stroke="#a855f7" stroke-width="2" opacity="0.6"/>
  <rect x="204" y="200" width="48" height="8" rx="2" fill="url(#silver)" opacity="0.7"/>
  <text x="150" y="388" text-anchor="middle" font-family="Georgia,serif" font-size="10" font-weight="600" fill="#d1d5db" letter-spacing="1">Royal Edge</text>
</svg>
