<svg xmlns="http://www.w3.org/2000/svg" width="300" height="400" viewBox="0 0 300 400">
  <rect width="300" height="400" fill="#FFFFFF"/>
  <!-- Profile photo placeholder -->
  <circle cx="248" cy="42" r="22" fill="#F5F3FA" stroke="#8B7EC8" stroke-width="1.2"/>
  <circle cx="248" cy="38" r="14" fill="#E8E4F0"/>
  <!-- Name -->
  <text x="150" y="38" text-anchor="middle" font-family="'Courier New', monospace" font-size="11" font-weight="700" fill="#111111" letter-spacing="1.5">CHRIS JOHNSON</text>
  <!-- Contact row -->
  <text x="150" y="54" text-anchor="middle" font-family="'Courier New', monospace" font-size="4.5" fill="#555555">email@example.com  |  +1 555 0100  |  New York, NY</text>
  <!-- Header rule -->
  <line x1="36" y1="64" x2="264" y2="64" stroke="#8B7EC8" stroke-width="0.8" opacity="0.55"/>
  <!-- Resume Objective -->
  <text x="36" y="80" font-family="'Courier New', monospace" font-size="5" font-weight="600" fill="#8B7EC8" letter-spacing="1.2">RESUME OBJECTIVE</text>
  <rect x="36" y="86" width="228" height="2" rx="1" fill="#E8E4F0"/>
  <rect x="36" y="92" width="210" height="2" rx="1" fill="#E8E4F0"/>
  <rect x="36" y="98" width="195" height="2" rx="1" fill="#E8E4F0"/>
  <line x1="36" y1="108" x2="264" y2="108" stroke="#8B7EC8" stroke-width="0.6" opacity="0.45"/>
  <!-- Experience -->
  <text x="36" y="122" font-family="'Courier New', monospace" font-size="5" font-weight="600" fill="#8B7EC8" letter-spacing="1.2">EXPERIENCE</text>
  <text x="36" y="134" font-family="'Courier New', monospace" font-size="4.5" font-weight="600" fill="#111111">Senior Product Manager</text>
  <text x="36" y="142" font-family="'Courier New', monospace" font-size="4" fill="#555555">Acme Corp / San Francisco</text>
  <circle cx="40" cy="152" r="1.2" fill="#111111"/>
  <rect x="46" y="150" width="180" height="2" rx="1" fill="#E8E4F0"/>
  <circle cx="40" cy="158" r="1.2" fill="#111111"/>
  <rect x="46" y="156" width="165" height="2" rx="1" fill="#E8E4F0"/>
  <line x1="36" y1="168" x2="264" y2="168" stroke="#8B7EC8" stroke-width="0.6" opacity="0.45"/>
  <!-- Skills -->
  <text x="36" y="182" font-family="'Courier New', monospace" font-size="5" font-weight="600" fill="#8B7EC8" letter-spacing="1.2">SKILLS</text>
  <text x="36" y="194" font-family="'Courier New', monospace" font-size="4" fill="#111111">Leadership</text>
  <circle cx="220" cy="192.5" r="2" fill="#8B7EC8"/>
  <circle cx="228" cy="192.5" r="2" fill="#8B7EC8"/>
  <circle cx="236" cy="192.5" r="2" fill="#8B7EC8"/>
  <circle cx="244" cy="192.5" r="2" fill="#8B7EC8"/>
  <circle cx="252" cy="192.5" r="2" fill="#D8D4E8"/>
  <text x="36" y="204" font-family="'Courier New', monospace" font-size="4" fill="#111111">Strategy</text>
  <circle cx="220" cy="202.5" r="2" fill="#8B7EC8"/>
  <circle cx="228" cy="202.5" r="2" fill="#8B7EC8"/>
  <circle cx="236" cy="202.5" r="2" fill="#8B7EC8"/>
  <circle cx="244" cy="202.5" r="2" fill="#D8D4E8"/>
  <circle cx="252" cy="202.5" r="2" fill="#D8D4E8"/>
  <line x1="36" y1="214" x2="264" y2="214" stroke="#8B7EC8" stroke-width="0.6" opacity="0.45"/>
  <!-- Languages -->
  <text x="36" y="228" font-family="'Courier New', monospace" font-size="5" font-weight="600" fill="#8B7EC8" letter-spacing="1.2">LANGUAGES</text>
  <text x="36" y="240" font-family="'Courier New', monospace" font-size="4" fill="#111111">English</text>
  <circle cx="36" cy="248" r="2" fill="#8B7EC8"/>
  <circle cx="44" cy="248" r="2" fill="#8B7EC8"/>
  <circle cx="52" cy="248" r="2" fill="#8B7EC8"/>
  <circle cx="60" cy="248" r="2" fill="#8B7EC8"/>
  <circle cx="68" cy="248" r="2" fill="#D8D4E8"/>
  <text x="160" y="240" font-family="'Courier New', monospace" font-size="4" fill="#111111">Spanish</text>
  <circle cx="160" cy="248" r="2" fill="#8B7EC8"/>
  <circle cx="168" cy="248" r="2" fill="#8B7EC8"/>
  <circle cx="176" cy="248" r="2" fill="#8B7EC8"/>
  <circle cx="184" cy="248" r="2" fill="#D8D4E8"/>
  <circle cx="192" cy="248" r="2" fill="#D8D4E8"/>
  <!-- Template name -->
  <text x="150" y="388" text-anchor="middle" font-family="'Courier New', monospace" font-size="6.5" font-weight="600" fill="#111111" letter-spacing="0.5">Minimal Typewriter Executive</text>
</svg>
