<svg xmlns="http://www.w3.org/2000/svg" width="800" height="1000" viewBox="0 0 800 1000">
  <rect width="800" height="1000" fill="#FAFAF8"/>
  <circle cx="-40" cy="80" r="180" fill="#D8E2DF" opacity="0.4"/>
  <circle cx="720" cy="60" r="120" fill="#D8E2DF" opacity="0.35"/>
  <circle cx="660" cy="80" r="44" fill="none" stroke="#8AA59B" stroke-width="1.2" opacity="0.35"/>
  <circle cx="660" cy="80" r="28" fill="none" stroke="#8AA59B" stroke-width="0.8" opacity="0.28"/>
  <rect x="56" y="56" width="688" height="168" rx="24" fill="#F2F4F1" stroke="#DADDD8" stroke-width="1"/>
  <circle cx="148" cy="140" r="66" fill="none" stroke="#8AA59B" stroke-width="3" opacity="0.5"/>
  <circle cx="148" cy="140" r="58" fill="#E8EDEA"/>
  <text x="248" y="108" font-family="Georgia,serif" font-size="56" font-weight="700" fill="#2D2D2D">Lumen Studio</text>
  <text x="248" y="148" font-family="Arial,sans-serif" font-size="18" fill="#6B6B6B">Creative Director | Scandinavian Editorial Design</text>
  <text x="248" y="178" font-family="Arial,sans-serif" font-size="12" fill="#6B6B6B">+1 (415) 555-0198 | lumen@studio.com | linkedin.com/in/lumenstudio</text>
  <rect x="56" y="252" width="248" height="680" rx="20" fill="#EEF2EE" stroke="#DADDD8" stroke-width="1"/>
  <text x="80" y="296" font-family="Arial,sans-serif" font-size="11" font-weight="600" fill="#2D2D2D" letter-spacing="2">PROFESSIONAL SUMMARY</text>
  <rect x="80" y="304" width="48" height="3" fill="#8AA59B" opacity="0.75"/>
  <rect x="80" y="320" width="200" height="8" rx="2" fill="#DADDD8" opacity="0.45"/>
  <rect x="80" y="336" width="190" height="8" rx="2" fill="#DADDD8" opacity="0.38"/>
  <rect x="80" y="352" width="180" height="8" rx="2" fill="#DADDD8" opacity="0.32"/>
  <text x="80" y="400" font-family="Arial,sans-serif" font-size="11" font-weight="600" fill="#2D2D2D" letter-spacing="2">EDUCATION</text>
  <rect x="80" y="408" width="48" height="3" fill="#8AA59B" opacity="0.75"/>
  <text x="80" y="432" font-family="Arial,sans-serif" font-size="16" font-weight="600" fill="#2D2D2D">MFA, Visual Communication</text>
  <text x="80" y="454" font-family="Arial,sans-serif" font-size="13" fill="#6B6B6B">Royal Danish Academy</text>
  <text x="80" y="500" font-family="Arial,sans-serif" font-size="11" font-weight="600" fill="#2D2D2D" letter-spacing="2">SKILLS</text>
  <rect x="80" y="508" width="48" height="3" fill="#8AA59B" opacity="0.75"/>
  <text x="80" y="532" font-family="Arial,sans-serif" font-size="13" fill="#4F4F4F">Brand Strategy</text>
  <text x="80" y="552" font-family="Arial,sans-serif" font-size="13" fill="#4F4F4F">Editorial Systems</text>
  <text x="80" y="572" font-family="Arial,sans-serif" font-size="13" fill="#4F4F4F">Art Direction</text>
  <text x="336" y="296" font-family="Georgia,serif" font-size="26" font-weight="600" fill="#2D2D2D">Experience</text>
  <rect x="336" y="308" width="56" height="3" fill="#8AA59B" opacity="0.7"/>
  <circle cx="348" cy="348" r="6" fill="#8AA59B"/>
  <line x1="348" y1="360" x2="348" y2="480" stroke="#DADDD8" stroke-width="1.5"/>
  <rect x="368" y="332" width="360" height="88" rx="16" fill="#FFFFFF" filter="url(#lsShadow)"/>
  <defs>
    <filter id="lsShadow" x="-4%" y="-8%" width="108%" height="120%">
      <feDropShadow dx="0" dy="4" stdDeviation="8" flood-color="#000000" flood-opacity="0.05"/>
    </filter>
  </defs>
  <text x="384" y="364" font-family="Arial,sans-serif" font-size="18" font-weight="600" fill="#2D2D2D">Creative Director</text>
  <text x="640" y="364" font-family="Arial,sans-serif" font-size="12" fill="#6B6B6B">2021  2026</text>
  <text x="384" y="388" font-family="Arial,sans-serif" font-size="14" fill="#6B6B6B">Nordic Design Collective, Copenhagen</text>
  <circle cx="348" cy="448" r="4" fill="#8AA59B"/>
  <rect x="384" y="408" width="8" height="8" rx="4" fill="#8AA59B" opacity="0.6"/>
  <rect x="400" y="412" width="280" height="6" rx="2" fill="#DADDD8" opacity="0.4"/>
  <circle cx="348" cy="500" r="6" fill="#8AA59B"/>
  <rect x="368" y="484" width="360" height="72" rx="16" fill="#FFFFFF" stroke="#DADDD8" stroke-width="0.5"/>
  <text x="336" y="600" font-family="Georgia,serif" font-size="26" font-weight="600" fill="#2D2D2D">Projects</text>
  <rect x="336" y="612" width="56" height="3" fill="#8AA59B" opacity="0.7"/>
  <rect x="336" y="628" width="392" height="64" rx="16" fill="#FFFFFF" stroke="#DADDD8" stroke-width="0.5"/>
  <text x="400" y="960" text-anchor="middle" font-family="Georgia,serif" font-size="14" font-weight="600" fill="#8AA59B" letter-spacing="2">LUMEN STUDIO</text>
</svg>
