<svg xmlns="http://www.w3.org/2000/svg" width="300" height="400" viewBox="0 0 300 400">
  <rect width="300" height="400" fill="#FAFAF8"/>
  <circle cx="-20" cy="40" r="70" fill="#D8E2DF" opacity="0.45"/>
  <circle cx="270" cy="24" r="48" fill="#D8E2DF" opacity="0.35"/>
  <circle cx="-30" cy="360" r="75" fill="#EEF2EE" opacity="0.55"/>
  <circle cx="285" cy="370" r="50" fill="#8AA59B" opacity="0.12"/>
  <circle cx="248" cy="36" r="22" fill="none" stroke="#8AA59B" stroke-width="0.6" opacity="0.4"/>
  <circle cx="248" cy="36" r="14" fill="none" stroke="#8AA59B" stroke-width="0.4" opacity="0.3"/>
  <rect x="18" y="28" width="264" height="72" rx="16" fill="#F2F4F1" stroke="#DADDD8" stroke-width="0.5"/>
  <circle cx="48" cy="64" r="22" fill="none" stroke="#8AA59B" stroke-width="1.2" opacity="0.55"/>
  <circle cx="48" cy="64" r="18" fill="#E8EDEA"/>
  <text x="82" y="56" font-family="Georgia,serif" font-size="12" font-weight="700" fill="#2D2D2D">LUMEN</text>
  <text x="82" y="70" font-family="Georgia,serif" font-size="12" font-weight="700" fill="#2D2D2D">STUDIO</text>
  <text x="82" y="82" font-family="Arial,sans-serif" font-size="3" fill="#6B6B6B">Creative Director</text>
  <text x="82" y="90" font-family="Arial,sans-serif" font-size="2.5" fill="#6B6B6B">phone | email | linkedin</text>
  <rect x="18" y="112" width="92" height="268" rx="14" fill="#EEF2EE" stroke="#DADDD8" stroke-width="0.4"/>
  <text x="26" y="132" font-family="Arial,sans-serif" font-size="3.2" font-weight="600" fill="#2D2D2D" letter-spacing="0.8">SUMMARY</text>
  <rect x="26" y="136" width="24" height="1.5" fill="#8AA59B" opacity="0.75"/>
  <rect x="26" y="144" width="76" height="2.5" rx="1" fill="#DADDD8" opacity="0.5"/>
  <rect x="26" y="150" width="72" height="2.5" rx="1" fill="#DADDD8" opacity="0.4"/>
  <text x="26" y="172" font-family="Arial,sans-serif" font-size="3.2" font-weight="600" fill="#2D2D2D" letter-spacing="0.8">EDUCATION</text>
  <rect x="26" y="176" width="24" height="1.5" fill="#8AA59B" opacity="0.75"/>
  <text x="26" y="188" font-family="Arial,sans-serif" font-size="3" font-weight="600" fill="#2D2D2D">MFA Design</text>
  <text x="26" y="204" font-family="Arial,sans-serif" font-size="3.2" font-weight="600" fill="#2D2D2D" letter-spacing="0.8">SKILLS</text>
  <rect x="26" y="208" width="24" height="1.5" fill="#8AA59B" opacity="0.75"/>
  <text x="26" y="220" font-family="Arial,sans-serif" font-size="2.6" fill="#4F4F4F">Brand Strategy</text>
  <text x="26" y="228" font-family="Arial,sans-serif" font-size="2.6" fill="#4F4F4F">Editorial Design</text>
  <rect x="122" y="112" width="160" height="268" rx="0" fill="none"/>
  <text x="122" y="132" font-family="Georgia,serif" font-size="7" font-weight="600" fill="#2D2D2D">Experience</text>
  <rect x="122" y="136" width="28" height="2" fill="#8AA59B" opacity="0.7"/>
  <circle cx="128" cy="154" r="3" fill="#8AA59B"/>
  <line x1="128" y1="160" x2="128" y2="210" stroke="#DADDD8" stroke-width="0.8"/>
  <rect x="136" y="146" width="140" height="44" rx="8" fill="#FFFFFF" stroke="#DADDD8" stroke-width="0.3"/>
  <text x="142" y="158" font-family="Arial,sans-serif" font-size="3.2" font-weight="600" fill="#2D2D2D">Studio Lead</text>
  <text x="248" y="158" font-family="Arial,sans-serif" font-size="2.5" fill="#6B6B6B">202126</text>
  <text x="142" y="168" font-family="Arial,sans-serif" font-size="2.8" fill="#6B6B6B">Nordic Design Co.</text>
  <circle cx="128" cy="222" r="3" fill="#8AA59B"/>
  <rect x="136" y="214" width="140" height="36" rx="8" fill="#FFFFFF" stroke="#DADDD8" stroke-width="0.3"/>
  <text x="150" y="388" text-anchor="middle" font-family="Georgia,serif" font-size="8" font-weight="600" fill="#8AA59B" letter-spacing="1.5">LUMEN STUDIO</text>
</svg>
