<svg width="400" height="500" viewBox="0 0 400 500" fill="none" xmlns="http://www.w3.org/2000/svg">
  <!-- White Background -->
  <rect width="400" height="500" fill="white"/>
  
  <!-- Left Sidebar (35%) - Light Gray -->
  <rect x="0" y="0" width="140" height="500" fill="#F9FAFB"/>
  
  <!-- Profile Circle -->
  <circle cx="70" cy="60" r="30" fill="#E5E7EB"/>
  
  <!-- Name/Title Lines -->
  <rect x="20" y="110" width="100" height="12" rx="2" fill="#D1D5DB"/>
  <rect x="30" y="130" width="80" height="8" rx="2" fill="#E5E7EB"/>
  
  <!-- Contact Section -->
  <rect x="20" y="160" width="60" height="10" rx="2" fill="#9CA3AF"/>
  <rect x="20" y="180" width="100" height="6" rx="1" fill="#E5E7EB"/>
  <rect x="20" y="195" width="100" height="6" rx="1" fill="#E5E7EB"/>
  <rect x="20" y="210" width="100" height="6" rx="1" fill="#E5E7EB"/>
  
  <!-- About Me Section -->
  <rect x="20" y="240" width="50" height="10" rx="2" fill="#9CA3AF"/>
  <rect x="20" y="260" width="100" height="4" rx="1" fill="#E5E7EB"/>
  <rect x="20" y="270" width="100" height="4" rx="1" fill="#E5E7EB"/>
  <rect x="20" y="280" width="80" height="4" rx="1" fill="#E5E7EB"/>
  
  <!-- Skills Section -->
  <rect x="20" y="310" width="40" height="10" rx="2" fill="#9CA3AF"/>
  <rect x="20" y="330" width="90" height="4" rx="1" fill="#E5E7EB"/>
  <rect x="20" y="340" width="90" height="4" rx="1" fill="#E5E7EB"/>
  <rect x="20" y="350" width="90" height="4" rx="1" fill="#E5E7EB"/>
  
  <!-- Right Content Area (65%) -->
  <!-- Education Section -->
  <rect x="160" y="30" width="80" height="14" rx="2" fill="#9CA3AF"/>
  <rect x="160" y="60" width="200" height="6" rx="1" fill="#E5E7EB"/>
  <rect x="160" y="72" width="160" height="5" rx="1" fill="#D1D5DB"/>
  <rect x="160" y="83" width="120" height="4" rx="1" fill="#E5E7EB"/>
  <rect x="160" y="92" width="200" height="3" rx="1" fill="#E5E7EB"/>
  <rect x="160" y="100" width="200" height="3" rx="1" fill="#E5E7EB"/>
  <rect x="160" y="108" width="150" height="3" rx="1" fill="#E5E7EB"/>
  
  <!-- Experience Section -->
  <rect x="160" y="140" width="90" height="14" rx="2" fill="#9CA3AF"/>
  <rect x="160" y="170" width="200" height="6" rx="1" fill="#E5E7EB"/>
  <rect x="160" y="182" width="160" height="5" rx="1" fill="#D1D5DB"/>
  <rect x="160" y="193" width="120" height="4" rx="1" fill="#E5E7EB"/>
  <rect x="160" y="202" width="200" height="3" rx="1" fill="#E5E7EB"/>
  <rect x="160" y="210" width="200" height="3" rx="1" fill="#E5E7EB"/>
  <rect x="160" y="218" width="150" height="3" rx="1" fill="#E5E7EB"/>
  
  <rect x="160" y="240" width="200" height="6" rx="1" fill="#E5E7EB"/>
  <rect x="160" y="252" width="160" height="5" rx="1" fill="#D1D5DB"/>
  <rect x="160" y="263" width="120" height="4" rx="1" fill="#E5E7EB"/>
  <rect x="160" y="272" width="200" height="3" rx="1" fill="#E5E7EB"/>
  <rect x="160" y="280" width="200" height="3" rx="1" fill="#E5E7EB"/>
  
  <!-- References Section -->
  <rect x="160" y="310" width="90" height="14" rx="2" fill="#9CA3AF"/>
  <rect x="160" y="340" width="100" height="5" rx="1" fill="#E5E7EB"/>
  <rect x="160" y="350" width="80" height="4" rx="1" fill="#D1D5DB"/>
  <rect x="160" y="360" width="100" height="3" rx="1" fill="#E5E7EB"/>
  <rect x="160" y="368" width="100" height="3" rx="1" fill="#E5E7EB"/>
  
  <rect x="270" y="340" width="100" height="5" rx="1" fill="#E5E7EB"/>
  <rect x="270" y="350" width="80" height="4" rx="1" fill="#D1D5DB"/>
  <rect x="270" y="360" width="100" height="3" rx="1" fill="#E5E7EB"/>
  <rect x="270" y="368" width="100" height="3" rx="1" fill="#E5E7EB"/>
  
  <!-- Border -->
  <rect x="0" y="0" width="400" height="500" stroke="#E5E7EB" stroke-width="1" fill="none"/>
</svg>

