<svg xmlns="http://www.w3.org/2000/svg" width="400" height="520" viewBox="0 0 400 520">
  <defs>
    <linearGradient id="bg" x1="0" y1="0" x2="1" y2="1">
      <stop offset="0%" stop-color="#fafaf9"/>
      <stop offset="100%" stop-color="#f0fdfa"/>
    </linearGradient>
    <linearGradient id="teal" x1="0" y1="0" x2="1" y2="0">
      <stop offset="0%" stop-color="#0f766e"/>
      <stop offset="100%" stop-color="#5eead4"/>
    </linearGradient>
  </defs>
  <rect width="400" height="520" fill="url(#bg)"/>

  <!-- Sidebar -->
  <rect x="20" y="24" width="108" height="472" rx="12" fill="#fff" stroke="rgba(15,118,110,0.12)"/>
  <rect x="20" y="24" width="4" height="472" rx="2" fill="url(#teal)"/>
  <text x="34" y="52" font-family="Georgia,serif" font-size="11" font-style="italic" fill="#1e293b">Languages</text>
  <line x1="34" y1="58" x2="114" y2="58" stroke="rgba(15,118,110,0.15)"/>
  <rect x="34" y="68" width="80" height="5" rx="2.5" fill="rgba(15,118,110,0.1)"/>
  <rect x="34" y="68" width="68" height="5" rx="2.5" fill="url(#teal)" opacity="0.75"/>
  <text x="34" y="108" font-family="Georgia,serif" font-size="11" font-style="italic" fill="#1e293b">Core Skills</text>
  <line x1="34" y1="114" x2="114" y2="114" stroke="rgba(15,118,110,0.15)"/>
  <rect x="34" y="124" width="80" height="5" rx="2.5" fill="rgba(15,118,110,0.1)"/>
  <rect x="34" y="124" width="72" height="5" rx="2.5" fill="url(#teal)" opacity="0.7"/>
  <rect x="34" y="142" width="80" height="5" rx="2.5" fill="rgba(15,118,110,0.1)"/>
  <rect x="34" y="142" width="64" height="5" rx="2.5" fill="url(#teal)" opacity="0.65"/>

  <!-- Header card -->
  <rect x="144" y="24" width="236" height="88" rx="12" fill="#fff" stroke="rgba(15,118,110,0.12)"/>
  <rect x="144" y="24" width="4" height="88" rx="2" fill="url(#teal)"/>
  <circle cx="178" cy="68" r="26" fill="url(#teal)" opacity="0.9"/>
  <text x="216" y="58" font-family="Georgia,serif" font-size="18" fill="#1e293b">Brian Baxter</text>
  <text x="216" y="76" font-family="Arial,sans-serif" font-size="7" fill="#0f766e" letter-spacing="2">GRAPHIC &amp; WEB DESIGNER</text>
  <text x="216" y="92" font-family="Arial,sans-serif" font-size="6" fill="#64748b">email · phone · location</text>

  <!-- About -->
  <text x="144" y="136" font-family="Georgia,serif" font-size="12" font-style="italic" fill="#1e293b">About</text>
  <line x1="180" y1="132" x2="380" y2="132" stroke="rgba(15,118,110,0.12)"/>
  <rect x="144" y="144" width="236" height="40" rx="8" fill="#fafaf9" stroke="rgba(15,118,110,0.1)"/>

  <!-- Experience -->
  <text x="144" y="204" font-family="Georgia,serif" font-size="12" font-style="italic" fill="#1e293b">Experience</text>
  <line x1="210" y1="200" x2="380" y2="200" stroke="rgba(15,118,110,0.12)"/>
  <line x1="154" y1="218" x2="154" y2="310" stroke="#0f766e" stroke-width="1.5" opacity="0.25"/>
  <circle cx="154" cy="228" r="6" fill="#5eead4" stroke="#fff" stroke-width="2"/>
  <rect x="168" y="216" width="212" height="44" rx="8" fill="#fff" stroke="rgba(15,118,110,0.1)"/>
  <circle cx="154" cy="278" r="6" fill="#5eead4" stroke="#fff" stroke-width="2" opacity="0.7"/>
  <rect x="168" y="266" width="212" height="44" rx="8" fill="#fff" stroke="rgba(15,118,110,0.1)"/>

  <!-- Projects -->
  <text x="144" y="332" font-family="Georgia,serif" font-size="12" font-style="italic" fill="#1e293b">Projects</text>
  <rect x="144" y="340" width="112" height="56" rx="8" fill="#fff" stroke="rgba(15,118,110,0.1)"/>
  <rect x="144" y="340" width="112" height="4" rx="2" fill="url(#teal)"/>
  <rect x="268" y="340" width="112" height="56" rx="8" fill="#fff" stroke="rgba(15,118,110,0.1)"/>
  <rect x="268" y="340" width="112" height="4" rx="2" fill="url(#teal)"/>

  <!-- Education -->
  <text x="144" y="416" font-family="Georgia,serif" font-size="12" font-style="italic" fill="#1e293b">Education</text>
  <rect x="144" y="424" width="236" height="36" rx="8" fill="#fff" stroke="rgba(15,118,110,0.1)"/>
  <line x1="144" y1="456" x2="380" y2="456" stroke="#0f766e" stroke-width="2" opacity="0.5"/>
</svg>
