<svg width="800" height="1000" xmlns="http://www.w3.org/2000/svg">
  <defs>
    <linearGradient id="tealGradPreview" x1="0%" y1="0%" x2="100%" y2="100%">
      <stop offset="0%" style="stop-color:#14B8A6;stop-opacity:0.12" />
      <stop offset="100%" style="stop-color:#0D9488;stop-opacity:0.06" />
    </linearGradient>
  </defs>
  <rect width="800" height="1000" fill="url(#tealGradPreview)" stroke="#14B8A6" stroke-width="4"/>
  <rect x="40" y="40" width="720" height="920" fill="white" opacity="0.4" rx="12"/>
  <!-- Left sidebar -->
  <rect x="60" y="60" width="220" height="900" fill="#FFFFFF" opacity="0.6" rx="6"/>
  <!-- Main content -->
  <rect x="300" y="60" width="440" height="900" fill="#FFFFFF" opacity="0.5" rx="6"/>
  <!-- Profile circle -->
  <circle cx="170" cy="150" r="50" fill="#14B8A6" opacity="0.7"/>
  <!-- Header text -->
  <rect x="320" y="120" width="400" height="80" fill="#FFFFFF" opacity="0.8" rx="4"/>
  <!-- Content sections -->
  <rect x="320" y="230" width="400" height="40" fill="#E5E7EB" rx="2"/>
  <rect x="320" y="290" width="400" height="40" fill="#E5E7EB" rx="2"/>
  <rect x="320" y="350" width="400" height="40" fill="#E5E7EB" rx="2"/>
  <!-- Sidebar sections -->
  <rect x="80" y="250" width="180" height="25" fill="#14B8A6" opacity="0.7" rx="2"/>
  <rect x="80" y="300" width="180" height="25" fill="#14B8A6" opacity="0.7" rx="2"/>
  <rect x="80" y="350" width="180" height="25" fill="#14B8A6" opacity="0.7" rx="2"/>
  <rect x="80" y="400" width="180" height="25" fill="#14B8A6" opacity="0.7" rx="2"/>
  <text x="400" y="950" text-anchor="middle" font-family="Arial, sans-serif" font-size="24" font-weight="bold" fill="#14B8A6">
    Teal Modern Resume Template
  </text>
  <text x="400" y="980" text-anchor="middle" font-family="Arial, sans-serif" font-size="16" fill="#666">
    Two Column Layout with Full Section Support
  </text>
</svg>

