<svg xmlns="http://www.w3.org/2000/svg" width="240" height="160" viewBox="0 0 240 160">
  <defs>
    <linearGradient id="bg" x1="0" y1="0" x2="1" y2="1">
      <stop offset="0%" stop-color="#fafaf9"/>
      <stop offset="100%" stop-color="#f0fdfa"/>
    </linearGradient>
    <linearGradient id="teal" x1="0" y1="0" x2="1" y2="0">
      <stop offset="0%" stop-color="#0f766e"/>
      <stop offset="100%" stop-color="#5eead4"/>
    </linearGradient>
  </defs>
  <rect width="240" height="160" rx="10" fill="url(#bg)"/>
  <!-- Sidebar panels -->
  <rect x="14" y="16" width="68" height="128" rx="8" fill="#fff" stroke="rgba(15,118,110,0.12)"/>
  <rect x="14" y="16" width="3" height="128" rx="1" fill="url(#teal)"/>
  <rect x="22" y="28" width="52" height="36" rx="6" fill="#fff" stroke="rgba(15,118,110,0.1)"/>
  <rect x="26" y="52" width="44" height="4" rx="2" fill="url(#teal)" opacity="0.7"/>
  <rect x="26" y="60" width="36" height="4" rx="2" fill="rgba(15,118,110,0.15)"/>
  <rect x="22" y="72" width="52" height="48" rx="6" fill="#fff" stroke="rgba(15,118,110,0.1)"/>
  <rect x="26" y="96" width="44" height="4" rx="2" fill="url(#teal)" opacity="0.6"/>
  <rect x="26" y="104" width="40" height="4" rx="2" fill="rgba(15,118,110,0.12)"/>
  <!-- Main -->
  <rect x="92" y="16" width="134" height="44" rx="8" fill="#fff" stroke="rgba(15,118,110,0.12)"/>
  <rect x="92" y="16" width="4" height="44" rx="2" fill="url(#teal)"/>
  <circle cx="112" cy="38" r="14" fill="url(#teal)" opacity="0.85"/>
  <text x="134" y="34" font-family="Georgia,serif" font-size="9" font-weight="600" fill="#1e293b">Brian Baxter</text>
  <text x="134" y="46" font-family="Arial,sans-serif" font-size="5" fill="#0f766e" letter-spacing="1">DESIGNER</text>
  <!-- Timeline cards -->
  <rect x="92" y="68" width="134" height="22" rx="5" fill="#fff" stroke="rgba(15,118,110,0.1)"/>
  <circle cx="100" cy="79" r="3" fill="#5eead4"/>
  <rect x="92" y="96" width="134" height="22" rx="5" fill="#fff" stroke="rgba(15,118,110,0.1)"/>
  <circle cx="100" cy="107" r="3" fill="#5eead4" opacity="0.7"/>
  <!-- Project cards -->
  <rect x="92" y="124" width="62" height="20" rx="4" fill="#fff" stroke="rgba(15,118,110,0.1)"/>
  <rect x="92" y="124" width="62" height="3" rx="1" fill="url(#teal)"/>
  <rect x="164" y="124" width="62" height="20" rx="4" fill="#fff" stroke="rgba(15,118,110,0.1)"/>
  <rect x="164" y="124" width="62" height="3" rx="1" fill="url(#teal)"/>
</svg>
