<svg width="300" height="400" xmlns="http://www.w3.org/2000/svg">
  <defs>
    <linearGradient id="tealGrad" x1="0%" y1="0%" x2="100%" y2="100%">
      <stop offset="0%" style="stop-color:#14B8A6;stop-opacity:0.15" />
      <stop offset="100%" style="stop-color:#0D9488;stop-opacity:0.08" />
    </linearGradient>
  </defs>
  <rect width="300" height="400" fill="url(#tealGrad)" stroke="#14B8A6" stroke-width="3"/>
  <rect x="20" y="20" width="260" height="360" fill="white" opacity="0.3" rx="8"/>
  <!-- Left sidebar indicator -->
  <rect x="30" y="30" width="80" height="340" fill="#FFFFFF" opacity="0.5" rx="4"/>
  <!-- Main content area -->
  <rect x="120" y="30" width="150" height="360" fill="#FFFFFF" opacity="0.4" rx="4"/>
  <!-- Profile circle -->
  <circle cx="70" cy="80" r="35" fill="#14B8A6" opacity="0.6"/>
  <!-- Header text area -->
  <rect x="130" y="50" width="130" height="60" fill="#FFFFFF" opacity="0.7" rx="4"/>
  <!-- Section indicators -->
  <rect x="130" y="130" width="140" height="25" fill="#E5E7EB" rx="2"/>
  <rect x="130" y="170" width="140" height="25" fill="#E5E7EB" rx="2"/>
  <rect x="130" y="210" width="140" height="25" fill="#E5E7EB" rx="2"/>
  <!-- Sidebar sections -->
  <rect x="35" y="140" width="70" height="15" fill="#14B8A6" opacity="0.7" rx="2"/>
  <rect x="35" y="170" width="70" height="15" fill="#14B8A6" opacity="0.7" rx="2"/>
  <rect x="35" y="200" width="70" height="15" fill="#14B8A6" opacity="0.7" rx="2"/>
  <text x="50%" y="350" text-anchor="middle" font-family="Arial, sans-serif" font-size="14" font-weight="bold" fill="#14B8A6">
    Teal Modern
  </text>
  <text x="50%" y="370" text-anchor="middle" font-family="Arial, sans-serif" font-size="11" fill="#666">
    Resume Template
  </text>
</svg>

