<svg xmlns="http://www.w3.org/2000/svg" width="300" height="400" viewBox="0 0 300 400">
  <rect width="300" height="400" fill="#F8F5EE"/>
  <rect x="14" y="16" width="272" height="88" rx="10" fill="#C5B6A7"/>
  <rect x="118" y="16" width="168" height="88" rx="0" fill="#9B7E87"/>
  <rect x="118" y="16" width="168" height="88" rx="10" fill="#9B7E87" clip-path="inset(0 0 0 0 round 0 10 10 0)"/>
  <rect x="168" y="28" width="52" height="64" rx="6" fill="#B8A99A"/>
  <path d="M30 78 Q30 50 50 50 Q70 50 70 78" fill="none" stroke="#FFF8F4" stroke-width="1" opacity="0.6"/>
  <path d="M38 78 Q38 56 50 56 Q62 56 62 78" fill="none" stroke="#FFF8F4" stroke-width="1" opacity="0.5"/>
  <text x="128" y="42" font-family="Georgia,serif" font-size="9" font-weight="700" fill="#FFF8F4" letter-spacing="0.6">ALEXANDER</text>
  <text x="128" y="54" font-family="Georgia,serif" font-size="9" font-weight="700" fill="#FFF8F4" letter-spacing="0.6">REED</text>
  <text x="128" y="66" font-family="Arial,sans-serif" font-size="3.2" fill="#F9EDE8" letter-spacing="0.3">CREATIVE DIRECTOR</text>
  <text x="128" y="76" font-family="Arial,sans-serif" font-size="2.8" fill="#F9EDE8">+1 555 0123</text>
  <text x="190" y="76" font-family="Arial,sans-serif" font-size="2.8" fill="#F9EDE8">email@mail.com</text>
  <text x="22" y="124" font-family="Arial,sans-serif" font-size="4.5" font-weight="700" fill="#1D1D1D" letter-spacing="0.5">PROFESSIONAL SUMMARY</text>
  <line x1="22" y1="128" x2="178" y2="128" stroke="#E8D7D0"/>
  <rect x="22" y="134" width="156" height="2" rx="1" fill="#DCC7C0" opacity="0.6"/>
  <rect x="22" y="140" width="148" height="2" rx="1" fill="#DCC7C0" opacity="0.45"/>
  <text x="22" y="158" font-family="Arial,sans-serif" font-size="4.5" font-weight="700" fill="#1D1D1D" letter-spacing="0.5">EXPERIENCE</text>
  <line x1="22" y1="162" x2="178" y2="162" stroke="#E8D7D0"/>
  <text x="22" y="174" font-family="Arial,sans-serif" font-size="3.8" font-weight="700" fill="#1D1D1D">Creative Director</text>
  <text x="130" y="174" font-family="Arial,sans-serif" font-size="3.2" fill="#5C5C5C">2020-24</text>
  <text x="22" y="182" font-family="Arial,sans-serif" font-size="3.2" fill="#5C5C5C">Maison Luxe | NYC</text>
  <rect x="192" y="112" width="94" height="272" rx="12" fill="#F3D9D2"/>
  <path d="M250 120 Q250 160 220 160 Q190 160 190 120" fill="none" stroke="#9B7E87" stroke-width="1" opacity="0.12"/>
  <text x="202" y="128" font-family="Arial,sans-serif" font-size="4" font-weight="700" fill="#1D1D1D" letter-spacing="0.4">SKILLS</text>
  <line x1="202" y1="140" x2="276" y2="140" stroke="#DCC7C0"/>
  <text x="202" y="150" font-family="Arial,sans-serif" font-size="3" font-weight="600" fill="#1D1D1D" letter-spacing="0.3">CREATIVE DIRECTION</text>
  <line x1="202" y1="154" x2="276" y2="154" stroke="#DCC7C0"/>
  <text x="202" y="164" font-family="Arial,sans-serif" font-size="3" font-weight="600" fill="#1D1D1D" letter-spacing="0.3">BRANDING</text>
  <line x1="202" y1="168" x2="276" y2="168" stroke="#DCC7C0"/>
  <text x="202" y="178" font-family="Arial,sans-serif" font-size="3" font-weight="600" fill="#1D1D1D" letter-spacing="0.3">FASHION STYLING</text>
  <text x="202" y="198" font-family="Arial,sans-serif" font-size="4" font-weight="700" fill="#1D1D1D" letter-spacing="0.4">EDUCATION</text>
  <text x="202" y="210" font-family="Arial,sans-serif" font-size="3.2" font-weight="700" fill="#1D1D1D">M.F.A. Design</text>
  <text x="150" y="388" text-anchor="middle" font-family="Georgia,serif" font-size="8" font-weight="600" fill="#9B7E87">Editorial Mauve Executive</text>
</svg>
