<svg xmlns="http://www.w3.org/2000/svg" width="800" height="1000" viewBox="0 0 800 1000">
  <defs>
    <linearGradient id="pe-div-lg" x1="0" y1="0" x2="0" y2="1">
      <stop offset="0%" stop-color="#C07C63" stop-opacity="0.55"/>
      <stop offset="50%" stop-color="#AEB8A6" stop-opacity="0.65"/>
      <stop offset="100%" stop-color="#D8D7D3" stop-opacity="0.75"/>
    </linearGradient>
  </defs>
  <rect width="800" height="1000" fill="#FCFBF9"/>
  <rect x="36" y="36" width="140" height="140" rx="16" fill="#EFE8DD" stroke="#E8E3DD" stroke-width="0.8"/>
  <text x="200" y="72" font-family="Arial,sans-serif" font-size="7" fill="#666666" letter-spacing="2.2">PRISM EDITION</text>
  <text x="200" y="118" font-family="Georgia,serif" font-size="28" font-weight="700" fill="#252525">Canela Name</text>
  <text x="200" y="148" font-family="Arial,sans-serif" font-size="7" fill="#666666">Senior Product Designer</text>
  <line x1="200" y1="162" x2="480" y2="162" stroke="#E8E3DD" stroke-width="0.8"/>
  <text x="200" y="182" font-family="Arial,sans-serif" font-size="5.5" fill="#252525">+1 555 0123</text>
  <text x="320" y="182" font-family="Arial,sans-serif" font-size="5.5" fill="#252525">email@example.com</text>
  <text x="500" y="182" font-family="Arial,sans-serif" font-size="5.5" fill="#252525">portfolio.com</text>
  <line x1="720" y1="36" x2="720" y2="72" stroke="#D8D7D3" stroke-width="1"/>
  <line x1="684" y1="36" x2="720" y2="36" stroke="#D8D7D3" stroke-width="1"/>
  <text x="36" y="220" font-family="Arial,sans-serif" font-size="7" font-weight="600" fill="#252525" letter-spacing="1.4">PROFESSIONAL SUMMARY</text>
  <rect x="36" y="232" width="488" height="100" rx="18" fill="#EFE8DD" stroke="#E8E3DD" stroke-width="0.8"/>
  <text x="52" y="268" font-family="Arial,sans-serif" font-size="6" fill="#666666">Visionary designer crafting premium editorial experiences...</text>
  <text x="36" y="360" font-family="Arial,sans-serif" font-size="7" font-weight="600" fill="#252525" letter-spacing="1.4">EXPERIENCE</text>
  <text x="36" y="392" font-family="Arial,sans-serif" font-size="5" fill="#666666">Jun 2023</text>
  <line x1="120" y1="388" x2="120" y2="480" stroke="#D8D7D3" stroke-width="1"/>
  <circle cx="120" cy="384" r="5" fill="#FCFBF9" stroke="#C07C63" stroke-width="1.2"/>
  <text x="140" y="392" font-family="Arial,sans-serif" font-size="6" font-weight="700" fill="#252525">Studio North</text>
  <text x="140" y="408" font-family="Arial,sans-serif" font-size="5.5" fill="#252525">LEAD PRODUCT DESIGNER</text>
  <rect x="36" y="500" width="18" height="120" rx="10" fill="#AEB8A6" opacity="0.72"/>
  <text x="68" y="532" font-family="Arial,sans-serif" font-size="7" font-weight="600" fill="#252525" letter-spacing="1.4">PROJECTS</text>
  <line x1="544" y1="220" x2="544" y2="680" stroke="url(#pe-div-lg)" stroke-width="1"/>
  <text x="560" y="248" font-family="Arial,sans-serif" font-size="7" font-weight="600" fill="#252525" letter-spacing="1.4">SKILLS</text>
  <rect x="560" y="264" width="200" height="6" rx="3" fill="#E8E3DD"/>
  <rect x="560" y="264" width="168" height="6" rx="3" fill="#252525"/>
  <rect x="560" y="282" width="200" height="6" rx="3" fill="#E8E3DD"/>
  <rect x="560" y="282" width="176" height="6" rx="3" fill="#252525"/>
  <text x="560" y="330" font-family="Arial,sans-serif" font-size="7" font-weight="600" fill="#252525" letter-spacing="1.4">EDUCATION</text>
  <text x="560" y="420" font-family="Arial,sans-serif" font-size="7" font-weight="600" fill="#252525" letter-spacing="1.4">LANGUAGES</text>
  <rect x="560" y="480" width="204" height="80" rx="16" fill="#EFE8DD" stroke="#E8E3DD" stroke-width="0.8"/>
  <text x="560" y="468" font-family="Arial,sans-serif" font-size="7" font-weight="600" fill="#252525" letter-spacing="1.4">ACHIEVEMENTS</text>
  <rect x="36" y="920" width="14" height="56" rx="7" fill="#AEB8A6" opacity="0.55"/>
  <text x="400" y="972" text-anchor="middle" font-family="Georgia,serif" font-size="18" font-weight="600" fill="#C07C63" letter-spacing="3">PRISM EDITION</text>
</svg>
