<svg xmlns="http://www.w3.org/2000/svg" width="300" height="400" viewBox="0 0 300 400">
  <rect width="300" height="400" fill="#FCFBF9"/>
  <rect x="14" y="14" width="56" height="56" rx="8" fill="#EFE8DD" stroke="#E8E3DD" stroke-width="0.4"/>
  <text x="82" y="28" font-family="Arial,sans-serif" font-size="2" fill="#666666" letter-spacing="0.5">PRISM EDITION</text>
  <text x="82" y="44" font-family="Georgia,serif" font-size="11" font-weight="700" fill="#252525">Canela Name</text>
  <text x="82" y="54" font-family="Arial,sans-serif" font-size="2.6" fill="#666666">Senior Product Designer</text>
  <line x1="82" y1="58" x2="180" y2="58" stroke="#E8E3DD" stroke-width="0.4"/>
  <text x="82" y="66" font-family="Arial,sans-serif" font-size="2" fill="#252525">+1 555 0123</text>
  <text x="130" y="66" font-family="Arial,sans-serif" font-size="2" fill="#252525">email@example.com</text>
  <line x1="208" y1="14" x2="208" y2="34" stroke="#D8D7D3" stroke-width="0.5"/>
  <line x1="188" y1="14" x2="208" y2="14" stroke="#D8D7D3" stroke-width="0.5"/>
  <rect x="14" y="84" width="188" height="40" rx="10" fill="#EFE8DD" stroke="#E8E3DD" stroke-width="0.4"/>
  <text x="22" y="98" font-family="Arial,sans-serif" font-size="2.4" font-weight="600" fill="#252525" letter-spacing="0.4">PROFESSIONAL SUMMARY</text>
  <line x1="22" y1="108" x2="22" y2="128" stroke="#D8D7D3" stroke-width="0.4"/>
  <circle cx="22" cy="104" r="2" fill="#FCFBF9" stroke="#C07C63" stroke-width="0.6"/>
  <text x="30" y="106" font-family="Arial,sans-serif" font-size="2.2" font-weight="700" fill="#252525">Studio North</text>
  <rect x="208" y="84" width="78" height="120" fill="none"/>
  <text x="214" y="98" font-family="Arial,sans-serif" font-size="2.4" font-weight="600" fill="#252525" letter-spacing="0.4">SKILLS</text>
  <rect x="214" y="104" width="66" height="3" rx="1.5" fill="#E8E3DD"/>
  <rect x="214" y="104" width="48" height="3" rx="1.5" fill="#252525"/>
  <rect x="214" y="112" width="66" height="3" rx="1.5" fill="#E8E3DD"/>
  <rect x="214" y="112" width="52" height="3" rx="1.5" fill="#252525"/>
  <line x1="206" y1="84" x2="206" y2="220" stroke="url(#pe-div)" stroke-width="0.6"/>
  <rect x="14" y="220" width="10" height="40" rx="5" fill="#AEB8A6" opacity="0.7"/>
  <rect x="14" y="360" width="10" height="24" rx="5" fill="#AEB8A6" opacity="0.5"/>
  <defs>
    <linearGradient id="pe-div" x1="0" y1="0" x2="0" y2="1">
      <stop offset="0%" stop-color="#C07C63"/>
      <stop offset="50%" stop-color="#AEB8A6"/>
      <stop offset="100%" stop-color="#D8D7D3"/>
    </linearGradient>
  </defs>
  <text x="150" y="388" text-anchor="middle" font-family="Georgia,serif" font-size="7" font-weight="600" fill="#C07C63" letter-spacing="1.2">PRISM EDITION</text>
</svg>
