<svg xmlns="http://www.w3.org/2000/svg" width="480" height="360" viewBox="0 0 480 360">
  <defs>
    <linearGradient id="bg2" x1="0" y1="0" x2="1" y2="1">
      <stop offset="0" stop-color="#6b0f1a" />
      <stop offset="1" stop-color="#2b0b12" />
    </linearGradient>
    <linearGradient id="gold2" x1="0" y1="0" x2="1" y2="1">
      <stop offset="0" stop-color="#c9a227" />
      <stop offset="1" stop-color="#d6b55a" />
    </linearGradient>
  </defs>
  <rect x="20" y="20" width="440" height="320" rx="22" fill="url(#bg2)"/>
  <circle cx="120" cy="120" r="46" fill="rgba(255,255,255,0.10)" stroke="url(#gold2)" stroke-width="6"/>
  <rect x="190" y="86" width="250" height="18" rx="9" fill="url(#gold2)" opacity="0.95"/>
  <rect x="190" y="116" width="200" height="12" rx="6" fill="rgba(255,255,255,0.18)"/>
  <rect x="56" y="170" width="380" height="22" rx="11" fill="rgba(201,162,39,0.22)"/>
  <rect x="56" y="206" width="340" height="10" rx="5" fill="rgba(255,255,255,0.14)"/>
  <rect x="56" y="226" width="360" height="10" rx="5" fill="rgba(255,255,255,0.10)"/>
  <rect x="56" y="246" width="300" height="10" rx="5" fill="rgba(255,255,255,0.12)"/>
  <rect x="56" y="276" width="170" height="34" rx="14" fill="rgba(255,255,255,0.10)" stroke="rgba(201,162,39,0.35)"/>
  <rect x="244" y="276" width="192" height="34" rx="14" fill="rgba(255,255,255,0.08)" stroke="rgba(201,162,39,0.25)"/>
  <rect x="264" y="291" width="120" height="8" rx="4" fill="url(#gold2)" opacity="0.75"/>
</svg>

