<svg width="800" height="1050" viewBox="0 0 800 1050" xmlns="http://www.w3.org/2000/svg">
  <rect width="800" height="1050" fill="#ffffff"/>
  
  <!-- Header -->
  <rect x="0" y="0" width="800" height="120" fill="#f9fafb"/>
  <circle cx="80" cy="60" r="40" fill="#e5e7eb"/>
  <rect x="140" y="40" width="300" height="18" fill="#d1d5db"/>
  <rect x="140" y="70" width="250" height="14" fill="#d1d5db"/>
  
  <!-- Sidebar -->
  <rect x="0" y="120" width="260" height="930" fill="#fafafa"/>
  <rect x="20" y="160" width="220" height="12" fill="#e5e7eb"/>
  <rect x="20" y="190" width="200" height="10" fill="#d1d5db"/>
  <rect x="20" y="210" width="200" height="10" fill="#d1d5db"/>
  <rect x="20" y="240" width="220" height="12" fill="#e5e7eb"/>
  <rect x="20" y="270" width="210" height="10" fill="#d1d5db"/>
  <rect x="20" y="290" width="180" height="10" fill="#d1d5db"/>
  <rect x="20" y="330" width="220" height="12" fill="#e5e7eb"/>
  <rect x="20" y="360" width="200" height="10" fill="#d1d5db"/>
  
  <!-- Main Content -->
  <rect x="260" y="120" width="540" height="930" fill="#ffffff"/>
  <rect x="280" y="160" width="500" height="14" fill="#e5e7eb"/>
  <rect x="280" y="190" width="480" height="10" fill="#d1d5db"/>
  <rect x="280" y="280" width="500" height="14" fill="#e5e7eb"/>
  <rect x="280" y="310" width="420" height="10" fill="#d1d5db"/>
  <rect x="280" y="330" width="440" height="10" fill="#d1d5db"/>
  <rect x="280" y="370" width="500" height="14" fill="#e5e7eb"/>
  <rect x="280" y="400" width="380" height="10" fill="#d1d5db"/>
</svg>

