<svg xmlns="http://www.w3.org/2000/svg" width="300" height="400" viewBox="0 0 300 400">
  <rect width="300" height="400" fill="#FFFFFF"/>
  <!-- Curved sidebar -->
  <path d="M0,0 H95 C118,40 118,80 95,120 C72,160 72,200 95,240 C118,280 118,320 95,360 C80,385 85,400 100,400 H0 Z" fill="#1E1E1E"/>
  <path d="M95,0 C118,40 118,80 95,120 C72,160 72,200 95,240 C118,280 118,320 95,360 C80,385 85,400 100,400" fill="none" stroke="#F4B400" stroke-width="3"/>
  <!-- Photo -->
  <circle cx="48" cy="48" r="28" fill="#3A3A3A" stroke="#F4B400" stroke-width="2.5"/>
  <!-- Name -->
  <text x="48" y="92" text-anchor="middle" font-family="Arial, sans-serif" font-size="7" font-weight="800" fill="#FFFFFF" letter-spacing="1">MILLER BURT</text>
  <text x="48" y="104" text-anchor="middle" font-family="Arial, sans-serif" font-size="5" font-weight="600" fill="#F4B400" letter-spacing="1.5">HAIR STYLIST</text>
  <!-- Contact -->
  <text x="16" y="128" font-family="Arial, sans-serif" font-size="5.5" font-weight="700" fill="#F4B400" letter-spacing="1">CONTACT</text>
  <line x1="16" y1="132" x2="78" y2="132" stroke="#FFFFFF" stroke-width="0.6" opacity="0.55"/>
  <circle cx="20" cy="144" r="2" fill="#F4B400"/>
  <rect x="28" y="142" width="48" height="3" rx="1" fill="#555"/>
  <circle cx="20" cy="156" r="2" fill="#F4B400"/>
  <rect x="28" y="154" width="44" height="3" rx="1" fill="#555"/>
  <circle cx="20" cy="168" r="2" fill="#F4B400"/>
  <rect x="28" y="166" width="46" height="3" rx="1" fill="#555"/>
  <!-- Languages -->
  <text x="16" y="196" font-family="Arial, sans-serif" font-size="5.5" font-weight="700" fill="#F4B400" letter-spacing="1">LANGUAGES</text>
  <line x1="16" y1="200" x2="78" y2="200" stroke="#FFFFFF" stroke-width="0.6" opacity="0.55"/>
  <text x="16" y="214" font-family="Arial, sans-serif" font-size="4.5" fill="#FFFFFF">English</text>
  <rect x="16" y="218" width="62" height="3" rx="1.5" fill="#3A3A3A"/>
  <rect x="16" y="218" width="52" height="3" rx="1.5" fill="#F4B400"/>
  <text x="16" y="234" font-family="Arial, sans-serif" font-size="4.5" fill="#FFFFFF">Spanish</text>
  <rect x="16" y="238" width="62" height="3" rx="1.5" fill="#3A3A3A"/>
  <rect x="16" y="238" width="40" height="3" rx="1.5" fill="#F4B400"/>
  <!-- Hobbies -->
  <text x="16" y="268" font-family="Arial, sans-serif" font-size="5.5" font-weight="700" fill="#F4B400" letter-spacing="1">HOBBIES</text>
  <line x1="16" y1="272" x2="78" y2="272" stroke="#FFFFFF" stroke-width="0.6" opacity="0.55"/>
  <text x="16" y="286" font-family="Arial, sans-serif" font-size="4.5" fill="#FFFFFF">Travel</text>
  <text x="52" y="286" font-family="Arial, sans-serif" font-size="4.5" fill="#FFFFFF">Music</text>
  <text x="16" y="298" font-family="Arial, sans-serif" font-size="4.5" fill="#FFFFFF">Fitness</text>
  <text x="52" y="298" font-family="Arial, sans-serif" font-size="4.5" fill="#FFFFFF">Art</text>
  <!-- Main -->
  <text x="130" y="36" font-family="Arial, sans-serif" font-size="7" font-weight="700" fill="#222222" letter-spacing="1.5">ABOUT ME</text>
  <line x1="188" y1="33" x2="268" y2="33" stroke="#222222" stroke-width="1"/>
  <circle cx="278" cy="33" r="6" fill="#F4B400"/>
  <rect x="130" y="48" width="150" height="3" rx="1" fill="#D7D7D7"/>
  <rect x="130" y="56" width="140" height="3" rx="1" fill="#D7D7D7"/>
  <rect x="130" y="64" width="130" height="3" rx="1" fill="#D7D7D7"/>
  <text x="130" y="92" font-family="Arial, sans-serif" font-size="7" font-weight="700" fill="#222222" letter-spacing="1.5">EXPERIENCE</text>
  <line x1="200" y1="89" x2="268" y2="89" stroke="#222222" stroke-width="1"/>
  <circle cx="278" cy="89" r="6" fill="#F4B400"/>
  <text x="130" y="112" font-family="Arial, sans-serif" font-size="6" font-weight="700" fill="#222222">SENIOR STYLIST</text>
  <text x="250" y="112" text-anchor="end" font-family="Arial, sans-serif" font-size="5" fill="#222222">2019-Present</text>
  <text x="130" y="124" font-family="Arial, sans-serif" font-size="5" fill="#666666">Luxe Salon Group</text>
  <circle cx="134" cy="138" r="2" fill="#F4B400"/>
  <rect x="142" y="136" width="120" height="2.5" rx="1" fill="#D7D7D7"/>
  <circle cx="134" cy="150" r="2" fill="#F4B400"/>
  <rect x="142" y="148" width="110" height="2.5" rx="1" fill="#D7D7D7"/>
  <text x="130" y="180" font-family="Arial, sans-serif" font-size="7" font-weight="700" fill="#222222" letter-spacing="1.5">EDUCATION</text>
  <line x1="196" y1="177" x2="268" y2="177" stroke="#222222" stroke-width="1"/>
  <circle cx="278" cy="177" r="6" fill="#F4B400"/>
  <text x="130" y="198" font-family="Arial, sans-serif" font-size="6" font-weight="700" fill="#222222">COSMETOLOGY DIPLOMA</text>
  <text x="130" y="210" font-family="Arial, sans-serif" font-size="5" fill="#666666">Academy of Beauty Arts</text>
  <text x="130" y="240" font-family="Arial, sans-serif" font-size="7" font-weight="700" fill="#222222" letter-spacing="1.5">SKILLS</text>
  <line x1="170" y1="237" x2="268" y2="237" stroke="#222222" stroke-width="1"/>
  <circle cx="278" cy="237" r="6" fill="#F4B400"/>
  <text x="130" y="258" font-family="Arial, sans-serif" font-size="5" fill="#222222">Coloring</text>
  <rect x="130" y="262" width="70" height="3" rx="1.5" fill="#E9E9E9"/>
  <rect x="130" y="262" width="60" height="3" rx="1.5" fill="#F4B400"/>
  <text x="215" y="258" font-family="Arial, sans-serif" font-size="5" fill="#222222">Styling</text>
  <rect x="215" y="262" width="65" height="3" rx="1.5" fill="#E9E9E9"/>
  <rect x="215" y="262" width="50" height="3" rx="1.5" fill="#F4B400"/>
  <text x="130" y="282" font-family="Arial, sans-serif" font-size="5" fill="#222222">Cuts</text>
  <rect x="130" y="286" width="70" height="3" rx="1.5" fill="#E9E9E9"/>
  <rect x="130" y="286" width="55" height="3" rx="1.5" fill="#F4B400"/>
  <text x="215" y="282" font-family="Arial, sans-serif" font-size="5" fill="#222222">Client Care</text>
  <rect x="215" y="286" width="65" height="3" rx="1.5" fill="#E9E9E9"/>
  <rect x="215" y="286" width="48" height="3" rx="1.5" fill="#F4B400"/>
  <text x="150" y="382" text-anchor="middle" font-family="Arial, sans-serif" font-size="6" fill="#666666">Executive Black Gold</text>
</svg>
