<svg xmlns="http://www.w3.org/2000/svg" width="400" height="520" viewBox="0 0 400 520">
  <defs>
    <linearGradient id="frame" x1="0" y1="0" x2="0" y2="1">
      <stop offset="0%" stop-color="#146b62"/>
      <stop offset="100%" stop-color="#1a3342"/>
    </linearGradient>
    <linearGradient id="gold" x1="0" y1="0" x2="1" y2="1">
      <stop offset="0%" stop-color="#e8d9a8"/>
      <stop offset="100%" stop-color="#9a7b3c"/>
    </linearGradient>
    <pattern id="arch" width="40" height="40" patternUnits="userSpaceOnUse">
      <path d="M0 20 H40 M20 0 V40" fill="none" stroke="#146b62" stroke-width="0.4" opacity="0.12"/>
    </pattern>
  </defs>
  <rect width="400" height="520" fill="#f5f3ec"/>
  <rect width="400" height="520" fill="url(#arch)" opacity="0.5"/>
  <rect x="0" y="0" width="52" height="520" fill="url(#frame)"/>
  <line x1="18" y1="0" x2="18" y2="520" stroke="url(#gold)" stroke-width="1" opacity="0.45"/>
  <path d="M26,56 L34,64 L26,72 L18,64 Z" fill="none" stroke="url(#gold)" stroke-width="1.2"/>
  <path d="M26,120 L34,128 L26,136 L18,128 Z" fill="none" stroke="url(#gold)" stroke-width="1.2"/>
  <path d="M52,0 L400,0 L400,68 Q280,88 200,72 Q100,56 52,74 Z" fill="#146b62" opacity="0.92"/>
  <path d="M580,0 L742,0 L742,52" fill="url(#gold)" opacity="0.35" transform="translate(-342,0)"/>
  <circle cx="96" cy="78" r="36" fill="none" stroke="url(#gold)" stroke-width="1" stroke-dasharray="5 3"/>
  <circle cx="96" cy="78" r="28" fill="#1a3342" stroke="url(#gold)" stroke-width="3"/>
  <text x="148" y="72" font-family="Georgia,serif" font-size="22" font-weight="700" fill="#1a3342" letter-spacing="1.5">ELIZA REED</text>
  <text x="148" y="96" font-family="Arial,sans-serif" font-size="8" fill="rgba(255,255,255,0.9)" letter-spacing="2">SENIOR EXECUTIVE LEADER</text>
  <rect x="64" y="118" width="300" height="28" rx="0 10 0 10" fill="rgba(255,255,255,0.82)" stroke="rgba(196,168,98,0.35)"/>
  <rect x="64" y="160" width="188" height="88" rx="0 12 0 12" fill="rgba(255,255,255,0.78)" stroke="rgba(20,107,98,0.12)"/>
  <text x="80" y="184" font-family="Georgia,serif" font-size="10" fill="#1a3342" font-weight="700">EXECUTIVE PROFILE</text>
  <line x1="80" y1="220" x2="236" y2="220" stroke="#146b62" stroke-width="2" opacity="0.2"/>
  <path d="M80,248 L86,254 L80,260 L74,254 Z" fill="url(#gold)"/>
  <text x="96" y="258" font-family="Georgia,serif" font-size="10" fill="#1a3342" font-weight="700">EXPERIENCE</text>
  <line x1="276" y1="160" x2="276" y2="480" stroke="url(#gold)" stroke-width="1"/>
  <text x="292" y="184" font-family="Georgia,serif" font-size="9" fill="#1a3342" font-weight="700">SKILLS</text>
  <circle cx="308" cy="212" r="18" fill="none" stroke="#e8e4da" stroke-width="4"/>
  <circle cx="308" cy="212" r="18" fill="none" stroke="#146b62" stroke-width="4" stroke-dasharray="70 43"/>
  <rect x="332" y="206" width="52" height="6" rx="3" fill="#146b62" opacity="0.55"/>
  <polygon points="352,0 400,0 400,52" fill="url(#gold)" opacity="0.5"/>
  <text x="200" y="508" text-anchor="middle" font-family="Georgia,serif" font-size="11" fill="#146b62">Emerald Executive Luxe</text>
</svg>
