<svg xmlns="http://www.w3.org/2000/svg" width="240" height="160" viewBox="0 0 240 160">
  <defs>
    <linearGradient id="eg" x1="0" y1="0" x2="0" y2="1">
      <stop offset="0%" stop-color="#146b62"/>
      <stop offset="100%" stop-color="#1a3342"/>
    </linearGradient>
    <linearGradient id="gold" x1="0" y1="0" x2="1" y2="1">
      <stop offset="0%" stop-color="#e8d9a8"/>
      <stop offset="100%" stop-color="#c4a862"/>
    </linearGradient>
    <pattern id="grid" width="12" height="12" patternUnits="userSpaceOnUse">
      <path d="M12 0 V12 M0 6 H12" fill="none" stroke="#146b62" stroke-width="0.3" opacity="0.15"/>
    </pattern>
  </defs>
  <rect width="240" height="160" rx="10" fill="#f5f3ec"/>
  <rect x="0" y="0" width="32" height="160" fill="url(#eg)"/>
  <line x1="12" y1="0" x2="12" y2="160" stroke="url(#gold)" stroke-width="0.8" opacity="0.5"/>
  <path d="M16,36 L22,42 L16,48 L10,42 Z" fill="none" stroke="url(#gold)" stroke-width="1"/>
  <path d="M16,72 L22,78 L16,84 L10,78 Z" fill="none" stroke="url(#gold)" stroke-width="1"/>
  <path d="M32,0 L240,0 L240,40 Q150,54 120,44 Q70,34 32,50 Z" fill="#146b62" opacity="0.9"/>
  <circle cx="56" cy="54" r="22" fill="none" stroke="url(#gold)" stroke-width="1" stroke-dasharray="3 2"/>
  <circle cx="56" cy="54" r="16" fill="#1a3342" stroke="url(#gold)" stroke-width="2"/>
  <text x="92" y="48" font-family="Georgia,serif" font-size="10" font-weight="700" fill="#1a3342">ELIZA R.</text>
  <text x="92" y="60" font-family="Arial,sans-serif" font-size="5" fill="#146b62" letter-spacing="1">EXECUTIVE</text>
  <rect x="40" y="72" width="188" height="16" rx="0 6 0 6" fill="rgba(255,255,255,0.75)" stroke="rgba(196,168,98,0.3)"/>
  <rect x="36" y="96" width="120" height="52" rx="0 8 0 8" fill="rgba(255,255,255,0.7)" stroke="rgba(20,107,98,0.12)"/>
  <rect x="36" y="96" width="120" height="52" fill="url(#grid)" opacity="0.4"/>
  <line x1="164" y1="96" x2="164" y2="148" stroke="url(#gold)" stroke-width="0.8"/>
  <circle cx="188" cy="116" r="14" fill="none" stroke="#146b62" stroke-width="3.5" stroke-dasharray="55 45"/>
  <rect x="206" y="110" width="28" height="5" rx="2.5" fill="#146b62" opacity="0.55"/>
  <polygon points="216,0 240,0 240,28" fill="url(#gold)" opacity="0.55"/>
</svg>
