<svg xmlns="http://www.w3.org/2000/svg" width="300" height="400" viewBox="0 0 300 400">
  <rect width="300" height="400" fill="#FAF8F5"/>
  <rect x="0" y="0" width="300" height="72" fill="#162534"/>
  <rect x="0" y="28" width="58" height="58" fill="#FFFFFF"/>
  <rect x="4" y="32" width="50" height="50" fill="#CCCCCC"/>
  <rect x="268" y="0" width="10" height="28" fill="#C48B63"/>
  <polygon points="268,28 278,28 273,36" fill="#C48B63"/>
  <text x="68" y="28" font-family="Arial,sans-serif" font-size="8" font-weight="800" fill="#FFFFFF" letter-spacing="0.5">JONATHAN CLARK</text>
  <text x="68" y="40" font-family="Arial,sans-serif" font-size="3.2" fill="#F0F0F0" letter-spacing="0.3">SENIOR DATA STRATEGIST</text>
  <line x1="68" y1="46" x2="290" y2="46" stroke="#C48B63" stroke-width="0.6"/>
  <text x="68" y="56" font-family="Arial,sans-serif" font-size="2.8" fill="#FFFFFF">email@mail.com</text>
  <text x="168" y="56" font-family="Arial,sans-serif" font-size="2.8" fill="#FFFFFF">+1 555 0123</text>
  <text x="68" y="66" font-family="Arial,sans-serif" font-size="2.8" fill="#FFFFFF">New York, NY</text>
  <rect x="8" y="8" width="4" height="4" fill="#142331"/>
  <text x="16" y="88" font-family="Arial,sans-serif" font-size="4.5" font-weight="700" fill="#111111" letter-spacing="0.4">EXPERIENCE</text>
  <line x1="68" y1="86" x2="200" y2="86" stroke="#C48B63" stroke-width="0.5"/>
  <text x="8" y="100" font-family="Arial,sans-serif" font-size="3.8" font-weight="700" fill="#1A1A1A">Senior Data Strategist</text>
  <text x="150" y="100" font-family="Arial,sans-serif" font-size="3" fill="#555555">2020-24</text>
  <text x="8" y="108" font-family="Arial,sans-serif" font-size="3.2" fill="#555555">Enterprise Corp | NYC</text>
  <line x1="8" y1="118" x2="200" y2="118" stroke="#D8D0C8"/>
  <rect x="8" y="128" width="4" height="4" fill="#142331"/>
  <text x="16" y="138" font-family="Arial,sans-serif" font-size="4.5" font-weight="700" fill="#111111" letter-spacing="0.4">PROJECTS</text>
  <line x1="68" y1="136" x2="200" y2="136" stroke="#C48B63" stroke-width="0.5"/>
  <line x1="210" y1="80" x2="210" y2="380" stroke="#D8D0C8"/>
  <rect x="216" y="84" width="4" height="4" fill="#C48B63"/>
  <text x="224" y="90" font-family="Arial,sans-serif" font-size="4" font-weight="700" fill="#111111" letter-spacing="0.3">SUMMARY</text>
  <line x1="258" y1="88" x2="292" y2="88" stroke="#C48B63" stroke-width="0.5"/>
  <rect x="216" y="110" width="4" height="4" fill="#C48B63"/>
  <text x="224" y="116" font-family="Arial,sans-serif" font-size="4" font-weight="700" fill="#111111" letter-spacing="0.3">SKILLS</text>
  <line x1="248" y1="114" x2="292" y2="114" stroke="#C48B63" stroke-width="0.5"/>
  <text x="218" y="128" font-family="Arial,sans-serif" font-size="3" fill="#1A1A1A">Data Strategy</text>
  <text x="258" y="128" font-family="Arial,sans-serif" font-size="3" fill="#1A1A1A">Analytics</text>
  <text x="218" y="136" font-family="Arial,sans-serif" font-size="3" fill="#1A1A1A">Leadership</text>
  <text x="258" y="136" font-family="Arial,sans-serif" font-size="3" fill="#1A1A1A">Python</text>
  <text x="150" y="388" text-anchor="middle" font-family="Arial,sans-serif" font-size="8" font-weight="700" fill="#C48B63">Executive Navy Copper</text>
</svg>
