<svg width="300" height="400" xmlns="http://www.w3.org/2000/svg">
  <defs>
    <linearGradient id="blackYellowGrad" x1="0%" y1="0%" x2="100%" y2="100%">
      <stop offset="0%" style="stop-color:#000000;stop-opacity:0.15" />
      <stop offset="100%" style="stop-color:#FFD700;stop-opacity:0.08" />
    </linearGradient>
  </defs>
  <rect width="300" height="400" fill="url(#blackYellowGrad)" stroke="#000000" stroke-width="3"/>
  <rect x="20" y="20" width="260" height="360" fill="white" opacity="0.3" rx="8"/>
  <!-- Left sidebar indicator -->
  <rect x="30" y="30" width="90" height="340" fill="#FFFFFF" opacity="0.5" rx="4"/>
  <!-- Main content area -->
  <rect x="130" y="30" width="140" height="360" fill="#FFFFFF" opacity="0.4" rx="4"/>
  <!-- Profile circle -->
  <circle cx="75" cy="80" r="30" fill="#000000" opacity="0.6"/>
  <!-- Header bar -->
  <rect x="140" y="40" width="120" height="50" fill="#000000" opacity="0.7" rx="4"/>
  <!-- Job title badge -->
  <rect x="60" y="130" width="70" height="20" fill="#FFD700" opacity="0.6" rx="3"/>
  <!-- Section indicators -->
  <rect x="140" y="110" width="120" height="25" fill="#E5E7EB" rx="2"/>
  <rect x="140" y="150" width="120" height="25" fill="#E5E7EB" rx="2"/>
  <rect x="140" y="190" width="120" height="25" fill="#E5E7EB" rx="2"/>
  <!-- Sidebar sections -->
  <rect x="35" y="160" width="80" height="15" fill="#000000" opacity="0.7" rx="2"/>
  <rect x="35" y="190" width="80" height="15" fill="#000000" opacity="0.7" rx="2"/>
  <text x="50%" y="350" text-anchor="middle" font-family="Arial, sans-serif" font-size="14" font-weight="bold" fill="#000000">
    Black Yellow Modern
  </text>
  <text x="50%" y="370" text-anchor="middle" font-family="Arial, sans-serif" font-size="11" fill="#666">
    Resume Template
  </text>
</svg>

