<svg xmlns="http://www.w3.org/2000/svg" width="600" height="800" viewBox="0 0 600 800">
  <rect width="600" height="800" fill="#F8F6F2"/>
  <!-- Left column -->
  <text x="36" y="52" font-family="Georgia, serif" font-size="24" font-weight="600" fill="#1E1E1E" letter-spacing="2">ELIZA</text>
  <text x="36" y="88" font-family="Georgia, serif" font-size="32" font-weight="700" fill="#1E1E1E" letter-spacing="1.5">REED</text>
  <text x="36" y="112" font-family="Arial, sans-serif" font-size="9" font-weight="600" fill="#666666" letter-spacing="2.2">BRAND STRATEGIST</text>
  <rect x="36" y="128" width="200" height="220" fill="#E8E4DE" stroke="#D4CEC5" stroke-width="1"/>
  <rect x="48" y="140" width="176" height="196" fill="#C8C4BE"/>
  <text x="36" y="374" font-family="Arial, sans-serif" font-size="9" font-weight="600" fill="#1E1E1E" letter-spacing="2">PROFILE</text>
  <line x1="36" y1="382" x2="236" y2="382" stroke="#D8D2C8" stroke-width="1"/>
  <rect x="36" y="394" width="180" height="4" rx="2" fill="#C9C4BC"/>
  <rect x="36" y="404" width="170" height="4" rx="2" fill="#C9C4BC"/>
  <rect x="36" y="414" width="160" height="4" rx="2" fill="#C9C4BC"/>
  <rect x="36" y="438" width="200" height="120" rx="0" fill="#EFE9E1"/>
  <text x="48" y="458" font-family="Arial, sans-serif" font-size="8" font-weight="600" fill="#666666" letter-spacing="1.6">CONTACT &amp; DETAILS</text>
  <circle cx="52" cy="478" r="4" fill="#666666"/>
  <rect x="62" y="474" width="120" height="4" rx="2" fill="#666666"/>
  <circle cx="52" cy="498" r="4" fill="#666666"/>
  <rect x="62" y="494" width="140" height="4" rx="2" fill="#666666"/>
  <text x="36" y="720" font-family="Arial, sans-serif" font-size="8" font-weight="600" fill="#666666" letter-spacing="1.4">BROOKLYN, NY</text>
  <text x="36" y="752" font-family="Georgia, serif" font-size="28" font-style="italic" fill="#1E1E1E">Eliza Reed</text>
  <!-- Right column -->
  <rect x="260" y="36" width="304" height="200" fill="#EFE9E1"/>
  <text x="276" y="64" font-family="Arial, sans-serif" font-size="9" font-weight="600" fill="#1E1E1E" letter-spacing="2">PROFESSIONAL JOURNEY</text>
  <line x1="276" y1="72" x2="548" y2="72" stroke="#D8D2C8" stroke-width="1"/>
  <text x="276" y="98" font-family="Georgia, serif" font-size="18" font-style="italic" fill="#1E1E1E">Brand Director</text>
  <text x="276" y="118" font-family="Arial, sans-serif" font-size="9" fill="#666666">2021Present | Apex Consumer Goods</text>
  <line x1="276" y1="124" x2="548" y2="124" stroke="#D8D2C8" stroke-width="1"/>
  <rect x="276" y="134" width="240" height="4" rx="2" fill="#B8B4AE"/>
  <rect x="276" y="144" width="220" height="4" rx="2" fill="#B8B4AE"/>
  <text x="260" y="268" font-family="Arial, sans-serif" font-size="9" font-weight="600" fill="#1E1E1E" letter-spacing="2">EDUCATION</text>
  <line x1="260" y1="276" x2="564" y2="276" stroke="#D8D2C8" stroke-width="1"/>
  <text x="260" y="298" font-family="Arial, sans-serif" font-size="11" font-weight="700" fill="#1E1E1E">Parsons School of Design</text>
  <text x="260" y="316" font-family="Georgia, serif" font-size="10" font-style="italic" fill="#3F3F3F">BFA, Communication Design</text>
  <text x="260" y="348" font-family="Arial, sans-serif" font-size="9" font-weight="600" fill="#1E1E1E" letter-spacing="2">SKILLS</text>
  <line x1="260" y1="356" x2="564" y2="356" stroke="#D8D2C8" stroke-width="1"/>
  <circle cx="266" cy="374" r="2.5" fill="#1E1E1E"/>
  <text x="276" y="378" font-family="Arial, sans-serif" font-size="10" fill="#3F3F3F">Brand Strategy</text>
  <circle cx="266" cy="392" r="2.5" fill="#1E1E1E"/>
  <text x="276" y="396" font-family="Arial, sans-serif" font-size="10" fill="#3F3F3F">Campaign Development</text>
</svg>
