<svg width="300" height="400" xmlns="http://www.w3.org/2000/svg">
  <rect width="300" height="400" fill="#FFFFFF"/>
  <rect x="0" y="0" width="92" height="400" fill="#F4EFE8"/>
  <rect x="0" y="0" width="92" height="88" fill="#D8CFC5"/>
  <rect x="18" y="28" width="56" height="48" fill="#C4A88E" opacity="0.55"/>
  <text x="8" y="108" font-family="Arial,sans-serif" font-size="4.5" font-weight="700" fill="#1E1E1E" letter-spacing="0.5">CONTACT</text>
  <line x1="8" y1="112" x2="84" y2="112" stroke="#9C6B4F" stroke-width="0.6"/>
  <text x="8" y="122" font-family="Arial,sans-serif" font-size="3.5" font-weight="700" fill="#1E1E1E">Phone</text>
  <rect x="8" y="125" width="72" height="2" fill="#E0D8CE"/>
  <text x="8" y="138" font-family="Arial,sans-serif" font-size="3.5" font-weight="700" fill="#1E1E1E">Skills</text>
  <line x1="8" y1="141" x2="84" y2="141" stroke="#9C6B4F" stroke-width="0.6"/>
  <text x="8" y="151" font-family="Arial,sans-serif" font-size="3.2" fill="#1E1E1E">Strategic Leadership</text>
  <text x="8" y="158" font-family="Arial,sans-serif" font-size="3.2" fill="#1E1E1E">Global Operations</text>
  <text x="8" y="172" font-family="Arial,sans-serif" font-size="3.5" font-weight="700" fill="#1E1E1E">Languages</text>
  <line x1="8" y1="175" x2="84" y2="175" stroke="#9C6B4F" stroke-width="0.6"/>
  <text x="104" y="28" font-family="Arial,sans-serif" font-size="9" font-weight="700" fill="#1E1E1E" letter-spacing="1">ELIZA BLYTHE</text>
  <text x="104" y="40" font-family="Arial,sans-serif" font-size="4" fill="#5A534D" letter-spacing="0.5">CHIEF STRATEGY OFFICER</text>
  <line x1="104" y1="46" x2="292" y2="46" stroke="#9C6B4F" stroke-width="0.6"/>
  <text x="104" y="58" font-family="Arial,sans-serif" font-size="4.5" font-weight="700" fill="#1E1E1E" letter-spacing="0.5">SUMMARY</text>
  <line x1="148" y1="56" x2="292" y2="56" stroke="#9C6B4F" stroke-width="0.4"/>
  <rect x="104" y="62" width="188" height="14" rx="1" fill="#F5F5F5"/>
  <text x="104" y="86" font-family="Arial,sans-serif" font-size="4.5" font-weight="700" fill="#1E1E1E" letter-spacing="0.5">EXPERIENCE</text>
  <line x1="158" y1="84" x2="292" y2="84" stroke="#9C6B4F" stroke-width="0.4"/>
  <text x="104" y="96" font-family="Arial,sans-serif" font-size="4" font-weight="700" fill="#1E1E1E">Chief Strategy Officer</text>
  <text x="248" y="96" font-family="Arial,sans-serif" font-size="3.5" fill="#5A534D">2020Present</text>
  <rect x="108" y="102" width="3" height="3" fill="#9C6B4F"/>
  <rect x="114" y="101" width="120" height="2.5" fill="#ECECEC"/>
  <text x="104" y="118" font-family="Arial,sans-serif" font-size="4.5" font-weight="700" fill="#1E1E1E" letter-spacing="0.5">EDUCATION</text>
  <line x1="152" y1="116" x2="292" y2="116" stroke="#9C6B4F" stroke-width="0.4"/>
  <text x="150" y="388" text-anchor="middle" font-family="Arial,sans-serif" font-size="9" font-weight="600" fill="#9C6B4F">Executive Sidebar Elite</text>
</svg>
