<svg width="595" height="842" viewBox="0 0 595 842" xmlns="http://www.w3.org/2000/svg">
  <rect width="595" height="842" fill="#ffffff"/>
  
  <!-- Header -->
  <rect x="0" y="0" width="595" height="120" fill="#f3f4f6"/>
  <circle cx="80" cy="60" r="40" fill="#9ca3af"/>
  <rect x="140" y="40" width="300" height="20" fill="#d1d5db"/>
  <rect x="140" y="70" width="250" height="16" fill="#d1d5db"/>
  
  <!-- Sidebar -->
  <rect x="0" y="120" width="200" height="722" fill="#f9fafb"/>
  
  <!-- Contact Section -->
  <rect x="20" y="150" width="160" height="14" fill="#e5e7eb"/>
  <rect x="20" y="180" width="140" height="10" fill="#d1d5db"/>
  <rect x="20" y="200" width="140" height="10" fill="#d1d5db"/>
  <rect x="20" y="220" width="140" height="10" fill="#d1d5db"/>
  
  <!-- About Me Section -->
  <rect x="20" y="260" width="160" height="14" fill="#e5e7eb"/>
  <rect x="20" y="285" width="150" height="8" fill="#d1d5db"/>
  <rect x="20" y="300" width="150" height="8" fill="#d1d5db"/>
  <rect x="20" y="315" width="140" height="8" fill="#d1d5db"/>
  
  <!-- Skills Section -->
  <rect x="20" y="350" width="160" height="14" fill="#e5e7eb"/>
  <rect x="20" y="375" width="120" height="10" fill="#d1d5db"/>
  <rect x="20" y="395" width="120" height="10" fill="#d1d5db"/>
  <rect x="20" y="415" width="120" height="10" fill="#d1d5db"/>
  
  <!-- Interests Section -->
  <rect x="20" y="450" width="160" height="14" fill="#e5e7eb"/>
  <rect x="20" y="475" width="110" height="10" fill="#d1d5db"/>
  <rect x="20" y="495" width="110" height="10" fill="#d1d5db"/>
  
  <!-- Language Section -->
  <rect x="20" y="530" width="160" height="14" fill="#e5e7eb"/>
  <rect x="20" y="555" width="130" height="10" fill="#d1d5db"/>
  <rect x="20" y="575" width="130" height="10" fill="#d1d5db"/>
  
  <!-- Main Content -->
  <rect x="200" y="120" width="395" height="722" fill="#ffffff"/>
  
  <!-- Work Experience Section -->
  <rect x="220" y="150" width="350" height="16" fill="#e5e7eb"/>
  <rect x="220" y="180" width="200" height="12" fill="#d1d5db"/>
  <rect x="220" y="200" width="180" height="10" fill="#d1d5db"/>
  <rect x="220" y="220" width="320" height="8" fill="#d1d5db"/>
  <rect x="220" y="235" width="330" height="8" fill="#d1d5db"/>
  <rect x="220" y="260" width="200" height="12" fill="#d1d5db"/>
  <rect x="220" y="280" width="180" height="10" fill="#d1d5db"/>
  <rect x="220" y="300" width="320" height="8" fill="#d1d5db"/>
  
  <!-- Education Section -->
  <rect x="220" y="350" width="350" height="16" fill="#e5e7eb"/>
  <rect x="220" y="380" width="250" height="12" fill="#d1d5db"/>
  <rect x="220" y="400" width="200" height="10" fill="#d1d5db"/>
  <rect x="220" y="420" width="300" height="8" fill="#d1d5db"/>
  <rect x="220" y="440" width="250" height="12" fill="#d1d5db"/>
  <rect x="220" y="460" width="200" height="10" fill="#d1d5db"/>
</svg>

