<svg xmlns="http://www.w3.org/2000/svg" width="300" height="400" viewBox="0 0 300 400">
  <rect width="300" height="400" fill="#FBF9F6"/>
  <path d="M0 0 H120 V70 Q90 110 0 130 Z" fill="#1B2A4A"/>
  <rect x="278" y="18" width="8" height="48" rx="4" fill="#C4A35A"/>
  <circle cx="42" cy="52" r="28" fill="#FFFFFF" stroke="#C4A35A" stroke-width="2"/>
  <circle cx="42" cy="52" r="24" fill="#D8D2C8"/>
  <text x="82" y="46" font-family="Georgia,serif" font-size="11" font-weight="700" fill="#1B2A4A" letter-spacing="1">ISABELLA</text>
  <text x="82" y="60" font-family="Georgia,serif" font-size="11" font-weight="700" fill="#1B2A4A" letter-spacing="1">MORGAN</text>
  <text x="82" y="72" font-family="Arial,sans-serif" font-size="3.5" fill="#C4A35A" letter-spacing="0.6">BRAND STRATEGIST &amp; CREATIVE DIRECTOR</text>
  <line x1="16" y1="92" x2="284" y2="92" stroke="#E2DACF"/>
  <circle cx="22" cy="102" r="2.2" fill="#1B2A4A"/>
  <text x="28" y="104" font-family="Arial,sans-serif" font-size="3" fill="#1F2430">email@studio.com</text>
  <circle cx="108" cy="102" r="2.2" fill="#1B2A4A"/>
  <text x="114" y="104" font-family="Arial,sans-serif" font-size="3" fill="#1F2430">+1 555 0142</text>
  <circle cx="188" cy="102" r="2.2" fill="#1B2A4A"/>
  <text x="194" y="104" font-family="Arial,sans-serif" font-size="3" fill="#1F2430">New York, NY</text>
  <circle cx="24" cy="126" r="5" fill="#1B2A4A"/>
  <text x="34" y="129" font-family="Georgia,serif" font-size="5" fill="#1B2A4A" letter-spacing="0.8">PROFESSIONAL SUMMARY</text>
  <line x1="34" y1="133" x2="188" y2="133" stroke="#C4A35A"/>
  <rect x="34" y="140" width="150" height="3" rx="1" fill="#D8D2C8"/>
  <rect x="34" y="148" width="140" height="3" rx="1" fill="#D8D2C8"/>
  <rect x="34" y="156" width="128" height="3" rx="1" fill="#D8D2C8"/>
  <circle cx="24" cy="178" r="5" fill="#1B2A4A"/>
  <text x="34" y="181" font-family="Georgia,serif" font-size="5" fill="#1B2A4A" letter-spacing="0.8">EXPERIENCE</text>
  <line x1="34" y1="185" x2="188" y2="185" stroke="#C4A35A"/>
  <line x1="28" y1="198" x2="28" y2="300" stroke="#C4A35A" stroke-width="1.2"/>
  <circle cx="28" cy="202" r="3" fill="#FBF9F6" stroke="#C4A35A"/>
  <text x="38" y="204" font-family="Arial,sans-serif" font-size="4" font-weight="700" fill="#1B2A4A">Creative Director</text>
  <text x="150" y="204" font-family="Arial,sans-serif" font-size="3" fill="#6B7280">2019Present</text>
  <text x="38" y="214" font-family="Arial,sans-serif" font-size="3.5" fill="#C4A35A">Atelier Brand Studio</text>
  <circle cx="28" cy="238" r="3" fill="#FBF9F6" stroke="#C4A35A"/>
  <text x="38" y="240" font-family="Arial,sans-serif" font-size="4" font-weight="700" fill="#1B2A4A">Brand Strategist</text>
  <text x="38" y="250" font-family="Arial,sans-serif" font-size="3.5" fill="#C4A35A">Northline Agency</text>
  <rect x="202" y="120" width="82" height="70" rx="6" fill="#F5F1EA"/>
  <circle cx="212" cy="134" r="4" fill="#C4A35A"/>
  <text x="220" y="137" font-family="Georgia,serif" font-size="4.5" fill="#1B2A4A" letter-spacing="0.5">SKILLS</text>
  <rect x="210" y="148" width="28" height="8" rx="4" fill="#FFFFFF" stroke="#E2DACF"/>
  <rect x="242" y="148" width="32" height="8" rx="4" fill="#FFFFFF" stroke="#E2DACF"/>
  <rect x="210" y="160" width="36" height="8" rx="4" fill="#FFFFFF" stroke="#E2DACF"/>
  <circle cx="212" cy="208" r="4" fill="#C4A35A"/>
  <text x="220" y="211" font-family="Georgia,serif" font-size="4.5" fill="#1B2A4A" letter-spacing="0.5">EDUCATION</text>
  <text x="210" y="226" font-family="Arial,sans-serif" font-size="3.5" font-weight="700" fill="#1B2A4A">MFA Design</text>
  <text x="210" y="236" font-family="Arial,sans-serif" font-size="3" fill="#C4A35A">Parsons School</text>
  <circle cx="212" cy="258" r="4" fill="#C4A35A"/>
  <text x="220" y="261" font-family="Georgia,serif" font-size="4.5" fill="#1B2A4A" letter-spacing="0.5">LANGUAGES</text>
  <rect x="210" y="270" width="34" height="10" rx="5" fill="#F5F1EA" stroke="#E2DACF"/>
  <rect x="248" y="270" width="30" height="10" rx="5" fill="#F5F1EA" stroke="#E2DACF"/>
  <text x="150" y="388" text-anchor="middle" font-family="Georgia,serif" font-size="8" font-weight="700" fill="#1B2A4A">Navy Gold Executive</text>
</svg>
