<svg xmlns="http://www.w3.org/2000/svg" width="300" height="400" viewBox="0 0 300 400">
  <rect width="300" height="400" fill="#FFFFFF"/>
  <!-- Sidebar -->
  <path d="M0 0 H102 Q102 0 102 48 L102 400 H0 Z" fill="#1F1F1F"/>
  <path d="M0 0 H102 Q130 0 130 40 L102 48 Z" fill="#1F1F1F"/>
  <!-- Photo rounded rect -->
  <rect x="22" y="22" width="58" height="72" rx="10" fill="#2A2A2A" stroke="#F06464" stroke-width="2"/>
  <!-- Skills -->
  <circle cx="28" cy="118" r="5" fill="#F06464"/>
  <text x="38" y="121" font-family="Arial, sans-serif" font-size="6" font-weight="700" fill="#F06464" letter-spacing="0.8">WORK SKILLS</text>
  <line x1="22" y1="126" x2="90" y2="126" stroke="#F06464" stroke-width="0.8"/>
  <text x="22" y="140" font-family="Arial, sans-serif" font-size="4.5" fill="#FFFFFF">Photoshop</text>
  <text x="82" y="140" font-family="Arial, sans-serif" font-size="4.5" fill="#FFFFFF" text-anchor="end">95%</text>
  <rect x="22" y="144" width="68" height="3" rx="1" fill="#3A3A3A"/>
  <rect x="22" y="144" width="62" height="3" rx="1" fill="#F06464"/>
  <text x="22" y="160" font-family="Arial, sans-serif" font-size="4.5" fill="#FFFFFF">Illustrator</text>
  <text x="82" y="160" font-family="Arial, sans-serif" font-size="4.5" fill="#FFFFFF" text-anchor="end">85%</text>
  <rect x="22" y="164" width="68" height="3" rx="1" fill="#3A3A3A"/>
  <rect x="22" y="164" width="54" height="3" rx="1" fill="#F06464"/>
  <!-- Languages -->
  <circle cx="28" cy="188" r="5" fill="#F06464"/>
  <text x="38" y="191" font-family="Arial, sans-serif" font-size="6" font-weight="700" fill="#F06464" letter-spacing="0.8">LANGUAGES</text>
  <line x1="22" y1="196" x2="90" y2="196" stroke="#F06464" stroke-width="0.8"/>
  <text x="22" y="210" font-family="Arial, sans-serif" font-size="4.5" fill="#FFFFFF">English</text>
  <text x="82" y="210" font-family="Arial, sans-serif" font-size="4.5" fill="#FFFFFF" text-anchor="end">95%</text>
  <rect x="22" y="214" width="68" height="3" rx="1" fill="#3A3A3A"/>
  <rect x="22" y="214" width="62" height="3" rx="1" fill="#F06464"/>
  <!-- Contact -->
  <circle cx="28" cy="240" r="5" fill="#F06464"/>
  <text x="38" y="243" font-family="Arial, sans-serif" font-size="6" font-weight="700" fill="#F06464" letter-spacing="0.8">CONTACT</text>
  <line x1="22" y1="248" x2="90" y2="248" stroke="#F06464" stroke-width="0.8"/>
  <text x="22" y="262" font-family="Arial, sans-serif" font-size="4" font-weight="700" fill="#F06464">PHONE</text>
  <text x="22" y="272" font-family="Arial, sans-serif" font-size="4.5" fill="#FFFFFF">+123-456-7890</text>
  <!-- Name -->
  <text x="120" y="42" font-family="Arial, sans-serif" font-size="16" font-weight="800" fill="#F06464">JOHN</text>
  <text x="168" y="42" font-family="Arial, sans-serif" font-size="16" font-weight="800" fill="#1F1F1F"> SMITH.</text>
  <text x="120" y="56" font-family="Arial, sans-serif" font-size="5.5" font-weight="600" fill="#1F1F1F" letter-spacing="1.5">WEB DEVELOPER &amp; DESIGNER</text>
  <line x1="120" y1="62" x2="280" y2="62" stroke="#F06464" stroke-width="1.2"/>
  <rect x="120" y="72" width="150" height="3" rx="1" fill="#D7D7D7"/>
  <rect x="120" y="80" width="140" height="3" rx="1" fill="#D7D7D7"/>
  <!-- Education -->
  <circle cx="126" cy="110" r="5" fill="#F06464"/>
  <text x="136" y="113" font-family="Arial, sans-serif" font-size="6" font-weight="700" fill="#F06464" letter-spacing="0.8">EDUCATION</text>
  <line x1="136" y1="118" x2="280" y2="118" stroke="#F06464" stroke-width="0.8"/>
  <line x1="158" y1="128" x2="158" y2="200" stroke="#F06464" stroke-width="1.2"/>
  <circle cx="158" cy="136" r="3" fill="#FFFFFF" stroke="#F06464" stroke-width="1.5"/>
  <text x="120" y="138" font-family="Arial, sans-serif" font-size="4" fill="#2D2D2D">2010-15</text>
  <text x="168" y="136" font-family="Arial, sans-serif" font-size="5" font-weight="700" fill="#1F1F1F">DEGREE TITLE</text>
  <rect x="168" y="142" width="100" height="2.5" rx="1" fill="#D7D7D7"/>
  <!-- Experience -->
  <circle cx="126" cy="220" r="5" fill="#F06464"/>
  <text x="136" y="223" font-family="Arial, sans-serif" font-size="6" font-weight="700" fill="#F06464" letter-spacing="0.8">WORK EXPERIENCE</text>
  <line x1="136" y1="228" x2="280" y2="228" stroke="#F06464" stroke-width="0.8"/>
  <line x1="158" y1="238" x2="158" y2="320" stroke="#F06464" stroke-width="1.2"/>
  <circle cx="158" cy="248" r="3" fill="#FFFFFF" stroke="#F06464" stroke-width="1.5"/>
  <text x="118" y="250" font-family="Arial, sans-serif" font-size="4" fill="#2D2D2D">2015-20</text>
  <text x="168" y="248" font-family="Arial, sans-serif" font-size="5" font-weight="700" fill="#1F1F1F">JOB TITLE</text>
  <rect x="168" y="254" width="100" height="2.5" rx="1" fill="#D7D7D7"/>
  <text x="150" y="382" text-anchor="middle" font-family="Arial, sans-serif" font-size="6.5" font-weight="600" fill="#F06464">Crimson Black Executive</text>
</svg>
