<svg xmlns="http://www.w3.org/2000/svg" width="300" height="400" viewBox="0 0 300 400">
  <rect width="300" height="400" fill="#FFFFFF"/>
  <rect x="0" y="0" width="300" height="4" fill="#84CC16"/>
  <rect x="0" y="4" width="300" height="72" fill="rgba(15,118,110,0.06)"/>
  <rect x="218" y="14" width="58" height="76" rx="8" fill="#334155" opacity="0.15" stroke="#0F766E"/>
  <text x="150" y="38" text-anchor="middle" font-family="Georgia,serif" font-size="13" font-weight="700" fill="#1E293B" letter-spacing="1">SARAH CHEN</text>
  <rect x="138" y="44" width="24" height="2" fill="#84CC16"/>
  <text x="150" y="58" text-anchor="middle" font-family="Arial,sans-serif" font-size="5.5" font-weight="600" fill="#0F766E" letter-spacing="0.8">UX RESEARCH LEAD</text>
  <!-- Left sidebar -->
  <rect x="16" y="88" width="88" height="56" rx="6" fill="#0F766E"/>
  <circle cx="28" cy="102" r="5" fill="#84CC16"/>
  <rect x="38" y="99" width="50" height="2" rx="1" fill="#FFFFFF" opacity="0.7"/>
  <circle cx="28" cy="118" r="5" fill="#84CC16"/>
  <rect x="38" y="115" width="45" height="2" rx="1" fill="#FFFFFF" opacity="0.7"/>
  <text x="16" y="160" font-family="Georgia,serif" font-size="5" font-weight="700" fill="#0F766E">EDUCATION</text>
  <line x1="16" y1="164" x2="104" y2="164" stroke="#0F766E"/>
  <rect x="16" y="170" width="88" height="28" rx="4" fill="#F8FAFC" stroke="#D1D5DB"/>
  <text x="16" y="212" font-family="Georgia,serif" font-size="5" font-weight="700" fill="#0F766E">SKILLS</text>
  <rect x="16" y="218" width="36" height="10" rx="5" fill="rgba(132,204,22,0.12)" stroke="#84CC16"/>
  <rect x="56" y="218" width="32" height="10" rx="5" fill="rgba(132,204,22,0.12)" stroke="#84CC16"/>
  <!-- Right main -->
  <text x="118" y="100" font-family="Georgia,serif" font-size="5" font-weight="700" fill="#0F766E">SUMMARY</text>
  <line x1="118" y1="104" x2="284" y2="104" stroke="#0F766E"/>
  <rect x="118" y="110" width="166" height="36" rx="5" fill="#F8FAFC" stroke="#D1D5DB"/>
  <rect x="118" y="110" width="3" height="36" fill="#84CC16"/>
  <text x="118" y="160" font-family="Georgia,serif" font-size="5" font-weight="700" fill="#0F766E">EXPERIENCE</text>
  <line x1="124" y1="168" x2="124" y2="220" stroke="#D1D5DB"/>
  <circle cx="124" cy="176" r="4" fill="#84CC16" stroke="#0F766E"/>
  <rect x="132" y="172" width="80" height="2" rx="1" fill="#1E293B"/>
  <rect x="132" y="178" width="120" height="2" rx="1" fill="#CBD5E1"/>
  <text x="150" y="388" text-anchor="middle" font-family="Arial,sans-serif" font-size="7" font-weight="700" fill="#1E293B">Neo Lime Executive</text>
</svg>
