<svg width="600" height="800" viewBox="0 0 600 800" xmlns="http://www.w3.org/2000/svg">
  <rect width="600" height="800" fill="#ffffff"/>
  
  <!-- Header -->
  <rect x="0" y="0" width="600" height="120" fill="#f3f4f6"/>
  <circle cx="80" cy="60" r="40" fill="#9ca3af"/>
  <rect x="140" y="40" width="240" height="18" fill="#d1d5db"/>
  <rect x="140" y="70" width="200" height="14" fill="#d1d5db"/>
  
  <!-- Sidebar -->
  <rect x="0" y="120" width="210" height="680" fill="#f9fafb"/>
  <rect x="20" y="150" width="170" height="12" fill="#e5e7eb"/>
  <rect x="20" y="180" width="140" height="10" fill="#d1d5db"/>
  <rect x="20" y="200" width="140" height="10" fill="#d1d5db"/>
  <rect x="20" y="230" width="170" height="12" fill="#e5e7eb"/>
  <rect x="20" y="260" width="150" height="10" fill="#d1d5db"/>
  <rect x="20" y="280" width="130" height="10" fill="#d1d5db"/>
  <rect x="20" y="310" width="170" height="12" fill="#e5e7eb"/>
  <rect x="20" y="340" width="140" height="10" fill="#d1d5db"/>
  <rect x="20" y="370" width="170" height="12" fill="#e5e7eb"/>
  <rect x="20" y="400" width="140" height="10" fill="#d1d5db"/>
  
  <!-- Main Content -->
  <rect x="210" y="120" width="390" height="680" fill="#ffffff"/>
  <rect x="230" y="150" width="350" height="14" fill="#e5e7eb"/>
  <rect x="230" y="180" width="330" height="10" fill="#d1d5db"/>
  <rect x="230" y="200" width="310" height="10" fill="#d1d5db"/>
  <rect x="230" y="230" width="350" height="14" fill="#e5e7eb"/>
  <rect x="230" y="260" width="290" height="10" fill="#d1d5db"/>
  <rect x="230" y="280" width="310" height="10" fill="#d1d5db"/>
  <rect x="230" y="310" width="350" height="14" fill="#e5e7eb"/>
  <rect x="230" y="340" width="270" height="10" fill="#d1d5db"/>
  <rect x="230" y="360" width="350" height="14" fill="#e5e7eb"/>
  <rect x="230" y="390" width="250" height="10" fill="#d1d5db"/>
</svg>

