<svg width="300" height="400" viewBox="0 0 300 400" xmlns="http://www.w3.org/2000/svg">
  <rect width="300" height="400" fill="#ffffff"/>
  
  <!-- Header -->
  <rect x="0" y="0" width="300" height="80" fill="#f3f4f6"/>
  <circle cx="50" cy="40" r="25" fill="#9ca3af"/>
  <rect x="85" y="25" width="120" height="12" fill="#d1d5db"/>
  <rect x="85" y="45" width="100" height="10" fill="#d1d5db"/>
  
  <!-- Sidebar -->
  <rect x="0" y="80" width="105" height="320" fill="#f9fafb"/>
  <rect x="10" y="100" width="80" height="8" fill="#e5e7eb"/>
  <rect x="10" y="120" width="70" height="6" fill="#d1d5db"/>
  <rect x="10" y="135" width="70" height="6" fill="#d1d5db"/>
  <rect x="10" y="160" width="80" height="8" fill="#e5e7eb"/>
  <rect x="10" y="180" width="75" height="6" fill="#d1d5db"/>
  <rect x="10" y="195" width="65" height="6" fill="#d1d5db"/>
  <rect x="10" y="220" width="80" height="8" fill="#e5e7eb"/>
  <rect x="10" y="240" width="70" height="6" fill="#d1d5db"/>
  
  <!-- Main Content -->
  <rect x="105" y="80" width="195" height="320" fill="#ffffff"/>
  <rect x="115" y="100" width="175" height="10" fill="#e5e7eb"/>
  <rect x="115" y="120" width="165" height="8" fill="#d1d5db"/>
  <rect x="115" y="135" width="155" height="8" fill="#d1d5db"/>
  <rect x="115" y="155" width="175" height="10" fill="#e5e7eb"/>
  <rect x="115" y="175" width="145" height="8" fill="#d1d5db"/>
  <rect x="115" y="190" width="155" height="8" fill="#d1d5db"/>
  <rect x="115" y="210" width="175" height="10" fill="#e5e7eb"/>
  <rect x="115" y="230" width="135" height="8" fill="#d1d5db"/>
</svg>

