<svg width="800" height="1000" xmlns="http://www.w3.org/2000/svg">
  <rect width="800" height="1000" fill="#ebe6dc"/>
  <rect x="48" y="48" width="704" height="904" fill="#f7f3ed"/>
  <circle cx="680" cy="160" r="90" fill="#e8d4f0" opacity="0.3"/>
  <circle cx="120" cy="420" r="70" fill="#ffd4c4" opacity="0.25"/>
  <circle cx="620" cy="720" r="55" fill="#c8e0f0" opacity="0.22"/>
  <rect x="72" y="88" width="110" height="130" rx="10" fill="#e8dfd4" stroke="#b8956b" stroke-width="3"/>
  <text x="210" y="130" font-family="Georgia,serif" font-size="42" font-weight="bold" fill="#3d3832">JANE DOE</text>
  <text x="210" y="168" font-family="Arial,sans-serif" font-size="12" fill="#6b6560" letter-spacing="3">SENIOR MARKETING MANAGER</text>
  <polyline points="720,72 760,72 760,112" fill="none" stroke="#b8956b" stroke-width="2"/>
  <line x1="72" y1="250" x2="728" y2="250" stroke="#b8956b" stroke-width="2"/>
  <text x="72" y="290" font-family="Georgia,serif" font-size="18" fill="#3d3832">SUMMARY</text>
  <rect x="72" y="310" width="656" height="8" fill="#d9cfc0" opacity="0.6"/>
  <line x1="72" y1="380" x2="728" y2="380" stroke="#b8956b" stroke-width="2"/>
  <text x="72" y="420" font-family="Georgia,serif" font-size="18" fill="#3d3832">EXPERIENCE</text>
  <text x="72" y="460" font-family="Arial,sans-serif" font-size="11" fill="#3d3832">Oct 2021</text>
  <rect x="200" y="450" width="280" height="10" fill="#c9bfb0"/>
  <line x1="72" y1="560" x2="728" y2="560" stroke="#b8956b" stroke-width="2"/>
  <text x="72" y="600" font-family="Georgia,serif" font-size="18" fill="#3d3832">SKILLS</text>
  <line x1="72" y1="720" x2="728" y2="720" stroke="#b8956b" stroke-width="2"/>
  <text x="72" y="760" font-family="Georgia,serif" font-size="16" fill="#3d3832">EDUCATION</text>
  <text x="420" y="760" font-family="Georgia,serif" font-size="16" fill="#3d3832">CERTIFICATIONS</text>
  <polyline points="720,880 760,880 760,840" fill="none" stroke="#b8956b" stroke-width="2"/>
  <text x="400" y="960" text-anchor="middle" font-family="Georgia,serif" font-size="22" font-weight="600" fill="#3d3832">Elegant Ivory</text>
</svg>
