<svg width="300" height="400" xmlns="http://www.w3.org/2000/svg">
  <rect width="300" height="400" fill="#f7f3ed"/>
  <circle cx="240" cy="70" r="45" fill="#e8d4f0" opacity="0.35"/>
  <circle cx="50" cy="200" r="35" fill="#ffd4c4" opacity="0.3"/>
  <rect x="28" y="32" width="48" height="58" rx="6" fill="#e8dfd4" stroke="#b8956b" stroke-width="2"/>
  <text x="88" y="52" font-family="Georgia,serif" font-size="16" font-weight="bold" fill="#3d3832">JANE</text>
  <text x="88" y="72" font-family="Georgia,serif" font-size="16" font-weight="bold" fill="#3d3832">DOE</text>
  <text x="88" y="88" font-family="Arial,sans-serif" font-size="5" fill="#6b6560" letter-spacing="1">SENIOR MARKETING</text>
  <line x1="28" y1="108" x2="272" y2="108" stroke="#b8956b" stroke-width="1.5"/>
  <text x="28" y="128" font-family="Georgia,serif" font-size="9" fill="#3d3832">SUMMARY</text>
  <rect x="28" y="136" width="244" height="3" fill="#d9cfc0"/>
  <line x1="28" y1="158" x2="272" y2="158" stroke="#b8956b" stroke-width="1.5"/>
  <text x="28" y="178" font-family="Georgia,serif" font-size="9" fill="#3d3832">EXPERIENCE</text>
  <text x="28" y="198" font-family="Arial,sans-serif" font-size="6" fill="#3d3832">2021</text>
  <rect x="72" y="192" width="100" height="4" fill="#c9bfb0"/>
  <line x1="28" y1="228" x2="272" y2="228" stroke="#b8956b" stroke-width="1.5"/>
  <text x="28" y="248" font-family="Georgia,serif" font-size="9" fill="#3d3832">SKILLS</text>
  <text x="28" y="268" font-size="5" fill="#b8956b">¤ ¤ ¤ ¤ ╦</text>
  <text x="90" y="268" font-size="5" fill="#b8956b">¤ ¤ ¤ ╦ ╦</text>
  <polyline points="262,28 280,28 280,46" fill="none" stroke="#b8956b" stroke-width="1.5"/>
  <polyline points="262,372 280,372 280,354" fill="none" stroke="#b8956b" stroke-width="1.5"/>
  <text x="150" y="388" text-anchor="middle" font-family="Georgia,serif" font-size="10" font-weight="600" fill="#3d3832">Elegant Ivory</text>
</svg>
