<svg width="300" height="400" xmlns="http://www.w3.org/2000/svg">
  <rect width="300" height="400" fill="#f5f0e8"/>
  <rect x="20" y="24" width="260" height="352" rx="4" fill="#faf8f4" stroke="#d4c9b8" stroke-width="1"/>
  <path d="M180 24 H280 V100 Q200 100 180 60 Z" fill="#e8dfd2"/>
  <text x="36" y="58" font-family="Georgia,serif" font-size="14" font-weight="bold" fill="#3d3832">ELIZABETH</text>
  <text x="36" y="76" font-family="Georgia,serif" font-size="14" font-weight="bold" fill="#3d3832">J. REED</text>
  <text x="36" y="92" font-family="Arial,sans-serif" font-size="5" fill="#6b6560" letter-spacing="1">SENIOR MARKETING</text>
  <rect x="218" y="36" width="48" height="58" rx="8" fill="#ddd4c8" stroke="#fff" stroke-width="1.5"/>
  <rect x="20" y="108" width="88" height="268" fill="#e8dfd2"/>
  <rect x="108" y="108" width="172" height="268" fill="#faf8f4"/>
  <text x="32" y="128" font-family="Arial,sans-serif" font-size="6" font-weight="bold" fill="#3d3832">ABOUT ME</text>
  <line x1="32" y1="132" x2="96" y2="132" stroke="#b8956b" stroke-width="1"/>
  <text x="32" y="168" font-family="Arial,sans-serif" font-size="6" font-weight="bold" fill="#3d3832">SKILLS</text>
  <text x="32" y="188" font-size="5" fill="#b8956b">? ? ? ? ?</text>
  <text x="120" y="128" font-family="Arial,sans-serif" font-size="6" font-weight="bold" fill="#3d3832">EXPERIENCE</text>
  <line x1="120" y1="132" x2="268" y2="132" stroke="#b8956b" stroke-width="1"/>
  <rect x="120" y="142" width="130" height="4" fill="#d9cfc0"/>
  <polyline points="28,28 44,28 44,44" fill="none" stroke="#b8956b" stroke-width="1.2"/>
  <polyline points="272,372 288,372 288,356" fill="none" stroke="#b8956b" stroke-width="1.2"/>
  <text x="150" y="388" text-anchor="middle" font-family="Georgia,serif" font-size="10" font-weight="600" fill="#3d3832">Elegant Ivory</text>
</svg>
