<svg xmlns="http://www.w3.org/2000/svg" width="800" height="1000" viewBox="0 0 800 1000">
  <defs>
    <linearGradient id="me-hdr-lg" x1="0%" y1="0%" x2="100%" y2="100%">
      <stop offset="0%" stop-color="#8F6C86"/>
      <stop offset="45%" stop-color="#F3F1F4"/>
      <stop offset="100%" stop-color="#C7D4BE"/>
    </linearGradient>
  </defs>
  <rect width="800" height="1000" fill="#FAFAF8"/>
  <rect x="36" y="36" width="728" height="160" rx="24" fill="url(#me-hdr-lg)"/>
  <circle cx="128" cy="116" r="54" fill="#F3F1F4" stroke="#FFFFFF" stroke-width="5"/>
  <text x="220" y="100" font-family="Georgia,serif" font-size="28" font-weight="700" fill="#232323" letter-spacing="2">LIAM</text>
  <text x="220" y="134" font-family="Georgia,serif" font-size="28" font-weight="700" fill="#232323" letter-spacing="2">NGUYEN</text>
  <text x="220" y="158" font-family="Arial,sans-serif" font-size="7" fill="#666666" letter-spacing="1.2">SENIOR PRODUCT DESIGNER</text>
  <line x1="220" y1="168" x2="420" y2="168" stroke="rgba(35,35,35,0.12)" stroke-width="0.8"/>
  <text x="560" y="96" font-family="Arial,sans-serif" font-size="5.5" fill="#232323">San Francisco, CA</text>
  <text x="560" y="116" font-family="Arial,sans-serif" font-size="5.5" fill="#232323">liam@email.com</text>
  <text x="560" y="136" font-family="Arial,sans-serif" font-size="5.5" fill="#232323">+1 555 0123</text>
  <rect x="36" y="220" width="488" height="120" rx="20" fill="#F7F7F5" stroke="#E6E6E6" stroke-width="0.8"/>
  <circle cx="68" cy="256" r="16" fill="#8D617B"/>
  <text x="96" y="260" font-family="Arial,sans-serif" font-size="7" font-weight="700" fill="#232323" letter-spacing="1.2">SUMMARY</text>
  <line x1="180" y1="256" x2="500" y2="256" stroke="#E6E6E6" stroke-width="0.6"/>
  <text x="56" y="288" font-family="Arial,sans-serif" font-size="6" fill="#666666">Product designer crafting premium digital experiences...</text>
  <rect x="36" y="356" width="488" height="200" rx="20" fill="#F7F7F5" stroke="#E6E6E6" stroke-width="0.8"/>
  <circle cx="68" cy="392" r="16" fill="#8D617B"/>
  <text x="96" y="396" font-family="Arial,sans-serif" font-size="7" font-weight="700" fill="#232323" letter-spacing="1.2">EXPERIENCE</text>
  <line x1="56" y1="420" x2="56" y2="520" stroke="#E6E6E6" stroke-width="1"/>
  <circle cx="56" cy="412" r="6" fill="#F7F7F5" stroke="#8D617B" stroke-width="1.5"/>
  <text x="76" y="416" font-family="Arial,sans-serif" font-size="6" font-weight="700" fill="#232323">STUDIO NORTH</text>
  <text x="76" y="432" font-family="Arial,sans-serif" font-size="5.5" fill="#232323">LEAD PRODUCT DESIGNER</text>
  <text x="420" y="416" font-family="Arial,sans-serif" font-size="5" fill="#666666">2021  Present</text>
  <rect x="544" y="220" width="220" height="160" rx="18" fill="#F5F4F2" stroke="#E6E6E6" stroke-width="0.8"/>
  <circle cx="576" cy="256" r="16" fill="#8D617B"/>
  <text x="604" y="260" font-family="Arial,sans-serif" font-size="7" font-weight="700" fill="#232323" letter-spacing="1.2">SKILLS</text>
  <rect x="544" y="396" width="220" height="100" rx="18" fill="#F5F4F2" stroke="#E6E6E6" stroke-width="0.8"/>
  <circle cx="576" cy="432" r="16" fill="#8D617B"/>
  <text x="604" y="436" font-family="Arial,sans-serif" font-size="7" font-weight="700" fill="#232323" letter-spacing="1.2">EDUCATION</text>
  <rect x="552" y="520" width="204" height="56" rx="10" fill="#FFFFFF" stroke="#E6E6E6" stroke-width="0.6"/>
  <rect x="560" y="528" width="28" height="28" rx="6" fill="#8D617B"/>
  <text x="596" y="548" font-family="Arial,sans-serif" font-size="5.5" fill="#232323">Design Excellence Award</text>
  <text x="400" y="972" text-anchor="middle" font-family="Georgia,serif" font-size="18" font-weight="600" fill="#8D617B" letter-spacing="3">MODERN EDGE</text>
</svg>
