<svg xmlns="http://www.w3.org/2000/svg" width="300" height="400" viewBox="0 0 300 400">
  <defs>
    <linearGradient id="me-hdr" x1="0%" y1="0%" x2="100%" y2="100%">
      <stop offset="0%" stop-color="#8F6C86"/>
      <stop offset="50%" stop-color="#F3F1F4"/>
      <stop offset="100%" stop-color="#C7D4BE"/>
    </linearGradient>
  </defs>
  <rect width="300" height="400" fill="#FAFAF8"/>
  <rect x="14" y="14" width="272" height="72" rx="14" fill="url(#me-hdr)"/>
  <circle cx="48" cy="50" r="22" fill="#F3F1F4" stroke="#FFFFFF" stroke-width="2"/>
  <text x="82" y="42" font-family="Georgia,serif" font-size="10" font-weight="700" fill="#232323" letter-spacing="0.5">LIAM</text>
  <text x="82" y="54" font-family="Georgia,serif" font-size="10" font-weight="700" fill="#232323" letter-spacing="0.5">NGUYEN</text>
  <text x="82" y="64" font-family="Arial,sans-serif" font-size="2.4" fill="#666666" letter-spacing="0.4">SENIOR PRODUCT DESIGNER</text>
  <line x1="82" y1="68" x2="160" y2="68" stroke="rgba(35,35,35,0.15)" stroke-width="0.4"/>
  <text x="210" y="40" font-family="Arial,sans-serif" font-size="2" fill="#232323">San Francisco</text>
  <text x="210" y="48" font-family="Arial,sans-serif" font-size="2" fill="#232323">email@example.com</text>
  <rect x="14" y="96" width="188" height="44" rx="12" fill="#F7F7F5" stroke="#E6E6E6" stroke-width="0.4"/>
  <circle cx="26" cy="110" r="7" fill="#8D617B"/>
  <text x="38" y="112" font-family="Arial,sans-serif" font-size="2.6" font-weight="700" fill="#232323" letter-spacing="0.4">SUMMARY</text>
  <line x1="78" y1="110" x2="192" y2="110" stroke="#E6E6E6" stroke-width="0.3"/>
  <rect x="14" y="148" width="188" height="56" rx="12" fill="#F7F7F5" stroke="#E6E6E6" stroke-width="0.4"/>
  <circle cx="26" cy="162" r="7" fill="#8D617B"/>
  <text x="38" y="164" font-family="Arial,sans-serif" font-size="2.6" font-weight="700" fill="#232323" letter-spacing="0.4">EXPERIENCE</text>
  <line x1="22" y1="176" x2="22" y2="196" stroke="#E6E6E6" stroke-width="0.5"/>
  <circle cx="22" cy="172" r="2.5" fill="#FFF" stroke="#8D617B" stroke-width="0.8"/>
  <text x="30" y="174" font-family="Arial,sans-serif" font-size="2.4" font-weight="700" fill="#232323">LEAD DESIGNER</text>
  <rect x="208" y="96" width="78" height="200" rx="10" fill="#F5F4F2" stroke="#E6E6E6" stroke-width="0.4"/>
  <circle cx="220" cy="110" r="7" fill="#8D617B"/>
  <text x="232" y="112" font-family="Arial,sans-serif" font-size="2.4" font-weight="700" fill="#232323" letter-spacing="0.4">SKILLS</text>
  <rect x="214" y="220" width="66" height="28" rx="6" fill="#FFFFFF" stroke="#E6E6E6" stroke-width="0.3"/>
  <rect x="218" y="224" width="12" height="12" rx="3" fill="#8D617B"/>
  <text x="150" y="388" text-anchor="middle" font-family="Georgia,serif" font-size="7" font-weight="600" fill="#8D617B" letter-spacing="1.2">MODERN EDGE</text>
</svg>
