<svg width="800" height="1050" viewBox="0 0 800 1050" xmlns="http://www.w3.org/2000/svg">
  <rect width="800" height="1050" fill="#ffffff"/>
  
  <!-- Header -->
  <rect x="0" y="0" width="800" height="120" fill="#f5f5f5"/>
  <circle cx="80" cy="60" r="40" fill="#e5e7eb"/>
  <rect x="140" y="40" width="300" height="18" fill="#d1d5db"/>
  <rect x="140" y="70" width="250" height="14" fill="#d1d5db"/>
  
  <!-- Sidebar -->
  <rect x="0" y="120" width="280" height="930" fill="#fafafa"/>
  <rect x="20" y="160" width="240" height="12" fill="#e5e7eb"/>
  <rect x="20" y="190" width="230" height="10" fill="#d1d5db"/>
  <rect x="20" y="240" width="240" height="12" fill="#e5e7eb"/>
  <rect x="20" y="270" width="220" height="10" fill="#d1d5db"/>
  <rect x="20" y="290" width="210" height="10" fill="#d1d5db"/>
  <rect x="20" y="330" width="240" height="12" fill="#e5e7eb"/>
  <rect x="20" y="360" width="220" height="10" fill="#d1d5db"/>
  <rect x="20" y="400" width="240" height="12" fill="#e5e7eb"/>
  <rect x="20" y="430" width="220" height="10" fill="#d1d5db"/>
  
  <!-- Main Content -->
  <rect x="280" y="120" width="520" height="930" fill="#ffffff"/>
  <rect x="300" y="160" width="480" height="14" fill="#e5e7eb"/>
  <rect x="300" y="190" width="460" height="10" fill="#d1d5db"/>
  <rect x="300" y="210" width="450" height="10" fill="#d1d5db"/>
  <rect x="300" y="280" width="480" height="14" fill="#e5e7eb"/>
  <rect x="300" y="310" width="420" height="10" fill="#d1d5db"/>
  <rect x="300" y="330" width="440" height="10" fill="#d1d5db"/>
</svg>

