<svg xmlns="http://www.w3.org/2000/svg" width="600" height="800" viewBox="0 0 600 800">
  <rect width="600" height="800" fill="#FFFFFF"/>
  <!-- Sidebar -->
  <rect x="0" y="120" width="216" height="680" fill="#665D54"/>
  <!-- Dark diagonal header -->
  <path d="M0,0 H600 V192 L0,148 Z" fill="#2E2C29"/>
  <line x1="0" y1="140" x2="600" y2="184" stroke="#B08D57" stroke-width="4"/>
  <!-- Photo with offset ring -->
  <circle cx="105" cy="122" r="68" fill="none" stroke="#B08D57" stroke-width="2.5" transform="translate(-6,-6)"/>
  <circle cx="105" cy="122" r="64" fill="#57504A" stroke="#FFFFFF" stroke-width="6"/>
  <!-- Name -->
  <text x="248" y="72" font-family="Arial, sans-serif" font-size="27" font-weight="800" fill="#FFFFFF" letter-spacing="4">DANIEL</text>
  <text x="248" y="108" font-family="Arial, sans-serif" font-size="27" font-weight="800" fill="#FFFFFF" letter-spacing="4">FOSTER</text>
  <text x="248" y="138" font-family="Arial, sans-serif" font-size="11" font-weight="600" fill="#C6A876" letter-spacing="5">GRAPHIC DESIGNER</text>
  <!-- Sidebar: About -->
  <text x="32" y="232" font-family="Arial, sans-serif" font-size="12" font-weight="700" fill="#FFFFFF" letter-spacing="3">ABOUT ME</text>
  <rect x="32" y="240" width="28" height="4" fill="#B08D57"/>
  <rect x="32" y="256" width="152" height="5" rx="2" fill="#8A8178"/>
  <rect x="32" y="270" width="140" height="5" rx="2" fill="#8A8178"/>
  <rect x="32" y="284" width="146" height="5" rx="2" fill="#8A8178"/>
  <!-- Sidebar: Contact -->
  <text x="32" y="330" font-family="Arial, sans-serif" font-size="12" font-weight="700" fill="#FFFFFF" letter-spacing="3">CONTACT</text>
  <rect x="32" y="338" width="28" height="4" fill="#B08D57"/>
  <rect x="32" y="352" width="18" height="18" rx="5" fill="#2E2C29"/>
  <text x="60" y="365" font-family="Arial, sans-serif" font-size="9.5" fill="#F5F3F0">+1 (555) 014-2287</text>
  <rect x="32" y="378" width="18" height="18" rx="5" fill="#2E2C29"/>
  <text x="60" y="391" font-family="Arial, sans-serif" font-size="9.5" fill="#F5F3F0">daniel.foster@email.com</text>
  <rect x="32" y="404" width="18" height="18" rx="5" fill="#2E2C29"/>
  <text x="60" y="417" font-family="Arial, sans-serif" font-size="9.5" fill="#F5F3F0">danielfoster.design</text>
  <rect x="32" y="430" width="18" height="18" rx="5" fill="#2E2C29"/>
  <text x="60" y="443" font-family="Arial, sans-serif" font-size="9.5" fill="#F5F3F0">Portland, OR</text>
  <!-- Sidebar: Education -->
  <text x="32" y="490" font-family="Arial, sans-serif" font-size="12" font-weight="700" fill="#FFFFFF" letter-spacing="3">EDUCATION</text>
  <rect x="32" y="498" width="28" height="4" fill="#B08D57"/>
  <rect x="32" y="512" width="4" height="46" fill="#B08D57"/>
  <text x="46" y="526" font-family="Arial, sans-serif" font-size="10" font-weight="700" fill="#FFFFFF">BFA GRAPHIC DESIGN</text>
  <text x="46" y="542" font-family="Arial, sans-serif" font-size="9" fill="#DDD8D1">Coast School of Art</text>
  <text x="46" y="556" font-family="Arial, sans-serif" font-size="9" fill="#C6A876">2012</text>
  <rect x="32" y="570" width="4" height="46" fill="#B08D57"/>
  <text x="46" y="584" font-family="Arial, sans-serif" font-size="10" font-weight="700" fill="#FFFFFF">MA BRAND STRATEGY</text>
  <text x="46" y="600" font-family="Arial, sans-serif" font-size="9" fill="#DDD8D1">North University</text>
  <text x="46" y="614" font-family="Arial, sans-serif" font-size="9" fill="#C6A876">2015</text>
  <!-- Sidebar: Languages -->
  <text x="32" y="662" font-family="Arial, sans-serif" font-size="12" font-weight="700" fill="#FFFFFF" letter-spacing="3">LANGUAGES</text>
  <rect x="32" y="670" width="28" height="4" fill="#B08D57"/>
  <rect x="32" y="684" width="8" height="8" fill="#B08D57" transform="rotate(45 36 688)"/>
  <text x="50" y="694" font-family="Arial, sans-serif" font-size="10" fill="#F5F3F0">English — Fluent</text>
  <rect x="32" y="708" width="8" height="8" fill="#B08D57" transform="rotate(45 36 712)"/>
  <text x="50" y="718" font-family="Arial, sans-serif" font-size="10" fill="#F5F3F0">Spanish — Advanced</text>
  <!-- Sidebar: Interests -->
  <text x="32" y="758" font-family="Arial, sans-serif" font-size="12" font-weight="700" fill="#FFFFFF" letter-spacing="3">INTERESTS</text>
  <rect x="32" y="766" width="28" height="4" fill="#B08D57"/>
  <text x="32" y="788" font-family="Arial, sans-serif" font-size="10" fill="#F5F3F0">Photography</text>
  <text x="120" y="788" font-family="Arial, sans-serif" font-size="10" fill="#F5F3F0">Cycling</text>
  <!-- Main: Experience -->
  <rect x="248" y="224" width="11" height="11" fill="#B08D57" transform="rotate(45 253 229)"/>
  <text x="272" y="236" font-family="Arial, sans-serif" font-size="14" font-weight="700" fill="#2E2C29" letter-spacing="3">EXPERIENCE</text>
  <line x1="248" y1="248" x2="568" y2="248" stroke="#E2DED8" stroke-width="1.5"/>
  <text x="248" y="278" font-family="Arial, sans-serif" font-size="12" font-weight="700" fill="#2E2C29" letter-spacing="1">SENIOR GRAPHIC DESIGNER</text>
  <text x="248" y="296" font-family="Arial, sans-serif" font-size="10" font-weight="600" fill="#B08D57" letter-spacing="1">NOVA CREATIVE STUDIO</text>
  <text x="248" y="312" font-family="Arial, sans-serif" font-size="10" fill="#6B665F">2019 - Present</text>
  <rect x="256" y="326" width="7" height="7" fill="#B08D57" transform="rotate(45 259 329)"/>
  <rect x="272" y="324" width="250" height="5" rx="2" fill="#E2DED8"/>
  <rect x="256" y="346" width="7" height="7" fill="#B08D57" transform="rotate(45 259 349)"/>
  <rect x="272" y="344" width="230" height="5" rx="2" fill="#E2DED8"/>
  <text x="248" y="392" font-family="Arial, sans-serif" font-size="12" font-weight="700" fill="#2E2C29" letter-spacing="1">BRAND DESIGNER</text>
  <text x="248" y="410" font-family="Arial, sans-serif" font-size="10" font-weight="600" fill="#B08D57" letter-spacing="1">ATLAS MEDIA GROUP</text>
  <text x="248" y="426" font-family="Arial, sans-serif" font-size="10" fill="#6B665F">2015 - 2019</text>
  <rect x="256" y="440" width="7" height="7" fill="#B08D57" transform="rotate(45 259 443)"/>
  <rect x="272" y="438" width="240" height="5" rx="2" fill="#E2DED8"/>
  <!-- Main: Skills -->
  <rect x="248" y="486" width="11" height="11" fill="#B08D57" transform="rotate(45 253 491)"/>
  <text x="272" y="498" font-family="Arial, sans-serif" font-size="14" font-weight="700" fill="#2E2C29" letter-spacing="3">SKILLS</text>
  <line x1="248" y1="510" x2="568" y2="510" stroke="#E2DED8" stroke-width="1.5"/>
  <text x="248" y="538" font-family="Arial, sans-serif" font-size="11" font-weight="700" fill="#26241F">Brand Identity</text>
  <text x="568" y="538" text-anchor="end" font-family="Arial, sans-serif" font-size="10" font-weight="600" fill="#B08D57">92%</text>
  <rect x="248" y="546" width="320" height="7" fill="#E7E3DC"/>
  <rect x="248" y="546" width="294" height="7" fill="#2E2C29"/>
  <text x="248" y="580" font-family="Arial, sans-serif" font-size="11" font-weight="700" fill="#26241F">Motion Design</text>
  <text x="568" y="580" text-anchor="end" font-family="Arial, sans-serif" font-size="10" font-weight="600" fill="#B08D57">84%</text>
  <rect x="248" y="588" width="320" height="7" fill="#E7E3DC"/>
  <rect x="248" y="588" width="269" height="7" fill="#2E2C29"/>
  <!-- Main: Projects -->
  <rect x="248" y="632" width="11" height="11" fill="#B08D57" transform="rotate(45 253 637)"/>
  <text x="272" y="644" font-family="Arial, sans-serif" font-size="14" font-weight="700" fill="#2E2C29" letter-spacing="3">PROJECTS</text>
  <line x1="248" y1="656" x2="568" y2="656" stroke="#E2DED8" stroke-width="1.5"/>
  <rect x="248" y="668" width="320" height="100" rx="4" fill="none" stroke="#E2DED8" stroke-width="1.5"/>
  <rect x="248" y="668" width="26" height="4" fill="#B08D57"/>
  <text x="264" y="692" font-family="Arial, sans-serif" font-size="11" font-weight="700" fill="#2E2C29" letter-spacing="1">REBRAND CAMPAIGN</text>
  <text x="264" y="710" font-family="Arial, sans-serif" font-size="9.5" fill="#B08D57">Figma / After Effects / Illustrator</text>
  <rect x="264" y="722" width="270" height="5" rx="2" fill="#E2DED8"/>
  <rect x="264" y="738" width="250" height="5" rx="2" fill="#E2DED8"/>
  <rect x="264" y="754" width="230" height="5" rx="2" fill="#E2DED8"/>
</svg>
