<svg xmlns="http://www.w3.org/2000/svg" width="600" height="800" viewBox="0 0 600 800">
  <rect width="600" height="800" fill="#FFFFFF"/>
  <!-- Sidebar -->
  <rect x="0" y="120" width="216" height="680" fill="#665D54"/>
  <!-- Dark diagonal header -->
  <path d="M0,0 H600 V192 L0,148 Z" fill="#2E2C29"/>
  <line x1="0" y1="140" x2="600" y2="184" stroke="#B08D57" stroke-width="4"/>
  <!-- Photo with offset ring -->
  <circle cx="105" cy="122" r="68" fill="none" stroke="#B08D57" stroke-width="2.5" transform="translate(-6,-6)"/>
  <circle cx="105" cy="122" r="64" fill="#57504A" stroke="#FFFFFF" stroke-width="6"/>
  <!-- Name -->
  <text x="248" y="72" font-family="Arial, sans-serif" font-size="27" font-weight="800" fill="#FFFFFF" letter-spacing="4">DANIEL</text>
  <text x="248" y="108" font-family="Arial, sans-serif" font-size="27" font-weight="800" fill="#FFFFFF" letter-spacing="4">FOSTER</text>
  <text x="248" y="138" font-family="Arial, sans-serif" font-size="11" font-weight="600" fill="#C6A876" letter-spacing="5">GRAPHIC DESIGNER</text>
  <!-- Sidebar: About -->
  <text x="32" y="240" font-family="Arial, sans-serif" font-size="12" font-weight="700" fill="#FFFFFF" letter-spacing="3">ABOUT ME</text>
  <rect x="32" y="248" width="28" height="4" fill="#B08D57"/>
  <rect x="32" y="264" width="152" height="5" rx="2" fill="#8A8178"/>
  <rect x="32" y="278" width="140" height="5" rx="2" fill="#8A8178"/>
  <rect x="32" y="292" width="146" height="5" rx="2" fill="#8A8178"/>
  <rect x="32" y="306" width="120" height="5" rx="2" fill="#8A8178"/>
  <!-- Sidebar: Education -->
  <text x="32" y="356" font-family="Arial, sans-serif" font-size="12" font-weight="700" fill="#FFFFFF" letter-spacing="3">EDUCATION</text>
  <rect x="32" y="364" width="28" height="4" fill="#B08D57"/>
  <rect x="32" y="380" width="4" height="46" fill="#B08D57"/>
  <text x="46" y="394" font-family="Arial, sans-serif" font-size="10" font-weight="700" fill="#FFFFFF">BFA GRAPHIC DESIGN</text>
  <text x="46" y="410" font-family="Arial, sans-serif" font-size="9" fill="#DDD8D1">Coast School of Art</text>
  <text x="46" y="424" font-family="Arial, sans-serif" font-size="9" fill="#C6A876">2012</text>
  <rect x="32" y="440" width="4" height="46" fill="#B08D57"/>
  <text x="46" y="454" font-family="Arial, sans-serif" font-size="10" font-weight="700" fill="#FFFFFF">MA BRAND STRATEGY</text>
  <text x="46" y="470" font-family="Arial, sans-serif" font-size="9" fill="#DDD8D1">North University</text>
  <text x="46" y="484" font-family="Arial, sans-serif" font-size="9" fill="#C6A876">2015</text>
  <!-- Sidebar: Languages -->
  <text x="32" y="536" font-family="Arial, sans-serif" font-size="12" font-weight="700" fill="#FFFFFF" letter-spacing="3">LANGUAGES</text>
  <rect x="32" y="544" width="28" height="4" fill="#B08D57"/>
  <rect x="32" y="560" width="8" height="8" fill="#B08D57" transform="rotate(45 36 564)"/>
  <text x="50" y="570" font-family="Arial, sans-serif" font-size="10" fill="#F5F3F0">English  Fluent</text>
  <rect x="32" y="584" width="8" height="8" fill="#B08D57" transform="rotate(45 36 588)"/>
  <text x="50" y="594" font-family="Arial, sans-serif" font-size="10" fill="#F5F3F0">Spanish  Advanced</text>
  <!-- Sidebar: Interests -->
  <text x="32" y="646" font-family="Arial, sans-serif" font-size="12" font-weight="700" fill="#FFFFFF" letter-spacing="3">INTERESTS</text>
  <rect x="32" y="654" width="28" height="4" fill="#B08D57"/>
  <text x="32" y="678" font-family="Arial, sans-serif" font-size="10" fill="#F5F3F0">Photography</text>
  <text x="120" y="678" font-family="Arial, sans-serif" font-size="10" fill="#F5F3F0">Cycling</text>
  <text x="32" y="700" font-family="Arial, sans-serif" font-size="10" fill="#F5F3F0">Typography</text>
  <text x="120" y="700" font-family="Arial, sans-serif" font-size="10" fill="#F5F3F0">Travel</text>
  <!-- Main: Experience -->
  <rect x="248" y="224" width="11" height="11" fill="#B08D57" transform="rotate(45 253 229)"/>
  <text x="272" y="236" font-family="Arial, sans-serif" font-size="14" font-weight="700" fill="#2E2C29" letter-spacing="3">EXPERIENCE</text>
  <line x1="248" y1="248" x2="568" y2="248" stroke="#E2DED8" stroke-width="1.5"/>
  <text x="248" y="278" font-family="Arial, sans-serif" font-size="12" font-weight="700" fill="#2E2C29" letter-spacing="1">SENIOR GRAPHIC DESIGNER</text>
  <text x="248" y="296" font-family="Arial, sans-serif" font-size="10" font-weight="600" fill="#B08D57" letter-spacing="1">NOVA CREATIVE STUDIO</text>
  <text x="248" y="312" font-family="Arial, sans-serif" font-size="10" fill="#6B665F">2019 - Present</text>
  <rect x="256" y="326" width="7" height="7" fill="#B08D57" transform="rotate(45 259 329)"/>
  <rect x="272" y="324" width="250" height="5" rx="2" fill="#E2DED8"/>
  <rect x="256" y="346" width="7" height="7" fill="#B08D57" transform="rotate(45 259 349)"/>
  <rect x="272" y="344" width="230" height="5" rx="2" fill="#E2DED8"/>
  <text x="248" y="392" font-family="Arial, sans-serif" font-size="12" font-weight="700" fill="#2E2C29" letter-spacing="1">BRAND DESIGNER</text>
  <text x="248" y="410" font-family="Arial, sans-serif" font-size="10" font-weight="600" fill="#B08D57" letter-spacing="1">ATLAS MEDIA GROUP</text>
  <text x="248" y="426" font-family="Arial, sans-serif" font-size="10" fill="#6B665F">2015 - 2019</text>
  <rect x="256" y="440" width="7" height="7" fill="#B08D57" transform="rotate(45 259 443)"/>
  <rect x="272" y="438" width="240" height="5" rx="2" fill="#E2DED8"/>
  <!-- Main: Skills -->
  <rect x="248" y="486" width="11" height="11" fill="#B08D57" transform="rotate(45 253 491)"/>
  <text x="272" y="498" font-family="Arial, sans-serif" font-size="14" font-weight="700" fill="#2E2C29" letter-spacing="3">SKILLS</text>
  <line x1="248" y1="510" x2="568" y2="510" stroke="#E2DED8" stroke-width="1.5"/>
  <text x="248" y="538" font-family="Arial, sans-serif" font-size="11" font-weight="700" fill="#26241F">Brand Identity</text>
  <text x="568" y="538" text-anchor="end" font-family="Arial, sans-serif" font-size="10" font-weight="600" fill="#B08D57">92%</text>
  <rect x="248" y="546" width="320" height="7" fill="#E7E3DC"/>
  <rect x="248" y="546" width="294" height="7" fill="#2E2C29"/>
  <text x="248" y="580" font-family="Arial, sans-serif" font-size="11" font-weight="700" fill="#26241F">Motion Design</text>
  <text x="568" y="580" text-anchor="end" font-family="Arial, sans-serif" font-size="10" font-weight="600" fill="#B08D57">84%</text>
  <rect x="248" y="588" width="320" height="7" fill="#E7E3DC"/>
  <rect x="248" y="588" width="269" height="7" fill="#2E2C29"/>
  <text x="248" y="622" font-family="Arial, sans-serif" font-size="11" font-weight="700" fill="#26241F">Art Direction</text>
  <text x="568" y="622" text-anchor="end" font-family="Arial, sans-serif" font-size="10" font-weight="600" fill="#B08D57">76%</text>
  <rect x="248" y="630" width="320" height="7" fill="#E7E3DC"/>
  <rect x="248" y="630" width="243" height="7" fill="#2E2C29"/>
  <!-- Main: Contact -->
  <rect x="248" y="672" width="11" height="11" fill="#B08D57" transform="rotate(45 253 677)"/>
  <text x="272" y="684" font-family="Arial, sans-serif" font-size="14" font-weight="700" fill="#2E2C29" letter-spacing="3">CONTACT</text>
  <line x1="248" y1="696" x2="568" y2="696" stroke="#E2DED8" stroke-width="1.5"/>
  <rect x="248" y="710" width="22" height="22" rx="6" fill="#2E2C29"/>
  <text x="282" y="726" font-family="Arial, sans-serif" font-size="10" fill="#26241F">+1 (555) 014-2287</text>
  <rect x="248" y="742" width="22" height="22" rx="6" fill="#2E2C29"/>
  <text x="282" y="758" font-family="Arial, sans-serif" font-size="10" fill="#26241F">daniel.foster@email.com</text>
  <rect x="420" y="710" width="22" height="22" rx="6" fill="#2E2C29"/>
  <text x="454" y="726" font-family="Arial, sans-serif" font-size="10" fill="#26241F">danielfoster.design</text>
  <rect x="420" y="742" width="22" height="22" rx="6" fill="#2E2C29"/>
  <text x="454" y="758" font-family="Arial, sans-serif" font-size="10" fill="#26241F">Portland, OR</text>
</svg>
