<svg xmlns="http://www.w3.org/2000/svg" width="300" height="400" viewBox="0 0 300 400">
  <rect width="300" height="400" fill="#FFFFFF"/>
  <!-- Sidebar -->
  <rect x="0" y="60" width="108" height="340" fill="#665D54"/>
  <!-- Dark diagonal header -->
  <path d="M0,0 H300 V96 L0,74 Z" fill="#2E2C29"/>
  <line x1="0" y1="70" x2="300" y2="92" stroke="#B08D57" stroke-width="2.5"/>
  <!-- Photo with offset ring -->
  <circle cx="54" cy="62" r="34" fill="none" stroke="#B08D57" stroke-width="1.5" transform="translate(-3,-3)"/>
  <circle cx="54" cy="62" r="32" fill="#57504A" stroke="#FFFFFF" stroke-width="3"/>
  <!-- Name -->
  <text x="124" y="36" font-family="Arial, sans-serif" font-size="13" font-weight="800" fill="#FFFFFF" letter-spacing="2">DANIEL</text>
  <text x="124" y="54" font-family="Arial, sans-serif" font-size="13" font-weight="800" fill="#FFFFFF" letter-spacing="2">FOSTER</text>
  <text x="124" y="70" font-family="Arial, sans-serif" font-size="5.5" font-weight="600" fill="#C6A876" letter-spacing="2.5">GRAPHIC DESIGNER</text>
  <!-- Sidebar: About -->
  <text x="16" y="118" font-family="Arial, sans-serif" font-size="6" font-weight="700" fill="#FFFFFF" letter-spacing="1.5">ABOUT ME</text>
  <rect x="16" y="122" width="14" height="2" fill="#B08D57"/>
  <rect x="16" y="130" width="76" height="2.5" rx="1" fill="#8A8178"/>
  <rect x="16" y="137" width="70" height="2.5" rx="1" fill="#8A8178"/>
  <rect x="16" y="144" width="72" height="2.5" rx="1" fill="#8A8178"/>
  <!-- Sidebar: Contact -->
  <text x="16" y="166" font-family="Arial, sans-serif" font-size="6" font-weight="700" fill="#FFFFFF" letter-spacing="1.5">CONTACT</text>
  <rect x="16" y="170" width="14" height="2" fill="#B08D57"/>
  <rect x="16" y="178" width="9" height="9" rx="2.5" fill="#2E2C29"/>
  <rect x="30" y="181" width="58" height="2.5" rx="1" fill="#DDD8D1"/>
  <rect x="16" y="192" width="9" height="9" rx="2.5" fill="#2E2C29"/>
  <rect x="30" y="195" width="62" height="2.5" rx="1" fill="#DDD8D1"/>
  <rect x="16" y="206" width="9" height="9" rx="2.5" fill="#2E2C29"/>
  <rect x="30" y="209" width="54" height="2.5" rx="1" fill="#DDD8D1"/>
  <!-- Sidebar: Education -->
  <text x="16" y="238" font-family="Arial, sans-serif" font-size="6" font-weight="700" fill="#FFFFFF" letter-spacing="1.5">EDUCATION</text>
  <rect x="16" y="242" width="14" height="2" fill="#B08D57"/>
  <rect x="16" y="250" width="2" height="22" fill="#B08D57"/>
  <text x="23" y="256" font-family="Arial, sans-serif" font-size="5" font-weight="700" fill="#FFFFFF">BFA DESIGN</text>
  <text x="23" y="264" font-family="Arial, sans-serif" font-size="4.5" fill="#DDD8D1">Coast Art School</text>
  <text x="23" y="271" font-family="Arial, sans-serif" font-size="4.5" fill="#C6A876">2012</text>
  <rect x="16" y="280" width="2" height="22" fill="#B08D57"/>
  <text x="23" y="286" font-family="Arial, sans-serif" font-size="5" font-weight="700" fill="#FFFFFF">MA BRANDING</text>
  <text x="23" y="294" font-family="Arial, sans-serif" font-size="4.5" fill="#DDD8D1">North University</text>
  <text x="23" y="301" font-family="Arial, sans-serif" font-size="4.5" fill="#C6A876">2015</text>
  <!-- Sidebar: Languages -->
  <text x="16" y="328" font-family="Arial, sans-serif" font-size="6" font-weight="700" fill="#FFFFFF" letter-spacing="1.5">LANGUAGES</text>
  <rect x="16" y="332" width="14" height="2" fill="#B08D57"/>
  <rect x="16" y="341" width="4" height="4" fill="#B08D57" transform="rotate(45 18 343)"/>
  <text x="26" y="346" font-family="Arial, sans-serif" font-size="5" fill="#F5F3F0">English</text>
  <rect x="16" y="354" width="4" height="4" fill="#B08D57" transform="rotate(45 18 356)"/>
  <text x="26" y="359" font-family="Arial, sans-serif" font-size="5" fill="#F5F3F0">Spanish</text>
  <!-- Main: Experience -->
  <rect x="124" y="112" width="6" height="6" fill="#B08D57" transform="rotate(45 127 115)"/>
  <text x="138" y="119" font-family="Arial, sans-serif" font-size="7" font-weight="700" fill="#2E2C29" letter-spacing="1.5">EXPERIENCE</text>
  <line x1="124" y1="126" x2="284" y2="126" stroke="#E2DED8" stroke-width="1"/>
  <text x="124" y="142" font-family="Arial, sans-serif" font-size="5.5" font-weight="700" fill="#2E2C29">SENIOR DESIGNER</text>
  <text x="124" y="151" font-family="Arial, sans-serif" font-size="4.5" font-weight="600" fill="#B08D57">NOVA CREATIVE STUDIO</text>
  <text x="124" y="159" font-family="Arial, sans-serif" font-size="4.5" fill="#6B665F">2019 - Present</text>
  <rect x="130" y="166" width="4" height="4" fill="#B08D57" transform="rotate(45 132 168)"/>
  <rect x="140" y="165" width="120" height="2.5" rx="1" fill="#E2DED8"/>
  <rect x="130" y="176" width="4" height="4" fill="#B08D57" transform="rotate(45 132 178)"/>
  <rect x="140" y="175" width="110" height="2.5" rx="1" fill="#E2DED8"/>
  <text x="124" y="198" font-family="Arial, sans-serif" font-size="5.5" font-weight="700" fill="#2E2C29">BRAND DESIGNER</text>
  <text x="124" y="207" font-family="Arial, sans-serif" font-size="4.5" font-weight="600" fill="#B08D57">ATLAS MEDIA</text>
  <text x="124" y="215" font-family="Arial, sans-serif" font-size="4.5" fill="#6B665F">2015 - 2019</text>
  <!-- Main: Skills -->
  <rect x="124" y="232" width="6" height="6" fill="#B08D57" transform="rotate(45 127 235)"/>
  <text x="138" y="239" font-family="Arial, sans-serif" font-size="7" font-weight="700" fill="#2E2C29" letter-spacing="1.5">SKILLS</text>
  <line x1="124" y1="246" x2="284" y2="246" stroke="#E2DED8" stroke-width="1"/>
  <text x="124" y="260" font-family="Arial, sans-serif" font-size="5" font-weight="700" fill="#26241F">Brand Identity</text>
  <text x="284" y="260" text-anchor="end" font-family="Arial, sans-serif" font-size="4.5" font-weight="600" fill="#B08D57">92%</text>
  <rect x="124" y="264" width="160" height="4" fill="#E7E3DC"/>
  <rect x="124" y="264" width="147" height="4" fill="#2E2C29"/>
  <text x="124" y="282" font-family="Arial, sans-serif" font-size="5" font-weight="700" fill="#26241F">Motion Design</text>
  <text x="284" y="282" text-anchor="end" font-family="Arial, sans-serif" font-size="4.5" font-weight="600" fill="#B08D57">84%</text>
  <rect x="124" y="286" width="160" height="4" fill="#E7E3DC"/>
  <rect x="124" y="286" width="134" height="4" fill="#2E2C29"/>
  <!-- Main: Projects -->
  <rect x="124" y="306" width="6" height="6" fill="#B08D57" transform="rotate(45 127 309)"/>
  <text x="138" y="313" font-family="Arial, sans-serif" font-size="7" font-weight="700" fill="#2E2C29" letter-spacing="1.5">PROJECTS</text>
  <line x1="124" y1="320" x2="284" y2="320" stroke="#E2DED8" stroke-width="1"/>
  <rect x="124" y="328" width="160" height="52" rx="3" fill="none" stroke="#E2DED8" stroke-width="1"/>
  <rect x="124" y="328" width="14" height="2.5" fill="#B08D57"/>
  <text x="132" y="342" font-family="Arial, sans-serif" font-size="5" font-weight="700" fill="#2E2C29">REBRAND CAMPAIGN</text>
  <text x="132" y="351" font-family="Arial, sans-serif" font-size="4.5" fill="#B08D57">Figma / After Effects</text>
  <rect x="132" y="358" width="130" height="2.5" rx="1" fill="#E2DED8"/>
  <rect x="132" y="366" width="118" height="2.5" rx="1" fill="#E2DED8"/>
</svg>
