<svg xmlns="http://www.w3.org/2000/svg" width="300" height="400" viewBox="0 0 300 400">
  <rect width="300" height="400" fill="#FFFFFF"/>
  <text x="16" y="34" font-family="Arial, sans-serif" font-size="17" font-weight="800" fill="#0F172A" letter-spacing="-0.5">Jordan Blake</text>
  <text x="16" y="49" font-family="Arial, sans-serif" font-size="6.5" font-weight="600" fill="#0F766E" letter-spacing="1.5">PRODUCT DIRECTOR</text>
  <circle cx="22" cy="64" r="3" fill="#0F766E"/>
  <rect x="30" y="62" width="40" height="3" rx="1" fill="#64748B"/>
  <line x1="78" y1="58" x2="78" y2="70" stroke="#D9E2EC" stroke-width="1"/>
  <circle cx="88" cy="64" r="3" fill="#0F766E"/>
  <rect x="96" y="62" width="52" height="3" rx="1" fill="#64748B"/>
  <line x1="16" y1="78" x2="284" y2="78" stroke="#D9E2EC" stroke-width="1"/>
  <rect x="16" y="78" width="36" height="2" fill="#0F766E"/>
  <!-- Sidebar card -->
  <rect x="16" y="92" width="92" height="290" rx="14" fill="#EEF6F7" stroke="#D9E2EC"/>
  <rect x="34" y="106" width="56" height="56" rx="14" fill="#FFFFFF" stroke="#0F766E" stroke-width="1"/>
  <rect x="38" y="110" width="48" height="48" rx="12" fill="#D9E2EC"/>
  <rect x="28" y="177" width="2" height="7" rx="1" fill="#0F766E"/>
  <text x="34" y="184" font-family="Arial, sans-serif" font-size="6" font-weight="700" fill="#0F172A" letter-spacing="1">EDUCATION</text>
  <line x1="76" y1="181" x2="96" y2="181" stroke="rgba(15,118,110,0.22)" stroke-width="1"/>
  <text x="28" y="204" font-family="Arial, sans-serif" font-size="5.5" font-weight="700" fill="#1E293B">MBA Product</text>
  <text x="28" y="216" font-family="Arial, sans-serif" font-size="5" fill="#475569">Stanford</text>
  <text x="28" y="228" font-family="Arial, sans-serif" font-size="5" font-weight="600" fill="#0F766E">2016</text>
  <text x="28" y="256" font-family="Arial, sans-serif" font-size="6" font-weight="600" fill="#1E293B" letter-spacing="1">SKILLS</text>
  <line x1="28" y1="260" x2="96" y2="260" stroke="rgba(15,118,110,0.2)" stroke-width="1"/>
  <rect x="28" y="260" width="16" height="2" fill="#0F766E"/>
  <rect x="28" y="270" width="36" height="12" rx="4" fill="#FFFFFF" stroke="#D9E2EC"/>
  <rect x="68" y="270" width="28" height="12" rx="4" fill="#FFFFFF" stroke="#D9E2EC"/>
  <rect x="28" y="286" width="42" height="12" rx="4" fill="#FFFFFF" stroke="#D9E2EC"/>
  <text x="28" y="322" font-family="Arial, sans-serif" font-size="6" font-weight="600" fill="#1E293B" letter-spacing="1">LANGUAGES</text>
  <line x1="28" y1="326" x2="96" y2="326" stroke="rgba(15,118,110,0.2)" stroke-width="1"/>
  <rect x="28" y="326" width="16" height="2" fill="#0F766E"/>
  <text x="28" y="342" font-family="Arial, sans-serif" font-size="5.5" fill="#1E293B">English</text>
  <text x="96" y="342" text-anchor="end" font-family="Arial, sans-serif" font-size="5" fill="#64748B">Fluent</text>
  <!-- Main -->
  <text x="124" y="110" font-family="Arial, sans-serif" font-size="7" font-weight="600" fill="#1E293B" letter-spacing="1.2">SUMMARY</text>
  <line x1="124" y1="114" x2="284" y2="114" stroke="#D9E2EC" stroke-width="1"/>
  <rect x="124" y="114" width="22" height="2" fill="#0F766E"/>
  <rect x="124" y="126" width="160" height="3" rx="1" fill="#CBD5E1"/>
  <rect x="124" y="134" width="148" height="3" rx="1" fill="#CBD5E1"/>
  <rect x="124" y="142" width="136" height="3" rx="1" fill="#CBD5E1"/>
  <text x="124" y="170" font-family="Arial, sans-serif" font-size="7" font-weight="600" fill="#1E293B" letter-spacing="1.2">EXPERIENCE</text>
  <line x1="124" y1="174" x2="284" y2="174" stroke="#D9E2EC" stroke-width="1"/>
  <rect x="124" y="174" width="22" height="2" fill="#0F766E"/>
  <text x="124" y="192" font-family="Arial, sans-serif" font-size="7" font-weight="700" fill="#1E293B">Product Director</text>
  <text x="284" y="192" text-anchor="end" font-family="Arial, sans-serif" font-size="5" font-weight="600" fill="#0F766E">2020-25</text>
  <text x="124" y="204" font-family="Arial, sans-serif" font-size="5.5" fill="#475569">Northstar SaaS</text>
  <circle cx="128" cy="218" r="2" fill="#14B8A6"/>
  <rect x="136" y="216" width="120" height="2.5" rx="1" fill="#CBD5E1"/>
  <circle cx="128" cy="230" r="2" fill="#14B8A6"/>
  <rect x="136" y="228" width="110" height="2.5" rx="1" fill="#CBD5E1"/>
  <text x="124" y="258" font-family="Arial, sans-serif" font-size="7" font-weight="700" fill="#1E293B">Senior PM</text>
  <text x="284" y="258" text-anchor="end" font-family="Arial, sans-serif" font-size="5" font-weight="600" fill="#0F766E">2016-20</text>
  <text x="124" y="270" font-family="Arial, sans-serif" font-size="5.5" fill="#475569">Orbit Labs</text>
  <text x="124" y="298" font-family="Arial, sans-serif" font-size="7" font-weight="600" fill="#1E293B" letter-spacing="1.2">PROJECTS</text>
  <line x1="124" y1="302" x2="284" y2="302" stroke="#D9E2EC" stroke-width="1"/>
  <rect x="124" y="302" width="22" height="2" fill="#0F766E"/>
  <rect x="124" y="312" width="160" height="40" rx="8" fill="#F8FAFC" stroke="#D9E2EC"/>
  <text x="134" y="330" font-family="Arial, sans-serif" font-size="6" font-weight="700" fill="#1E293B">Growth Platform</text>
  <text x="134" y="342" font-family="Arial, sans-serif" font-size="5" fill="#0F766E">React / Node / Amplitude</text>
</svg>
