<svg xmlns="http://www.w3.org/2000/svg" width="600" height="800" viewBox="0 0 600 800">
  <rect width="204" height="800" fill="#1F3A34"/>
  <rect x="204" y="0" width="396" height="800" fill="#FFFFFF"/>
  <polygon points="204,0 232,0 204,28" fill="#18322C"/>
  <circle cx="102" cy="88" r="52" fill="#FFFFFF" stroke="#1F3A34" stroke-width="3"/>
  <circle cx="102" cy="88" r="44" fill="#295548"/>
  <text x="102" y="168" text-anchor="middle" font-family="Arial, sans-serif" font-size="18" fill="#F7F6F3">Aiden</text>
  <text x="102" y="192" text-anchor="middle" font-family="Arial, sans-serif" font-size="20" font-weight="700" fill="#F7F6F3">Brooks</text>
  <text x="102" y="212" text-anchor="middle" font-family="Arial, sans-serif" font-size="9" fill="#E7E4DD">Senior Software Engineer</text>
  <rect x="28" y="236" width="14" height="14" rx="2" fill="#D4B06A"/>
  <text x="50" y="247" font-family="Arial, sans-serif" font-size="10" font-weight="600" fill="#F7F6F3">Contact</text>
  <line x1="28" y1="254" x2="176" y2="254" stroke="#B88C45"/>
  <rect x="28" y="268" width="140" height="4" rx="2" fill="#BFC9C4"/>
  <rect x="28" y="280" width="120" height="4" rx="2" fill="#BFC9C4"/>
  <rect x="28" y="308" width="14" height="14" rx="2" fill="#D4B06A"/>
  <text x="50" y="319" font-family="Arial, sans-serif" font-size="10" font-weight="600" fill="#F7F6F3">About Me</text>
  <line x1="28" y1="326" x2="176" y2="326" stroke="#B88C45"/>
  <rect x="28" y="338" width="150" height="4" rx="2" fill="#BFC9C4"/>
  <rect x="228" y="36" width="18" height="18" rx="3" fill="#295548"/>
  <text x="254" y="50" font-family="Arial, sans-serif" font-size="13" font-weight="700" fill="#18322C">Education</text>
  <rect x="228" y="58" width="340" height="2" fill="#B88C45"/>
  <line x1="244" y1="78" x2="244" y2="220" stroke="#3E7A67" stroke-width="2"/>
  <circle cx="244" cy="86" r="5" fill="#D4B06A" stroke="#18322C" stroke-width="1.5"/>
  <text x="262" y="90" font-family="Arial, sans-serif" font-size="11" font-weight="700" fill="#18322C">B.S. Computer Science</text>
  <text x="520" y="90" text-anchor="end" font-family="Arial, sans-serif" font-size="10" fill="#295548">2015-2019</text>
  <rect x="228" y="248" width="18" height="18" rx="3" fill="#295548"/>
  <text x="254" y="262" font-family="Arial, sans-serif" font-size="13" font-weight="700" fill="#18322C">Experience</text>
  <rect x="228" y="270" width="340" height="2" fill="#B88C45"/>
  <line x1="244" y1="290" x2="244" y2="420" stroke="#3E7A67" stroke-width="2"/>
  <circle cx="244" cy="298" r="5" fill="#D4B06A" stroke="#18322C" stroke-width="1.5"/>
  <text x="262" y="302" font-family="Arial, sans-serif" font-size="11" font-weight="700" fill="#18322C">Senior Software Engineer</text>
</svg>
