<svg xmlns="http://www.w3.org/2000/svg" width="600" height="800" viewBox="0 0 600 800">
  <rect width="204" height="800" fill="#EAF3EE"/>
  <rect x="204" y="0" width="396" height="800" fill="#FFFFFF"/>
  <polygon points="204,0 232,0 204,28" fill="#C8DDD3"/>
  <circle cx="102" cy="88" r="52" fill="#FFFFFF" stroke="#EAF3EE" stroke-width="3"/>
  <circle cx="102" cy="88" r="44" fill="#C5D5CC"/>
  <text x="102" y="168" text-anchor="middle" font-family="Arial, sans-serif" font-size="18" fill="#1F5F53">Aiden</text>
  <text x="102" y="192" text-anchor="middle" font-family="Arial, sans-serif" font-size="20" font-weight="700" fill="#1F5F53">Brooks</text>
  <text x="102" y="212" text-anchor="middle" font-family="Arial, sans-serif" font-size="9" fill="#183B35">Senior Software Engineer</text>
  <rect x="28" y="236" width="14" height="14" rx="2" fill="#1F5F53"/>
  <text x="50" y="247" font-family="Arial, sans-serif" font-size="10" font-weight="600" fill="#183B35">Contact</text>
  <line x1="28" y1="254" x2="176" y2="254" stroke="#C8DDD3"/>
  <rect x="28" y="268" width="140" height="4" rx="2" fill="#888888"/>
  <rect x="28" y="280" width="120" height="4" rx="2" fill="#888888"/>
  <rect x="28" y="308" width="14" height="14" rx="2" fill="#1F5F53"/>
  <text x="50" y="319" font-family="Arial, sans-serif" font-size="10" font-weight="600" fill="#183B35">About Me</text>
  <line x1="28" y1="326" x2="176" y2="326" stroke="#C8DDD3"/>
  <rect x="28" y="338" width="150" height="4" rx="2" fill="#AAAAAA"/>
  <rect x="28" y="350" width="140" height="4" rx="2" fill="#AAAAAA"/>
  <rect x="228" y="36" width="18" height="18" rx="3" fill="#1F5F53"/>
  <text x="254" y="50" font-family="Arial, sans-serif" font-size="13" font-weight="700" fill="#183B35">Education</text>
  <rect x="228" y="58" width="340" height="2" fill="#B69A57"/>
  <line x1="244" y1="78" x2="244" y2="220" stroke="#2E6B5D" stroke-width="2"/>
  <circle cx="244" cy="86" r="5" fill="#2E6B5D"/>
  <text x="262" y="90" font-family="Arial, sans-serif" font-size="11" font-weight="700" fill="#183B35">B.S. Computer Science</text>
  <text x="520" y="90" text-anchor="end" font-family="Arial, sans-serif" font-size="10" fill="#555555">2015-2019</text>
  <text x="262" y="106" font-family="Arial, sans-serif" font-size="10" fill="#555555">State University</text>
  <circle cx="244" cy="140" r="5" fill="#2E6B5D"/>
  <text x="262" y="144" font-family="Arial, sans-serif" font-size="11" font-weight="700" fill="#183B35">M.S. Software Engineering</text>
  <text x="520" y="144" text-anchor="end" font-family="Arial, sans-serif" font-size="10" fill="#555555">2019-2021</text>
  <rect x="228" y="248" width="18" height="18" rx="3" fill="#1F5F53"/>
  <text x="254" y="262" font-family="Arial, sans-serif" font-size="13" font-weight="700" fill="#183B35">Experience</text>
  <rect x="228" y="270" width="340" height="2" fill="#B69A57"/>
  <line x1="244" y1="290" x2="244" y2="420" stroke="#2E6B5D" stroke-width="2"/>
  <circle cx="244" cy="298" r="5" fill="#2E6B5D"/>
  <text x="262" y="302" font-family="Arial, sans-serif" font-size="11" font-weight="700" fill="#183B35">Senior Software Engineer</text>
  <text x="520" y="302" text-anchor="end" font-family="Arial, sans-serif" font-size="10" fill="#555555">2021-Present</text>
  <text x="262" y="318" font-family="Arial, sans-serif" font-size="10" fill="#555555">Tech Corp</text>
</svg>
