<svg xmlns="http://www.w3.org/2000/svg" width="800" height="1000" viewBox="0 0 800 1000">
  <rect width="800" height="1000" fill="#F7F2EB"/>
  <circle cx="-60" cy="80" r="180" fill="#B99892" opacity="0.12"/>
  <circle cx="720" cy="60" r="120" fill="#B7A399" opacity="0.1"/>
  <circle cx="760" cy="120" r="150" fill="#EFE6DD" opacity="0.14"/>
  <circle cx="-80" cy="900" r="200" fill="#B99892" opacity="0.09"/>
  <circle cx="780" cy="940" r="130" fill="#B7A399" opacity="0.11"/>
  <text x="400" y="52" text-anchor="middle" font-family="Georgia,serif" font-size="22" font-weight="600" fill="#2A2420" letter-spacing="6">ROSEWOOD MODERN</text>
  <rect x="48" y="72" width="704" height="880" rx="4" fill="#FFFDF9" filter="url(#shadow)"/>
  <defs>
    <filter id="shadow" x="-4%" y="-2%" width="108%" height="106%">
      <feDropShadow dx="0" dy="6" stdDeviation="12" flood-color="#1F1A17" flood-opacity="0.08"/>
    </filter>
  </defs>
  <circle cx="130" cy="168" r="68" fill="none" stroke="#B99892" stroke-width="5"/>
  <circle cx="130" cy="168" r="58" fill="#E8E0D8"/>
  <text x="230" y="148" font-family="Georgia,serif" font-size="48" font-weight="700" fill="#2A2420">Elias Vance</text>
  <text x="230" y="188" font-family="Arial,sans-serif" font-size="14" font-weight="500" fill="#5C5148">Global Brand Strategist &amp; Marketing Director</text>
  <text x="230" y="218" font-family="Arial,sans-serif" font-size="11" fill="#6E6258">+1 (212) 555-0142 | elias.vance@email.com | linkedin.com/in/eliasvance | eliasvance.com</text>
  <text x="230" y="238" font-family="Arial,sans-serif" font-size="11" fill="#6E6258">New York, NY</text>
  <line x1="72" y1="258" x2="728" y2="258" stroke="#D6CCC4"/>
  <text x="72" y="296" font-family="Arial,sans-serif" font-size="15" font-weight="700" fill="#222222">Professional Summary</text>
  <rect x="72" y="310" width="420" height="8" rx="2" fill="#D6CCC4" opacity="0.45"/>
  <rect x="72" y="326" width="400" height="8" rx="2" fill="#D6CCC4" opacity="0.38"/>
  <rect x="72" y="342" width="380" height="8" rx="2" fill="#D6CCC4" opacity="0.32"/>
  <text x="72" y="390" font-family="Arial,sans-serif" font-size="15" font-weight="700" fill="#222222">Experience</text>
  <text x="72" y="420" font-family="Arial,sans-serif" font-size="12" font-weight="700" fill="#1F1A17" letter-spacing="0.5">GLOBAL BRAND DIRECTOR | LUXE CORP</text>
  <text x="72" y="440" font-family="Arial,sans-serif" font-size="11" fill="#6E6258">2021 - Present | New York, NY</text>
  <circle cx="80" cy="462" r="3" fill="#B7A399"/>
  <rect x="92" y="458" width="360" height="6" rx="2" fill="#D6CCC4" opacity="0.4"/>
  <circle cx="80" cy="478" r="3" fill="#B7A399"/>
  <rect x="92" y="474" width="340" height="6" rx="2" fill="#D6CCC4" opacity="0.35"/>
  <text x="72" y="520" font-family="Arial,sans-serif" font-size="15" font-weight="700" fill="#222222">Projects</text>
  <text x="72" y="548" font-family="Arial,sans-serif" font-size="12" font-weight="700" fill="#1F1A17" letter-spacing="0.5">'ATLAS ONE' CAMPAIGN | STRIPE</text>
  <rect x="72" y="558" width="400" height="6" rx="2" fill="#D6CCC4" opacity="0.35"/>
  <line x1="548" y1="272" x2="548" y2="900" stroke="#D6CCC4"/>
  <rect x="548" y="272" width="204" height="628" fill="#FAF6F1"/>
  <text x="572" y="304" font-family="Arial,sans-serif" font-size="14" font-weight="700" fill="#222222">Skills</text>
  <text x="572" y="332" font-family="Arial,sans-serif" font-size="10" font-weight="700" fill="#1F1A17" letter-spacing="1">BRAND STRATEGY</text>
  <text x="572" y="350" font-family="Arial,sans-serif" font-size="10" fill="#1F1A17">Global Branding</text>
  <text x="572" y="366" font-family="Arial,sans-serif" font-size="10" fill="#1F1A17">Storytelling</text>
  <text x="572" y="394" font-family="Arial,sans-serif" font-size="10" font-weight="700" fill="#1F1A17" letter-spacing="1">MARKETING INNOVATION</text>
  <text x="572" y="412" font-family="Arial,sans-serif" font-size="10" fill="#1F1A17">Growth Hacking</text>
  <text x="572" y="428" font-family="Arial,sans-serif" font-size="10" fill="#1F1A17">GTM Strategy</text>
  <text x="572" y="460" font-family="Arial,sans-serif" font-size="14" font-weight="700" fill="#222222">Education</text>
  <text x="572" y="486" font-family="Arial,sans-serif" font-size="11" font-weight="700" fill="#1F1A17">MBA, Marketing</text>
  <text x="572" y="504" font-family="Arial,sans-serif" font-size="10" fill="#6E6258">Columbia Business School</text>
  <text x="572" y="520" font-family="Arial,sans-serif" font-size="10" fill="#6E6258">2015 - 2017</text>
  <text x="572" y="556" font-family="Arial,sans-serif" font-size="14" font-weight="700" fill="#222222">Certifications</text>
  <text x="572" y="582" font-family="Arial,sans-serif" font-size="10" font-weight="700" fill="#1F1A17">PMP</text>
  <text x="572" y="598" font-family="Arial,sans-serif" font-size="10" fill="#6E6258">PMI</text>
  <text x="572" y="634" font-family="Arial,sans-serif" font-size="14" font-weight="700" fill="#222222">Languages</text>
  <text x="572" y="660" font-family="Arial,sans-serif" font-size="10" fill="#1F1A17">English (Native)</text>
  <text x="572" y="678" font-family="Arial,sans-serif" font-size="10" fill="#1F1A17">Spanish (Fluent)</text>
  <text x="572" y="714" font-family="Arial,sans-serif" font-size="14" font-weight="700" fill="#222222">Achievements</text>
  <text x="572" y="740" font-family="Arial,sans-serif" font-size="10" font-weight="700" fill="#1F1A17">Marketing Leader of the Year</text>
  <text x="572" y="758" font-family="Arial,sans-serif" font-size="10" fill="#6E6258">2023 | AdWeek Awards</text>
  <text x="400" y="972" text-anchor="middle" font-family="Georgia,serif" font-size="18" font-weight="600" fill="#B99892" letter-spacing="4">Rosewood Modern</text>
</svg>
