<svg xmlns="http://www.w3.org/2000/svg" width="300" height="400" viewBox="0 0 300 400">
  <rect width="300" height="400" fill="#F7F2EB"/>
  <circle cx="-20" cy="30" r="70" fill="#B99892" opacity="0.12"/>
  <circle cx="270" cy="20" r="50" fill="#B7A399" opacity="0.1"/>
  <circle cx="290" cy="50" r="65" fill="#EFE6DD" opacity="0.14"/>
  <circle cx="-30" cy="360" r="80" fill="#B99892" opacity="0.09"/>
  <circle cx="290" cy="380" r="55" fill="#B7A399" opacity="0.11"/>
  <rect x="18" y="28" width="264" height="344" rx="3" fill="#FFFDF9" stroke="#D6CCC4" stroke-width="0.5"/>
  <circle cx="48" cy="62" r="22" fill="none" stroke="#B99892" stroke-width="2"/>
  <circle cx="48" cy="62" r="18" fill="#E8E0D8"/>
  <text x="82" y="52" font-family="Georgia,serif" font-size="11" font-weight="700" fill="#2A2420">Elias Vance</text>
  <text x="82" y="64" font-family="Arial,sans-serif" font-size="3.5" font-weight="500" fill="#5C5148">Global Brand Strategist</text>
  <text x="82" y="74" font-family="Arial,sans-serif" font-size="2.5" fill="#6E6258">phone | email | linkedin</text>
  <line x1="28" y1="82" x2="272" y2="82" stroke="#D6CCC4"/>
  <text x="28" y="98" font-family="Arial,sans-serif" font-size="4.5" font-weight="700" fill="#222222">Professional Summary</text>
  <rect x="28" y="104" width="160" height="3" rx="1" fill="#D6CCC4" opacity="0.5"/>
  <rect x="28" y="110" width="150" height="3" rx="1" fill="#D6CCC4" opacity="0.4"/>
  <text x="28" y="128" font-family="Arial,sans-serif" font-size="4.5" font-weight="700" fill="#222222">Experience</text>
  <text x="28" y="138" font-family="Arial,sans-serif" font-size="3.5" font-weight="700" fill="#1F1A17">ROLE | COMPANY</text>
  <text x="28" y="146" font-family="Arial,sans-serif" font-size="3" fill="#6E6258">2020 - Present</text>
  <line x1="198" y1="88" x2="198" y2="340" stroke="#D6CCC4"/>
  <rect x="202" y="88" width="76" height="252" fill="#FAF6F1"/>
  <text x="206" y="104" font-family="Arial,sans-serif" font-size="4" font-weight="700" fill="#222222">Skills</text>
  <text x="206" y="116" font-family="Arial,sans-serif" font-size="2.8" font-weight="700" fill="#1F1A17" letter-spacing="0.3">BRAND STRATEGY</text>
  <text x="206" y="124" font-family="Arial,sans-serif" font-size="2.5" fill="#1F1A17">Global Branding</text>
  <text x="206" y="140" font-family="Arial,sans-serif" font-size="4" font-weight="700" fill="#222222">Education</text>
  <text x="206" y="152" font-family="Arial,sans-serif" font-size="2.8" font-weight="700" fill="#1F1A17">MBA</text>
  <text x="150" y="388" text-anchor="middle" font-family="Georgia,serif" font-size="7.5" font-weight="600" fill="#B99892" letter-spacing="1.5">ROSEWOOD MODERN</text>
</svg>
