<svg xmlns="http://www.w3.org/2000/svg" width="400" height="520" viewBox="0 0 400 520">
  <defs>
    <linearGradient id="bg" x1="0" y1="0" x2="1" y2="1">
      <stop offset="0%" stop-color="#f5f8fc"/>
      <stop offset="50%" stop-color="#eef4fa"/>
      <stop offset="100%" stop-color="#e8f0f8"/>
    </linearGradient>
    <filter id="blur" x="-10%" y="-10%" width="120%" height="120%">
      <feGaussianBlur stdDeviation="12"/>
    </filter>
  </defs>
  <rect width="400" height="520" fill="url(#bg)"/>
  <circle cx="70" cy="80" r="70" fill="#9ec5f8" opacity="0.28" filter="url(#blur)"/>
  <circle cx="340" cy="440" r="60" fill="#6aa7e8" opacity="0.2" filter="url(#blur)"/>
  <!-- Main shell -->
  <rect x="24" y="24" width="352" height="472" rx="22" fill="rgba(255,255,255,0.55)" stroke="rgba(255,255,255,0.92)" stroke-width="1.2"/>
  <!-- Header -->
  <rect x="40" y="40" width="320" height="88" rx="16" fill="rgba(255,255,255,0.72)" stroke="rgba(255,255,255,0.95)" stroke-width="1"/>
  <text x="56" y="72" font-family="Arial,sans-serif" font-size="18" font-weight="700" fill="#0f172a" letter-spacing="1">JULIAN PIERCE</text>
  <text x="56" y="90" font-family="Arial,sans-serif" font-size="7" fill="#64748b" letter-spacing="2">SENIOR PRODUCT STRATEGIST | DIGITAL INNOVATION</text>
  <circle cx="56" cy="108" r="8" fill="rgba(106,167,232,0.15)" stroke="rgba(106,167,232,0.25)"/>
  <circle cx="120" cy="108" r="8" fill="rgba(106,167,232,0.15)" stroke="rgba(106,167,232,0.25)"/>
  <circle cx="184" cy="108" r="8" fill="rgba(106,167,232,0.15)" stroke="rgba(106,167,232,0.25)"/>
  <text x="70" y="111" font-family="Arial,sans-serif" font-size="6" fill="#64748b">email</text>
  <text x="134" y="111" font-family="Arial,sans-serif" font-size="6" fill="#64748b">phone</text>
  <circle cx="330" cy="84" r="32" fill="#d4e4f4" stroke="#fff" stroke-width="3"/>
  <!-- Left column -->
  <rect x="40" y="140" width="210" height="72" rx="14" fill="rgba(255,255,255,0.65)" stroke="rgba(255,255,255,0.9)" stroke-width="0.8"/>
  <text x="56" y="162" font-family="Arial,sans-serif" font-size="8" font-weight="700" fill="#0f172a" letter-spacing="1.5">PROFESSIONAL SUMMARY</text>
  <rect x="56" y="172" width="180" height="3" rx="1" fill="#64748b" opacity="0.28"/>
  <rect x="56" y="180" width="175" height="3" rx="1" fill="#64748b" opacity="0.22"/>
  <rect x="56" y="188" width="170" height="3" rx="1" fill="#64748b" opacity="0.22"/>
  <rect x="40" y="222" width="210" height="160" rx="14" fill="rgba(255,255,255,0.65)" stroke="rgba(255,255,255,0.9)" stroke-width="0.8"/>
  <text x="56" y="244" font-family="Arial,sans-serif" font-size="8" font-weight="700" fill="#0f172a" letter-spacing="1.5">EXPERIENCE</text>
  <rect x="52" y="254" width="186" height="48" rx="10" fill="rgba(255,255,255,0.5)" stroke="rgba(255,255,255,0.82)" stroke-width="0.6"/>
  <text x="62" y="270" font-family="Arial,sans-serif" font-size="7" font-weight="700" fill="#0f172a">Senior Product Strategist</text>
  <text x="62" y="282" font-family="Arial,sans-serif" font-size="6" fill="#6aa7e8">Innovation Labs</text>
  <text x="210" y="282" font-family="Arial,sans-serif" font-size="5.5" fill="#64748b" text-anchor="end">2020  Present</text>
  <circle cx="66" cy="292" r="2.5" fill="#6aa7e8" opacity="0.75"/>
  <rect x="74" y="290" width="150" height="2.5" rx="1" fill="#64748b" opacity="0.25"/>
  <rect x="52" y="310" width="186" height="48" rx="10" fill="rgba(255,255,255,0.5)" stroke="rgba(255,255,255,0.82)" stroke-width="0.6"/>
  <text x="62" y="326" font-family="Arial,sans-serif" font-size="7" font-weight="700" fill="#0f172a">Product Manager</text>
  <text x="62" y="338" font-family="Arial,sans-serif" font-size="6" fill="#6aa7e8">Tech Corp</text>
  <text x="210" y="338" font-family="Arial,sans-serif" font-size="5.5" fill="#64748b" text-anchor="end">2016  2020</text>
  <!-- Right column -->
  <rect x="262" y="140" width="98" height="88" rx="14" fill="rgba(255,255,255,0.65)" stroke="rgba(255,255,255,0.9)" stroke-width="0.8"/>
  <text x="274" y="162" font-family="Arial,sans-serif" font-size="8" font-weight="700" fill="#0f172a" letter-spacing="1.2">SKILLS</text>
  <rect x="274" y="172" width="42" height="14" rx="7" fill="rgba(255,255,255,0.7)" stroke="rgba(255,255,255,0.9)" stroke-width="0.5"/>
  <rect x="320" y="172" width="32" height="14" rx="7" fill="rgba(255,255,255,0.7)" stroke="rgba(255,255,255,0.9)" stroke-width="0.5"/>
  <rect x="274" y="192" width="38" height="14" rx="7" fill="rgba(255,255,255,0.7)" stroke="rgba(255,255,255,0.9)" stroke-width="0.5"/>
  <rect x="316" y="192" width="36" height="14" rx="7" fill="rgba(255,255,255,0.7)" stroke="rgba(255,255,255,0.9)" stroke-width="0.5"/>
  <rect x="274" y="212" width="44" height="14" rx="7" fill="rgba(255,255,255,0.7)" stroke="rgba(255,255,255,0.9)" stroke-width="0.5"/>
  <rect x="262" y="238" width="98" height="72" rx="14" fill="rgba(255,255,255,0.65)" stroke="rgba(255,255,255,0.9)" stroke-width="0.8"/>
  <text x="274" y="260" font-family="Arial,sans-serif" font-size="8" font-weight="700" fill="#0f172a" letter-spacing="1.2">EDUCATION</text>
  <text x="274" y="276" font-family="Arial,sans-serif" font-size="6.5" font-weight="700" fill="#0f172a">MBA</text>
  <text x="274" y="286" font-family="Arial,sans-serif" font-size="6" fill="#64748b">Stanford University</text>
  <rect x="262" y="318" width="98" height="64" rx="14" fill="rgba(255,255,255,0.65)" stroke="rgba(255,255,255,0.9)" stroke-width="0.8"/>
  <text x="274" y="340" font-family="Arial,sans-serif" font-size="7" font-weight="700" fill="#0f172a" letter-spacing="1">CERTIFICATIONS</text>
  <rect x="274" y="350" width="72" height="2.5" rx="1" fill="#64748b" opacity="0.28"/>
  <rect x="274" y="358" width="68" height="2.5" rx="1" fill="#64748b" opacity="0.22"/>
</svg>
