<svg xmlns="http://www.w3.org/2000/svg" width="320" height="420" viewBox="0 0 320 420">
  <rect width="320" height="420" fill="#FAFBF8"/>
  <rect x="12" y="10" width="296" height="2" fill="#355A4A"/>
  <rect x="12" y="10" width="2" height="72" fill="#355A4A"/>
  <rect x="180" y="10" width="2" height="72" fill="#355A4A"/>
  <rect x="12" y="80" width="296" height="2" fill="#355A4A"/>
  <rect x="12" y="0" width="88" height="48" fill="#DDE9E2"/>
  <circle cx="52" cy="44" r="28" fill="#FFFFFF" stroke="#355A4A" stroke-width="1.5"/>
  <text x="100" y="36" font-family="Arial, sans-serif" font-size="16" font-weight="800" fill="#303030">Shawn</text>
  <text x="100" y="52" font-family="Arial, sans-serif" font-size="8" font-weight="700" fill="#C4A25A" letter-spacing="1">GARCIA</text>
  <circle cx="196" cy="32" r="8" fill="#355A4A"/>
  <rect x="210" y="28" width="80" height="3" rx="1.5" fill="#666666"/>
  <rect x="0" y="84" width="198" height="336" fill="#FAFBF8"/>
  <rect x="198" y="84" width="122" height="336" fill="#DDE9E2"/>
  <rect x="20" y="98" width="18" height="2" fill="#355A4A"/>
  <rect x="20" y="108" width="140" height="3" rx="1.5" fill="#C9C9C9"/>
  <rect x="210" y="98" width="18" height="2" fill="#355A4A"/>
  <rect x="210" y="120" width="90" height="6" rx="3" fill="#355A4A"/>
</svg>
